<?xml version="1.0" standalone="no"?>
<!DOCTYPE svg PUBLIC "-//W3C//DTD SVG 1.1//EN" "http://www.w3.org/Graphics/SVG/1.1/DTD/svg11.dtd" >
<svg xmlns="http://www.w3.org/2000/svg">
<metadata></metadata>
<defs>
<font id="kg_next_to_me_solidregular" horiz-adv-x="916" >
<font-face units-per-em="1048" ascent="838" descent="-210" />
<missing-glyph horiz-adv-x="405" />
<glyph unicode="&#xd;" horiz-adv-x="405" />
<glyph unicode=" "  horiz-adv-x="405" />
<glyph unicode="&#x09;" horiz-adv-x="405" />
<glyph unicode="&#xa0;" horiz-adv-x="405" />
<glyph unicode="!" horiz-adv-x="311" d="M160 0q-17 -2 -36.5 4t-35 19t-25.5 33t-9 45q-6 79 93 93q1 0 4.5 0.5t5.5 0.5q14 0 28 -2t27 -7q2 -1 8.5 -4t7.5 -4q15 -8 22.5 -21t11 -26.5t4 -25t-0.5 -16.5q0 -16 -6 -25.5t-15 -23.5q-13 -21 -36.5 -30.5t-47.5 -9.5zM66 752q0 4 1 16t1.5 26t1 27.5t0.5 19.5 q2 19 3.5 43t8.5 42q1 2 0.5 14t0.5 14q5 12 9.5 22.5t11.5 18.5t17.5 12.5t27.5 4.5q29 0 53 -17t34 -44q1 -1 0.5 -4.5t-0.5 -4.5q7 -33 10 -67.5t3 -69.5q0 -29 -2.5 -50t-2.5 -50v-41q0 -9 1 -30t1.5 -45t1 -45.5t0.5 -29.5q-5 -12 -3.5 -23t-0.5 -25q0 -2 -0.5 -7 t-1 -11.5t-1.5 -12t-1 -6.5v-7q-1 -5 -0.5 -21.5t-0.5 -38t-4 -44.5t-11.5 -42.5t-23 -31.5t-38.5 -10q-16 0 -30 3.5t-25 17.5q-8 10 -11 22t-3.5 25t-0.5 25.5t-1 24.5q0 2 -1.5 11t-3 19.5t-3 19.5t-1.5 11q0 3 -0.5 9.5t-1 13.5t-1.5 13t-1 8q0 4 -0.5 18t-1 30.5 t-1.5 31t-1 18.5q-2 38 -5 76.5t-3 78.5v42z" />
<glyph unicode="&#x22;" horiz-adv-x="579" d="M133 656q9 11 14 20.5t7.5 19t3 20t2.5 23.5q-40 -8 -66 10.5t-30 57.5q0 32 19 60t66 33q18 4 41.5 -2.5t42.5 -21.5t30.5 -38.5t5.5 -52.5q-3 -25 -10.5 -48t-21 -41.5t-34.5 -32.5t-53 -22q-17 -2 -17 11v4zM377 693q9 11 14 20.5t7.5 19t3 20t2.5 23.5 q-40 -8 -66 10.5t-30 57.5q0 32 19 60t66 33q18 4 41.5 -2.5t42.5 -21.5t30.5 -38.5t5.5 -52.5q-3 -25 -10.5 -48t-21 -41.5t-34.5 -32.5t-53 -22q-17 -2 -17 11v4z" />
<glyph unicode="#" horiz-adv-x="693" d="M583 417q-5 -1 -17 -2t-26 -2q1 -17 2.5 -39.5t-3 -42t-19 -31t-47.5 -6.5q-33 -2 -48.5 5t-21.5 22t-6 37.5t-3 50.5l-48 -1q0 -18 2 -40.5t-2 -42t-18.5 -31t-47.5 -6.5q-33 -2 -48.5 4.5t-21.5 21.5t-6.5 36.5t-3.5 49.5q-4 0 -5 3q-29 2 -51.5 1.5t-38 4.5t-23.5 20 t-7 49q-6 32 5 47t30.5 20.5t42.5 4.5t40 -1l-1 70q-5 2 -5 3q-29 2 -51.5 1.5t-38 4.5t-23.5 20t-7 49q-6 33 5.5 48.5t32 20t44 3.5t40.5 -1v39t1 28q1 9 -0.5 18.5t0 17.5t7.5 14t22 9q4 1 18.5 3t18.5 2h3l1 1q2 -1 7.5 -2t11.5 -2t11 -2t6 -1q9 -6 13 -13.5t5.5 -16 t2.5 -17.5t4 -18q0 -8 1.5 -25.5t2.5 -36.5l57 1v20.5t0.5 22.5t1 19.5t0.5 12.5q1 9 0 18.5t0 17.5t7 14t22 9q4 1 18 2.5t18 2.5h4q5 -2 20 -3.5t17 -2.5q9 -6 13 -13.5t5.5 -16t2.5 -17.5t4 -18q1 -8 1.5 -28t2.5 -40q14 0 26.5 -0.5t17.5 -0.5q20 -5 36 -5t30 -17 q1 -2 3.5 -17t4.5 -20v-4q-1 -4 -2 -18t-2 -18q-2 -16 -8 -22.5t-14 -8t-17.5 -0.5t-18.5 0q-5 -1 -19.5 -2t-29.5 -2l1 -84q14 0 26.5 -0.5t17.5 -0.5q20 -5 36 -5t30 -17q1 -2 3.5 -17t4.5 -20v-4q-1 -4 -2 -18t-2 -18q-2 -16 -8 -22.5t-14 -8t-17.5 -0.5t-18.5 0z M332 627l1 -80l54 1l-1 80z" />
<glyph unicode="$" horiz-adv-x="780" d="M299 -5v3h9q-23 7 -44.5 17t-42.5 23q-2 2 -7.5 6t-11.5 8.5t-11 8.5t-7 6l-3 1q-6 -11 -18 -19t-21 -13q-10 -4 -19 -3.5t-19 3.5q-18 4 -27.5 12.5t-24.5 19.5q0 1 -3.5 3t-3.5 3q-1 2 -1.5 7t-0.5 6q-7 24 -11.5 44t-7 39t-2.5 38.5t3 43.5q0 5 2 20t2 20 q11 27 34 43.5t53 8.5q3 0 8 -1t6 -2q5 -3 9 -7q4 -3 8 -5.5t6 -4.5q5 -4 14.5 -13t10.5 -10q1 0 6 -10.5t7 -15.5l18 -36t22 -35l22 -20q8 -9 19.5 -16t24.5 -12q-1 20 -2.5 37t-0.5 25q0 2 1 11t3 14q6 39 2.5 75t-1.5 74q1 8 1 21v28.5t-0.5 31t-0.5 28.5q-7 2 -11 4 l-6 3q-1 1 -8.5 4.5t-16.5 7t-18.5 7t-15.5 6.5q-6 2 -11 5.5t-11 2.5q-3 1 -11.5 8t-18 15t-18 15.5t-10.5 10.5q-2 2 -6 9t-9 15.5t-10 16.5t-8 12q-2 2 -4.5 6.5l-5 9t-4.5 8.5t-2 5q-1 2 -4.5 12t-8 22.5t-8.5 25t-6 20.5q-4 12 -3 27.5t3 29.5q5 32 15.5 62.5 t31.5 53.5q2 1 9.5 5.5t9.5 5.5q1 2 7 10.5t8 10.5q16 16 39 23t45 14q1 1 4.5 2.5t8 3t8.5 3t5 1.5q2 0 8.5 0.5t7.5 0.5q5 0 11 0.5t11 1.5q1 39 6 60t11.5 31.5t13.5 13.5t11 6q8 1 22.5 2t15.5 1q2 -1 16.5 0t25.5 -1q26 -5 31.5 -33t1.5 -84q6 -1 11.5 -2t11.5 -2 q26 -7 50.5 -13t53.5 -15q1 0 6.5 -2.5t7.5 -4.5q1 -1 4 -3.5t4 -4.5h4q2 4 6 9t11.5 9t20 6t31.5 0q24 0 34.5 -11t14 -28.5t3.5 -41t3 -49.5l-1 -71q3 -11 1.5 -22t-10.5 -20t-29 -15.5t-54 -7.5q-13 3 -20 5t-11 6.5t-7 11t-7 18.5q-5 20 -9 34t-13 34l-2 5.5t-4.5 12.5 t-4.5 13t-3 7q-36 12 -61 16t-39 8q-3 1 -7 1.5t-7 1.5q-3 -43 -6 -95.5t-3 -115.5q0 -4 -0.5 -12.5t-1 -18.5t-0.5 -19v-14q26 -11 51.5 -20.5t51.5 -20.5q69 -38 132 -92q38 -36 55 -77.5t24 -92.5q6 -19 4.5 -51.5t-7.5 -66t-15.5 -62t-19.5 -38.5q-17 -24 -36 -40.5 t-41.5 -27.5t-47.5 -17.5t-53 -12.5q-2 -1 -13.5 -2.5t-16.5 -3.5q-11 -1 -25 -2t-29 -2q2 -37 -2 -55.5t-13 -27t-22 -10.5t-29 -5q-41 -6 -61 11.5t-15 38.5zM477 435q-4 1 -18.5 8.5t-28.5 14.5q2 -36 2 -67.5t-6 -53.5v-59q0 -6 0.5 -15.5t1 -18.5t0.5 -16.5v-8.5 q0 -6 0.5 -16t0.5 -22.5t0.5 -26t1.5 -24.5q8 2 12 2l35 4h3h3q4 0 5 1q16 5 34 10.5t34 13t29 18.5t19 28q0 1 1.5 6l3 10t3 9.5t1.5 5.5q1 0 3 6.5t2 8.5q0 1 1 2q0 1 0.5 1.5t0.5 1.5q5 35 -11.5 68.5t-39.5 63.5h-3q-1 0 -2 1l-42 29q-2 1 -8.5 3t-14 4.5t-14 4.5 t-9.5 3zM290 666q1 -1 2.5 -1t3.5 -1v27q1 16 1 38t-0.5 46.5t-2 50t-2.5 48.5q-27 -10 -51 -29q-10 -17 -17 -28t-9 -31q-4 -26 5 -48.5t28 -44.5q8 -10 21 -13.5t21 -13.5z" />
<glyph unicode="%" horiz-adv-x="1106" d="M53 768q0 53 15.5 99.5t50.5 87.5q14 17 33.5 26.5t39.5 19.5q19 9 36.5 12.5t39.5 3.5q98 0 149.5 -46t70.5 -143v-8q1 -8 4.5 -44t-4.5 -94q0 -2 -3.5 -13.5t-4.5 -13.5q-3 -14 -7 -28t-12 -27q-1 -1 -5.5 -6t-10 -12t-10.5 -13.5t-8 -9.5q-15 -18 -33 -28.5t-38 -17 t-41 -10t-42 -6.5q-2 0 -9.5 -2t-9.5 -2h-5h-4q-82 16 -126.5 58t-57.5 126v17q0 1 -1.5 8.5t-3 15.5t-2.5 15.5t-1 9.5v25zM198 739q0 -35 8 -64.5t35 -54.5q11 -9 22 -14.5t25 -5.5q13 0 24.5 10t20.5 24t15.5 29t8.5 26q1 4 2 10.5t2.5 13.5t2.5 12.5t1 6.5v29 q0 22 -3.5 42t-11.5 40q-2 4 -4 4l-15 27l-1 2v2q-2 3 -6.5 7.5l-6.5 6.5q0 2 -6.5 2.5t-11.5 2.5q-1 0 -5 -0.5t-8.5 -1t-8 -1.5t-4.5 -1q-25 -8 -39.5 -24.5t-22.5 -38t-10.5 -45.5t-2.5 -46zM627 285q0 53 15.5 99.5t50.5 87.5q14 17 33.5 26.5t39.5 19.5q19 9 36.5 12.5 t39.5 3.5q98 0 149.5 -46t70.5 -143v-8q1 -8 4.5 -44t-4.5 -94q0 -2 -3.5 -13.5t-4.5 -13.5q-3 -14 -7 -28t-12 -27q-1 -1 -5.5 -6t-10 -12t-10.5 -13.5t-8 -9.5q-15 -18 -33 -28.5t-38 -17t-41 -10t-42 -6.5q-2 0 -9.5 -2t-9.5 -2h-5h-4q-82 16 -126.5 58t-57.5 126v17 q0 1 -1.5 8.5t-3 15.5t-2.5 15.5t-1 9.5v25zM772 256q0 -35 8 -64.5t35 -54.5q11 -9 22 -14.5t25 -5.5q13 0 24.5 10t20.5 24t15.5 29t8.5 26q1 4 2 10.5t2.5 13.5t2.5 12.5t1 6.5v29q0 22 -3.5 42t-11.5 40q-2 4 -4 4l-15 27l-1 2v2q-2 3 -6.5 7.5l-6.5 6.5q0 2 -6.5 2.5 t-11.5 2.5q-1 0 -5 -0.5t-8.5 -1t-8 -1.5t-4.5 -1q-25 -8 -39.5 -24.5t-22.5 -38t-10.5 -45.5t-2.5 -46zM282 54q-2 16 1 32t10 34t16 37.5t18 41.5q0 2 1.5 6.5t2.5 6.5q4 9 13 28t18.5 39.5t17.5 38t11 23.5q8 17 19 30.5t18 30.5q10 25 21 49t23 48q1 1 4 6.5t6.5 11.5 t6.5 11.5t4 6.5q1 3 4 9l4 8q11 29 24 55t28 54q5 8 10.5 16t9.5 16q1 3 6 12.5t10.5 20.5t10.5 20.5t6 11.5q0 1 2.5 4.5t5 7.5t5 7.5t3.5 4.5q2 4 6.5 11.5t5.5 9.5q18 35 34.5 71.5t38.5 69.5q-2 2 0.5 6.5t5.5 9t6 8.5t3 6q10 16 17 24t12.5 11.5t10.5 4t13 0.5 q33 -3 53.5 -23t16.5 -43q0 -1 -2 -6l-4 -10l-4 -10t-2 -6q-14 -37 -29.5 -71.5t-31.5 -70.5q-1 -2 -3 -8t-5 -12.5t-5 -12.5t-3 -7q-22 -42 -45.5 -80.5t-43.5 -81.5q-8 -18 -13 -31.5t-10 -26t-12 -26t-18 -30.5q-21 -38 -39.5 -74t-37.5 -75q-20 -42 -37 -82t-40 -80 q-1 -2 -9 -15t-18 -30.5t-20 -34t-15 -23.5q-7 -10 -12.5 -15.5t-11.5 -8t-15 -3.5t-22 -2q-3 0 -12.5 1t-12.5 3q-14 7 -22 14.5t-8 20.5z" />
<glyph unicode="&#x26;" horiz-adv-x="859" d="M66 114q-12 21 -19 46.5t-8.5 52.5t2 53.5t12.5 49.5q11 29 22.5 52t25.5 43.5t31 39.5t40 40q20 19 42 35.5t40 37.5q-13 26 -27.5 49.5t-27.5 47.5t-22 50t-10 58q-2 30 3.5 64t19.5 61q16 24 32.5 43t37 33t48 22.5t66.5 11.5q7 0 20.5 0.5t14.5 -0.5q1 0 7 -1 t13 -2.5t14 -3.5t11 -3q17 -5 40.5 -15.5t37.5 -21.5q1 -1 7 -5.5t12.5 -10t12 -10t7.5 -5.5q8 -6 16.5 -21.5t15.5 -33t11.5 -32t5.5 -18.5q1 -11 1 -23t-4 -23q-11 -55 -30 -93t-41.5 -67t-45.5 -53t-42 -51v-4q2 -7 5 -11q16 -16 25 -27.5t17.5 -23t18.5 -25t29 -34.5 q6 -9 20 -22.5t23 -20.5q8 23 11 34.5t4 27.5t2.5 45t7.5 88q1 15 12 26.5t26.5 17.5t33.5 6.5t34 -5t27 -18t13 -32.5q1 -44 -11.5 -77t-27 -64.5t-26.5 -66.5t-10 -81q0 -2 1 -9t1 -9q12 -13 27 -23.5t29 -21.5q1 -1 5.5 -5t10 -8.5t9.5 -8.5l5 -5q1 0 6 -4t11 -8.5t11 -8 t6 -4.5q10 -9 13.5 -27t2.5 -32q0 -1 -0.5 -1.5t-0.5 -1.5v-2q-8 -15 -16.5 -24.5t-21.5 -20.5q-6 -6 -8 -8.5t-3.5 -3t-4.5 0t-10 1.5q-12 1 -26 6.5t-28 13.5t-26.5 17.5t-21.5 17.5q-2 3 -9.5 11.5t-8.5 11.5q-2 1 -7 6.5t-6 7.5q0 1 -4 5.5t-9.5 10.5t-10.5 10.5t-8 5.5 h-2q-23 -63 -86.5 -103.5t-156.5 -50.5q-31 -2 -68.5 3.5t-74 17.5t-68.5 30t-52 43q-1 1 -4 6t-7.5 11.5t-8.5 13t-6 9.5zM195 231q2 -32 23 -52t46 -37q20 -14 51.5 -18t54.5 -2q36 2 63.5 15t47.5 43q3 5 8.5 14.5t5.5 10.5q1 0 1 5v7t-0.5 7t-1.5 5q0 1 -6 10t-11 14 q-3 3 -8.5 10t-11.5 14.5t-11.5 14t-6.5 8.5q-16 18 -33.5 35.5t-30.5 39.5q-1 1 -3 5t-4 8.5t-4 8.5t-2 5q-2 4 -7.5 13.5t-11.5 19t-11.5 16.5t-6.5 7q-11 -1 -21.5 -12.5t-15.5 -17.5q-2 -3 -7 -8.5t-10 -11.5t-9 -11.5t-5 -7.5q-3 -3 -7 -9t-8.5 -12t-7.5 -10.5t-4 -5.5 l-4 -8t-6.5 -14l-7 -16t-4.5 -12q0 -1 -1.5 -5.5t-2.5 -6.5q-2 -11 -6 -29t-3 -30zM332 783q2 -21 4.5 -35.5t7.5 -34.5q0 -3 3.5 -14t8 -23.5t8 -23.5t4.5 -14q1 -2 2 -6.5t2 -5.5l2 -1q1 0 2 1q1 0 4 1.5t4 2.5q3 3 10 11t15.5 16.5t15.5 16.5t10 12q14 18 24.5 39t17 41 t8.5 37.5t-1 26.5q-11 18 -31.5 30t-40.5 10q-41 -2 -60.5 -20t-19.5 -67z" />
<glyph unicode="'" horiz-adv-x="336" d="M133 656q9 11 14 20.5t7.5 19t3 20t2.5 23.5q-40 -8 -66 10.5t-30 57.5q0 32 19 60t66 33q18 4 41.5 -2.5t42.5 -21.5t30.5 -38.5t5.5 -52.5q-3 -25 -10.5 -48t-21 -41.5t-34.5 -32.5t-53 -22q-17 -2 -17 11v4z" />
<glyph unicode="(" horiz-adv-x="472" d="M404 950q-12 -8 -21.5 -12.5t-21.5 -10.5q-1 0 -6.5 -2t-6.5 -3q-27 -20 -51 -56.5t-37 -71.5q-11 -31 -24 -63.5t-18 -64.5q0 -1 0.5 -6.5t-0.5 -7.5q0 -2 -1.5 -11t-3.5 -19t-4 -18.5t-2 -11.5q0 -2 0.5 -12.5t-0.5 -12.5q0 -3 -0.5 -12.5t-1 -20t-1 -20t-0.5 -11.5 v-24q0 -31 5.5 -64.5t15.5 -62.5q1 -1 4 -8t3 -9q1 -2 2 -7t2 -11.5t2 -12t1 -6.5q0 -2 1.5 -6.5t2.5 -6.5q16 -54 42.5 -96.5t64.5 -72.5q11 -8 25 -12t27 -11.5t22.5 -23t12.5 -45.5q-2 -15 -3 -30t-3.5 -26.5t-8 -18.5t-16.5 -7q-22 1 -35.5 4t-25 8.5t-24.5 14t-33 20.5 q-2 1 -7.5 5t-12 7.5t-12 7t-6.5 4.5q-23 16 -44.5 40.5t-40 53.5t-34 60t-26.5 61q-1 1 -3 7.5t-4.5 14t-4.5 14t-2 8.5q-10 27 -12 50t-10 49l-2 4q-1 2 -1 5q0 2 0.5 7t-0.5 6q0 1 -1 7t-2.5 12t-3 11.5t-1.5 6.5v14q0 1 -0.5 8t-1.5 14.5t-1.5 14t-0.5 8.5 q0 7 -0.5 18.5l-1 23t-1 20.5t-0.5 11q0 3 1.5 16.5t1.5 19.5q5 35 9.5 69t15.5 67q1 2 5.5 13.5t6.5 13.5q0 2 2.5 11.5t4.5 11.5q1 1 4 7.5t6.5 14t6.5 14t4 8.5q0 2 1.5 7.5t1.5 7.5q3 6 8.5 16t11.5 20.5t12 20.5t9 16q1 2 6.5 10.5t7.5 12.5q1 2 3.5 5t3.5 4t6 6.5 t12 12.5t13.5 14t9.5 10q16 15 37 27.5t40 23.5q38 16 67 23.5t44.5 -0.5t14.5 -35t-23 -80h-1z" />
<glyph unicode=")" horiz-adv-x="450" d="M63 82q12 8 21.5 12.5t21.5 10.5q1 0 6.5 2t6.5 3q27 20 51 56.5t37 71.5q11 31 24 63.5t18 64.5q0 1 -0.5 6.5t0.5 7.5q0 2 1.5 11t3.5 19t4 18.5t2 11.5q0 2 -0.5 12.5t0.5 12.5q0 3 0.5 12.5t1 20t1 20t0.5 11.5v24q0 31 -5.5 64.5t-15.5 62.5q-1 1 -4 8t-3 9 q-1 1 -2 6.5t-2 12t-2 11.5t-1 7t-1.5 6.5t-2.5 6.5q-16 54 -42.5 96.5t-64.5 72.5q-11 8 -25 12t-27 11.5t-22.5 23t-12.5 45.5q2 15 3 30t3.5 26.5t8 18.5t16.5 7q22 -1 35.5 -4t25 -8.5t24.5 -14t33 -20.5q1 -2 7 -5.5t12.5 -7t12 -7t6.5 -4.5q23 -16 44.5 -40.5 t40 -53.5t34 -60t26.5 -61q1 -1 3 -7.5t4.5 -14t4.5 -14t2 -8.5q10 -27 12 -50t10 -49q0 -2 1 -4q0 -1 0.5 -1.5t0.5 -1.5t1 -2q0 -2 -0.5 -7t0.5 -6q0 -2 1 -7.5t2.5 -11.5t3 -11.5t1.5 -6.5v-14q0 -2 0.5 -8.5t1.5 -14t1.5 -14t0.5 -8.5q0 -7 0.5 -18.5l1 -23t1 -21 t0.5 -10.5q0 -3 -1.5 -16.5t-1.5 -19.5q-5 -35 -9.5 -69t-15.5 -67q-1 -2 -5.5 -13.5t-6.5 -13.5q0 -2 -2.5 -11.5t-4.5 -11.5l-4 -8t-6.5 -13.5t-6.5 -14t-4 -8.5q0 -2 -1.5 -7.5t-1.5 -7.5q-3 -6 -8.5 -16t-11.5 -20.5t-12 -20.5t-9 -16q-1 -2 -6.5 -10.5t-7.5 -12.5 q-1 -2 -3.5 -5t-3.5 -4t-6 -6.5t-12 -12.5t-13.5 -14t-9.5 -10q-16 -15 -37 -27.5t-40 -23.5q-38 -16 -67 -23.5t-44.5 0.5t-14.5 35t23 80h1z" />
<glyph unicode="*" horiz-adv-x="662" d="M244 373q0 13 1.5 27.5t1.5 25.5v4q-3 -1 -12.5 -5.5t-11.5 -6.5q-1 0 -2.5 -3.5t-1.5 -4.5q-2 -2 -4.5 -5t-3.5 -3q-2 -1 -10 -2t-10 -2q-24 -10 -44 -21.5t-46 -11.5q-11 0 -17 1t-11 12q-2 4 -5 11.5t-3 8.5v6q0 9 1 23t19 28q1 0 3.5 3t4.5 5q16 12 32 22.5t33 21.5 q3 2 11 6t16.5 8.5t15 9t6.5 7.5v2q-4 0 -4 4q-5 3 -16 9.5t-23 14.5t-23 14.5t-15 9.5l-3.5 3t-8 7t-9.5 8t-8 7q-13 11 -18.5 30.5t-5.5 35.5q0 15 15.5 23t25.5 8q31 0 60 -15.5t53 -33.5q1 -1 5 -4.5t9 -7.5t9 -7.5t5 -4.5q2 -2 6.5 -4.5t5.5 -3.5l2 -1q1 0 2 1 q6 24 7.5 44t3 39t5 37.5t12.5 38.5q11 23 22 27t27 5q15 1 23 -4.5t12.5 -14.5t6 -20.5t3.5 -22.5q0 -2 2 -10t2 -10v-65q0 -2 2 -10t2 -10v-24q14 4 24 16t21 20q23 18 47.5 23.5t53.5 5.5q5 0 16 -0.5t12 -0.5q2 0 9.5 -4t11.5 -6q3 -1 5.5 -6t4 -11t2 -12t0.5 -9 q0 -23 -9.5 -36.5t-27.5 -28.5l-8 -4q-1 0 -5.5 -2l-9 -4t-8.5 -4t-5 -2q-2 -1 -8.5 -4t-8.5 -4q-3 -2 -14 -8t-14 -8q-5 -3 -15 -10t-10 -13l1 -2l4 -4q1 0 6 -2.5l10 -5l10 -5t6 -3.5q2 -1 9.5 -7t10.5 -9q12 -10 25 -20t20 -25q2 -4 5 -8.5t6 -9.5q4 -5 7 -11 q-1 -6 -1 -10v-14q0 -11 -3 -18.5t-14 -15.5q-3 -2 -9 -5t-7 -3t-10 3t-14 5q-20 8 -41.5 20t-39.5 23q-11 6 -23.5 19t-23.5 13h-2l-24 -109q-11 -38 -23 -57.5t-42 -19.5q-18 0 -29 8t-17.5 20t-9.5 27t-5 30q-2 11 -2.5 24.5t-0.5 23.5z" />
<glyph unicode="+" horiz-adv-x="599" d="M211 445q-47 0 -75.5 0.5t-44.5 1t-23 1.5t-11 2q-9 4 -13.5 15t-6 24t-1 26t0.5 21q-4 16 1 30.5t23 16.5q4 1 13.5 2.5t21 3.5t21 3.5t13.5 2.5q18 3 36.5 3.5t36.5 4.5q2 6 5 16.5t3 15.5v126q0 1 6 12t10 16q9 13 25 16q2 0 11.5 0.5t12.5 0.5q53 0 71 -21.5 t18 -71.5q0 -23 -2.5 -45t-2.5 -45q0 -5 0.5 -14t0.5 -10l4 -4q1 0 8.5 -0.5t12.5 -0.5q25 0 48 1.5t48 3.5q2 0 8.5 2t8.5 2q11 -1 22 -2.5t20.5 -6t16 -12t9.5 -20.5q0 -3 0.5 -13.5t0.5 -14.5q0 -5 -0.5 -16t-0.5 -12q0 -11 -6.5 -20t-16.5 -15.5t-21 -10t-20 -3.5 q-29 -1 -65.5 0.5t-68.5 -4.5v-121q1 -28 -11 -42t-53 -15q-20 -1 -37.5 1t-31 9.5t-20.5 21.5t-5 37v101v0z" />
<glyph unicode="," horiz-adv-x="348" d="M136 -62q9 11 14 20.5t7.5 19t3 20t2.5 23.5q-40 -8 -66 10.5t-30 57.5q0 32 19 60t66 33q18 4 41.5 -2.5t42.5 -21.5t30.5 -38.5t5.5 -52.5q-3 -25 -10.5 -48t-21 -41.5t-34.5 -32.5t-53 -22q-17 -2 -17 11v4z" />
<glyph unicode="-" horiz-adv-x="554" d="M246 459q-8 0 -21 -1.5t-21 -1.5q-5 0 -12.5 -3t-12.5 2q-29 2 -51.5 1.5t-38 4.5t-23.5 20t-7 49q-6 33 5.5 48.5t32 20t44 3.5t40.5 -1q8 1 23.5 0.5t16.5 -0.5h12.5t16.5 -1h12t13 -1h2l54 2h20t30.5 -0.5t30.5 -1t20 -0.5q20 -5 36 -5t30 -17q1 -2 3.5 -17t4.5 -20 v-1v-3q-1 -4 -2 -18t-2 -18q-2 -16 -8 -22.5t-14 -8t-17.5 -0.5t-18.5 0q-5 -1 -18 -2t-28 -1.5t-28 -1.5t-18 -1z" />
<glyph unicode="." horiz-adv-x="335" d="M160 186q29 1 46 -12t33 -34q0 -4 4 -4q5 -8 5 -11.5t1 -14.5q2 -51 -19 -79.5t-75 -30.5q-8 -1 -18.5 0.5t-17.5 5.5q-1 0 -5.5 3t-10 7t-9.5 7t-5 3q-14 21 -16.5 45.5t6 48t28.5 41.5t53 25z" />
<glyph unicode="/" horiz-adv-x="618" d="M35 40q-2 16 1 32t10 34t16 37.5t18 41.5q0 2 1.5 6.5t2.5 6.5q4 9 13 28t18.5 39.5t17.5 38t11 23.5q8 17 19 30.5t18 30.5q10 25 21 49t23 48q1 1 4 6.5t6.5 11.5t6.5 11.5t4 6.5q1 3 4 9l4 8q11 29 24 55t28 54q5 8 10.5 16t9.5 16q1 3 6 12.5t10.5 20.5t10.5 20.5 t6 11.5q0 1 2.5 4.5t5 7.5t5 7.5t3.5 4.5q2 4 6.5 11.5t5.5 9.5q18 35 34.5 71.5t38.5 69.5q-2 2 0.5 6.5t5.5 9t6 8.5t3 6q10 16 17 24t12.5 11.5t10.5 4t13 0.5q33 -3 53.5 -23t16.5 -43q0 -1 -2 -6l-4 -10l-4 -10t-2 -6q-14 -37 -29.5 -71.5t-31.5 -70.5q-1 -2 -3 -8 t-5 -12.5t-5 -12.5t-3 -7q-22 -42 -45.5 -80.5t-43.5 -81.5q-8 -18 -13 -31.5t-10 -26t-12 -26t-18 -30.5q-21 -38 -39.5 -74t-37.5 -75q-20 -42 -37 -82t-40 -80q-1 -2 -9 -15t-18 -30.5t-20 -34t-15 -23.5q-7 -10 -12.5 -15.5t-11.5 -8t-15 -3.5t-22 -2q-3 0 -12.5 1 t-12.5 3q-14 7 -22 14.5t-8 20.5z" />
<glyph unicode="0" horiz-adv-x="934" d="M42 551q0 1 0.5 5.5t1 9.5t1.5 10t1 7q5 31 10 61.5t18 59.5q2 2 6.5 12.5t6.5 12.5q0 2 3 10t5 10q1 1 4.5 7t7.5 13t7.5 12.5t4.5 7.5t2.5 6.5t1.5 6.5q3 5 11.5 17.5t18.5 26.5t18.5 27t12.5 18q1 2 7.5 9.5t8.5 10.5q1 2 4 4.5t4 3.5t6.5 5t13 9t14.5 10t11 8 q18 14 39 21t41 16q34 7 57 11.5t39 7t27.5 3t23.5 -0.5q5 0 13.5 -0.5t10.5 -0.5q1 0 7.5 -0.5t14 -1.5t14 -1.5t8.5 -0.5h16q2 0 10.5 -3.5t10.5 -4.5q1 0 6 -1.5t10 -2.5t10 -2.5t6 -1.5l8 -4q7 -4 18 -10t21.5 -12t18 -10.5l7.5 -4.5q1 -1 7.5 -6.5t15 -12.5t16.5 -14 t13 -11q50 -44 76.5 -98t45.5 -117q11 -36 18.5 -63t7.5 -65q2 -18 2.5 -42.5t-1 -51.5t-5.5 -55t-12 -54q-8 -40 -16.5 -69.5t-18 -52.5t-20 -42.5t-21.5 -40.5q-28 -51 -66.5 -79.5t-90.5 -48.5q-32 -11 -73 -17t-76 -6q-51 0 -92 9t-88 30q-2 1 -8.5 4t-14 6.5t-14 6.5 t-7.5 4q-26 14 -50.5 36t-45.5 47.5t-38.5 53.5t-30.5 54q-1 1 -3.5 7t-5 13t-5 12.5t-2.5 7.5q-11 24 -13 44.5t-12 44.5l-2 4l-2 4q0 1 0.5 6t-0.5 6q0 1 -1 6t-2.5 10l-3 10t-1.5 6v12q0 1 -0.5 7.5t-1.5 13t-1.5 12.5t-0.5 8q0 6 -1 16.5t-1.5 20.5t-1 18t-0.5 10z M217 477q0 -27 6 -57t17 -56q1 -1 4.5 -7.5t3.5 -8.5q1 -1 2 -6t2.5 -10l3 -10t1.5 -6q0 -2 1.5 -6t2.5 -6q36 -96 121 -150q18 -11 37 -18t40 -7q22 0 47 6t49 16t46 22.5t40 24.5q22 16 37 41t25 48q1 2 2.5 8.5t1.5 8.5q1 1 4.5 7.5t3.5 8.5q5 16 7 33t2 34q0 5 1.5 17 t-0.5 19q-1 3 -0.5 8.5t1 12t1 12.5t0.5 9q-4 47 -12.5 91.5t-20.5 90.5q-1 2 -2.5 6t-1.5 6q-1 1 -4.5 7.5t-3.5 8.5q-3 18 -17.5 44.5t-39.5 74.5q-2 2 -8 8.5t-13 13.5t-14 13t-10 9q-7 6 -15.5 8.5t-16.5 7.5q-2 2 -6.5 5t-5.5 3q-21 8 -45 14.5t-47 6.5h-1 q-14 -7 -24.5 -11.5t-24.5 -9.5q-1 0 -8 -1.5t-8 -2.5q-30 -18 -56.5 -43.5t-41.5 -57.5q-13 -27 -28 -55.5t-20 -57.5q0 -1 0.5 -6t-0.5 -6q0 -2 -1.5 -10t-4 -17t-4.5 -16.5t-2 -9.5t0.5 -12t-0.5 -12q0 -2 -0.5 -10.5t-1 -18t-1 -18t-0.5 -10.5v-21z" />
<glyph unicode="1" horiz-adv-x="593" d="M16 69q5 26 14 37t19 16q12 8 20.5 6.5t21.5 0.5q4 0 13 1t19.5 2t19.5 2t13 1q6 8 13.5 6t16.5 -3q0 7 1.5 26t2.5 40t2 39.5t1 26.5q0 5 1 20t2 32t2 32t0 20q0 7 0.5 23t0.5 34t0.5 34t0.5 24q2 62 4.5 123.5t7.5 122.5v9t-0.5 15.5t-0.5 15.5v9q0 1 2.5 7.5t2.5 10.5 q0 5 -0.5 13t-1.5 9q0 8 -2.5 21.5t-3.5 14.5l-4 4q-3 -1 -10 -4t-14.5 -6t-14.5 -6.5t-10 -4.5q-1 0 -5.5 -1.5t-9.5 -3.5t-10 -3.5t-7 -2.5l-2 -1h-2q-1 0 -4.5 0.5t-4.5 1.5q-6 2 -16.5 8t-12.5 6q-12 6 -16.5 15t-6.5 22q0 7 -1 13.5t4 12.5q3 5 8.5 13.5t8.5 12.5 q1 1 11 7.5t13 7.5q2 1 9.5 5.5t16 9t15.5 8.5t9 5q21 13 52.5 22.5t63.5 10.5t59.5 -10t39.5 -38q2 -3 6 -11.5t8 -18t7.5 -18t4.5 -11.5q1 -2 2.5 -14.5t0.5 -18.5q0 -1 0.5 -6.5t0.5 -8.5q-1 -19 -1.5 -36.5t-2.5 -36.5q0 -2 -0.5 -11t-1 -19.5t-1 -19.5t-0.5 -11 q0 -3 -1 -14.5t-2 -24t-2 -24t-1 -14.5q-1 -1 -1 -3v-4q0 -10 -0.5 -34.5t-0.5 -55.5t-0.5 -64.5t-1 -62.5t-1.5 -49t-2 -23v-15q1 -8 2 -27t2 -41t2 -41t2 -27q3 -9 4 -20t4 -20t9 -16t18 -8l101 -9q13 0 21.5 -6.5t14.5 -15.5t8.5 -17.5t3.5 -11.5q-1 -12 -6 -24.5 t-13 -20.5q-1 -2 -10.5 -10.5t-14.5 -11.5q-16 -7 -50 -8.5t-86 -3.5q-14 -1 -28.5 1t-16.5 3q-8 1 -24.5 0.5t-35 -1.5t-35.5 -1.5t-24 0.5q-3 1 -12.5 0t-12.5 -1q-6 -1 -23.5 -1t-37 -0.5t-37 -0.5t-23.5 -1h-4q-5 1 -7 2t-9 4q-14 7 -23 12.5t-13.5 12.5t-6 17.5 t-0.5 26.5z" />
<glyph unicode="2" horiz-adv-x="837" d="M435 53q-24 10 -50 13t-51.5 1.5t-48.5 -7t-40 -12.5q-11 -5 -23 -12.5l-24 -15t-25 -12.5t-25 -5q-9 -3 -22 -2t-25 3.5t-20.5 5.5t-9.5 5q-3 2 -12.5 11.5t-12.5 13.5q-1 2 -5.5 13.5t-6.5 17.5q-5 16 -6.5 30t-1.5 30q0 23 4 41.5t11 35t16.5 32.5t21.5 35 q33 54 83.5 98.5t102.5 82.5q38 33 80 55.5t82 45t74 51.5t55 77q10 20 15.5 38t5.5 41q0 17 -3 34t-14 30q-9 12 -27 23.5t-38 20.5t-40.5 14.5t-34.5 5.5q-17 0 -29.5 -1t-32.5 -3t-35.5 -3.5t-29 -6t-26.5 -13.5t-26 -25q-3 -4 -10 -12t-14.5 -17t-13.5 -16.5t-7 -9.5 t-3.5 -9.5t-4.5 -11.5v-2q0 -5 13 -8.5t19 -8.5q11 -8 19.5 -15t14 -14.5t8.5 -17t3 -23.5q0 -19 -6.5 -38.5t-19 -35t-30 -25.5t-39.5 -10q-20 -2 -35 0.5t-28.5 9.5t-26 19.5t-26.5 30.5q-14 22 -19 52t-5 55q0 64 34.5 115.5t91.5 91.5q51 35 111 53.5t122 18.5 q48 1 98.5 -14t96 -41t81 -62t52.5 -78q13 -26 23.5 -55t10.5 -59q0 -23 -4.5 -43.5t-16.5 -41.5q-1 -2 -7.5 -10.5t-8.5 -10.5q-18 -24 -40 -42.5t-46 -35t-49.5 -31t-50.5 -29.5q-15 -9 -31.5 -22t-33 -26.5t-33 -26.5t-31.5 -22q-1 -1 -5.5 -3.5l-9 -5l-9 -5t-5.5 -2.5 q-28 -17 -52 -36t-49 -39q-14 -11 -24.5 -20.5t-19 -20t-15 -23t-10.5 -29.5q1 0 2 -1.5t2 -2.5h2h2q33 14 59 20t47 7t38.5 -0.5t33.5 -1.5q32 -1 58.5 -14t50.5 -28t47 -27t48 -10q19 0 38 10.5t30 25.5q5 8 6.5 20t1.5 20q0 11 -13 15.5t-28 9.5t-28 14.5t-13 31.5 q0 27 10 45.5t27 38.5q11 14 24 15t31 1q21 0 42.5 -4.5t39.5 -14t31 -25.5t18 -40q1 -2 2.5 -18.5t1.5 -24.5q1 -12 -2 -36t-10 -51.5t-18 -55.5t-26 -48q-13 -11 -24 -20t-23 -16.5t-25.5 -11.5t-30.5 -4q-30 0 -60.5 4.5t-59.5 15.5q-1 0 -6.5 2t-12 4.5t-12.5 5t-9 3.5 q-1 1 -4.5 2.5t-4.5 1.5q-2 1 -8.5 3.5t-15 5t-15.5 5t-9 3.5z" />
<glyph unicode="3" horiz-adv-x="831" d="M33 229q-2 20 0 53t17 64q6 14 19 25t29 18.5t33.5 10.5t32.5 0q18 -3 32.5 -12.5t24.5 -24t14 -32t2 -35.5q0 -4 -0.5 -11t-1.5 -7q-1 -3 -6 -11.5t-8 -11.5q-1 0 -4.5 -2t-7.5 -5t-8 -5.5t-5 -2.5q-2 -2 -3.5 -2.5t-3.5 -2.5t-4 -3l2 -6q1 -2 1.5 -4.5t1.5 -4.5 q9 -20 25.5 -38t39 -32t48.5 -23.5t53 -13.5q45 -8 94.5 -3t87.5 32l12 9t15.5 12t13.5 11t7 6q1 0 5 6.5t10 15.5t11.5 18t9.5 15q16 28 18 60q4 35 -5.5 71t-30 65.5t-50 50.5t-65.5 26q-26 5 -51.5 2.5t-50.5 -7.5q-17 -2 -32 -5.5t-32 -0.5q-26 4 -38.5 27t-10.5 48 q3 23 16 45.5t30 36.5l28 21t43 32.5t43 33t28 21.5q1 1 6 5.5t11 10.5t12 11.5t9 8.5q2 3 6.5 8t9.5 11t9.5 10.5l6.5 6.5q2 7 6 13t8 14l-2 2q-2 2 -2 3q-2 0 -9.5 1.5t-9.5 1.5q-26 4 -53 4.5t-54 0.5q-9 -1 -26.5 -0.5t-35.5 1.5t-32.5 1.5t-17.5 0.5t-14.5 -1t-26 -2.5 t-29 -3.5t-22.5 -3q-5 -1 -14.5 -2t-10.5 -2q-4 -2 -4.5 -6t-0.5 -8v-6l-4 -12t-2 -12v-2q-2 -19 -9 -33t-26 -21q-30 -5 -46 1.5t-28 23.5q-2 1 -4.5 6t-2.5 7q-6 15 -9.5 25.5t-4.5 20t-1 20.5v27q0 6 0.5 15l1 18t1 16t0.5 9q1 12 7.5 19.5t15.5 12t19.5 7t19.5 5.5 q15 3 29.5 6t35.5 6t51.5 4.5t77 1.5t112 -2t156.5 -7h25q2 0 10.5 -1.5t13.5 -2.5q22 -3 41.5 -9.5t34 -17.5t22.5 -28t5 -42q-2 -20 -9.5 -36.5t-18.5 -32.5q-4 -3 -13 -11.5t-19 -17.5t-19 -17t-12 -11q-1 -1 -4.5 -5t-7.5 -8t-7.5 -8t-4.5 -5q-2 0 -9 -5.5t-8 -6.5 q-2 -1 -7.5 -6t-12 -11.5t-13.5 -12.5t-10 -9q-5 -5 -16 -15.5t-12 -19.5v-2q33 -9 62 -20t57 -32q35 -25 63.5 -63t51.5 -74q0 -1 1 -3t1 -3t1 -2q0 -1 1.5 -6.5t1.5 -6.5q2 -4 7 -19t7 -20q1 -5 4.5 -15t4.5 -12q8 -33 4 -72.5t-12 -72t-15.5 -49t-6.5 -2.5q1 -7 -5 -19 t-16 -26t-22.5 -29t-25 -27.5t-23.5 -21.5t-18 -11q-1 -1 -4 -2t-4 -1q-43 -23 -81 -35.5t-73.5 -18t-70 -6.5t-69.5 -1q-40 -3 -90 13t-96 47t-80.5 76t-42.5 102z" />
<glyph unicode="4" horiz-adv-x="837" d="M304 79q0 1 1 2q15 25 33.5 33.5t39.5 10.5t43.5 2t44.5 8q2 0 5 3q1 37 4.5 73.5t-8.5 71.5q-1 0 -5 1t-6 1q-6 -2 -26.5 -2.5t-45 -1.5t-46.5 -2.5t-31 -4.5q-2 0 -11.5 -0.5t-21.5 -1t-22 -1t-11 -0.5q-13 -1 -29.5 0.5t-27.5 1.5q-21 2 -41.5 0.5t-41.5 3.5 q-7 1 -19.5 4t-24.5 9.5t-20.5 16.5t-6.5 25q6 34 19 57.5t31 52.5q0 1 3.5 5.5t7.5 9.5t7.5 9.5t3.5 5.5q10 18 20.5 39t20.5 38q1 1 8 12.5t15.5 25t15.5 24.5t8 13q33 48 55 80.5t39 57.5t32 45.5t34 44.5q2 1 3.5 3.5t2.5 3.5l61 97q13 14 21 25.5t25 21.5q18 7 43 13 t49 6t43.5 -8.5t27.5 -30.5q1 -1 2 -3t1 -3.5t1 -2.5q6 -42 7 -86t-1 -89.5t-4.5 -92.5t-2.5 -95q-2 -13 -3 -26.5t0 -25.5l1 -131q61 3 95 2.5t51 -4t22 -8.5t7 -11q6 -8 7.5 -13.5t-0.5 -15.5v-2q-3 -4 -8 -15.5t-7 -13.5q-10 -23 -37.5 -34t-51.5 -13q-11 -2 -28 -4 t-28 -3l-10 -3q0 -1 -1 -3.5t-1 -4.5l-5 -125q-1 -3 1.5 -11t6.5 -10l53 -2q11 -2 21.5 -0.5t21.5 -0.5q14 -3 24 -11t16 -20t7.5 -26t-0.5 -27q0 -12 -7 -18.5t-17.5 -11t-23 -7.5t-22.5 -6q-28 -6 -54.5 -7.5t-54.5 -2.5q-2 1 -8.5 1h-14t-14 -0.5t-7.5 -0.5 q-10 0 -34.5 0.5t-52 0.5t-52 0.5t-33.5 0.5h-3q-1 0 -3 1h-4q-1 0 -2 1q-8 2 -24 7.5t-18 6.5q-20 7 -27 24.5t-3 37.5v3zM476 779q-32 -48 -66 -86.5t-64 -82.5q-1 -2 -5 -7.5t-5 -7.5q-23 -32 -47 -68.5t-44 -72.5q-9 -13 -13 -28v-6q35 -2 66 -0.5t66 1.5 q18 1 43.5 -1.5t48.5 4.5q5 2 5 5.5t1 8.5l12 259q1 1 2.5 13.5t2.5 27t1.5 27.5t0.5 16z" />
<glyph unicode="5" horiz-adv-x="762" d="M30 268q-2 38 13.5 67t50.5 44q8 3 20 5.5t21 2.5q22 0 41.5 -2.5t34.5 -11.5t26 -25.5t16 -43.5q0 -1 1 -4t0 -11q0 -10 -3 -26.5t-9 -24.5q-2 -2 -9 -9.5t-10 -9.5q-6 -5 -12.5 -4.5t-6.5 -9.5q0 -1 0.5 -3.5t0.5 -3.5q1 -2 7 -5t12 -6.5t11.5 -6.5t7.5 -4q1 -1 3 -2 t3 -2t2 -1q29 -14 63.5 -23.5t65.5 -11.5h2q36 -5 71.5 1.5t65.5 23.5t52 45t30 66q4 17 4.5 34t0.5 34q-2 50 -20 93.5t-56 76.5q-1 1 -4 3t-4 2q-29 18 -59 33.5t-64 20.5q-25 3 -46 1.5t-40.5 -8t-39 -17t-40.5 -25.5q-2 -1 -7 -5t-10.5 -8.5t-10.5 -9t-7 -6.5 q-1 -1 -10.5 -6t-10.5 -6q-2 -3 -9.5 -5.5t-18.5 -3t-24.5 1t-26.5 6.5q-12 5 -18.5 12.5t-11.5 18.5q-6 21 -10 36.5t-6.5 30.5t-3.5 31t-1 37l-4 80t0 80q0 1 1.5 7.5t1.5 8.5v10.5t-0.5 16t-1 16.5t0.5 11q0 5 -0.5 18t0.5 17q0 16 2.5 24t4.5 25v6t0.5 10.5t1.5 10.5 t1 7q2 11 18 15t35.5 4.5t37.5 1t26 3.5h15t14 -1q18 -1 35 -0.5t34 -4.5l202 1q26 -2 49 -1t49 -1q25 -2 40 -16.5t23 -35t11 -44t3 -41.5q1 -30 -4 -51.5t-30 -37.5q-10 -7 -19 -11.5t-23 -2.5q-22 1 -31.5 16t-14 33t-7 34t-11.5 21q-2 0 -9.5 0.5t-9.5 0.5 q-43 3 -83.5 -2t-82.5 -4q-2 0 -8.5 0.5t-13.5 1t-13.5 1t-8.5 0.5q-3 0 -10.5 -1t-16.5 -2t-16.5 -1.5t-10.5 -0.5t-11 -1.5t-10 -2.5q-2 1 -6 -1.5t-5 -5.5q-1 -2 -1.5 -8t-1.5 -8q-5 -42 -3 -83t4 -84q20 -2 35 4.5t34 10.5q25 5 46 8t41 4.5t41 1.5t48 -1 q101 -6 185 -70q19 -19 36 -37.5t31 -42.5q19 -34 29.5 -87t10.5 -111t-11.5 -114t-36.5 -96q-32 -51 -82 -82t-108.5 -45.5t-121 -13.5t-119.5 15q-51 17 -95.5 42.5t-74.5 70.5q-3 3 -7.5 10t-9 15t-8.5 15t-5 10q0 1 -1.5 5t-3 9.5t-2.5 10.5t-2 8q0 2 -1.5 9t-3 15.5 t-3 16t-1.5 11.5v4v0z" />
<glyph unicode="6" horiz-adv-x="828" d="M773 800q0 -17 -6 -34.5t-17 -32t-27 -24t-35 -10.5q-70 -5 -111 38q-11 13 -13 20.5t-1 24.5q0 2 0.5 5t0.5 6v7q1 3 4.5 9.5t7.5 14.5t8 14.5t6 9.5q-3 15 -14.5 27.5t-27.5 14.5q-11 2 -17 0t-14 7q-6 0 -19.5 0.5t-29 0.5h-29.5h-19h-9q-17 0 -35 -0.5t-34 -5.5 q-1 0 -7 -3t-9 -5q-5 -3 -12 -7t-14.5 -8.5t-13 -8t-6.5 -3.5q-16 -12 -26 -23t-18 -24t-15.5 -29.5t-16.5 -37.5q-1 -5 -3 -16t-4.5 -22.5t-4 -20.5t-2.5 -11q-5 -15 -5.5 -30.5t-0.5 -30.5l2 -1h1q2 1 13.5 6.5t13.5 7.5q2 1 9.5 5t15.5 8.5t15.5 8.5t9.5 5q3 1 11.5 4.5 t18.5 7.5t19 7t13 5q2 0 8 3l8 4q7 1 24 2.5t35 3t33.5 3t20.5 1.5h20h19q1 0 8.5 -2t17 -4.5t20 -5t16.5 -3.5q17 -4 32.5 -11.5t29.5 -16.5q2 -1 9.5 -5.5t9.5 -5.5q34 -24 64 -58.5t52.5 -75t35 -84t12.5 -86.5q-2 -33 -7.5 -63.5t-21.5 -62.5q-8 -24 -24 -46.5 t-35.5 -42.5t-41 -37.5t-41.5 -32.5q-6 -4 -15 -8t-19 -8t-19.5 -7t-16.5 -5q-2 -1 -7 -2t-10 -2.5t-9 -3t-5 -1.5q-4 -1 -13 -2.5t-11 -1.5q-71 -5 -129.5 -1.5t-111 28t-100.5 77.5t-97 146q-11 25 -17.5 55t-11 63t-6.5 67t-3 67q0 45 3.5 81.5t10 69t16.5 65t23 70.5 q17 48 50 86.5t71 72.5q32 28 71 41.5t81 21.5q3 0 11.5 1t18 2t18 2t11.5 1h48q76 1 134.5 -15.5t98 -46t59.5 -71.5t19 -92zM525 517q-35 20 -65.5 28t-41.5 8q-27 0 -54 -6t-52.5 -18t-47.5 -29t-38 -38q-6 -8 -12 -23t-10.5 -32t-7 -33.5t-2.5 -26.5q0 -20 7 -40.5 t13 -38.5q2 0 4.5 -1.5t3.5 -2.5q1 -2 5 -12t6 -12l6 -9t8.5 -12t8 -11t4.5 -6q3 -3 9.5 -10.5t14 -15l14 -14t9.5 -8.5q22 -18 49 -24.5t54 -6.5q17 0 29.5 1t23.5 4t23 8.5t27 13.5q3 3 10.5 10t15.5 15t15 16t10 11q0 1 4.5 7.5t6.5 10.5q15 27 21.5 53t6.5 56 q0 32 -3.5 57t-12 47t-23.5 42t-39 42z" />
<glyph unicode="7" horiz-adv-x="804" d="M307 124q-1 1 -1 4q0 4 1 21.5t1.5 37t1 36.5t0.5 22q1 15 3 30.5t3 30.5q0 2 -0.5 9.5t0.5 9.5q0 2 4.5 8t6.5 6q26 87 72 166.5t102 154.5q3 4 16.5 20t29 35t29.5 35t17 20q2 3 5.5 8.5t7.5 10.5q4 6 9 13l-1 13q-4 -1 -13.5 -2.5t-20 -3.5t-20 -3.5t-13.5 -1.5 q-1 -1 -7.5 -0.5t-8.5 1.5q-42 1 -81.5 4.5t-78.5 11.5q-12 3 -22.5 5.5t-21.5 7.5q-2 1 -8 3.5t-12.5 5.5t-13 5.5t-7.5 3.5q-9 4 -28.5 7.5t-30.5 1.5q-25 -3 -28 -28q0 -3 -1.5 -12.5t-3.5 -21t-3.5 -21t-1.5 -11.5q-2 -12 -4.5 -26t-7 -28t-12.5 -26t-20 -19 q-2 -2 -6.5 -4t-5.5 -2l-44 1q-1 -1 -5.5 3t-6.5 7q-14 13 -23.5 34t-11.5 40q0 4 -1 16.5t-2 27.5t-2 29.5t-2 21.5q0 3 -0.5 10.5t-0.5 15.5t-0.5 15.5t-0.5 10.5q6 46 26 64t39 22h24q1 0 4 0.5t4 0.5l33 -26q2 1 7.5 4.5t7.5 4.5q32 20 57.5 31.5t49 15.5t48 2t55.5 -9 q33 -14 62 -27t64 -24q2 0 6.5 -0.5t5.5 -1.5q5 0 18.5 0.5t17.5 1.5q6 1 22.5 3.5t34.5 5.5t34.5 6t23.5 4q19 -1 36 -3.5t30.5 -9.5t22 -20t9.5 -34q1 -31 -14 -61.5t-29 -57.5q-9 -17 -17 -31t-16 -27t-17 -25.5t-21 -27.5q-1 -2 -5 -5t-7 -5q0 -1 -3.5 -3t-4.5 -3 q-32 -33 -64.5 -80t-71.5 -119q-8 -25 -19 -50t-16 -51q-2 -12 -4.5 -24t-1.5 -24q1 -21 2 -49t2 -53.5t2.5 -46t3.5 -26.5q0 -5 -1 -18t-2.5 -27t-3 -27t-2.5 -18q-2 -8 -9 -15l-13 -13q-5 -3 -12.5 -8.5t-8.5 -5.5q-3 -2 -16 -5t-18 -4q-23 -4 -38.5 10t-24.5 35 t-13.5 44.5t-4.5 39.5z" />
<glyph unicode="8" horiz-adv-x="801" d="M28 280q0 23 2 45.5t10 48.5q7 37 18 67t27.5 56.5t39.5 49.5t53 46v2v2q-27 25 -44.5 50t-28 47.5t-15.5 40.5t-7 27q0 3 -0.5 9t-0.5 13t0.5 13t0.5 9q0 1 1.5 6.5t3.5 12t4 12t3 8.5q18 48 46 78.5t70 55.5q56 31 111.5 36t118.5 4q40 -9 71.5 -16.5t58 -18.5 t51 -29.5t51.5 -50.5q28 -34 34.5 -74.5t8.5 -82.5q-2 -25 -11 -48t-21 -43.5t-26.5 -36.5t-28.5 -26q4 -3 13 -11.5t19 -18.5l19 -19t12 -13q32 -35 48.5 -70t30.5 -79q20 -153 -41.5 -243t-217.5 -127q-8 -1 -21.5 -3t-27.5 -4t-25 -3.5t-13 -1.5h-34q-38 0 -75.5 3 t-74.5 13q-2 0 -6.5 2t-10 3.5t-10 3.5t-5.5 2q-2 1 -12 4t-12 4q-1 1 -5.5 4.5t-5.5 4.5q-2 0 -8.5 1.5t-7.5 2.5q-2 1 -8 7l-8 8q-2 1 -7.5 5.5t-12 10t-12.5 10t-7 5.5q-38 35 -56.5 86t-18.5 100zM464 522q-66 6 -114 -8.5t-81 -37.5t-51.5 -48.5t-24.5 -42.5v-98 q0 -1 3 -10t5 -14q10 -28 27.5 -51t41 -39.5t51 -26t57.5 -9.5q5 0 15.5 0.5t12.5 0.5t8.5 1t14.5 2.5t15.5 2.5t11.5 2q19 4 43 16t46.5 29t41.5 38t30 42q7 22 12 42t5 42q0 40 -12.5 68.5t-35 48t-52.5 31t-66 19.5h-2h-2zM252 737q0 -11 3.5 -12.5t8.5 -8.5q1 -1 2 -6 t2 -6q2 -3 9.5 -10.5l9.5 -9.5q19 -15 36.5 -24.5t34.5 -14.5t34.5 -7t37.5 -2q47 0 79 21t54 62q8 16 12 26t4 27t-7.5 29.5t-19 22.5t-25.5 17.5t-27 15.5q-2 1 -12 7.5t-11 8.5q-3 2 -12.5 6t-12.5 6q-4 0 -15.5 0.5t-15.5 0.5q-6 0 -18 -0.5t-14 -0.5q-14 -2 -35 -12.5 t-42 -26t-37 -32.5t-19 -31q0 -1 -1.5 -17.5t-2.5 -26.5v-2z" />
<glyph unicode="9" horiz-adv-x="824" d="M57 222q0 17 6 34.5t17 31.5t26.5 23.5t35.5 11.5q70 5 111 -38q11 -13 13 -20.5t1 -24.5q-1 -3 -1 -11v-7q-1 -3 -4.5 -9.5t-7.5 -14.5t-8 -14.5t-6 -9.5q5 -24 25.5 -35t47 -14.5t53.5 -2t44 1.5h9q17 0 35 0.5t34 5.5q1 0 7 3t9 5q4 3 11.5 7t15 8.5t13 8t6.5 3.5 q16 12 26 23t18 24t15.5 29.5t16.5 37.5q1 5 3 16t4.5 22.5t4 20.5t2.5 11q5 15 5.5 30.5t0.5 30.5h-2q-1 0 -1 1q-2 -1 -13.5 -6.5t-13.5 -7.5q-2 -1 -9.5 -5t-15.5 -8.5t-15.5 -8.5t-9.5 -5q-3 -2 -11.5 -5t-18.5 -7t-19 -7.5t-13 -4.5q-2 0 -8 -3l-8 -4q-8 -1 -24.5 -2.5 t-34.5 -3t-33.5 -3t-20.5 -1.5h-20h-19q-1 0 -8.5 2t-17 4.5t-20 5t-16.5 3.5q-17 4 -32.5 11.5t-29.5 16.5q-2 1 -9.5 5.5t-9.5 5.5q-35 24 -64.5 58.5t-52 75t-35 84t-12.5 86.5q2 33 7.5 63.5t21.5 62.5q8 24 23.5 46.5t35 42.5t41.5 37.5t42 32.5q6 4 15 8t19 8t19.5 7 t16.5 5q2 1 7 2t10 2.5t9 3t5 1.5q4 1 13 2.5t11 1.5q70 5 129 1.5t111.5 -28t100.5 -77.5t97 -146q10 -25 17 -55t11.5 -63t6.5 -67t3 -67q0 -45 -3.5 -81.5t-10 -69t-16.5 -65t-23 -70.5q-17 -48 -50 -86.5t-71 -72.5q-32 -28 -76 -44.5t-86 -24.5h-49h-48 q-77 -1 -135 15.5t-97.5 46t-59.5 71.5t-19 92zM305 505q35 -20 65.5 -28t41.5 -8q27 0 54 6t52.5 18t47.5 29t38 38q6 8 12 23t10.5 32t7 33t2.5 27q0 20 -7 40.5t-13 38.5q-2 0 -4.5 1.5t-3.5 2.5q-1 2 -5 12t-6 12l-6 9t-8.5 12t-8 11t-4.5 6q-3 3 -9.5 10.5t-14 15 l-14 14t-9.5 8.5q-22 18 -49 24.5t-54 6.5q-17 0 -29.5 -1t-23.5 -4t-23 -8.5t-27 -13.5q-3 -3 -10.5 -10t-15.5 -15.5t-15 -16t-10 -10.5q0 -1 -4.5 -7.5t-6.5 -10.5q-15 -27 -21.5 -53t-6.5 -56q0 -32 3.5 -57t12 -47t23.5 -42t39 -42z" />
<glyph unicode=":" horiz-adv-x="300" d="M152 475q29 1 46 -12t33 -34q0 -4 4 -4q5 -8 5 -11.5t1 -14.5q2 -51 -19 -79.5t-75 -30.5q-8 -1 -18.5 0.5t-17.5 5.5q-1 0 -5.5 3t-10 7t-9.5 7t-5 3q-14 21 -16.5 45.5t6 48t28.5 41.5t53 25zM150 790q29 1 46 -12t33 -34q0 -4 4 -4q5 -8 5 -11.5t1 -14.5 q2 -51 -19 -79.5t-75 -30.5q-8 -1 -18.5 0.5t-17.5 5.5q-1 0 -5.5 3t-10 7t-9.5 7t-5 3q-14 21 -16.5 45.5t6 48t28.5 41.5t53 25z" />
<glyph unicode=";" horiz-adv-x="300" d="M143 401q29 1 46 -12t33 -34q0 -4 4 -4q5 -8 5 -11.5t1 -14.5q2 -51 -19 -79.5t-75 -30.5q-8 -1 -18.5 0.5t-17.5 5.5q-1 0 -5.5 3t-10 7t-9.5 7t-5 3q-14 21 -16.5 45.5t6 48t28.5 41.5t53 25zM113 -85q9 11 14 20.5t7.5 19t3 20t2.5 23.5q-40 -8 -66 10.5t-30 57.5 q0 32 19 60t66 33q18 4 41.5 -2.5t42.5 -21.5t30.5 -38.5t5.5 -52.5q-3 -25 -10.5 -48t-21 -41.5t-34.5 -32.5t-53 -22q-17 -2 -17 11v4z" />
<glyph unicode="&#x3c;" horiz-adv-x="476" d="M316 376q-21 12 -52 24t-61.5 22.5t-55.5 19.5t-33 15q-23 8 -45.5 31t-33.5 44q-1 1 -1 2q-1 1 -1 4q-1 7 6.5 16t18 18t21 16.5t15.5 11.5q4 3 11.5 7t15.5 8.5t14 8t8 4.5q9 3 24.5 11.5t34 19t38.5 21.5t37 20q14 9 26 16t29 9q14 1 28.5 -5.5t26 -17t20 -24.5 t10.5 -28q0 -3 0.5 -7.5t0.5 -5.5t-1 -3t-1 -3q-15 -21 -38.5 -37t-49 -28t-49 -20.5t-37.5 -14.5q4 -2 16 -5t14 -5q2 0 10 -2.5t9 -1.5q2 0 7.5 -3t6.5 -2l28 -9q29 -11 47 -17t27.5 -13t12.5 -18t3 -30q4 -26 -11 -44t-41 -20q-17 -2 -28.5 2.5t-26.5 12.5z" />
<glyph unicode="=" horiz-adv-x="560" d="M246 540q-8 0 -21 -1.5t-21 -1.5q-5 0 -12.5 -3t-12.5 2q-29 2 -51.5 1.5t-38 4.5t-23.5 20t-7 49q-6 33 5.5 48.5t32 20t44 3.5t40.5 -1q8 1 23.5 0.5t16.5 -0.5h12.5t16.5 -1h12t13 -1h2l54 2h20t30.5 -0.5t30.5 -1t20 -0.5q20 -5 36 -5t30 -17q1 -2 3.5 -17t4.5 -20 v-1v-3q-1 -4 -2 -18t-2 -18q-2 -16 -8 -22.5t-14 -8t-17.5 -0.5t-18.5 0q-5 -1 -18 -2t-28 -1.5t-28 -1.5t-18 -1zM243 342q-8 0 -21 -1.5t-21 -1.5q-5 0 -12.5 -3t-12.5 2q-29 2 -51.5 1.5t-38 4.5t-23.5 20t-7 49q-6 33 5.5 48.5t32 20t44 3.5t40.5 -1q8 1 23.5 0.5 t16.5 -0.5h12.5t16.5 -1h12t13 -1h2l54 2h20t30.5 -0.5t30.5 -1t20 -0.5q20 -5 36 -5t30 -17q1 -2 3.5 -17t4.5 -20v-1v-3q-1 -4 -2 -18t-2 -18q-2 -16 -8 -22.5t-14 -8t-17.5 -0.5t-18.5 0q-5 -1 -18 -2t-28 -1.5t-28 -1.5t-18 -1z" />
<glyph unicode="&#x3e;" horiz-adv-x="460" d="M142 711q21 -12 52 -24t61.5 -22.5t55.5 -19.5t33 -15q23 -8 45.5 -31t33.5 -44q0 -1 1 -2q0 -1 0.5 -2t0.5 -2q1 -7 -6.5 -16t-18 -18t-21 -16.5t-15.5 -11.5q-4 -3 -11.5 -7t-15.5 -8.5t-14.5 -8t-7.5 -4.5q-9 -3 -24.5 -11.5t-34 -19t-38.5 -21.5t-37 -20 q-14 -9 -26 -16t-29 -9q-14 -1 -28.5 5.5t-26 17t-20 24.5t-10.5 28q0 3 -0.5 7.5t-0.5 5.5t1 3t1 3q15 21 38.5 37t49 28t49 20.5t37.5 14.5q-4 2 -16 5t-14 5q-2 0 -10 2.5t-9 1.5q-2 0 -7.5 3t-6.5 2l-28 9q-29 11 -47 17t-27.5 13t-12.5 17.5t-3 30.5q-4 26 11 44t41 20 q17 2 28.5 -2.5t26.5 -12.5z" />
<glyph unicode="?" horiz-adv-x="788" d="M437 288q-2 -31 -10.5 -50t-29.5 -19q0 -2 -10 -3t-22.5 -2t-22.5 -1.5t-9 -0.5q-10 -2 -16 2.5t-9.5 13t-5 19t-2.5 21.5q0 2 -1.5 8.5t-1.5 7.5q-1 20 -1 26.5t0.5 10.5t1.5 10.5t2 26.5q27 52 49.5 80.5t46.5 49t51.5 39.5t62.5 52q21 13 36 40t24 55.5t13.5 52.5 t4.5 33q0 17 -3 34t-14 30q-9 12 -27 23.5t-38 20.5t-40.5 14.5t-34.5 5.5q-17 0 -29.5 -1t-32.5 -3t-35.5 -3.5t-29 -6t-26.5 -13.5t-26 -25q-3 -4 -10 -12t-14.5 -17t-13.5 -16.5t-7 -9.5t-3.5 -9.5t-4.5 -11.5v-2q0 -5 13 -8.5t19 -8.5q11 -8 19.5 -15t14 -14.5t8.5 -17 t3 -23.5q0 -19 -6.5 -38.5t-19 -35t-30 -25.5t-39.5 -10q-20 -2 -35 0.5t-28.5 9.5t-26 19.5t-26.5 30.5q-14 22 -19 52t-5 55q0 64 34.5 115.5t91.5 91.5q51 35 111 53.5t122 18.5q48 1 98.5 -14t96 -41t81 -62t52.5 -78q8 -12 11 -40.5t1.5 -62.5t-7.5 -68t-16 -58 q-18 -45 -44 -75.5t-53.5 -51t-55.5 -34.5t-51.5 -27.5t-40.5 -28.5t-22 -37zM368 186q29 1 46 -12t33 -34q0 -4 4 -4q5 -8 5 -11.5t1 -14.5q2 -51 -19 -79.5t-75 -30.5q-8 -1 -18.5 0.5t-17.5 5.5q-1 0 -5.5 3t-10 7t-9.5 7t-5 3q-14 21 -16.5 45.5t6 48t28.5 41.5t53 25z " />
<glyph unicode="@" horiz-adv-x="1013" d="M58 422q0 4 -1 10.5t-2 13.5t-2 12l-1 5q0 4 -1 13t-2 19.5t-2 19.5t-1 12q0 2 1 8t1 7q0 3 1 14.5t1.5 25t1 25t0.5 14.5q1 11 5.5 22t7.5 22q0 1 1 6t2 11t2 11t1 6q11 37 29.5 64t38.5 58q32 51 77 92t101 69q18 9 40 16t42 12q4 1 11 3t13.5 3.5t11.5 2.5t6 1 q29 7 68.5 8.5t84 -4t92 -20.5t92 -40.5t83 -63.5t66.5 -90q0 -1 0.5 -3.5t0.5 -3.5q1 -2 3.5 -11.5t3.5 -11.5q10 -30 13.5 -65.5t2.5 -72.5t-6 -74.5t-14 -73.5q0 -1 -1 -6.5t-2.5 -12.5t-3.5 -13.5t-3 -8.5q-14 -37 -25 -67t-33 -63q-1 -1 -4 -6t-5 -7q-28 -30 -58 -52.5 t-74 -25.5q-18 0 -35 1t-34 12q-2 1 -7.5 5.5t-11.5 9t-11 8.5t-6 6h-4q-33 -30 -63 -47.5t-76 -18.5h-24q-19 9 -39.5 13.5t-38.5 16.5q-33 23 -56.5 57.5t-37.5 71.5q-11 22 -13 54t-4 62q0 13 -0.5 23.5t1.5 23.5q3 35 15 70t31 66q0 1 3.5 5t5.5 6t11.5 12.5t11.5 12.5 q24 24 54.5 42.5t64 29.5t69 14t69.5 -3q8 -1 16 -3.5t17 -1.5h3q1 0 7.5 2t8.5 2h2q11 1 25 -3.5t23 -13.5q1 -5 4 -19t5 -19v-2l1 -2q0 -33 -4 -65t-7.5 -64t-5 -64.5t3.5 -65.5q1 -5 3 -15.5t2 -11.5q0 -2 4.5 -11t6.5 -12t9.5 -14.5t10.5 -15.5q0 1 3 -2l2 -2q1 -1 2 -1 t3 -1t3 -1q2 0 7.5 3.5t7.5 5.5q37 38 52.5 86t20.5 101q3 26 4.5 46.5t-2.5 47.5q-5 32 -20 63t-38 55q-4 4 -11.5 12t-15 15.5l-13.5 13.5l-7 7t-8 6t-16 11t-17.5 11.5t-13.5 8.5q-31 18 -61.5 24.5t-63.5 4.5q-5 -1 -14 -1.5t-10 -0.5q-3 0 -14.5 -3.5t-25 -7t-27 -7.5 t-19.5 -6q-38 -12 -72.5 -27t-62 -37t-46.5 -51.5t-26 -70.5q-1 -8 -4 -23.5t-6 -33t-5.5 -32t-3.5 -18.5q-7 -26 -6.5 -63t5.5 -76t14.5 -75.5t20.5 -61.5q19 -38 48.5 -72t64.5 -59q2 -1 10.5 -5.5t11.5 -5.5q1 0 6 -1t7 -2q1 -1 6 -5.5t6 -5.5q20 -11 46 -18.5t48 -7.5 q2 -1 13.5 0t13.5 1q1 -1 2 -1t1.5 -0.5t1.5 -0.5q2 -1 4 -1q1 0 6 -0.5t12 -1t14 -0.5h12h4q4 1 11.5 3.5t14.5 5t12.5 4.5t6.5 2q45 11 69.5 21t39 19t25.5 17.5t29 16.5q4 3 17.5 6.5t29 3.5t29.5 -4.5t18 -16.5q6 -6 7 -17t-2 -23t-8 -22t-10 -13q-22 -33 -55.5 -57 t-73 -40t-81.5 -24.5t-81 -10.5h-81q-2 0 -8 1.5t-7 1.5q-4 1 -13.5 2t-11.5 1t-9.5 -0.5t-9.5 -0.5l-9 3q-23 12 -48 18.5t-51 15.5q-38 15 -66 36.5t-60 50.5q-19 17 -36.5 37t-29.5 42q-1 1 -3.5 6.5t-5.5 11.5t-5.5 10.5t-3.5 5.5q-26 49 -43 92.5t-25 96.5zM414 479 q0 -36 8.5 -57t21 -32.5t25.5 -14.5t22 -3q22 1 39 15.5t29.5 36.5t20.5 49t12.5 53.5t5 50.5t-1.5 40q-5 23 -11 30.5t-18 13.5q-33 -2 -57.5 -19t-42.5 -41.5t-30.5 -54t-20.5 -56.5q-2 -2 -2 -6v-5z" />
<glyph unicode="A" horiz-adv-x="1117" d="M65 53q0 36 18 53.5t49 24.5q1 0 7.5 2t8.5 2t11.5 -2t10.5 -2h2h2q4 0 4 4q7 12 9.5 18t4 11.5t3 12l4.5 19.5q8 32 17.5 63t18.5 63q1 0 2.5 3.5t1.5 4.5q13 32 19 63.5t15 65.5q0 3 2.5 13.5t5 23.5t5 23.5t3.5 13.5q7 26 11.5 48t9.5 48q1 5 3.5 13t4.5 17t3.5 17 t0.5 14q1 5 4 16t6.5 23t6 23t4.5 16q0 1 2 6.5t4 11.5t4 11.5t2 6.5q1 3 4 15t7 26t7 25.5t4 14.5q9 25 19.5 49t23.5 41.5t28.5 26.5t35.5 5q6 3 15.5 3.5t19.5 0t20 -1.5t16 -1h4q10 -8 16 -14.5t11 -13t10.5 -14t13.5 -17.5q1 -1 2.5 -4t1.5 -4v-8q2 -6 7.5 -16.5 l11 -21t8.5 -20.5t1 -15q3 -8 9.5 -27.5t14.5 -41.5t15 -41.5t10 -27.5q1 -1 4.5 -7.5t3.5 -8.5q1 -2 2.5 -10t1.5 -10q1 -3 2.5 -9t1.5 -7q14 -35 26.5 -71t26.5 -71q1 -2 5.5 -13t6.5 -15l4 -8q7 -11 14.5 -32.5t16 -45t16 -44.5t14.5 -32l4 -8l4 -8t4 -6.5t4 -6.5 q3 -6 9 -23t12.5 -35.5t12 -35.5t8.5 -23q8 -15 14 -28q5 -11 10.5 -21.5t7.5 -12.5q1 -1 3 -2q2 -2 4 -2q5 -2 14 -5t10 -3h7.5h13t12.5 -0.5t8 -0.5q5 -1 17 -4t14 -5q4 -2 12.5 -11.5t10.5 -12.5v-8q-1 -8 -2.5 -17.5t-5.5 -15.5q5 -20 -27.5 -33.5t-87.5 -9.5 q-6 0 -24.5 -1t-39 -1.5t-39 -1t-24.5 -0.5h-75q-4 0 -15 0.5t-23 1t-22.5 1t-14.5 0.5q-11 3 -15 8t-12 16q0 1 -1 6t-2 6q0 1 -1 4t-2 4l3 45q0 2 5.5 8t8.5 8t9 5t12.5 6t12.5 5.5t8 2.5q3 1 11 1.5t17 1t17.5 0.5h11.5v6q2 14 -2 23q-1 1 -4 4.5t-3 4.5q-5 10 -7 21.5 t-7 22.5q-1 2 -2 11t-1 11q-1 2 -3.5 11t-6.5 20.5t-7.5 22.5t-5.5 17q-1 2 -4 12.5t-4 12.5q-1 0 -2 1.5t-2 2.5q-2 1 -3.5 7.5t-2.5 7.5h-7.5t-7.5 1q0 4 -4 4h-201q-11 -5 -22 -4.5t-23 -3.5q-13 -5 -22 -18t-15 -29.5t-8.5 -33t-2.5 -28.5l-15 -84q2 0 6 -1t6 -1 q20 -2 46.5 -2.5t47.5 -3.5q1 0 8.5 -8.5t11.5 -13.5q9 -12 8 -19t-1 -21v-18q0 -1 -2 -6.5t-4 -12t-5 -12.5l-4 -8q-3 -9 -12.5 -12.5t-23.5 -4t-30 -0.5t-32 -2q-11 -2 -30 -2h-38.5h-35t-18.5 -1h-4q-11 1 -31 0.5t-39.5 -1t-33 -0.5t-12.5 1q-29 -1 -41.5 13t-12.5 40z M418 466l44 -1q1 0 6 0.5t11 0.5t10.5 0.5t5.5 0.5h13h15q3 0 13.5 1t23 1.5t23 1t13.5 0.5h8q4 2 11.5 5t8.5 4v2q0 1 0.5 2t0.5 2q0 37 -14.5 75t-26.5 72q-11 29 -20.5 56.5t-24.5 53.5q-2 4 -4 4h-5q-13 0 -17.5 -4.5t-9.5 -16.5q-2 -5 -5.5 -12.5t-6.5 -15t-5.5 -13.5 t-2.5 -7t-1 -5.5t-1.5 -9t-1 -8.5t-0.5 -5q-1 -2 -4.5 -8.5t-4.5 -8.5q-9 -22 -17 -46t-15 -47v-4z" />
<glyph unicode="B" horiz-adv-x="832" d="M35 104q0 2 1 10.5t1 10.5q5 14 17 19t26 5.5t28.5 0t24.5 2.5q0 2 0.5 8t1.5 7v16q0 3 -0.5 14.5t-1.5 24t-1.5 23t-0.5 13.5q-2 38 -0.5 75.5t-0.5 75.5q0 3 -1 15t-2 26.5t-1.5 27t-0.5 15.5q-2 33 1 66t3 67q0 4 -1 22t-2 38t-2 37.5t-1 21.5q0 1 1 7.5t1.5 14t1 14 t0.5 8.5q0 1 -1 7t-1 8q-2 13 -1 28.5t-6 26.5q-13 3 -28 9.5t-28 16t-21 23t-6 31.5v4q0 1 1 2q5 16 15.5 25.5t23.5 15t28 7.5t29 4q2 1 5.5 0.5t5.5 -1.5q6 1 16.5 1.5t21.5 1.5t21.5 1.5t15.5 1.5q4 2 20.5 3.5t39 2.5t48 1h47h37.5h19q1 0 8 -0.5t14.5 -1.5t14.5 -1.5 t8 -0.5q4 -1 16.5 -3.5l27.5 -5.5t27.5 -6t16.5 -3q4 -1 11.5 -2.5t16 -4t15.5 -4.5t10 -3q5 -1 17 -6t16 -8q1 0 6.5 -4t12.5 -9l14 -10t11 -8q22 -17 36 -38.5t21 -46t8.5 -51t-1.5 -53.5q-2 -29 -15 -63t-30 -58q-1 -1 -6 -5t-6 -5q-2 -2 -8.5 -10.5t-9.5 -11.5l-2 -4 q-1 -2 -2 -3q43 -39 64 -65t29 -47q2 -2 5.5 -11t4.5 -13q1 -1 2 -6t1 -6q14 -40 17 -65.5t1 -45.5q-3 -86 -28.5 -140t-66 -86.5t-91 -49t-102.5 -26.5q-2 -1 -10 -2t-17 -2.5t-17 -2.5t-10 -1q-64 -5 -113.5 -4.5t-102.5 0.5q-17 1 -29.5 1.5t-24.5 0.5t-24.5 0.5 t-28.5 1.5q-21 2 -40.5 7.5t-33.5 16.5t-21.5 28t-5.5 42zM288 130q1 -2 5.5 -3.5t6.5 -1.5q5 -1 9 -2t7.5 -1h5.5q38 -4 76 1l76 10q8 1 16.5 0t16.5 1q3 0 9 3q4 2 7 4q3 0 16 2t16 3q4 2 16 5t15 5q39 14 67 42t33 72q0 4 0.5 13.5t-0.5 19.5t-4 19t-8 12l-16 33 q-1 1 -2.5 5.5t-3.5 6.5q-13 18 -28.5 32.5t-35.5 23.5q-28 14 -58 26.5t-61 15.5q-35 3 -69.5 2.5t-69.5 -6.5q-11 -9 -25.5 -9.5t-18.5 -6.5q0 -2 -0.5 -7t-1.5 -7q0 -3 -0.5 -8t-0.5 -6q0 -10 -0.5 -35.5t-1 -57t-0.5 -66.5t1 -64.5t2 -49.5t4 -22v-4zM275 773 q-2 -54 0 -77.5t2 -26.5v-54q0 -2 0.5 -8t1.5 -8q4 -1 18 -2t18 -1q36 -3 74 -3.5t75 5t72.5 18t66.5 35.5l8 8q1 1 3.5 5.5t5.5 9t5 9t3 6.5q6 10 7 21t3 22q0 15 0.5 24t-1.5 23q-6 21 -19 36.5t-30.5 27t-36.5 19.5t-37 14q-5 1 -19 2.5t-30 3.5t-30 3.5t-20 1.5h-2 q-1 1 -2 1q-2 0 -7.5 -1t-7.5 -2q-3 -1 -11 -2t-9 0q-25 -2 -46 -4.5t-48 -7.5q-4 -1 -7.5 -3.5t-4.5 -7.5v-4q0 -5 0.5 -15t1 -20.5t0.5 -19.5v-12q1 -2 2 -8t1 -8z" />
<glyph unicode="C" horiz-adv-x="923" d="M56 479q2 24 3 48t3 48q0 2 0.5 8t1.5 13t1.5 13t0.5 8q0 3 2 12.5t3.5 20.5t3.5 21t2 13q2 15 5.5 25.5t7 20t8 19.5t8.5 22q2 5 7.5 15t11 21t10 20.5t6.5 12.5q1 2 5.5 7.5t6.5 7.5q26 26 55 52.5t64 43.5q1 1 6 3t11 4.5t11.5 5t6.5 2.5q13 5 26.5 8t25.5 11l91 20 q11 -1 24 0.5t24 2.5l63 -3q13 -2 26 -5.5t25 -6.5q1 -1 3 -1t4 -1q3 -1 5 -1l60 -51h4q2 19 5 32.5t18 25.5q3 2 10.5 6.5t9.5 4.5h18q5 0 16.5 0.5t17.5 -3.5q19 -14 26 -40.5t10 -47.5q2 -23 3 -44t1 -43v-21q0 -4 -1 -14t-1.5 -21t-1 -20.5t-0.5 -13.5 q-2 -16 -3.5 -29.5t-6.5 -23.5t-16 -15.5t-31 -5.5h-17q-5 -2 -13.5 -1.5t-17 3t-13.5 6t-3 8.5q-1 1 -1.5 6.5t-0.5 12t-1 13t-3 10.5q-1 2 -4 11.5t-4 11.5t-2 4.5t-2 4.5q-1 1 -5.5 6.5t-9 12t-8.5 12t-5 7.5q-2 2 -8 15t-8 15t-8 5.5t-13.5 6.5t-14.5 6t-10 5 q-5 5 -16.5 9.5t-19.5 6.5q-7 2 -19 4.5t-13 2.5h-95q-6 0 -17 -2.5t-22.5 -6.5t-22 -8t-14.5 -8q-43 -39 -72 -71t-47 -67t-25.5 -76.5t-7.5 -98.5q0 -18 1.5 -31t4 -25t6 -24.5t8.5 -30.5v-7q3 -20 11.5 -38.5t15.5 -38.5q11 -32 30.5 -60.5t42.5 -53.5q1 -1 7.5 -5.5 t9.5 -6.5q11 -8 21 -16t22 -15q11 -7 16.5 -8t19.5 -3q5 -1 15 -2t20 -2.5t17.5 -2.5t9.5 -1h38q48 0 85 12.5t76 41.5q5 4 14.5 14t12.5 16q7 13 13 27t12 25.5t13 19.5t18 9q5 2 17.5 1t13.5 -1t7.5 -0.5t15 -1.5t16.5 -2t12 -2q9 -2 13 -8.5t5 -15t0 -17.5t-1 -16 q0 -32 -19 -59.5t-41 -50.5q-3 -3 -8.5 -9t-12 -12t-12 -11t-6.5 -6q-27 -21 -58 -36t-57 -36q-5 -2 -16.5 -6.5t-25 -9.5t-25.5 -9.5t-16 -6.5q-2 -1 -8 -1.5t-8 -1.5q-2 0 -14.5 -1t-28.5 -2.5t-31.5 -2.5t-24.5 -2h-4h-4l-52 13t-55 16t-52 21.5t-44 29.5q-2 2 -10 10.5 t-12 12.5q-1 1 -4.5 5.5t-7 10t-7 10t-4.5 5.5q-2 1 -8.5 7.5t-7.5 8.5q-1 1 -4 6t-6.5 11t-6 11t-3.5 6l-4 4t-4 3q-32 39 -49 83t-25 94q-1 6 -3.5 21.5t-5 33.5t-4.5 34t-3 22z" />
<glyph unicode="D" horiz-adv-x="965" d="M183 17q-2 0 -8.5 -0.5t-14 -1t-14 -1t-7.5 -0.5q-15 0 -33 3t-32 10q-17 10 -22.5 24t-5.5 34q1 23 17.5 36t35.5 20q2 -1 12 0.5t12 2.5q2 0 6.5 1.5t6.5 2.5v10t0.5 15t0.5 15v10q0 39 -2.5 70t-2.5 70q0 6 0.5 16.5t0.5 20.5t0.5 17.5t0.5 8.5q0 2 0.5 9t1.5 15t2 15 t1 9q-1 1 -1 2v2q0 5 -2 10.5t-2 11.5v7q0 3 0.5 15t1.5 26.5t2 27t1 15.5v2l-1 2q0 2 -0.5 11.5t-1 21t-1 21t-0.5 12.5v4q1 25 2.5 48.5t2.5 47.5q0 24 -1 49t-8 49q-8 27 -17.5 38.5t-20.5 16t-25 7.5t-30 14q-8 4 -12.5 14t-5 21.5t2.5 23t11 18.5q11 11 27.5 14t30.5 4 h7h13.5h15.5t13 1q-3 -1 -6 -1h-6h1q2 0 10 -0.5t10 -1.5h10t15 -0.5t15 -0.5h10q67 -2 133 3t132 3h11.5h14.5t12.5 -0.5t6.5 -0.5q3 0 15.5 -1.5t26.5 -3t27 -3.5t16 -2h8q29 -9 53 -20t45.5 -24.5t42 -29.5t44.5 -36q4 0 4 -4q2 -2 6.5 -8.5t6.5 -8.5q1 -2 6 -8.5t11 -14 t11.5 -14t6.5 -8.5q3 -4 8 -13.5t10 -20t9 -20t5 -12.5q1 -2 5 -11t9 -21t9 -25t6 -22q0 -3 4 -15l5 -15q0 -2 0.5 -8.5t1.5 -14.5t2 -15t1 -8t0.5 -7t1.5 -13t1.5 -13t0.5 -7q1 -21 1 -39.5t-1 -40.5v-2q0 -26 -2.5 -57t-6 -58t-7 -46t-4.5 -20q-4 -21 -9 -35t-13 -33 q-3 -10 -6.5 -20.5t-9.5 -18.5q-6 -9 -14 -19t-15.5 -19t-13.5 -15.5t-8 -7.5q-6 -9 -16.5 -19t-22 -19t-23.5 -17t-21 -12q-36 -18 -70 -31.5t-73 -19.5q-2 0 -9 -0.5t-15.5 -0.5t-15.5 -0.5t-9 -0.5q-33 -4 -65 -8t-66 -3q-5 0 -14.5 0.5t-11.5 0.5q-7 0 -35 2.5 t-60.5 5.5t-60.5 6t-35 4h-2h-2zM309 152q2 -2 1.5 -5t1.5 -5q3 -4 13 -7t22 -5t24 -3.5t20 -1.5q16 0 32 1.5t32 5.5q9 3 27.5 7t38 8.5t35.5 8.5t21 5q2 0 10 3.5t11 5.5q6 2 17.5 7.5t23.5 11t22.5 10t13.5 5.5q9 5 17.5 13t15.5 15q13 16 23.5 26.5t19.5 29.5q1 1 3 7.5 l4 13t4 12.5t3 8q20 45 29 93t9 97v15q0 3 -2 14t-4 24.5t-4 25t-3 14.5q-3 26 -6.5 50.5t-20.5 47.5q-11 18 -23 34t-27 31t-33.5 30t-43.5 30q-3 2 -12 6.5t-19.5 10t-19 10t-11.5 6.5q-1 0 -8.5 3t-11.5 5q-2 1 -7 3t-6 2h-12q-19 4 -37 7t-38 3q-31 1 -60 -2.5 t-59 -11.5q-2 -1 -3.5 -1t-3.5 -1q-3 -1 -5 -1q-4 -3 -12.5 -10t-11.5 -10v-24q1 -23 -0.5 -47t3.5 -47q1 -1 1 -9.5v-9.5q0 -2 1 -12.5t1 -12.5q0 -4 1 -18.5t1.5 -31t1 -30.5t0.5 -18q4 -83 1.5 -168.5t1.5 -178.5q1 -5 0 -18.5t-1.5 -28.5t-1.5 -28.5t0 -19.5z" />
<glyph unicode="E" horiz-adv-x="899" d="M96 4q-14 5 -23.5 10t-16 12t-9 17t-2.5 26q1 19 13 39.5t34 25.5h24q4 0 13.5 1.5t11.5 2.5q4 1 4 5v7v8q0 1 -2 4t-2 4q0 2 0.5 10t0.5 10q-1 2 -2 12.5t-2 12.5q-2 24 -2 48t-4 49q0 9 1 32.5t1.5 50t1 50.5t0.5 33q2 73 4 143.5t8 143.5q5 13 5.5 27.5t0.5 27.5v40 q-2 12 -10 17.5t-17.5 8.5t-20.5 4t-19 3q-24 2 -39 18t-13 41q0 13 6 21.5t14.5 14.5t19 10t20.5 8q5 2 14 5t10 3t5 0.5t9 0.5h10h8q12 -2 23 0t17 -1h190l367 7q5 0 21 -0.5t21 -0.5q10 -1 17 -4t15 -8q11 -8 17 -24.5t8.5 -36.5t3 -39.5t1.5 -32.5q1 -2 1.5 -6.5 t1.5 -6.5q6 -26 4.5 -43t-6.5 -27t-11 -15t-9 -8q-14 -16 -22 -18.5t-28 -2.5q-5 0 -11 0.5t-7 0.5q-16 1 -24 11.5t-11 24t-3 28v25.5q0 9 -0.5 15t-2.5 10.5t-5.5 9t-10.5 10.5q-1 -1 -4 -1t-4 1q-1 0 -7 1.5t-12.5 4t-12 4.5t-6.5 2t-7.5 0.5t-14.5 1t-17 1.5t-14 1h-8 q-5 0 -19 1t-30.5 2.5t-31 3t-18.5 1.5h-4h-4q-1 0 -6 -0.5t-11.5 -1t-11.5 -0.5h-6h-14.5h-24h-24h-14.5q-1 0 -7.5 -2t-8.5 -2q-16 -4 -25 -7t-13.5 -8.5t-6 -15t-1.5 -26.5q0 -5 -0.5 -17t-0.5 -13l-1 -53v-7.5t-0.5 -14.5t-1 -17t-0.5 -14v-10.5t-0.5 -15.5t-0.5 -15.5 v-10.5q1 -7 3 -14t9 -10q32 -2 63.5 -7.5t63.5 -5.5h22q2 13 9.5 27t18 25t24 18t27.5 7q8 0 18 -4t15 -8q28 -23 33 -52t4 -66q-2 -35 -4 -73.5t-16 -70.5q-3 -6 -10 -11t-16.5 -8.5t-19 -5t-16.5 -1.5q-20 0 -29.5 5.5t-14 14.5t-7 22t-7.5 28q-2 4 -4.5 11.5t-3.5 8.5 l-6 2q-2 1 -5 1t-5 1q-5 1 -19 2.5t-17 1.5h-35h-34q-2 0 -9.5 -1.5t-10.5 -2.5q-20 1 -25 -16t-10 -41q-4 -8 -4.5 -21t-0.5 -21v-15t-1 -12q0 -5 0.5 -18t1 -28t0.5 -28v-19q0 -3 0.5 -9.5t1 -14.5t1 -14.5t0.5 -9.5q1 -5 2 -14t1 -11q1 -2 1.5 -12t1.5 -12q0 -1 3.5 -6 t4.5 -7q4 -9 20.5 -14t36.5 -8t39.5 -4.5t28.5 -4.5h13.5t20.5 -0.5t21 -0.5h14h18t22 0.5t19.5 0.5h9.5t7.5 0.5l13 1t12.5 1.5t8 1q14 1 30.5 2.5t33 6t31.5 12t24 19.5q5 8 3.5 16t0.5 16q1 2 2 8t2.5 12.5t2.5 12t2 8.5q1 2 2.5 4.5t2.5 3.5q12 14 24 23.5t31 9.5 q20 0 38 -13q4 -3 11.5 -10.5t8.5 -9.5q1 -1 1.5 -12t1.5 -16q2 -20 2.5 -41t-0.5 -41q-1 -28 -13 -55t-26 -50q-8 -13 -19.5 -17t-25.5 -7q-5 0 -17.5 0.5t-26.5 0.5t-27 -0.5t-18 -0.5q-3 0 -13 -1t-22 -2.5t-22 -3t-13 -1.5h-36q-2 0 -7.5 -0.5t-12.5 -1.5t-13 -1.5 t-7 -0.5h-17q-23 0 -44.5 1t-44.5 2h-7t-14.5 0.5t-16.5 0.5h-13q-56 0 -110 -2t-110 -2h-8q-4 0 -14.5 0.5t-22 1t-22 1.5t-14.5 1z" />
<glyph unicode="F" horiz-adv-x="822" d="M76 2q-14 5 -21 9t-12 17q-4 5 -4.5 14t-0.5 15q0 19 3 30.5t10.5 18.5t20 10.5t31.5 6.5q7 0 19.5 2t12.5 3l4 4q0 10 -0.5 36t-1.5 55t-1.5 55t-0.5 36q0 2 0.5 9t1 15.5t1 15t0.5 8.5t0.5 12.5t0.5 15.5q-1 48 -2 94.5t-3 94.5v19v24v21v11v23.5v34.5t0.5 33.5 t1.5 21.5l-4 63q0 3 -0.5 9t-1 12.5t-0.5 12.5v9q-5 11 -13.5 10t-18.5 2q-29 1 -45.5 17.5t-11.5 35.5q0 20 14.5 33.5t34.5 21t40.5 11t32.5 3.5h10h6t10 -1t10 -1.5t6 -0.5t9 0.5t18.5 1t21 0.5h16.5h13t19.5 0.5t19.5 1t13 0.5q24 7 47.5 3.5t49.5 -2.5q2 -1 8 0.5 t8 1.5q3 0 14 0.5t24 0.5t25 0.5t18 0.5q2 0 10.5 -0.5t18 -1t18 -0.5h10.5t14 0.5t14 0.5q23 2 43.5 1.5t44.5 -1.5q26 -1 50 -10.5t30 -29.5q1 -1 1.5 -5.5t0.5 -5.5q0 -5 1 -14.5t1.5 -19t1 -17t0.5 -9.5l3 -49q0 -1 1 -7t-1 -8q0 -2 -4.5 -10t-6.5 -9q-2 -3 -8 -7t-7 -5 t-3 -1q-2 -1 -3 -1t-2 -1q-17 -8 -25.5 -10t-28.5 -1h-2q-2 1 -9 1t-10 2q-1 4 -7.5 6t-8.5 3t-3.5 4t-2.5 6l-2 8q-3 7 -5 10t-2.5 5.5t-1.5 6t-3 12.5q0 2 -1 6.5t-3 6.5q-2 3 -8.5 10t-7.5 7l-209 6l-95 -6l-8 -8q-2 -29 -4.5 -60t2.5 -81v-12.5t0.5 -15.5t0.5 -14.5 v-7.5q0 -3 1 -12.5t2 -20.5t2 -21.5t1 -14.5q1 -2 2.5 -11.5t1.5 -12.5q2 -4 1 -8t4 -4l67 -2q5 -2 19 -2t19 -1q6 6 7 16t2.5 21t6.5 19.5t18 11.5q5 4 3.5 4t3.5 0q39 0 58.5 -13t27.5 -32.5t7 -43t-2 -44.5l-4 -71q2 -9 -3.5 -21.5t-16.5 -23.5t-27 -17t-34 -1 q-14 0 -18.5 8t-6 19.5t-3.5 24t-10 21.5q-26 3 -48.5 7.5t-48.5 3.5q-7 -1 -18.5 -2t-11.5 -11v-5q1 -5 0 -19.5t-2.5 -32t-3 -33t-0.5 -21.5v-14t1 -20q1 -39 4 -77.5t2 -77.5q-2 -15 2 -21.5t14 -9.5l66 2q10 2 21 -6t12 -16q1 -2 1 -7v-7q0 -26 -8.5 -42.5t-23 -26.5 t-34.5 -14.5t-43 -4.5h-20h-6.5t-12 0.5t-12 0.5h-6.5q-9 -1 -35.5 -0.5t-57 1t-58 0.5h-39.5z" />
<glyph unicode="G" horiz-adv-x="1012" d="M38 501v49q0 2 1 9t2.5 15.5t2.5 16t2 10.5q2 7 6.5 24.5t9.5 37t9.5 37t6.5 24.5q11 23 19 43.5t25 40.5q1 1 3.5 6t6 11.5t7 12.5t5.5 9l2.5 2.5t2.5 1.5q0 1 2.5 4.5t5.5 7.5t5.5 7.5t3.5 4.5t4.5 5.5t7.5 9t7.5 8.5t4.5 5t8 7t14.5 12.5t14.5 12.5t9 8l3 3q5 5 9 7 q2 1 10 6t10 6t13 8t13 9l4.5 2t9.5 4.5t9.5 4l4.5 1.5q32 11 61 14t62 3h28.5t28.5 -2q1 0 6 -0.5t11 -1.5t11 -2t6 -1t4 -1.5t4 -2.5q1 0 7 -2t13 -3.5t13 -3.5t8 -2q24 -5 46 -22t39 -33q2 22 17 35t35 13t30 -5.5t15.5 -15t8 -23t7.5 -28.5l8 -67q0 -25 3 -57t1 -55 q-7 -17 -22.5 -19t-36.5 -2q-5 3 -14.5 1.5t-20 -0.5t-20.5 5.5t-16 19.5q-1 1 -4 6.5t-7 12.5t-7.5 14l-5.5 11q0 1 -1.5 6t-2.5 6q0 1 -3.5 4t-4.5 4t-4.5 5t-7.5 8.5t-7.5 8.5t-4.5 5q-15 15 -30.5 21t-34.5 11q-18 5 -31 8.5t-31 3.5h-19q-3 0 -14 -2t-24.5 -4.5 t-26.5 -5.5t-20 -4q-4 -1 -15 -3.5t-13 -4.5q-39 -16 -68.5 -41.5t-45.5 -65.5q-25 -64 -39 -132.5t-14 -137.5q0 -28 6.5 -53.5t14.5 -52.5q9 -28 19.5 -56.5t24.5 -54.5q3 -5 8 -12.5t9.5 -15t8 -13.5l3.5 -6q1 -2 7 -8t14 -13.5t15.5 -15l11.5 -11.5q29 -26 66.5 -35 t75.5 -9q32 0 59 3t58 14q1 0 5.5 3l7.5 5q20 14 36 28.5t27 31t16.5 36.5t5.5 46q0 3 -0.5 14t-1.5 23.5t-1.5 23.5t-0.5 14v36q-1 2 -4 11t-5 13q-1 0 -2 1l-2 2q-2 0 -10 0.5t-10 0.5q-17 0 -43.5 -0.5t-42.5 -0.5q-16 -1 -26 5t-15.5 16.5t-7.5 25t-2 31.5 q0 13 7.5 21.5t16.5 12.5q1 1 6.5 1h11t10 0.5t5.5 0.5h2h2q3 -1 16.5 -2.5t16.5 -1.5h7t13.5 0.5t15 0.5h12.5h11t14 0.5t12.5 0.5h6.5q2 0 12 1.5t12 2.5q3 0 10 -0.5l14 -1t12.5 -1.5t6.5 -1h70h71q9 -2 17.5 -1t17 -0.5t15.5 -7.5t12 -22q0 -1 -0.5 -2t-0.5 -3v-3 q-1 -4 -0.5 -10t1.5 -12.5t0.5 -11.5t-2.5 -8q-6 -15 -26 -18.5t-42.5 -4.5t-44 -3.5t-30.5 -15.5q-2 -2 -5 -8.5t-3 -7.5v-60l4 -79l16 -130l4 -9q0 -1 0.5 -9t0.5 -13q0 -13 -1 -31.5t-12 -29.5q-8 -8 -26 -12t-32 -4q-16 0 -23 4.5t-10.5 12t-5.5 17.5t-8 22q0 4 -4 4h-2 h-2q-5 -2 -18.5 -9.5t-17.5 -9.5q-2 -1 -8 -5.5t-9 -6.5q-14 -11 -35.5 -19.5t-44.5 -14t-46 -8t-40 -2.5h-8q-2 0 -11.5 1t-20 2t-20 2t-11.5 1q-19 4 -31 6t-30 7q-7 1 -17.5 4.5t-21 6.5t-18 5.5t-8.5 3.5q-2 1 -9.5 5.5t-17 10t-19 11.5t-13.5 9l-16 16q-21 22 -38.5 40 t-32.5 36t-28.5 38t-25.5 47q-11 24 -19 49t-15 49q0 1 -2.5 9.5t-5 20t-5 22t-3.5 16.5v4q-1 3 -1 15t-1 15v49z" />
<glyph unicode="H" horiz-adv-x="1031" d="M33 78q-2 4 -1.5 11t4 14t10.5 12.5t18 6.5l62 5q5 0 10.5 5t7.5 7v16v16q-1 19 -1.5 59t-1 84t-1.5 83.5t-4 56.5v12t1 16v35t-4 35q2 66 2.5 140t-3.5 141q-1 12 0 20.5t1 14.5t-2 11.5t-9 11.5q-6 9 -16.5 8.5t-19.5 1.5q-7 1 -18.5 3.5t-23 6.5t-19.5 10t-8 15v2 q-5 33 12.5 51t62.5 22h9.5t16.5 0.5t17 1t10 0.5h9.5t18 -0.5t18 -0.5h10.5q9 2 21.5 1.5t15.5 -0.5q1 1 15 0.5t21 -1.5q5 0 18.5 -0.5t18.5 -1.5q37 3 55 -4t29 -9q14 -13 20.5 -34.5t6.5 -40.5q1 -20 -10 -28t-28.5 -10t-38.5 -1t-39 -1q-2 -17 -4.5 -45t-3.5 -59 t-0.5 -60t3.5 -48q1 -7 1.5 -15t2 -14.5t6 -11t14.5 -4.5l137 -5q2 1 9.5 1.5t29 0.5t60.5 -0.5t104 -1.5q2 0 10 -0.5t10 0.5q2 -1 8 0.5t8 2.5q8 3 12.5 6.5t4.5 19.5q0 51 -1 104.5t0 104.5v23l-4 9q-5 1 -9 2t-8.5 1.5t-6.5 1.5q-14 2 -26.5 4t-23.5 6.5t-20 12.5 t-15 23q-1 3 -1.5 12.5t-1.5 13.5v4q0 10 7.5 18t12.5 15q9 11 25 11h29q7 -1 21 -1.5t22 -0.5q37 -2 75 -3t75 1q2 1 14.5 0.5t14.5 -0.5q4 1 12.5 1h17h15h8.5q25 -1 36 -10.5t26 -29.5q1 -1 1 -9.5t1 -10.5v-2v-2q-3 -8 -4.5 -19.5t-10.5 -16.5q-2 -6 -16.5 -8.5 t-32.5 -4.5t-33.5 -3.5t-18.5 -4.5l-4 -162l-5 -8l1 -229v-6q0 -1 -1 -6.5t-1.5 -11.5t-1 -11.5t-0.5 -6.5v-9t1 -15.5t1.5 -15.5t0.5 -9q0 -6 -0.5 -31t-1 -54t-1 -54t-0.5 -31q0 -2 1 -11.5t2 -22t2 -24.5t2 -19q1 -5 2 -13t2 -8l66 -2q2 0 8 -3t9 -5q14 -11 14.5 -28.5 t0.5 -31.5q0 -15 -6.5 -24t-15.5 -14t-19.5 -7t-20.5 -4q-11 -3 -25.5 -5t-30 -4t-30 -2.5t-24.5 -0.5q-27 1 -56.5 1t-55.5 2q-2 0 -8.5 0.5t-8.5 0.5q-2 1 -10.5 3t-10.5 4q-1 0 -6 3.5t-6 4.5q-8 10 -11 18.5t-3.5 16.5t-1 15.5t-3.5 16.5q0 5 4.5 14t9.5 14 q7 7 16.5 8.5t20 1.5t21.5 1t21 9q1 1 2.5 3.5t1.5 4.5q1 5 1 18.5t0.5 28t0.5 28t1 18.5v2v2q0 4 -0.5 21t-1 36t-1 35.5t-0.5 21.5v8q0 1 -0.5 7.5t-1 14t-1 14t-0.5 8.5v11v19t-2 18t-6 9l-73 5h-12l-158 8q-2 -1 -10 -2t-10 -1h-21h-95h-17.5t-16.5 -3q-5 -2 -5.5 -7.5 t0 -12.5t0.5 -13.5t-4 -10.5l-1 -56q1 -8 1.5 -31t0.5 -52v-60t0.5 -54t1 -34.5t1.5 -0.5l4 -8q46 -5 69 -12.5t35 -28.5q4 -4 10 -11.5t6 -8.5q1 0 1 -5.5v-7.5q-1 -33 -26 -51h-4q-2 -1 -10 -4t-10 -4q-51 2 -96.5 0.5t-96.5 0.5q-3 0 -10 0.5t-15 0.5t-15 0.5t-10 0.5 q-19 0 -38 1t-34.5 5t-25 12.5t-8.5 23.5q-3 7 -3 17.5v17.5z" />
<glyph unicode="I" horiz-adv-x="640" d="M25 56q0 19 2 30.5t8 17.5t16 9t25 7h11h22t22 0.5l10 0.5h4q19 0 32.5 -1.5t32.5 -1.5l2 1q1 0 2 1l9 24q0 6 0.5 20t1 30.5t1 30.5t0.5 20q0 1 0.5 5.5t1.5 9t1.5 8.5t0.5 5q2 44 3 87.5t3 86.5q0 5 1 23.5t2.5 39.5t2.5 39.5t1 23.5v71v19t-0.5 24t-0.5 21.5v10.5 q0 3 -1.5 15.5t-2.5 16.5q0 1 -1 8t-1.5 16t-1.5 17t-2 12q-2 7 -2.5 17.5t-2 19.5t-6 15t-14.5 6q-8 0 -21 -1.5t-21 -1.5q-5 0 -12.5 -3t-12.5 2q-21 -2 -44.5 -0.5t-43.5 9.5t-33.5 24t-13.5 42q0 24 17.5 38.5t42.5 22.5t51 11.5t43 3.5q8 1 23.5 0.5t16.5 -0.5t8.5 -1 t12.5 -2q1 0 8.5 0.5t9.5 -0.5h2l121 -5q1 0 7.5 0.5t13 0.5t12.5 0.5t8 0.5h20t30.5 -0.5t30.5 -1t20 -0.5q20 -5 35.5 -7t29.5 -19l5.5 -11t6.5 -14v-1v-3q-1 -4 -2 -18t-2 -18q-11 -14 -28.5 -23t-35.5 -11q-5 -1 -17.5 -2.5t-27 -3.5t-27 -3.5t-17.5 -1.5 q-4 -2 -5.5 -7.5t-2.5 -8.5q0 -3 -0.5 -10t-0.5 -15.5t-0.5 -16t-0.5 -10.5v-6l-2 -79q1 -39 1.5 -77.5t0.5 -76.5q1 -47 -3 -93t-1 -91.5t3 -91.5q0 -3 -0.5 -15.5t-1 -26.5t-1 -27t-0.5 -16v-26v-26q3 -7 11 -11t14 -4h11h8.5h14t14 0.5t8.5 0.5h2q16 0 36.5 -3t38 -11.5 t30 -22.5t12.5 -35q0 -9 -4 -20t-13 -16q-25 -11 -52 -12t-53 -6q-3 -1 -16.5 -2t-28.5 -2t-28 -2t-16 -1h-10q-24 -1 -51 1.5t-52 1.5q-41 -1 -77.5 -3t-77.5 -4h-38.5t-38.5 7q-17 7 -22.5 22.5t-5.5 32.5z" />
<glyph unicode="J" horiz-adv-x="869" d="M35 356q0 4 -0.5 12t-0.5 9t2 6t2 6q2 5 6.5 17t8.5 19q24 39 45.5 59t50.5 34q5 3 14 7.5t11 4.5q2 1 8.5 2.5t14 3.5t14 3.5t8.5 1.5h17h25q66 -12 100.5 -49.5t31.5 -92.5q0 -14 -0.5 -20.5t-0.5 -9.5q-14 -26 -33 -42.5t-50 -16.5q-15 1 -32 10t-31.5 22.5 t-22.5 31.5t-5 37q-17 -8 -29 -24.5t-19 -36.5t-10 -41.5t-3 -39.5q0 -10 2.5 -19.5t6.5 -18.5q6 -31 29.5 -54.5t56.5 -35.5t72.5 -11.5t76.5 17.5q26 11 44 26t38 37q28 38 37 80.5t9 86.5q0 9 -0.5 33.5t-1 51.5t-1.5 51t-1 34q-4 21 -6 53.5t-4 68.5q0 4 -0.5 13 t-1 19.5t-1.5 19.5t-1 12l-8 71q0 11 0.5 19.5t-4.5 19.5q-2 4 -10 6t-18 3t-19 1.5t-13 0.5q-2 0 -10 0.5t-18 1t-18 1t-10 0.5t-8.5 1t-14 2t-14 2t-9.5 2q-27 7 -40 20.5t-13 45.5q0 40 28 58.5t65 20.5q7 0 24.5 0.5t37 1t36.5 1.5t24 1q0 -1 14.5 -1h36.5t47 0.5t47 1 t36.5 1l14.5 0.5h37.5t52 -4.5t46 -15t19.5 -31.5q0 -1 -0.5 -2t-0.5 -2q0 -24 -6.5 -38t-18 -22t-28 -12t-37.5 -8h-7q-8 0 -20 -1t-25.5 -1.5t-25.5 -1.5t-19 -1q-6 0 -8.5 -7t-4 -16.5t-1.5 -18.5v-13q3 -25 4.5 -45.5t2.5 -42t3 -47.5t5 -62q0 -2 0.5 -9t1 -14.5 t1.5 -14.5t1 -10q0 -2 1.5 -9.5t3 -16.5t2.5 -17t1 -10v-66v-75q0 -2 -0.5 -6.5t-1.5 -10t-1.5 -10.5t-0.5 -6v-19q-5 -41 -13 -76t-23.5 -66t-39.5 -59t-60 -54q-2 -1 -12 -8.5t-12 -8.5q-5 -3 -15.5 -8t-23 -10t-23.5 -10t-15 -7q-49 -18 -94.5 -20.5t-85.5 6.5t-73.5 28 t-58.5 45q-23 35 -35.5 58.5t-19.5 43.5q-4 9 -9.5 19.5t-8.5 19.5q-6 21 -8.5 36.5t-4 30t-1.5 30.5v37z" />
<glyph unicode="K" horiz-adv-x="1034" d="M44 83q7 31 19 47t47 15h16q2 0 8.5 -2.5t7.5 -2.5q2 0 6.5 1.5t5.5 2.5q3 79 6 153t6 153v4q0 1 0.5 2.5t0.5 2.5q0 7 -1 34t-2.5 57.5t-3 57.5t-1.5 34v8q0 3 -2 14t-4 14l-4 181q0 2 -5.5 6t-8.5 6q-2 1 -9.5 4t-10.5 4q-2 1 -12 1.5t-12 1.5q-5 0 -12.5 3t-14.5 7 t-12.5 9.5t-5.5 10.5l-1 45q1 7 2.5 14t4.5 13t9.5 10t19.5 5q1 1 4.5 0.5t4.5 -0.5q31 6 57.5 8t52.5 1.5t53.5 -1.5t61.5 1q63 -2 85 -25t17 -63q-4 -18 -19.5 -25.5t-33.5 -9.5t-33 -3t-17 -5q-4 -3 -3 -8t1 -7q-1 0 0 -11t0 -17l-9 -93v-81q0 -3 1 -10t1.5 -15t1 -14.5 t0.5 -9.5q1 -1 2.5 -3.5t1.5 -4.5q1 1 7 4t13.5 6t13.5 6t7 4t6 5t10.5 8.5t10.5 8.5t6 5q7 5 13.5 10t13.5 10q21 16 38.5 32t34 31.5t34 31.5t38.5 32q1 1 9 8.5t17.5 15.5t17.5 15t10 8q11 8 29 23.5t27 24.5q-9 1 -20 5.5t-20 12t-14.5 17t-3.5 20.5q-2 23 12.5 39.5 t32.5 17.5q4 1 11.5 2t9.5 1q23 2 41 0t42 0h4q2 0 2.5 -0.5t1.5 -0.5q2 1 11.5 0.5t11.5 -0.5q11 1 33.5 -1t45.5 -4t40.5 -4t18.5 -2q11 -2 19 -9.5t17 -15.5q11 -11 18 -27t7 -31q0 -11 -6.5 -19t-14.5 -16q-15 -16 -36 -15h-17h-25.5t-25 0.5t-16.5 0.5 q-14 -5 -26.5 -16t-22.5 -19q-9 -9 -34.5 -31t-53.5 -47.5t-53.5 -48.5t-34.5 -32q-4 -6 -11.5 -14.5l-15 -17t-13 -17.5t-5.5 -16q0 -14 4.5 -23t11.5 -20q1 -2 5 -8.5t9.5 -14.5t9.5 -15t5 -8q2 -2 7.5 -11t6.5 -11t5.5 -9.5t10 -16t10 -16.5t5.5 -9q-1 -2 2 -6.5t5 -6.5 q1 -2 4.5 -6.5t7.5 -10t7.5 -10.5t4.5 -6q1 -2 5 -9.5t9 -15.5t9 -15.5t5 -9.5q11 -18 27.5 -38t29.5 -36q2 -2 6.5 -7.5t5.5 -6.5l23 -35q1 -1 6.5 -5.5t11 -9.5t10.5 -10l6 -6q14 -16 25.5 -33t27.5 -31q3 0 10 -0.5t15 -1t14.5 -1t9.5 -0.5q9 -1 19.5 -4.5t19 -9.5 t13.5 -14.5t5 -19.5q1 -11 -1 -19t-6 -21q-1 -3 -5.5 -6.5t-10 -6.5t-10 -5.5t-6.5 -3.5t-11.5 -3.5t-12.5 -3.5t-11 -2.5t-9 -1.5l-263 -5q-1 0 -6 1.5t-8 2.5q-22 8 -31 22.5t-10 38.5q0 22 14.5 32.5t34.5 15t41 5.5t35 4q-14 29 -27.5 50.5t-30.5 45.5q-1 2 -6.5 12.5 t-7.5 13.5q-1 1 -2.5 4t-1.5 4q-2 2 -5 8.5t-5 7.5q-11 17 -21.5 34t-22.5 33q-2 2 -6.5 7.5t-9.5 11.5t-10 11.5t-7 7.5l-5 5t-8.5 9t-9 9.5l-5.5 5.5q-20 23 -36.5 47.5t-39.5 44.5h-4q-5 0 -6 -0.5t-6 -3.5q-42 -21 -74 -47.5t-65 -60.5q-7 -20 -11.5 -40t-4.5 -40 q0 -17 3 -35t5 -35v-16q0 -3 0.5 -9t1.5 -13t1.5 -12.5t0.5 -6.5q1 -4 2.5 -11t3 -14.5t3 -13t3.5 -5.5l77 -3q8 0 17.5 -6t17 -14t12.5 -18t5 -18q0 -29 -17.5 -42.5t-42.5 -18t-52 -4.5t-46 -1q-32 -3 -58.5 -6t-59.5 -2h-7t-6 1q-17 2 -37.5 6.5t-38 13.5t-29.5 23 t-12 36v6z" />
<glyph unicode="L" horiz-adv-x="912" d="M454 9h-27.5t-34.5 -0.5t-30 -0.5h-15q-3 0 -13.5 -0.5t-23 -1.5t-23 -1.5t-13.5 -0.5h-18h-19q-8 0 -22.5 1t-29.5 1.5t-26.5 1t-14.5 0.5q-2 0 -9.5 1t-16.5 2.5t-17.5 2.5t-12.5 2q-8 1 -18 5.5t-18.5 11t-14.5 15t-6 17.5q0 7 3.5 23t8.5 21q24 24 47.5 31.5 t57.5 5.5q5 14 5 28t4 28v67q0 43 -2.5 85t-2.5 85q0 31 2.5 61t2.5 61q0 38 -4.5 76t-4.5 76q0 27 2 53.5t2 53.5v2v36q1 15 -3.5 22t-12.5 9t-17.5 2t-18.5 1q-9 -5 -18.5 0.5t-16 16t-10 23.5t-0.5 23q0 16 8 26t20.5 16t26.5 8t26 3q20 1 54 1.5t71.5 0t73.5 -3t60 -8.5 q5 -2 12 -7.5t13 -13t10.5 -16t5.5 -14.5v-7q0 -3 0.5 -5t0.5 -4t-0.5 -8t-0.5 -8q-7 -11 -23 -12.5t-26 -3.5q-18 -4 -30.5 -7t-29.5 -9q-11 -5 -14 -14.5t-3 -20.5q-2 -19 -2.5 -28.5t-0.5 -22.5t-1 -36t-4 -69q-7 -14 -7 -30t-1 -30q0 -3 -0.5 -12.5t-1.5 -20.5 t-1.5 -20.5t-0.5 -11.5v-69q0 -72 2.5 -153t1.5 -153q0 -3 1.5 -12.5t2.5 -12.5q4 -9 15 -11t18 -4q3 -1 16.5 -2.5t29.5 -3.5t29.5 -3.5t17.5 -2.5q3 -1 9.5 -2t14.5 -2t14.5 -1.5t9.5 -0.5h10h17h16.5h9.5q1 0 7 1t13 2.5t12.5 2.5t7.5 1h13q22 0 42.5 3.5t42.5 8.5 q7 1 20.5 4.5t19.5 7.5q11 6 14.5 12t5.5 17q4 15 8.5 29t8.5 28q7 31 19.5 42t46.5 11q29 0 43.5 -6.5t19.5 -34.5q1 -5 2 -12.5t2.5 -15t2.5 -13.5t1 -7q0 -2 0.5 -17t0.5 -23q0 -19 -2.5 -40t-9 -41t-18 -37t-28.5 -29q-3 -2 -10 -5t-15.5 -6.5t-16 -6t-10.5 -2.5 q-17 -2 -34.5 -1.5t-34.5 -2.5q-49 0 -78 1.5t-52.5 2.5t-49 1.5t-65.5 -0.5z" />
<glyph unicode="M" horiz-adv-x="1311" d="M68 78q1 7 6.5 13.5t13 12t16 8.5t15.5 3h11h16.5t16.5 -0.5t11 -1.5l2.5 2.5t1.5 2.5q1 1 2.5 10t2.5 14v1q0 2 1 3q1 46 3 95.5t0 96.5q-4 54 -4 105.5t-1 105.5q1 69 4 135.5t4 136.5q0 5 -0.5 13t-0.5 15.5t-0.5 13l-0.5 5.5l-80 2q-2 0 -15.5 7t-21.5 12q-5 3 -8 13 t-5 22t-2.5 23t-0.5 16v6q9 14 23.5 19t30.5 7q16 4 29 6.5t25 4t25 2.5t29 2q5 5 19 6t30.5 0.5t31 -1t20.5 1.5q20 -2 37 -7t36 -14q1 0 6 -1.5t6 -2.5q2 -1 5 -1.5t3 -1.5q1 -1 5 -4.5t8.5 -8l8.5 -8.5l5 -5q5 -8 10 -15.5t10 -19.5t10 -31t10 -49q-2 -7 0 -18t5 -23 t6.5 -23t5.5 -18q0 -2 2 -8.5t3.5 -14t3.5 -14t2 -7.5t1.5 -6t3.5 -10t3.5 -10t1.5 -6q1 -4 6 -22t10.5 -38.5t10 -38.5l5.5 -22q10 -41 25.5 -80.5t27.5 -80.5q8 -17 14.5 -40.5t12.5 -47t11 -42.5t10 -27h2h1q0 1 1.5 2.5t2.5 3.5q2 5 5 14t4 11q0 3 2.5 13t4.5 21t4.5 21 t2.5 13q11 38 23 74.5t25 73.5q0 2 1.5 10.5t2.5 10.5q16 54 38 104.5t39 104.5q12 36 22 71t21 70q0 1 1.5 4t2.5 4q7 14 14 31t15 34t18 31t22 22q3 1 10 2t14.5 2.5t14.5 3t10 2.5h12h33t56 0.5t56.5 1t32.5 0.5h19q2 0 4.5 -0.5t5.5 -0.5q4 -1 7 -1q1 0 4 -2t4 -2 t5.5 -1.5t10 -2.5t10 -2.5t5.5 -1.5q4 -2 10 -12t11.5 -22.5t9 -24t3.5 -17.5q-1 -21 -18 -32.5t-37 -15.5q-2 0 -8.5 -0.5t-14 -0.5t-14 -0.5t-7.5 -0.5q-2 0 -6.5 -1.5t-5.5 -2.5q-1 -3 -2.5 -13.5t-1.5 -13.5q0 -4 -0.5 -21t-0.5 -38.5t-0.5 -43t-1.5 -33.5v-8.5t-1 -9.5 q0 -26 1.5 -58.5t1.5 -57.5q0 -4 0.5 -15t1 -24t1 -24t0.5 -14v-12.5t2 -15.5q5 -32 1.5 -65.5t1.5 -65.5v-172q0 -2 1.5 -11t2.5 -13q2 -12 11.5 -14t20.5 -3q8 0 13.5 0.5t13.5 2.5l40 -13q10 -3 13.5 -15.5t2.5 -20.5q0 -2 -1 -6.5t-1 -6.5l-6.5 -6.5t-9.5 -10.5t-10 -11 t-7 -6q-1 -1 -4 -2t-4 -1q-2 -1 -9 -2.5t-14.5 -3l-15 -3t-10.5 -2.5q-2 0 -7.5 -0.5t-12 -1t-12.5 -1t-7 -0.5q-2 -1 -9 -4t-8 -3h-7.5t-14.5 -0.5l-16 -1t-12 -0.5q-8 0 -22.5 1t-29.5 1.5t-27 1.5t-14 1q-1 0 -6 0.5t-11.5 1t-13 1.5t-10.5 2q-13 2 -27.5 2t-25.5 5 q-9 3 -13.5 9t-7 14t-3 16t-0.5 15q2 23 12.5 35t33.5 14q2 0 8 -0.5t8 -0.5q1 0 6 2t6 2q3 0 9 1t13 2t13 2t8 1q7 2 7.5 5.5t0.5 8.5q0 11 -2 25t-1 25q0 2 0.5 6.5t0.5 5.5q12 114 18 229q0 26 -1.5 49t-0.5 49q0 2 0.5 11t1 19t1 19t0.5 11v9t-0.5 19.5l-1 23t0.5 19.5 v14v21v21.5v14.5q-6 25 -6 53l-4 5q-10 -16 -16.5 -32t-11.5 -32q-2 -11 -10 -28.5t-12 -26.5q0 -2 -1.5 -7.5t-2.5 -8.5q-5 -12 -5.5 -16.5t-4.5 -14.5l-4.5 -9t-7 -15t-7 -15t-3.5 -9q-8 -19 -13.5 -41t-13.5 -42q-9 -26 -20.5 -50.5t-20.5 -51.5q-3 -7 -5 -12t-3 -8.5 t-1 -4.5l-46 -128q-14 -23 -17 -50.5t-11 -52.5q0 -1 -2 -3.5t-3 -3.5q-12 -27 -21.5 -55t-17.5 -56q-13 -13 -29 -17t-33 -4q-12 1 -25 3t-24 10q-16 16 -27.5 38t-20.5 43q-1 3 -5.5 12.5t-9.5 20t-9.5 20t-5.5 12.5q0 2 -3 9.5t-5 10.5q-1 2 -3 12t-3 13q-2 4 -5 15.5 t-6 24t-6 24t-5 16.5q-5 2 -6 10t-2 10t-5 11.5t-8.5 21t-8 21t-4.5 12.5q0 2 -2.5 13.5t-4.5 17.5q-8 45 -21.5 88.5t-21.5 88.5q0 2 -2 9t-3.5 15.5t-3 15.5t-1.5 9q0 1 -1.5 7t-1.5 8q-1 2 -4 12t-4 12q0 3 -2.5 14t-5.5 24t-5.5 24t-3.5 14q-1 2 -5 11.5t-6 13.5 q0 1 -1.5 2.5l-2.5 2.5h-2h-2q-12 -80 -19 -157t-11 -158v-17t-0.5 -21.5t-0.5 -18.5v-9v-8t0.5 -13.5t1 -14t0.5 -8.5v-14v-24.5t0.5 -26t0.5 -18.5q-1 -1 -1 -7.5t-1 -8.5q0 -3 1 -13t2 -21t2 -21t1 -13q2 -13 2.5 -24.5t11.5 -19.5q15 -2 31.5 -4.5t32 -7.5t29 -14 t22.5 -23q0 -6 1 -11t1 -8.5t1 -5.5v-2v-2q-4 -15 -19 -31q-9 -11 -24 -17.5t-32.5 -9t-35 -3t-30.5 0.5h-18q-2 0 -9 1t-15.5 2t-15.5 2t-9 1t-11.5 -0.5t-20.5 -0.5t-20.5 -0.5t-11.5 -0.5q-5 0 -20.5 2.5t-19.5 3.5q-9 1 -21 2.5t-23.5 4.5t-21.5 8t-14 14q-1 2 -2 8 t-2 13t-1.5 12.5t-0.5 7.5v4v0z" />
<glyph unicode="N" horiz-adv-x="1051" d="M78 69q2 3 8 15.5t9 16.5q12 19 34.5 23.5t42.5 9.5l3 178q-1 2 0 11.5t1 12.5q-3 33 -2.5 66.5t-1.5 67.5q0 1 -1 7.5t-1.5 14t-1.5 14t-1 8.5v35q0 48 2.5 95.5t2.5 95.5q1 8 1 17t-0.5 22t-0.5 31v44l-5 8q0 1 -15.5 3.5t-24.5 4.5q-26 5 -41.5 19t-31.5 34 q-2 2 -4.5 6.5t-3.5 5.5v2q0 11 6.5 17.5l13.5 13.5q20 17 46 24.5t52 7.5q20 0 43 -1t41 -3q2 0 10.5 -2t10.5 -2h4h4q1 0 4 2t4 2t6 -2t6 -2q17 -5 31 -8t30 -12q11 -7 18.5 -18.5t13.5 -22.5q3 -4 7 -11t7.5 -14t6.5 -12.5t3 -6.5q1 -2 2 -6.5t2.5 -10t2.5 -10.5t2 -6 q0 -2 5 -12t7 -12q6 -13 10.5 -26t9.5 -27q1 -2 5.5 -11.5t6.5 -12.5q1 -1 4 -6t4 -6q3 -6 10 -19.5t15 -29t14.5 -29.5t9.5 -19l20 -49q1 -1 4 -6t4 -6q1 -3 6.5 -13t12 -21.5t11.5 -21.5t7 -13q0 -1 2.5 -9.5t4.5 -10.5q1 -2 5.5 -9.5t9.5 -16t9.5 -16t5.5 -9.5t4 -6.5 t6.5 -10t6.5 -9.5t4 -5q1 -2 5 -7.5t8 -12.5t8 -12.5t5 -6.5q6 -9 14.5 -23t17.5 -29t17.5 -29t14.5 -23l4 -4l2 -1q1 -3 1.5 8.5t0 30.5t-1.5 44t-2 49t-1.5 45.5t-0.5 33.5v22.5t-0.5 27t-0.5 23.5v11q0 3 -0.5 9t-1 13t-1.5 13.5t-1 8.5v219q0 1 -0.5 5.5t-1 9.5t-1.5 10 t-1 7t-1.5 6.5t-2.5 5.5q-1 0 -4.5 0.5t-5.5 0.5q-13 0 -25 -2.5t-26 -2.5q-34 0 -55.5 18.5t-21.5 53.5q0 20 12 36.5t29 25.5q26 14 57 15.5t60 4.5q2 1 13.5 1h13.5h4q37 2 72.5 1t83.5 -7q27 1 41.5 -5t22 -17t8.5 -25.5t1 -29.5q0 -8 -4 -14.5t-9 -13.5t-14 -11.5 t-18 -4.5h-12.5h-20.5h-20.5h-12.5q-11 0 -14 -2.5t-3 -6.5t1 -11t0 -16v-9.5t-0.5 -14.5t-0.5 -14.5v-9.5v-12.5t0.5 -15.5t0.5 -14v-7v-17v-29.5t0.5 -29.5t0.5 -17v-13.5v-23v-23v-13.5q0 -11 -0.5 -36t-1 -52t-0.5 -51t1 -33q1 -6 1 -25t0.5 -41t1 -42t1.5 -29l5 -59v-8 q0 -2 0.5 -10t1.5 -17t1 -17v-10q-2 -27 -1 -53t-8 -52q2 -14 -18 -25t-49 -13h-37.5t-35.5 7q-26 11 -42 32.5t-36 43.5q-2 2 -7 10.5t-12 18.5t-13.5 19.5t-9.5 14.5l-16 24q-14 24 -27 44t-24 45q-8 19 -19.5 41.5t-20.5 41.5q-2 3 -6 12t-8.5 19t-9 18.5t-5.5 11.5 q-1 2 -4 10t-4 10q-2 3 -9.5 15t-8.5 15q-1 1 -5 9.5t-4 9.5q-6 26 -19.5 54.5t-23.5 52.5q0 1 -1.5 4.5t-4 7.5t-4.5 7.5t-2 4.5q-1 2 -7.5 14.5t-7.5 14.5q2 3 -6.5 20.5t-24.5 43.5q-5 7 -10 16t-13 15q-5 -1 -4.5 -6.5t0.5 -7.5q0 -11 -1 -18.5t1 -20.5l4 -117l2 -211 l-1 -149q0 -8 0.5 -19t2 -22.5t5 -21.5t10.5 -14q1 -1 4 -0.5t4 0.5q14 -1 33.5 -6.5t37 -14.5t29 -19.5t10.5 -20.5q0 -1 -0.5 -1t-0.5 -1v-2q-1 -2 -5.5 -11.5t-6.5 -12.5q-7 -14 -21 -21t-30 -11t-32.5 -5.5t-29.5 -3.5q-33 -5 -63.5 -6.5t-64.5 -1.5h-67q-25 4 -45 17 t-20 41v11z" />
<glyph unicode="O" d="M42 551q0 1 0.5 5.5t1 9.5t1.5 10t1 7q5 31 10 61.5t18 59.5q2 2 6.5 12.5t6.5 12.5q0 2 3 10t5 10q1 1 4.5 7t7.5 13t7.5 12.5t4.5 7.5t2.5 6.5t1.5 6.5q3 5 11.5 17.5t18.5 26.5t18.5 27t12.5 18q1 2 7.5 9.5t8.5 10.5q1 2 4 4.5t4 3.5t6.5 5t13 9t14.5 10t11 8 q18 14 39 21t41 16q34 7 57 11.5t39 7t27.5 3t23.5 -0.5q5 0 13.5 -0.5t10.5 -0.5q1 0 7.5 -0.5t14 -1.5t14 -1.5t8.5 -0.5h16q2 0 10.5 -3.5t10.5 -4.5q1 0 6 -1.5t10 -2.5t10 -2.5t6 -1.5l8 -4q7 -4 18 -10t21.5 -12t18 -10.5l7.5 -4.5q1 -1 7.5 -6.5t15 -12.5t16.5 -14 t13 -11q50 -44 76.5 -98t45.5 -117q11 -36 14.5 -64.5t3.5 -66.5v-99.5t-16 -100.5q-8 -40 -15 -69t-15 -52.5t-17.5 -42.5t-20.5 -40q-61 -80 -141 -115t-165 -37q-51 0 -92 9t-88 30q-2 1 -8.5 4t-14 6.5t-14 6.5t-7.5 4q-26 14 -50.5 36t-45.5 47.5t-38.5 53.5t-30.5 54 q-1 1 -3.5 7t-5 13t-5 12.5t-2.5 7.5q-11 24 -13 44.5t-12 44.5l-2 4l-2 4q0 1 0.5 6t-0.5 6q0 1 -1 6t-2.5 10l-3 10t-1.5 6v12q0 1 -0.5 7.5t-1.5 13t-1.5 12.5t-0.5 8q0 6 -1 16.5t-1.5 20.5t-1 18t-0.5 10zM217 477q0 -27 6 -57t17 -56q1 -1 4.5 -7.5t3.5 -8.5 q1 -1 2 -6t2.5 -10l3 -10t1.5 -6q0 -2 1.5 -6t2.5 -6q36 -96 121 -150q18 -11 37 -18t40 -7q22 0 47 6t49 16t46 22.5t40 24.5q22 16 37 41t25 48q1 2 2.5 8.5t1.5 8.5q1 1 4.5 7.5t3.5 8.5q5 16 7 33t2 34q0 5 1.5 17t-0.5 19q-1 3 -0.5 8.5t1 12t1 12.5t0.5 9 q-4 47 -12.5 91.5t-20.5 90.5q-1 2 -2.5 6t-1.5 6q-1 1 -4.5 7.5t-3.5 8.5q-3 18 -17.5 44.5t-39.5 74.5q-2 2 -8 8.5t-13 13.5t-14 13t-10 9q-7 6 -15.5 8.5t-16.5 7.5q-2 2 -6.5 5t-5.5 3q-21 8 -45 14.5t-47 6.5h-1q-14 -7 -24.5 -11.5t-24.5 -9.5q-1 0 -8 -1.5t-8 -2.5 q-30 -18 -56.5 -43.5t-41.5 -57.5q-13 -27 -28 -55.5t-20 -57.5q0 -1 0.5 -6t-0.5 -6q0 -2 -1.5 -10t-4 -17t-4.5 -16.5t-2 -9.5t0.5 -12t-0.5 -12q0 -2 -0.5 -10.5t-1 -18t-1 -18t-0.5 -10.5v-21z" />
<glyph unicode="P" horiz-adv-x="876" d="M96 4q-18 -2 -29 4t-17 16.5t-8 23.5t-2 25v2q2 4 4.5 11.5t3.5 8.5q2 2 4 5.5t5 6.5q8 7 20.5 5.5t20.5 -1.5q4 1 16 2.5t16 1.5q12 9 15 25t3 30v27t-0.5 36.5t-1 34t-0.5 19.5v13v489q-4 11 -4.5 22.5t0 23t0 22.5t-5.5 22q-3 0 -11 0.5t-17 1t-17 1.5t-11 1 q-20 2 -34.5 14t-14.5 32q0 8 0.5 11.5t7.5 10.5q1 2 5 6l8.5 8.5l8.5 8.5l6 6q1 0 4 1.5l5 2.5q14 6 25 9.5t31 6.5t55.5 6.5t98.5 9.5h13h15q5 0 24.5 -0.5t42 -0.5h42h24.5q31 -2 66.5 -4t72 -8t73.5 -19t72 -37q2 -2 8.5 -8t8.5 -8q6 -8 15 -18t17.5 -21t16 -22 t11.5 -20q2 -2 6 -12.5t6 -15.5q1 -2 3.5 -8.5t5 -14t5 -14t3.5 -8.5q11 -54 3 -101t-28 -85.5t-48.5 -69t-58 -52t-56.5 -34t-45 -14.5q-14 -5 -25 -4t-26 -4q-1 0 -4 -2t-4 -2h-16q-4 0 -18 -1.5t-30.5 -3t-30.5 -2.5t-18 -1q-3 0 -12.5 0.5t-20 1t-20 1.5t-12.5 1h-20 h-23l-4 -8l-1 -9t-1.5 -21t-1 -25t-0.5 -22q-2 -37 -5.5 -73.5t-3.5 -72.5v-24q1 -4 2.5 -14.5t1.5 -14.5q1 0 2.5 -1.5l2.5 -2.5q4 0 17.5 -1t28.5 -2.5t28 -2.5t18 -2q13 -2 17 -5.5t11 -14.5q0 -2 0.5 -11t0.5 -11q0 -12 -0.5 -20.5t-8.5 -18.5q-7 -8 -21.5 -12.5 t-31 -7.5t-32 -4.5t-25.5 -3.5h-70h-71q-5 0 -16.5 0.5t-24 1t-24.5 1.5t-16 1zM478 891q-30 0 -59.5 -4.5t-59.5 -7.5q-7 -1 -19 -0.5t-18 -4.5q-1 0 -2.5 -6.5t-1.5 -9.5v-283q0 -2 3.5 -14t5.5 -18q3 -11 12 -15t20 -6q2 0 7.5 -1t11.5 -1.5t10.5 -1t6.5 -0.5t9 0.5 t15.5 1.5t15.5 1.5t9 0.5h12q4 0 12.5 1t17.5 1.5t17 1t10 0.5q28 3 48.5 5t38 8t34 17.5t35.5 34.5q10 10 18 28t13.5 37t7 35.5t-0.5 23.5v6q-1 6 -2 16.5t-2.5 21t-2.5 18t-1 8.5q0 2 -2.5 7.5t-6 12t-6.5 12.5t-5 9q-11 17 -33 26t-40 14q-30 10 -63 17.5t-65 7.5z" />
<glyph unicode="Q" horiz-adv-x="922" d="M545 10q-20 -5 -36.5 -7t-36.5 -3q-3 -1 -7.5 -1h-9.5t-11 -1q-1 0 -11 2t-23.5 4.5t-27.5 5t-23 4.5q-5 2 -14 3.5t-11 2.5l-9 4.5t-15.5 8t-16.5 8.5l-12 6q-2 1 -10 6.5t-11 8.5q0 1 -3 3.5t-5 3.5q-1 1 -7.5 1.5t-8.5 1.5q-4 1 -6 5l-3 6q-4 3 -14.5 12t-21.5 18.5 t-21.5 18.5t-14.5 13q-2 3 -10.5 13t-10.5 12q-50 83 -75 170q-9 33 -11.5 65.5t-7.5 65.5q0 2 0.5 9.5t0.5 9.5v8t-1 12q-2 43 1.5 90t19.5 89q17 43 34.5 84t43.5 79q9 13 17.5 23t17.5 18t19 16.5t22 20.5q42 32 89 51t95 30q21 2 39 1.5t38 -0.5q31 1 64 -0.5t62 -12.5 q7 -2 19 -7t23.5 -9.5t20.5 -8.5t10 -5q4 -2 14 -9.5t20.5 -16t20 -16.5t13.5 -11q33 -41 54.5 -70t35.5 -55.5t22.5 -54.5t17.5 -67l7.5 -37.5t5.5 -36t3 -41t1 -50.5q0 -2 -0.5 -9t-1.5 -17t-2 -19.5t-2 -15.5q-1 -3 -1.5 -10t-1.5 -9q0 -2 -3 -10.5t-6 -18.5t-5.5 -18.5 t-3.5 -11.5q-9 -27 -20 -52.5t-22 -42.5q0 -4 -4 -4q-1 -2 -6 -10.5t-11 -17.5t-11 -17t-6 -10q-2 -3 -6.5 -9.5t-4.5 -7.5q-4 -5 -13 -16t-18.5 -23t-18.5 -23.5t-13 -15.5l-4.5 -4.5t-7 -8t-6.5 -8.5t-4 -5q-4 -5 -5.5 -14.5t-1.5 -20.5t0.5 -21.5t0.5 -16.5q1 -5 1 -15 v-11q2 -19 17.5 -34t29.5 -26q5 -4 11.5 -3.5t12.5 0.5q23 3 45 17l5 5t6 4q1 0 10 -0.5t14 -1.5q36 -5 38 -43v-2q0 -3 -3 -13.5t-4 -14.5q-1 -3 -1.5 -7t-2.5 -8t-3 -10q-2 -5 -8.5 -10t-10.5 -9q-14 -12 -26 -19.5t-24.5 -12.5t-26.5 -8t-32 -4q-39 -4 -68 9t-58 40 q-1 1 -6 7t-7 8q-2 4 -6.5 11t-5.5 8q0 1 -2 6.5t-4.5 12.5t-4.5 13.5t-3 10.5q-1 3 -2.5 9.5l-3 13t-2.5 12.5t-1 8v6.5t-0.5 12t-0.5 11.5v7t-2.5 6.5t-6.5 6.5zM188 521q2 -54 15.5 -103.5t34.5 -97.5q5 -11 10 -23.5t13 -23.5q1 0 5.5 -6.5t5.5 -8.5v-6t1 -6 q0 -2 6.5 -8.5t9.5 -8.5q26 -24 56.5 -38t62.5 -24q18 -5 35.5 -8.5t36.5 -1.5h2q1 0 6 2t6 3h4.5t3.5 1q3 1 9.5 4.5t7.5 4.5q10 14 12 33.5t1 36.5q-1 11 -3.5 22t-10.5 20q-1 1 -5.5 4.5t-9.5 8t-9.5 8.5t-5.5 5q-7 7 -8 18.5t-2 21.5q-1 23 4.5 36.5t30.5 21.5h9 q34 3 57 -6.5t37 -28t22 -44t13 -53.5q1 -3 1 -7.5t5 -4.5q6 1 12 6.5t11 13t8.5 15t5.5 12.5q1 4 3.5 10.5t4.5 13t4 11.5t2 6q1 3 2 10.5t2.5 16t3 16t2.5 10.5q0 4 1 14t2 20.5t1.5 19t0.5 11.5v8v16.5t-0.5 18.5t-0.5 15q-3 66 -15.5 130.5t-46.5 121.5q-1 1 -5 6t-5 6 q0 2 -1.5 7.5t-2.5 6.5q-17 36 -51.5 58t-72.5 29q-7 1 -19 2.5l-24 3t-21 3t-10 1.5q-2 0 -9 -1.5t-16 -3t-18 -2.5t-14 -2q-13 -3 -31.5 -16.5t-29.5 -22.5q-2 -1 -8.5 -6t-8.5 -7q-20 -19 -37.5 -37t-31.5 -40q-13 -21 -27 -44.5t-18 -47.5q-7 -39 -10 -76t-1 -76z" />
<glyph unicode="R" horiz-adv-x="992" d="M42 55q-2 28 16.5 47.5t47.5 21.5q14 0 34 0.5t34 8.5q0 3 0.5 10.5t1 15.5t1.5 15.5t1 10.5q4 61 3.5 122t1.5 121q2 62 3 123.5t-1 124.5q0 4 -0.5 13.5t-1 21t-1 21t-0.5 13.5l-3 104h-3h-2q0 -1 -3.5 -2t-4.5 -1q-4 -2 -8 -3t-9 -3t-11 -4q-2 0 -12 0.5t-15 0.5 q-5 1 -12.5 2t-8.5 1l-29 34q-4 5 -3 17.5t1 16.5q1 2 1.5 8.5t0.5 8.5q2 3 8.5 8.5t14 11.5t14.5 11.5t10 7.5q6 5 20 7.5t20 4.5q44 12 85 21.5t82.5 15t84.5 6t91 -3.5q52 -5 103.5 -13.5t87.5 -26.5q46 -23 74 -44t45 -41.5t26.5 -41t19.5 -41.5q20 -52 16 -100t-18 -84 q-6 -13 -16 -28.5t-21.5 -30.5t-24.5 -28t-25 -22q-1 -1 -7.5 -4.5t-8.5 -5.5q-1 -1 -6 -3.5t-6 -3.5l-1 -1l1 -2q2 -8 7.5 -15.5t9.5 -13.5q9 -14 14.5 -25t9 -21.5t6.5 -21.5t6 -26q5 -20 11 -39.5t8 -41.5q1 -26 11.5 -49t17.5 -49q16 -18 36 -27t35 -14q19 -7 29 -17 t15 -21v-1q0 -10 -3.5 -26t-8.5 -24q-2 -5 -10.5 -17.5t-12.5 -16.5q-12 -17 -23 -24t-31 -9q-19 -2 -36 0.5t-33 13.5q-16 8 -33.5 30t-25.5 51q-3 12 -8.5 27t-11 31.5t-10.5 34.5t-6 36q-2 8 -6 24.5t-8.5 34t-8 32t-4.5 18.5q1 8 -6.5 21t-17.5 26t-20 23l-13 13l-2 2 q-2 2 -2 3q-2 2 -7.5 6.5t-7.5 5.5q-3 1 -11.5 4.5t-18.5 7.5t-19 7t-13 3q-3 0 -7 1q-3 0 -5.5 0.5t-4.5 0.5q-17 2 -33 1t-33 -3q-3 0 -15 -1t-26.5 -2.5t-26.5 -2.5t-15 -1q-13 -2 -17.5 -8t-5.5 -18l-2 -37v-1q2 -56 -2 -118t-3 -122h2h2q2 0 11.5 -0.5t21 -1t21 -1 t11.5 -0.5h5h3q20 -2 32 -6t18.5 -8.5t10 -9.5t6.5 -9q3 -8 3 -12.5t-1 -13.5q-2 -17 -10.5 -28.5t-21.5 -19t-28.5 -10.5t-30.5 -4q-4 0 -16.5 -1t-26.5 -1.5t-25.5 -1.5t-14.5 -1q-1 0 -6.5 -1t-6.5 -2q-7 -1 -25 -1h-38.5h-39t-25.5 -1q-3 0 -13.5 1t-13.5 2 q-11 1 -23 0.5t-24 1t-21.5 6t-15.5 14.5q-2 5 -6 14t-4 11zM317 749q1 -7 3 -25.5t4 -39.5t4.5 -40t3.5 -26v-5.5t0.5 -10t1 -10t0.5 -5.5q-1 -3 0 -10.5t2 -9.5h1q1 0 1 -0.5t1 -0.5h4q3 0 13 -0.5t22 -1t22.5 -1t13.5 -0.5q23 -1 48 -1t48 7q2 0 8 2.5t19 3.5q10 -1 23 2 t22 5q25 8 45 18.5t35 25t24 34t11 46.5q1 13 1.5 23t-2.5 22q-5 19 -16 37.5t-26 34t-32.5 28t-35.5 20.5q-23 11 -51 17t-51 8q-1 1 -2 1q-80 -5 -153 -28l-6 -2q-6 -2 -6 -5q-1 -1 -1 -3v-6q-2 -24 -1 -48.5t2 -48.5v-7z" />
<glyph unicode="S" horiz-adv-x="780" d="M25 252q0 5 2 20t2 20q11 27 34 43.5t53 8.5q3 0 8 -1t6 -2q5 -3 9 -7q4 -3 8 -5.5t6 -4.5q5 -4 14.5 -13t10.5 -10q1 0 6 -10.5t7 -15.5l18 -36t22 -35l22 -20q16 -17 42 -26.5t46 -14.5q7 -2 21 -5t16 -4q1 0 6 -0.5t11 -1.5t11.5 -1.5t8.5 -0.5h15q3 1 7.5 1.5 t5.5 0.5l35 4h2h1h3q4 0 5 1q16 5 34 10.5t34 13t29 18.5t19 28q0 1 1.5 6l3 10t3 9.5t1.5 5.5q1 0 3 6.5t2 8.5q0 1 1 2q0 1 0.5 1.5t0.5 1.5q5 35 -11.5 68.5t-39.5 63.5h-3q-1 0 -2 1l-42 29q-2 1 -8.5 3t-14 4.5t-14 4.5t-9.5 3t-12.5 6t-20.5 10.5t-20.5 10.5t-12.5 5 q-2 1 -10 4.5t-10 4.5q-1 0 -7.5 1t-8.5 2q-9 3 -24 7t-29.5 8.5t-26 8.5t-13.5 5q-1 1 -8.5 4.5t-16.5 7t-18.5 7t-15.5 6.5q-6 2 -11 5.5t-11 2.5q-3 1 -11.5 8t-18 15t-18 15.5t-10.5 10.5q-2 2 -6 9t-9 15.5t-10 16.5t-8 12q-2 2 -4.5 6.5l-5 9t-4.5 8.5t-2 5 q-1 2 -4.5 12t-8 22.5t-8.5 25t-6 20.5q-4 12 -3 27.5t3 29.5q5 32 15.5 62.5t31.5 53.5q2 1 9.5 5.5t9.5 5.5q1 2 7 10.5t8 10.5q16 16 39 23t45 14q1 1 4.5 2.5t8 3t8.5 3t5 1.5q2 0 8.5 0.5t7.5 0.5q17 2 31.5 4.5t31.5 4.5h16q29 -2 60.5 -5.5t60.5 -9.5q26 -7 50.5 -13 t53.5 -15q1 0 6.5 -2.5t7.5 -4.5q1 -1 4 -3.5t4 -4.5h2h2q2 4 6 9t11.5 9t20 6t31.5 0q24 0 34.5 -11t14 -28.5t3.5 -41t3 -49.5l-1 -71q3 -11 1.5 -22t-10.5 -20t-29 -15.5t-54 -7.5q-13 3 -20 5t-11 6.5t-7 11t-7 18.5q-5 20 -9 34t-13 34l-2 5.5t-4.5 12.5t-4.5 13t-3 7 q-36 12 -61 16t-39 8q-5 2 -10.5 2.5t-9.5 2.5q-68 5 -113 -6.5t-80 -38.5q-10 -17 -17 -28t-9 -31q-4 -26 5 -48.5t28 -44.5q8 -10 21 -13.5t21 -13.5q5 -2 19 -6.5t29.5 -10t29.5 -10.5t19 -7h4q35 -19 70.5 -31.5t70.5 -28.5q69 -38 132 -92q38 -36 55 -77.5t24 -92.5 q6 -19 4.5 -51.5t-7.5 -66t-15.5 -62t-19.5 -38.5q-17 -24 -36 -40.5t-41.5 -27.5t-47.5 -17.5t-53 -12.5q-2 -1 -13.5 -2.5t-16.5 -3.5q-16 -2 -37 -3.5t-43.5 -1.5t-44 2t-37.5 6q-30 7 -58 18.5t-56 28.5q-2 2 -7.5 6t-11.5 8.5t-11 8.5t-7 6l-3 1q-6 -11 -18 -19 t-21 -13q-10 -4 -19 -3.5t-19 3.5q-18 4 -27.5 12.5t-24.5 19.5q0 1 -3.5 3t-3.5 3q-1 2 -1.5 7t-0.5 6q-7 24 -11.5 44t-7 39t-2.5 38.5t3 43.5z" />
<glyph unicode="T" horiz-adv-x="966" d="M454 159q0 3 0.5 9t0.5 12v11v5q0 3 -0.5 13t-1 21.5t-0.5 21.5v13t0.5 12.5t0.5 20t0.5 20t0.5 12.5q0 4 -0.5 19.5t-0.5 33t-0.5 33t-0.5 19.5q0 3 -0.5 18.5t-1 33.5t-1 33.5t-0.5 18.5q2 1 2 7t-1 13.5t-2 14.5t-1 10q-5 64 -6.5 128.5t-9.5 124.5q-5 14 -7.5 22.5 t-3.5 10.5q-3 6 -10 9.5t-16 6t-19 4t-19 3.5q-2 0 -9 1t-15 1.5t-15 1.5t-8 1q-2 0 -9.5 1t-11.5 1q-4 1 -11.5 1h-8.5q-8 0 -24.5 -2t-25.5 -4q-16 -3 -16 -21q-1 -19 -0.5 -30t0.5 -29q0 -5 -5.5 -11.5t-7.5 -9.5q-11 -16 -33.5 -17.5t-45.5 0.5q-29 5 -42 10t-20 25 q-5 14 -4.5 25.5t-3.5 26.5q0 1 -1 8t-2 15.5t-2 15.5t-1 9v7q1 27 5.5 45.5t15.5 30t29.5 16t45.5 3.5q1 0 6.5 -0.5t12 -1t11.5 -1t7 -0.5l23 3q1 -1 5 -1q5 0 16 0.5t12 1.5l43 -4q21 -2 37 -2.5t31.5 -0.5t32 0.5t36.5 1.5q2 0 10 -1t10 -1q29 0 56.5 3t56.5 4 q2 0 9 -0.5t15.5 -0.5t15.5 0.5t9 0.5q5 0 25.5 0.5t44 0.5t44 0.5t25.5 0.5q2 0 7.5 0.5t11.5 0.5h10.5h6.5t14 -1t14 -1t14.5 1t14.5 1q1 -1 8.5 -1h11.5q2 -1 5 -1h5q3 0 6 -1q1 0 6 -2t11.5 -4.5t13 -5.5t10.5 -6q12 -6 18.5 -22.5t10 -37.5t5 -44t3.5 -42q0 -3 -1 -8 t-1 -6q-1 -3 -3.5 -8.5t-8.5 -11.5t-17.5 -10t-30.5 -3h-11h-9t-6 -1q-22 -1 -33.5 2t-17 7.5t-7 11t-3.5 13.5q-1 1 -1.5 5.5t-1.5 10t-1.5 10t-0.5 5.5q-5 8 -4 14.5t-6 12.5h-11h-20t-20 0.5t-11 0.5q-5 0 -17 1t-13 1h-7.5t-11.5 -0.5t-11 -0.5h-6q-2 -1 -11 -2.5 t-14 -3.5q-3 -1 -8.5 -2.5t-11 -3.5t-10 -5.5t-4.5 -7.5v-239q1 -5 3 -20t2 -20q1 -45 0 -100t-1 -100q0 -2 0.5 -9t1 -15.5t1 -15.5t0.5 -9q0 -1 -0.5 -7.5t-0.5 -8.5q1 -10 2.5 -35t3 -52.5t3 -52.5t2.5 -35q1 -2 2.5 -12.5t1.5 -12.5l4 -4q22 -2 36.5 -4t26 -5t22 -6.5 t24.5 -9.5q15 -12 17.5 -27t-3.5 -35q-7 -17 -22 -20t-31 -5q-13 0 -49 -1t-77 -2t-77 -2t-49 -1q-1 0 -7.5 -0.5t-15.5 -1.5t-18 -1.5t-15 -0.5l5 1q-21 2 -33 4.5t-19 7t-10 10t-7 13.5q-1 2 -2 4.5t-1 3.5q0 19 4.5 30t12 17t17 9t20.5 6q5 4 16 5.5t24.5 3t29 4 t29.5 8.5v30z" />
<glyph unicode="U" horiz-adv-x="1073" d="M158 896q-17 2 -33.5 -3.5t-34.5 -3.5q-24 2 -40.5 21t-14.5 43v2q1 20 22.5 38t51.5 21q8 2 19.5 3.5t13.5 1.5l97 -3q2 1 10 3t11 3q1 0 7.5 -0.5t8.5 -0.5q1 0 8 0.5t14.5 1t14 1.5t8.5 1h20q4 -1 12 -2t9 -1t7 -2t8 -3t8.5 -1t7.5 -1q8 -2 17 -7t16.5 -12t12.5 -15.5 t4 -16.5q-2 -24 -10.5 -36.5t-22 -17.5t-31.5 -5t-38 1q-6 -3 -7.5 -11t-2.5 -14q-6 -56 -5.5 -112t3 -113t6 -116.5t3.5 -122.5q0 -2 0.5 -10t1 -18t1.5 -20.5t1 -16.5q2 -26 12 -51t26 -46q1 -2 6.5 -8.5t13 -15t14.5 -17t11 -12.5q28 -30 64 -43.5t76 -16.5 q17 -2 35.5 -1t32.5 12q3 3 11.5 10t17.5 15t16.5 14.5t10.5 9.5q5 10 12 17.5t12 16.5q1 2 2 6t3 6q1 5 5 17l5 15q1 4 3 11.5t3.5 14.5t3 12.5l1.5 5.5l21 296v20.5v33.5v34v21v4v53q0 6 0.5 19.5t1 28.5t1.5 29t2 20q-3 9 -13.5 12t-23 3t-26 -0.5t-23.5 1.5 q-9 1 -19.5 8t-19 16t-14 19.5t-4.5 19.5q1 22 11 33.5t24 16.5t31.5 5h34.5q1 0 6 0.5t10.5 0.5h10.5h7h6.5t11.5 -0.5t11 -1.5t7 -1t7.5 0.5t11.5 1t10.5 1t6.5 0.5q32 2 64 1.5t64 3.5h4q15 -2 34.5 -11t27.5 -23t6 -34q-2 -29 -22 -41.5t-48 -13.5q-1 0 -6 1t-10 1.5 t-10 0.5h-6q-2 0 -5 -1t-3 -2q-1 -2 -2 -8.5t-2 -13.5t-2 -13t-1 -9q-2 -19 1.5 -39.5t4.5 -38.5q3 -63 4 -120.5t-1 -120.5q0 -11 1 -31t1 -42t-1.5 -41t-6.5 -28q-1 -4 -3.5 -18.5t-6 -31.5t-6 -31.5t-3.5 -18.5q-6 -29 -16 -59.5t-25 -54.5q-7 -11 -15.5 -22t-16.5 -21 q-1 -2 -7.5 -12t-10.5 -15l-2 -4q-1 -2 -2 -3q-15 -18 -34 -34.5t-36 -29.5q-22 -17 -62.5 -28t-86 -15.5t-89 -2t-70.5 12.5q-1 0 -5.5 2t-10 4.5t-11 4.5t-8.5 4q-18 4 -31.5 10.5t-24.5 15t-21 17.5t-21 18q-36 38 -57.5 86.5t-30.5 99.5q-13 66 -14.5 131t-3.5 131 q0 2 -1.5 10.5t-1.5 10.5q-1 38 0.5 75t2.5 75v16.5t-0.5 28.5t-1 28.5t-0.5 16.5q0 2 1 12.5t1 12.5q0 1 -0.5 8t-1.5 15.5t-1.5 16.5t-0.5 13q-2 13 -5 19t-17 7z" />
<glyph unicode="V" horiz-adv-x="973" d="M20 927q0 2 1 10t1 10q5 21 16 34t41 15q23 4 45.5 6t45.5 7q6 1 16.5 1.5t22.5 0.5t23 0.5t18 1.5q24 -1 40.5 -1.5t29 -0.5t23.5 -0.5t24 -2.5q21 -5 34.5 -14.5t11.5 -35.5q0 -4 -1 -11.5t-3 -15.5t-4.5 -14.5t-5.5 -8.5q-1 0 -6 -3.5t-11 -7.5t-11 -7t-6 -3 q-12 -5 -19.5 -6t-11.5 -2.5t-5.5 -7t-1.5 -18.5v-4q0 -1 2 -5.5t2 -5.5q0 -2 0.5 -8.5t1 -14.5t1 -15t0.5 -8q1 -3 2 -9t1 -8l15 -54q-2 -2 -2 -6.5t1 -5.5q13 -47 31.5 -90t35.5 -101l85 -265h2q3 0 3 4q8 20 11.5 41t8.5 42v6t1 6l16 63q0 4 4.5 20.5t10 35t10 34.5 t5.5 21q1 3 3.5 13t6 22t6 22t3.5 13q4 17 10 33t10 33q0 2 2 8t2 8q2 4 5.5 19.5t4.5 19.5q1 2 2 10.5t2 10.5t1 14t1 13q11 29 18 62t11 53l-60 1q-1 0 -8.5 4.5t-11.5 7.5q-16 11 -19.5 25.5t-3.5 30.5q-2 4 -1 13t0 12q2 9 5 13.5t11 6.5q46 16 86.5 20t90.5 3h15.5 t19 -0.5t17 -0.5h8.5h6t11 0.5t11 0.5h6h7h13h13h8q1 0 7.5 -2.5t8.5 -2.5q2 1 10 1.5t10 -1.5q8 -3 13 -10.5t8 -16.5t4.5 -18t1.5 -16q1 -29 -13.5 -46.5t-43.5 -16.5h-2q-2 0 -6.5 -0.5t-10 -2t-10.5 -2.5t-6 -1h-8h-5q-2 0 -3 1l-2 -2q-1 -1 -1 -2v-1q-2 -3 -5 -9.5 t-6.5 -12.5t-6.5 -11.5t-4 -6.5q-3 -5 -6 -12.5t-6 -16.5t-5.5 -17t-3.5 -12q-5 -15 -10.5 -36.5t-10.5 -36.5q-5 -10 -9.5 -30.5t-7.5 -31.5q-5 -12 -7.5 -20t-4.5 -15t-4 -15l-5 -20q-11 -40 -26 -82t-24 -83q-1 -2 -2.5 -10t-0.5 -10q-1 -3 -2.5 -9t-1.5 -8l-4.5 -13.5 t-7 -23.5t-6.5 -23.5t-3 -13.5q0 -2 -1 -7.5t-1.5 -12t-1.5 -12.5t-2 -7q0 -3 -2.5 -11t-5.5 -17.5t-6 -18t-4 -11.5l-2 -2l1 -2l-15 -40q-12 -31 -22 -58t-20.5 -47.5t-22.5 -33t-28 -15.5h-12q-14 0 -23.5 1t-17 4.5t-13 11t-12.5 20.5q-12 19 -24 45t-23 47 q-32 65 -55.5 135.5t-49.5 139.5q0 1 -2 6.5t-5 11t-5.5 10.5t-2.5 6q-1 4 -6 20.5t-11 35.5t-11.5 35.5t-7.5 21.5q-5 20 -12 40t-12 40q-5 26 -13.5 52t-17.5 51q0 1 -3.5 6t-3.5 6v12q0 7 -6 21.5t-14.5 28.5t-17.5 25.5t-15 14.5q-1 1 -4.5 -0.5t-4.5 -1.5q-13 1 -25 2 t-22.5 3t-19.5 6.5t-16 14.5l-5 7.5t-6 9.5t-5.5 8.5t-2.5 4.5t0.5 8.5t0.5 12.5z" />
<glyph unicode="W" horiz-adv-x="1384" d="M821 256q0 3 -6.5 23.5t-14 47.5t-14.5 55t-10 45q-13 57 -20.5 98t-18.5 74q-6 16 -13 35.5t-13.5 39.5t-12.5 40t-10 36q-4 -2 -6.5 -9.5t-4.5 -15.5t-3.5 -16t-3.5 -12q-3 -6 -6 -16t-5.5 -19.5t-4.5 -16.5t-3 -8q0 -2 -2.5 -13.5t-4.5 -15.5q0 -4 -2 -15.5 t-4.5 -24.5t-4.5 -24.5t-3 -14.5q-3 -17 -5 -33.5t-5 -33.5l-9 -57q-1 -4 -2.5 -14t-3 -21.5t-3 -21t-2.5 -13.5q0 -1 -1.5 -6t-2.5 -10l-2 -10t-1 -6q-1 -4 -2 -16.5t-1 -16.5q3 -7 -0.5 -26.5t-8.5 -40.5t-10 -38.5t-3 -20.5q-3 -15 -4 -36t-4 -41.5t-9.5 -38t-19.5 -26.5 q-8 -5 -14.5 -4.5t-14.5 0.5q-17 -3 -35 0t-33 10t-24.5 17t-10.5 22q-20 51 -31.5 95t-23.5 97q-4 15 -9.5 30.5t-9.5 29.5q0 1 -1.5 7.5t-3 14t-3 14t-1.5 8.5q-1 4 -3.5 14.5t-5.5 22t-5.5 21.5l-3.5 14q-9 13 -11 30t-7 31q-8 24 -14.5 49t-11.5 51q0 1 -1 6.5t-2 12 t-1.5 11.5t-0.5 7q-1 3 -3.5 13t-5.5 23t-6 25.5t-4 18.5q-12 49 -24.5 90t-36.5 83q-2 3 -6 4.5t-6 2.5h-12.5h-20.5h-20.5h-12.5q-32 5 -44.5 15t-16.5 36q0 19 4 31t12 21t20 16t29 15q3 0 10.5 1t16.5 2.5t16.5 2.5t10.5 1q6 1 13.5 1h15t13 -0.5t6.5 -0.5h12t22 0.5 t22 0.5h12q19 -1 41 -0.5t43 -1t40.5 -7.5t35.5 -21q1 -2 4.5 -6t4.5 -6q2 -4 6.5 -16.5t6.5 -15.5q0 -9 -9 -23t-15 -19q-3 -1 -9.5 -3.5t-14 -4.5t-14.5 -4t-10 -3q-2 0 -10 3t-10 3l-2.5 -2.5t-1.5 -2.5v-2v-2l10.5 -42t8 -35t7 -35.5t8.5 -42.5q5 -25 13.5 -58.5 t16.5 -68.5l42 -205q-2 -20 5.5 -43.5t12.5 -40.5q1 -2 2 -6.5t2 -5.5q1 1 2.5 3.5t1.5 4.5q1 2 0 14t-1 14l2 4l2 4q1 2 2.5 9t1.5 9q4 29 7.5 50.5t6.5 41t6 40t5 47.5q2 4 5 17t5.5 28t4.5 28t3 18q1 3 2.5 12t3 19t3 18.5t1.5 11.5q6 20 7.5 39.5t6.5 39.5q1 1 3 9 t5 16.5t5 16t3 9.5q1 4 2 12t2.5 17t3 16.5t2.5 10.5q0 2 -0.5 11t0.5 11t5.5 11.5t5.5 11.5q10 21 18.5 36.5t20.5 26t29.5 16.5t44.5 7q22 2 39 -9.5t30.5 -31t23 -43.5t16 -47.5t10.5 -42.5t5 -28v-11q4 -34 12.5 -66.5t15.5 -65.5q1 -4 3.5 -21t6 -36t6 -36t3.5 -21 q0 -2 2.5 -8t5.5 -13t6 -13.5t3 -8.5q1 -2 3 -10t2 -10q0 -1 1 -6t2 -10.5t1.5 -10.5t0.5 -6l1.5 -5.5t4 -12.5t4.5 -14t4 -11q1 -6 5 -22.5t8.5 -36t8.5 -37t6 -26.5q4 16 8 36.5l8 41t8 40t9 34.5q0 1 1.5 6t3 11t3 11t1.5 6q1 1 2 6t2 10.5t2 10t1 5.5q8 32 15 59t15 60 q0 2 1.5 6.5t2.5 6.5q12 35 18 71t14 72q1 6 4.5 17.5t6.5 24t4.5 24.5t0.5 19q0 10 -10 13.5t-23.5 4t-26.5 0t-19 2.5q-16 3 -24 6t-11.5 7.5t-4 10t-1.5 13.5v6v6q1 2 2.5 6.5t1.5 6.5q0 1 1 5.5t2 10t2 10t1 5.5q3 10 10 16.5t16 10t19 4.5t18 2q4 1 11 1.5t14 1.5 t12.5 1.5t7.5 0.5q1 -1 14 0t20 0l107 -7h18h25h25h18q12 1 26.5 -7.5t22.5 -15.5q6 -6 5.5 -12t-0.5 -14q1 -14 1.5 -24t-2 -17.5t-8.5 -13.5t-19 -13q-15 -7 -35 -10t-34 -6q-2 -2 -6 -3t-5 -1q-1 -1 -2.5 -4t-1.5 -5q0 -1 -2.5 -4t-4.5 -7t-4 -7.5t-2 -4.5q-5 -14 -9 -24 t-7.5 -20t-7.5 -20.5t-7 -25.5v-6l-10 -52q-9 -39 -18 -77.5t-19 -78.5q0 -2 -3.5 -12t-4.5 -12q-1 -3 -2.5 -10t-3 -14.5t-3 -13.5t-1.5 -8q0 -1 -0.5 -5t-1.5 -8.5t-1.5 -9t-0.5 -5.5t-3.5 -7.5t-3.5 -8.5t-2 -8.5t-4.5 -15.5t-5 -17.5t-3.5 -12.5q-5 -18 -11 -36.5 t-11 -37.5q-2 -3 -3.5 -9t-1.5 -7l-11 -45q0 -1 -2.5 -13.5t-4.5 -19.5q-6 -33 -11 -64t-11.5 -57t-18 -44.5t-31.5 -25.5q-5 -5 -14.5 -6t-17.5 -2h-2q-8 2 -24.5 2h-18.5q-1 1 -8 5.5t-12 8.5q-1 1 -3.5 5.5t-4.5 6.5q-6 6 -8.5 8t-5 7t-5.5 16t-11 35l-37 152v8z" />
<glyph unicode="X" horiz-adv-x="1178" d="M882 5q-25 -1 -48.5 -4.5t-47.5 -4.5q-11 0 -24 1t-24 5.5t-19 12.5t-9 22q-2 24 5 38.5t19.5 23t30 11.5t38.5 4v9l-24 24q-10 10 -20 20.5t-17 17.5q-17 17 -30 37t-28 38q-1 1 -4.5 6t-8 10.5t-8.5 10t-5 6.5q-1 1 -2 3t-2 2.5t-1 1.5q-3 5 -11.5 17t-18.5 25 t-19 24.5t-13 16.5q0 1 -1.5 2t-2.5 2h-2h-2l-52 -75q-14 -25 -28.5 -43.5t-31.5 -35.5q-1 -1 -3.5 -5t-5.5 -9t-5.5 -9.5t-3.5 -5.5q-14 -20 -28.5 -41.5t-31.5 -38.5v-10q33 -4 56 -12t32 -28v-6q1 -8 -2 -13t-8 -13q-18 -24 -48.5 -29t-59.5 -6q-8 0 -22 -0.5t-29 -1 t-27 -1t-15 -0.5q-2 0 -13.5 -1.5t-13.5 -1.5h-25q-22 0 -43 3.5t-42 7.5q-20 5 -39.5 15.5t-21.5 33.5q-1 12 1.5 19.5t7.5 18.5q3 0 3 4q14 16 40 18t48 1q16 15 39.5 42.5t51 61t56 70t55 70t48 60.5t34.5 42q1 1 4.5 6t3.5 6q-1 2 -1 3v3v6q-1 2 -6.5 8.5t-6.5 7.5 t-3.5 6t-5.5 10.5t-5.5 10t-3.5 5.5q-2 3 -10.5 14t-18.5 24t-18 24.5t-10 14.5q-2 1 -5.5 5.5t-3.5 5.5q-2 5 -11.5 17.5t-11.5 17.5q-1 1 -8 10.5t-8 10.5q-8 20 -14.5 31t-19.5 27q-3 3 -13.5 17l-22.5 30t-22.5 29.5t-13.5 16.5q-1 2 -5 7.5t-8 12t-8 11.5t-5 5 q-2 1 -12 0t-12 -1q-5 1 -19 2t-18 2q-11 -3 -24 1.5t-24 12.5t-17 18t-3 18q0 1 1.5 6t2.5 6q3 20 15 31t29 20q5 2 14 5.5t11 3.5l68 2q2 1 6.5 2.5t6.5 1.5t9.5 0.5t16.5 1t16.5 0.5h9.5q1 0 8 0.5t14.5 1t14 1.5t8.5 1q1 0 9.5 0.5t13.5 0.5q5 1 14.5 0.5t10.5 -0.5 q2 0 8.5 -1t7.5 -2q2 0 13 -1t13 -2q1 0 8.5 -3t11.5 -5q1 -1 2 -1t3 -1t3 -1q2 -2 5.5 -10t4.5 -10q9 -14 13.5 -20.5t5.5 -22.5t-6.5 -25t-19.5 -13.5t-26 -6t-27 -3.5q1 -2 3 -4.5t2 -4.5q3 -3 7 -6.5t8 -7.5t7.5 -6.5l3.5 -2.5l45 -69l2 -4l2 -4q11 -11 22.5 -27.5 t24.5 -34.5t29.5 -36.5t38.5 -34.5l2 -1l2 1q1 2 5 8t6 8t11.5 12.5t10.5 12.5q6 15 24.5 41t40 53.5t40.5 51t25 31.5q2 2 7.5 10t7.5 10v3v2q-1 0 2.5 5t1.5 6q-15 0 -32 0.5t-32 3t-25 7.5t-11 15q-5 15 0.5 27t16.5 19q3 5 12.5 11t21 10.5t22.5 8t17 3.5q4 1 14.5 2 t21.5 2t21.5 2t14.5 1h32t48.5 -1t48.5 -1h32q10 5 21 5t21 1h16q5 0 10 1q12 0 21.5 -7.5t16.5 -18t11 -22t5 -21.5q1 -17 -9.5 -30.5t-23.5 -22.5q-5 -2 -13.5 -7.5t-10.5 -5.5h-8q-3 0 -6.5 -0.5t-5.5 -0.5q-14 0 -27 1.5t-27 1.5h-4q-42 -35 -76.5 -83t-68.5 -90 q-13 -12 -29 -32t-34 -44.5t-39 -52.5t-45 -55q0 -1 -0.5 -4.5t-0.5 -5.5t1 -5.5t1 -4.5q0 -2 1.5 -11t4.5 -13q2 -3 6.5 -9t9.5 -13t9 -13l6 -9v-4q5 -9 15.5 -18.5t15.5 -16.5q2 -2 5 -8.5t5 -7.5q1 -2 8 -9.5t15.5 -16t15 -16t8.5 -9.5q1 -1 5.5 -6.5t10.5 -12.5t11 -14 t8 -11q2 -2 9 -11.5t9 -11.5q0 -1 2 -2t3 -2q3 -5 11 -15.5t17 -22.5t17.5 -23t11.5 -15q14 -17 31 -32.5t37 -25.5q2 -1 8.5 -2.5t8.5 -1.5q20 0 39 0.5t34 -3.5t25 -16t12 -39q1 -20 -9 -31.5t-25.5 -17.5t-33.5 -7.5t-33 -2.5q-34 -1 -68 2.5t-69 2.5z" />
<glyph unicode="Y" horiz-adv-x="992" d="M332 63q-1 8 2.5 13t7.5 13q16 28 49 34q1 1 7.5 2t13.5 2t13 2t8 1q3 0 12 3t12 5q5 2 3.5 7t-0.5 9q0 2 0.5 9t0.5 15.5t0.5 15.5t0.5 9v7.5t-0.5 14.5t-1 17t-0.5 14q-1 26 2 58t-7 58q-6 16 -8.5 25.5t-11.5 23.5q0 1 -1.5 4.5t-2.5 4.5q-51 76 -96.5 147.5 t-95.5 148.5q-17 24 -31.5 55t-30.5 57q-1 2 -5 9.5t-9 15.5t-9.5 15.5t-5.5 9.5q0 4 -3 4t-12.5 0.5t-20 0.5t-20 0.5t-13.5 0.5q-52 6 -53 64v8q1 16 7 25.5t14.5 14.5t17.5 7t17 4q16 -1 29.5 -5t30.5 -2q1 -3 5.5 -4t9.5 0t9.5 2t6.5 1h4q1 0 2 1q2 0 3 -0.5t3 0.5h10.5 t19 0.5t20.5 0.5h15q1 0 9.5 -0.5t10.5 0.5t9 1t9 1h2h2q1 0 6 -2t6 -2q2 -2 8 1t7 3q3 0 16.5 -2t16.5 -3q1 -1 3.5 -2t3.5 -2q5 -5 17.5 -10.5t16.5 -10.5q3 -3 5.5 -11t5 -17.5t4.5 -18t2 -12.5q0 -7 -6 -10.5t-11 -5.5t-14.5 -6.5t-10.5 -4.5q-2 0 -8.5 -1t-13.5 -2.5 t-13.5 -2.5t-8.5 -1q-1 0 -4 -1.5t-4 -2.5q1 -1 4.5 -6t4.5 -7q3 -5 14.5 -26.5t25 -46t25 -46t14.5 -26.5q1 -2 8.5 -12.5t8.5 -13.5q2 -2 7 -11.5t10.5 -21t10.5 -21t6 -11.5q9 -17 22.5 -37.5t22.5 -34.5l11 -21l9 -25h1h3l4 2q1 1 3 1q0 1 1.5 4.5t3.5 8t3.5 8.5t1.5 5 q19 37 35 74t33 73q6 11 13.5 20t9.5 22l21 36q1 1 4 3.5t4 3.5q1 2 4 9t7 15.5t7 15.5t4 9q2 3 6 9.5t8 14t6.5 14.5t2.5 12l-1 2v2q-20 -1 -41.5 5t-38.5 17q-12 8 -22.5 25t-10.5 31q0 2 -0.5 5.5t0.5 4.5q0 2 7.5 9t10.5 11q6 5 17 8t19 3q4 0 15 -0.5t24 -1t25 -1 t17 -0.5q0 1 4.5 2t6.5 1h8.5t14.5 -0.5t14.5 -0.5h8.5q11 0 25.5 1t30 2t29.5 2.5t23 3.5h2q14 0 23.5 -1.5t17.5 -5t15.5 -11t17.5 -19.5q2 -3 3 -8.5t2 -6.5q0 -1 -1 -6.5t-1 -7.5q0 -7 -1 -10t-6 -11q-5 -5 -11.5 -12.5t-14.5 -10.5q-3 -1 -10 -3t-13.5 -3.5t-12.5 -2.5 t-7 -1q-3 -1 -12.5 1t-12.5 1q-1 -1 -9.5 -10.5t-13.5 -14.5q-22 -27 -38.5 -64.5t-33.5 -71.5q-1 -1 -3.5 -5.5t-3.5 -5.5q-2 -5 -6 -13t-8 -16.5t-7.5 -15.5t-3.5 -8q-3 -8 -8 -21t-9.5 -26t-7.5 -23t-3 -11l-47 -87q-13 -29 -25.5 -61t-28.5 -60l-2.5 -5t-1.5 -4 q0 -2 -0.5 -8t-1 -12.5t-1 -12.5t-0.5 -7q0 -3 -1 -17t-1.5 -30.5t-0.5 -30.5v-17v-28q-1 -13 1.5 -33.5t-0.5 -30.5q1 -5 2 -12t7 -7q1 0 2.5 0.5t2.5 0.5q13 2 33.5 1.5t34.5 -1.5q18 0 36.5 -14.5t19.5 -37.5q0 -11 -4 -14.5l-12 -10.5q-14 -14 -32 -23.5t-41 -11.5 q-1 0 -5 0.5t-9.5 0.5h-10h-5.5q-2 0 -8 -1t-13 -2t-13 -2.5t-8 -1.5q-1 0 -6 0.5t-6 0.5t-5 -1.5t-6 -2.5q-38 3 -70 1t-68 0q-19 1 -41.5 7.5t-39.5 20.5q-5 5 -6.5 15t-1.5 16z" />
<glyph unicode="Z" d="M47 100q0 14 6.5 28.5t13.5 25.5q1 2 8 11t14.5 18.5t14.5 18.5t9 11q17 25 34 50.5t36 50.5q2 2 8 9.5t8 9.5t10.5 10t9.5 10q12 14 22 30t24 30q34 38 68.5 77.5t69.5 77.5q1 1 5 4.5l8 7t7.5 7l4.5 4.5q23 26 42 51t40 52q29 39 62 78t52 86q0 1 2.5 4t2.5 4 q1 2 2.5 6t1.5 5v2v2q0 1 -1.5 3t-2.5 3h-18q-40 1 -79 -3t-80 -2h-17q-2 0 -10.5 1t-18 2t-18 1.5t-10.5 0.5q-1 0 -13.5 -0.5t-18.5 -2.5q-2 0 -12.5 -1.5t-12.5 -1.5q-6 0 -21.5 0.5t-33 0.5t-33 0.5t-21.5 0.5q-8 -2 -8.5 -8t-1.5 -11q0 -15 4.5 -28t4.5 -28 q1 -31 -3.5 -46t-14.5 -21.5t-24 -7.5t-31 -2q-7 0 -19.5 -0.5t-18.5 4.5q-20 2 -31 16.5t-16 38.5t-6 55t-1 65v30q3 23 12 36t20 19.5t21 8t14 1.5q35 7 73.5 7.5t75.5 -0.5q13 0 25 -2.5t25 -2.5q22 -1 43.5 0t43.5 2q38 2 75 2t75 2q14 1 33.5 1.5t40.5 0.5t41 -0.5 t34 -0.5q25 -1 40 -10.5t17 -18.5q6 -20 9 -28.5t4.5 -14t2 -12.5t0.5 -24q-1 -37 -15.5 -76.5t-31.5 -71.5q-9 -17 -23 -31t-19 -33l-25 -27q-6 -8 -20 -26.5t-30 -39.5t-30 -39.5t-20 -26.5q-1 -1 -3.5 -5.5t-4.5 -6.5q0 -1 -2 -4t-2 -4q-2 -2 -11 -9.5t-10 -9.5 q-22 -26 -43.5 -50t-41.5 -50q-7 -9 -20.5 -22.5t-20.5 -25.5q-2 -2 -10 -12.5t-11 -14.5q-11 -20 -22.5 -35.5t-26.5 -32.5q-24 -26 -47 -57t-37 -63v-1l238 4q26 -1 52 -1.5t52 -1.5q5 0 22 0.5t22 -0.5q30 8 49.5 17t39.5 33q1 1 2 5.5t2 6.5q2 8 3 16.5t1 11.5 q2 13 2.5 31.5t11.5 29.5q2 2 10 2.5t17.5 1.5t17.5 1.5t10 2.5q1 0 4 -0.5t4 -0.5q20 0 32.5 -3t19.5 -9t10.5 -16.5t5.5 -25.5q1 -1 0.5 -8t-1 -14.5t0 -12t3.5 -1.5v-8t-0.5 -13t-0.5 -12.5v-7.5q0 -1 -0.5 -8.5t-0.5 -11.5q-3 -33 -9 -52.5t-14.5 -31t-19 -17 t-20.5 -9.5q-29 -14 -67.5 -19t-68.5 -4q-4 0 -16.5 0.5t-16.5 0.5q-1 1 -10 -1.5t-11 -2.5h-8.5t-14.5 -0.5t-15 -0.5h-9q-4 0 -21.5 -0.5t-37.5 -0.5t-38 -0.5t-22 -0.5q-2 0 -10 0.5t-19 1l-22 1t-17 0.5h-62h-22.5t-38 -0.5t-38.5 -1t-22 -0.5h-12t-15 1 q-29 1 -59.5 5.5t-57.5 16.5q-8 4 -11 13.5t-3 20.5t1 22t1 19z" />
<glyph unicode="[" horiz-adv-x="358" d="M55 303q0 8 -0.5 21.5t-1 27.5t-1 27t0.5 21q0 4 1 13.5t1.5 20.5t1 21t0.5 14v15.5v26.5v27v16q0 1 -0.5 7.5t-0.5 14t-0.5 14t-0.5 8.5v11t0.5 23.5t0.5 27.5v22q0 74 -1.5 146t-1.5 145v30q1 7 2 20.5t2 15.5q1 3 7.5 9t8.5 8q31 7 63.5 10t62 2t52 -5t33.5 -11 q11 -9 18 -15t11.5 -13.5t7 -18t3.5 -28.5v-6q-4 -22 -11.5 -33t-32.5 -15q-3 0 -12 -1t-18.5 -1.5t-18.5 -1t-12 -0.5q-8 -36 -10.5 -73.5t-2.5 -75.5t1 -76.5t0 -75.5q0 -5 -1 -26t-2.5 -44.5t-3 -44.5t-1.5 -26v-20v-21q0 -2 0.5 -11t1.5 -19t1.5 -19t0.5 -12v-11.5 v-20.5v-20.5v-11.5q0 -4 1 -19.5t2 -33.5t2 -34t1 -19q1 -8 1.5 -28.5t1.5 -43t1 -42.5v-28q13 -3 34.5 -5t42 -9t34.5 -20t13 -38q0 -27 -21 -42t-50 -21.5t-58.5 -8t-47.5 -1.5h-34q-24 10 -36 24t-17 30.5t-6 36.5t-2 43q-2 35 -3 65t-2 58.5t-2 58t-3 65.5v4v0z" />
<glyph unicode="\" horiz-adv-x="646" d="M597 40q0 -13 -8 -20.5t-22 -14.5q-3 -2 -12.5 -3t-12.5 -1q-14 1 -22.5 2t-14.5 3.5t-11.5 8t-12.5 15.5q-5 7 -15 23.5t-20 34t-18 30.5t-9 15q-23 40 -40 80t-37 82q-19 39 -37.5 75t-39.5 74q-11 17 -18 30.5t-12.5 26t-10.5 26t-12 31.5q-20 43 -43.5 81.5 t-45.5 80.5q-1 1 -3 7t-5 12.5t-5 12.5t-3 8q-16 36 -31.5 70.5t-29.5 71.5q0 1 -2 6l-4 10l-4 10t-2 6q-4 23 16.5 43t53.5 23q7 0 12.5 -0.5t11 -4t12 -11.5t17.5 -24q0 -2 3 -6t6 -8.5t5 -9t1 -6.5q22 -33 38.5 -69.5t34.5 -71.5q1 -2 5.5 -9.5t6.5 -11.5q1 -2 8 -12 t8 -12t6 -11.5t10.5 -20.5t10 -20.5t6.5 -12.5q4 -8 9.5 -16t10.5 -16q15 -28 28 -54t24 -55l4 -8t4 -9q1 -1 4 -6.5t6.5 -11.5t6.5 -11.5t4 -6.5q12 -24 23 -48t21 -49q7 -17 18 -30.5t19 -30.5q3 -6 11 -23.5t17.5 -38t18.5 -39.5t13 -28q1 -2 2.5 -6.5t1.5 -6.5 q19 -44 34 -79t11 -66z" />
<glyph unicode="]" horiz-adv-x="328" d="M305 683q0 -8 0.5 -21.5t1 -27.5t1 -27t-0.5 -21q0 -4 -1 -13.5t-1.5 -20.5t-1 -21t-0.5 -14v-15.5v-26.5v-27v-16q0 -2 0.5 -8.5t0.5 -14t0.5 -14t0.5 -7.5v-11t-0.5 -23.5t-0.5 -27.5v-22q0 -74 1.5 -146t1.5 -145v-30q-1 -7 -2 -20.5t-2 -15.5q-1 -3 -7.5 -9t-8.5 -8 q-31 -7 -64 -10t-62 -2t-52 5t-33 11q-11 9 -18 15t-11.5 13.5t-7 18t-3.5 28.5v6q4 22 11.5 33t32.5 15q3 0 12 1t18.5 1.5t18.5 1t12 0.5q7 36 10 73.5t3 75.5t-1 76t0 76q0 5 1 26t2.5 44.5t3 44.5t1.5 26v20v21q0 2 -0.5 11t-1.5 19t-1.5 19t-0.5 12v11.5v20.5v20.5 v11.5q0 4 -1 19.5t-2 33.5t-2 34t-1 19q-1 8 -1.5 28t-1.5 42.5t-1 43v28.5q-13 3 -34.5 5t-42 9t-35 20t-12.5 38q0 27 21 42t50 21.5t58.5 8t47.5 1.5h34q24 -11 36 -24.5t17 -30t5.5 -36.5t2.5 -43q2 -35 3 -65t2 -58.5t2 -58t3 -65.5v-4v0z" />
<glyph unicode="^" horiz-adv-x="292" d="M41 491q8 11 16 28t15.5 34t13.5 30.5t10 18.5q4 14 18 25t32 3h1q1 0 1.5 0.5t1.5 0.5q8 1 19 -6.5t16 -13.5q3 -5 9 -15.5t8 -12.5q4 -11 16.5 -36l22.5 -45q5 -8 9.5 -14.5t5.5 -16.5q1 -16 -14.5 -28t-32.5 -14h-8h-2q-1 0 -2 1q-13 9 -22 22.5t-16 28t-11.5 27.5 t-8.5 21q-1 -2 -3.5 -8.5t-3.5 -8.5q0 -1 -1.5 -5t-0.5 -5q0 -1 -2.5 -4t-1.5 -4l-6 -15q-8 -16 -12 -26t-8.5 -15t-11.5 -6.5t-19 -1.5q-16 -2 -27 7t-11 23q-1 10 2 16.5t8 14.5z" />
<glyph unicode="_" horiz-adv-x="570" d="M242 -25q-8 0 -21 -1.5t-21 -1.5q-5 0 -12.5 -3t-12.5 2q-29 2 -51.5 1.5t-38 4.5t-23.5 20t-7 49q-6 33 5.5 48.5t32 20t44 3.5t40.5 -1q8 1 23.5 0.5t16.5 -0.5h12.5t16.5 -1h12t13 -1h2l54 2h20t30.5 -0.5t30.5 -1t20 -0.5q20 -5 36 -5t30 -17q1 -2 3.5 -17t4.5 -20 v-1v-3q-1 -4 -2 -18t-2 -18q-2 -16 -8 -22.5t-14 -8t-17.5 -0.5t-18.5 0q-5 -1 -18 -2t-28 -1.5t-28 -1.5t-18 -1z" />
<glyph unicode="`" horiz-adv-x="320" d="M66 904q-14 13 -23 22.5t-13.5 17.5t-3.5 16t8 19q0 1 8 9l13 13q12 9 22.5 11t24.5 0q23 -5 43 -15.5t38.5 -23t36 -27t36.5 -27.5q13 -8 21 -16.5t8 -17.5q-3 -17 -11 -29.5t-19 -21.5t-23.5 -13.5t-24.5 -3.5q-13 0 -23 5q-1 0 -5.5 2t-4.5 3q-2 1 -9 5.5t-9 5.5 t-6.5 4.5t-10 7.5t-10.5 8t-6 5q-14 9 -30 19.5t-27 21.5z" />
<glyph unicode="a" horiz-adv-x="713" d="M504 77q-2 -2 -7.5 -8t-12 -12.5t-12.5 -12t-8 -7.5q-13 -11 -31 -19t-34 -14q-3 -1 -10.5 -2.5t-15.5 -2.5t-14.5 -2t-7.5 -1h-4q-35 0 -65.5 3.5t-64.5 12.5q-37 11 -75 28.5t-63 48.5q-1 2 -4 8.5t-4 8.5q-4 7 -9 13.5t-7 14.5q-1 3 -2 9.5t-2.5 13.5t-2.5 13t-1 8v35 q0 35 5.5 69t22.5 66q1 2 8.5 9.5t12.5 11.5q43 38 95.5 51.5t109.5 13.5q37 0 72.5 -9.5t70.5 -23.5q14 -6 28 -13t30 -7q0 12 3.5 16t3.5 14v6q0 2 -1.5 15t-2.5 28.5t-2.5 28.5t-1.5 15q-3 26 -8.5 42t-19.5 39q-27 48 -63.5 66.5t-90.5 18.5h-28l-8 -4l-8 -4 q-1 0 -6 -1.5t-6 -2.5q-3 -2 -11 -10l-10 -10v-2q0 -6 8.5 -14t12.5 -17q1 -2 2.5 -6.5t1.5 -5.5v-25q0 -30 -20 -54t-45 -38q-1 -1 -7 -2.5t-9 -1.5q-2 -1 -13 -2.5t-16 -1.5h-2q-22 1 -46 21t-37 39q0 1 -1.5 6.5t-4 12t-4.5 11.5t-2 7t0.5 12t-0.5 12q0 1 -1.5 6t-2.5 6 v5q0 1 2 6t5 11t5.5 11.5t3.5 7.5q48 83 120.5 116t167.5 33q35 0 71 -5t66 -23q1 -1 7.5 -5t13 -9t12.5 -9t8 -5q2 -2 12 -6.5t12 -5.5q11 -9 19 -19t14.5 -21.5l13 -23t14.5 -21.5l12 -34q0 -15 4 -29.5t4 -29.5v-7.5t0.5 -15t0.5 -17.5v-14t-0.5 -17.5t-0.5 -25.5 t-0.5 -23.5t-0.5 -11.5q-1 -26 -7 -54.5t-9 -54.5q-2 -11 -0.5 -14.5t-3.5 -13.5v-130q0 -1 1.5 -5.5t2.5 -6.5q6 -15 17 -22.5t21.5 -13t18.5 -13t8 -22.5q0 -32 -18.5 -51.5t-53.5 -19.5q-21 2 -45.5 13t-40.5 32q-1 1 -4 5t-6.5 8.5t-6.5 8.5t-3 6q-3 9 -9 12zM213 210 q0 -42 25 -59.5t62 -17.5q17 0 41.5 5.5t49 15.5t44 23.5t25.5 29.5q0 1 2 6t2 6q5 11 10.5 18.5t5.5 19.5v2q0 4 -4 4q-23 20 -51 34.5t-59 14.5q-48 0 -82 -21t-63 -56q-8 -9 -8 -11.5v-13.5z" />
<glyph unicode="b" horiz-adv-x="805" d="M123 415v14v21q0 19 1.5 34.5t1.5 33.5q0 38 0.5 70t5.5 69q2 14 0 26.5t0 28.5q2 22 2.5 45.5t3.5 46.5q0 1 0.5 7t0.5 12v11.5v7.5q1 2 1 9v10v7.5t-1 5.5l-4 5q-3 0 -10.5 -0.5t-16 -0.5t-16 0.5t-10.5 0.5q-10 0 -18.5 8.5t-13.5 15.5q-5 6 -4.5 15t0.5 15 q0 51 25 65.5t73 14.5q25 0 48 -1.5t48 -7.5q2 0 12.5 -5.5t12.5 -6.5q11 -5 20.5 -11.5t11.5 -20.5t3 -24.5t1 -22.5v-10q-3 -25 -6.5 -49t-5.5 -48v-10.5t0.5 -15.5t0.5 -15.5v-10.5q10 0 20 7.5t19 11.5q30 12 61 16.5t63 4.5q14 0 27.5 -3.5t27.5 -1.5q3 -1 10 -4 t15.5 -6t16 -6t10.5 -4q1 0 6 -1.5t6 -2.5q4 0 4 -4q16 -13 34.5 -20.5t34.5 -19.5l10 -10t10 -11q3 -3 8 -9t10.5 -12.5t9.5 -12t5 -6.5q0 -1 3 -7l7 -14l8 -16l6 -12q1 -2 3 -7t4.5 -10t3.5 -9.5t1 -5.5q16 -52 24.5 -99t8.5 -101q0 -45 -6 -92t-23 -89q0 -1 -1.5 -4 t-2.5 -4q-8 -14 -14 -22t-15 -22q-32 -47 -79 -78.5t-98 -51.5q-19 -7 -40 -7.5t-37 -8.5l-125 14q-14 0 -33 9t-32 18q-4 3 -13 7.5t-14 4.5h-2q-4 -13 -9 -26.5t-19 -18.5q-4 -2 -15 -4.5t-13 -3.5h-5q-5 0 -10 0.5t-11 5.5q-16 14 -20.5 32.5t-4.5 39t1 41.5t-3 41v255z M252 405q0 -3 0.5 -12.5t1 -20t1.5 -19.5t2 -13q0 -2 2.5 -11.5t5 -20.5t5 -20.5t3.5 -12.5q6 -27 16 -51.5t25.5 -43t38 -29t53.5 -10.5q12 0 26.5 1t29.5 3.5t28 7.5t22 13q50 45 73 99.5t28 123.5v29q0 102 -65 177l-4 4q-5 2 -17 8.5t-15 7.5q-2 1 -8.5 2.5t-8.5 1.5 q-12 5 -24.5 9t-26.5 4q-5 1 -19.5 2t-31 -0.5t-31 -5.5t-20.5 -13q-1 0 -4 -3l-5 -5q-3 -4 -9 -11.5t-7 -8.5l-20 -40q-1 -2 -3.5 -8t-5 -12.5l-5 -13t-2.5 -7.5q-1 -1 -2.5 -4t-1.5 -4q-2 -4 -4.5 -11.5t-5 -15.5t-4.5 -14.5t-2 -7.5q-1 -3 -2.5 -9.5t-3 -13.5t-2.5 -13 t-1 -8z" />
<glyph unicode="c" horiz-adv-x="680" d="M228 31q-25 8 -44 21t-32.5 27t-23.5 28.5t-17 25.5q0 1 -3.5 5t-3.5 6q-1 3 -4.5 10.5l-7 15t-7.5 15t-5 10.5q-2 2 -7 12.5t-6 12.5t-3 10t-4 17.5t-4 17.5t-3 10q-2 6 -3 15.5t-1.5 19.5t-1 19t-0.5 14v9q0 2 2 10t2 10q0 1 0.5 11t1 23t1.5 26t1 21q1 18 8 33t12 32 q1 2 4.5 14t3.5 14q7 21 14.5 36.5t16.5 30t19.5 28.5t22.5 31q8 9 15.5 20.5t17.5 19.5q18 14 34 24t32 18.5t33.5 15t39.5 12.5q1 0 8.5 1.5t17 2.5t17 2t8.5 1t7 0.5t9 0.5q24 0 43.5 -4t37.5 -11t35.5 -17t37.5 -21q39 -23 62 -62t23 -85q0 -20 -4.5 -39t-11.5 -37 q-5 -15 -17.5 -27t-28.5 -20.5t-33 -13t-32 -4.5q-24 0 -45.5 17.5t-21.5 43.5q0 17 7 34t17 31q5 7 13 12.5t8 15.5l-1 2v2q-1 2 -5 6l-8.5 8.5l-8.5 8.5t-6 5q-2 2 -8 5t-8 3l-29 8q0 1 -8 2.5t-12 2.5h-2q-20 0 -45.5 -3.5t-45.5 -13.5q-1 0 -4 -3.5t-4 -4.5t-6 -2t-6 -2 q-28 -16 -45.5 -42.5t-27.5 -57.5t-13.5 -64t-3.5 -62v-30.5t1 -35.5t3.5 -35.5t7.5 -29.5q10 -26 28.5 -53t42 -48.5t51.5 -35t58 -13.5h2q5 1 18.5 2.5t18.5 1.5q0 1 1.5 2.5l2.5 2.5l4 2l4 2q4 2 13 8.5t11 7.5q2 2 10 9.5t10 10.5q3 3 10.5 9.5t16 14t16 14t10.5 9.5 q5 7 10 15.5t15 8.5q1 1 9.5 2.5t19.5 1.5t22 -2.5t17 -7.5v-8q0 -2 2 -10.5t2 -10.5v-10v-10q-2 -3 -5.5 -9.5t-7 -14.5t-7 -14.5t-4.5 -9.5q-1 -2 -4 -9.5t-6.5 -15.5t-6.5 -15.5t-4 -8.5l-4 -5.5t-10 -12.5t-12 -14.5l-10 -12.5q-6 -8 -14 -9.5t-18 -6.5q-12 -5 -24.5 -8 t-24.5 -8q-2 -1 -8.5 -4t-7.5 -4h-2q-85 -5 -137.5 4t-79.5 24z" />
<glyph unicode="d" horiz-adv-x="806" d="M41 480q11 29 18 48.5t11.5 33t8.5 22.5t9 17q26 46 66 83t85 64q35 21 75 26.5t79 4.5q38 -1 78.5 -18t75.5 -34q1 -1 5.5 -3.5t10 -5.5t10 -5.5t5.5 -2.5q1 -1 2 0t2 1v1q0 1 0.5 1t0.5 1q-1 1 -1.5 8.5t-0.5 15.5t-0.5 15t-0.5 9q0 5 -1.5 16t-3 23t-2.5 23t-1 16 q-3 13 -11.5 17.5t-19.5 6t-23.5 2t-22 5t-15.5 16.5t-5 37q0 6 1 15t3.5 18.5t6 17.5t8.5 12q17 14 37 19t42 5q11 0 24.5 -0.5t26.5 -2.5t25 -6.5t20 -11.5q5 -5 11 -12.5t8 -9.5q1 -3 2.5 -12t2.5 -20.5t2 -24t1 -21.5q-1 -19 -4 -36.5t-4 -37.5v-22v-20.5t0.5 -35 t1.5 -35t1 -20.5q0 -6 -1.5 -29.5t-3 -51t-2.5 -51.5t-1 -30t1.5 -29t3 -49.5t3 -49.5t1.5 -29q0 -2 -0.5 -15t-0.5 -19q-2 -24 -4.5 -47.5t-4.5 -46.5q-2 -30 3.5 -50.5t28.5 -40.5q13 -12 26.5 -20t24.5 -22v-16q-2 -17 -9 -29.5t-18 -26.5q-8 -9 -21.5 -15.5t-24.5 -8.5 q-3 0 -9.5 -0.5t-13.5 -1t-13 -1t-8 -0.5q-5 1 -17 3.5t-16 4.5q-1 1 -5 4t-9 7.5t-10 8.5t-7 6t-5 9t-8 7h-2q-12 -18 -30 -25t-37 -15q-33 -12 -68 -18.5t-70 -5.5q-22 0 -45 1.5t-45 3.5q-2 0 -8 1.5t-8 2.5q-41 18 -70.5 43t-58.5 60q0 1 -4.5 8.5t-6.5 12.5l-22 44 q-1 1 -3 5t-4.5 8t-5 7.5t-2.5 4.5q-1 2 -0.5 8.5t1.5 8.5q-5 22 -14.5 46.5t-14.5 46.5q-11 42 -11.5 88.5t-0.5 89.5zM187 389q-3 -69 13 -122.5t66 -102.5q20 -20 39.5 -31t46.5 -18q1 -1 6 -3t6 -2q34 -1 59 9t44 27.5t33.5 42t27.5 52.5q16 33 27 66t13 69q-3 21 -3 43 t-1 43.5t-5 43.5t-16 43q0 1 -4 4t-4 4q-1 1 -1.5 7.5t-1.5 8.5q-7 14 -19.5 25.5t-28 19.5t-32 13t-31.5 5q-26 0 -52 -7t-49.5 -19.5t-43.5 -31t-33 -40.5q-11 -17 -20 -37t-17 -35q-8 -18 -13 -37.5t-6 -39.5z" />
<glyph unicode="e" horiz-adv-x="720" d="M57 373q-17 2 -27.5 19.5t-11 39t10 41t34.5 26.5q2 22 13.5 46.5t18.5 44.5q5 14 12 29t15 25q1 2 8 13t9 13q16 21 36.5 38t41.5 33q31 23 62 35t67 15q45 4 90 -4t83 -26q15 -7 27 -18.5t25 -21.5l21 -21q2 -2 8 -9t8 -11q28 -37 47.5 -79.5t18.5 -93.5 q-1 -26 -10.5 -49t-26 -41t-39 -30t-48.5 -14q-5 0 -12.5 -2.5t-12.5 1.5q-3 0 -14.5 -0.5t-24.5 -0.5h-24h-14t-14 -1.5t-23 -2.5t-22.5 -1.5t-13.5 -0.5q-18 -1 -39.5 0t-43.5 2.5t-43.5 2t-39.5 -0.5q-4 -8 -6 -21t-2 -26.5t1 -25.5t3 -17v-5q-1 -12 3 -26t7 -25 q11 -33 30.5 -56.5t54.5 -32.5q2 0 11.5 -2t22.5 -4.5t28 -3.5t30 1l2 1q48 3 80 30.5t57 81.5q7 8 11 13.5t8.5 10t10.5 7.5t16 7q6 3 17 7t12 4q2 0 11 -4t13 -6q17 -11 26.5 -33t8.5 -42q0 -16 -6.5 -29.5t-15.5 -27.5q-11 -19 -23 -37t-26.5 -34t-31.5 -28.5t-38 -19.5 q-5 -2 -12.5 -4.5t-15.5 -5t-14 -4.5t-7 -2l-7 -1t-16 -2.5t-18.5 -2.5t-15.5 -2l-2 -1h-2q-35 1 -71.5 1.5t-69.5 11.5q-5 2 -17 7t-16 7q0 1 -6.5 5.5t-8.5 6.5q-2 0 -8 3t-12.5 6.5t-12.5 6.5t-7 4q-2 1 -6 6t-8.5 11t-8.5 11t-5 6t-5.5 6.5t-10 11t-10 10.5t-5.5 7 q-2 2 -8 12t-8 14q-3 6 -8 16.5t-10.5 22t-10.5 20.5t-6 12q-1 2 -4 11l-4 12q-4 19 -6.5 33.5t-3 28t-0.5 28v34.5zM228 516q0 -12 11 -17.5t25.5 -7.5t29.5 -2h23h45h7q38 3 70.5 10t67.5 22q2 0 5 1.5t3 2.5q3 5 4 9.5t2 9.5q0 15 -8 35t-21 39t-28.5 34.5t-30.5 20.5 q-11 4 -23.5 2.5t-23.5 -2.5q-5 0 -15 -1t-11 -1t-14.5 -6t-21.5 -10q-21 -9 -34 -21.5t-28 -30.5q-1 -1 -4 -4.5t-4 -4.5q-1 -3 -4 -10.5t-6.5 -16.5t-6.5 -16.5t-4 -10.5q-2 -8 -3 -12.5t-2 -11.5z" />
<glyph unicode="f" horiz-adv-x="684" d="M96 114q0 3 3 6.5t5 5.5q1 1 3 2.5t4 3.5q3 2 5 4h49l12 14l11 267q2 15 3 21t1.5 11.5t0 14t-0.5 28.5q-5 3 -12 5.5t-19 -0.5q-23 2 -46.5 7t-43.5 17q-9 6 -17 13t-19 11q-3 13 -3.5 21.5t-0.5 19.5q0 16 7.5 26.5t19.5 17.5t26 10t27 3q18 0 33 -6.5t31 -6.5h2 q1 1 2 2.5t2 1.5q0 3 0.5 26.5t1.5 51t2 50.5t1 26q0 2 1.5 8.5t2.5 7.5q0 1 0.5 6t1.5 10.5t1.5 10t0.5 6.5t1.5 8.5t2.5 7.5q10 23 23.5 46.5t30 43.5t37.5 35t47 21q30 14 64 16.5t61 -4.5q21 0 48.5 -6t53.5 -17.5t47 -28t29 -37.5q1 -3 3.5 -14.5t2.5 -14.5 q0 -20 -7 -38.5t-20 -33.5t-31 -24t-39 -9q-10 0 -20.5 1.5t-18.5 6.5t-13.5 13t-5.5 22t4 21t4 15t-6 14.5t-15 11t-19 7t-17 2.5q-14 5 -32.5 -2.5t-32.5 -14.5q-6 -1 -9 -5t-7 -7q-15 -12 -23.5 -41t-12.5 -62t-5 -65t-1 -51v-20t4 -20h5q20 0 37.5 8.5t37.5 8.5 q30 0 54.5 -15.5t24.5 -47.5q0 -2 -0.5 -3t-0.5 -3v-4l-3.5 -7t-5.5 -10.5t-6.5 -10t-4.5 -5.5q-2 0 -6 -1.5t-6 -2.5q-20 -8 -42.5 -9t-42.5 -11q-11 -5 -11 -16t-1 -21q-2 -15 -2 -23.5t1 -15.5t1 -15.5t-2 -24.5l1 -142q-1 -4 -2.5 -16.5t-1.5 -15.5q0 -2 -0.5 -11 t-1 -19.5t-1 -20t-0.5 -10.5t-2 -4t-2 -4q-1 -2 0 -6.5t1 -6.5h36t22.5 -4t12.5 -13.5t6 -28.5q4 -39 -6 -56t-27 -22.5t-39.5 -4t-43.5 -1.5h-133q-1 0 -6 1.5t-7 2.5q-8 4 -16.5 4.5t-16.5 1t-14 4t-9 12.5q-1 0 -0.5 3.5t0.5 4.5q-1 2 -2 6t-2 6z" />
<glyph unicode="g" horiz-adv-x="818" d="M52 -9q0 43 18 81.5t43 72.5l2 4l2 4q1 1 5.5 4t6.5 4q-6 7 -14.5 11.5t-13.5 12.5q-16 20 -22.5 47t-6.5 52v23q1 3 5.5 11t9 17l8.5 17t6 11q8 17 27.5 35.5t36.5 25.5v4q-11 26 -21.5 53t-10.5 56q0 3 0.5 11t1 17.5t1.5 18.5t1 14q2 17 11.5 32.5t20.5 28.5 q1 1 5.5 6l9 10l9 10t5.5 6t7.5 4t8.5 4q1 1 6.5 4.5t11.5 8t11.5 8t6.5 4.5q1 0 5.5 1.5l7.5 2.5q1 0 7.5 1.5t8.5 2.5q1 0 7.5 3.5t8.5 4.5q23 8 46 14t49 6h22q2 0 11 -1.5t14 -2.5q1 -1 7.5 -2.5t8.5 -1.5q7 13 13 24q5 9 9 17.5t6 10.5q1 2 4 8.5t4 8.5q2 2 7 7.5 t11 11t11.5 10.5t7.5 7h4q29 10 58.5 15.5t61.5 5.5q25 0 49 -10.5t42 -28.5t29 -41.5t11 -48.5q0 -14 -5.5 -28t-14.5 -25t-21.5 -18t-27.5 -7q-9 0 -24.5 6.5t-20.5 16.5q0 1 0.5 4t-0.5 4l-2 2l-2 2q-5 8 -6.5 16.5t-1.5 16.5q0 10 0.5 10.5t0.5 10.5q0 5 -1.5 8t-3.5 8 q-2 1 -8 1h-8h-9t-7 -1q-2 -1 -8.5 -7.5t-7.5 -8.5q-7 -6 -16 -12.5t-9 -17.5v-2l2.5 -5t1.5 -4q23 -29 41 -64t24 -85q0 -3 2 -16.5t2 -16.5v-6q0 -22 -6.5 -50t-21.5 -56.5t-38.5 -54.5t-57 -43.5t-78 -24t-101.5 4.5q-2 0 -4.5 1.5t-4.5 2.5q-1 0 -5 0.5t-8.5 1t-9 1.5 t-5.5 1q-2 0 -9 2t-15.5 4t-15.5 4t-8 2q-2 0 -10 0.5t-13 0.5q-2 0 -8.5 -2t-8.5 -2q-16 -6 -20 -23.5t-4 -31.5v-6q12 -16 25.5 -27t33.5 -15q6 -1 17 -2t22.5 -2.5t21 -2.5t12.5 -1h25h42.5h42h24.5q34 -1 68 -3.5t65.5 -12t58.5 -27.5t47 -50q12 -19 26.5 -43.5 t14.5 -48.5q0 -21 -4 -42t-9 -40q0 -1 -5 -10t-7 -14q-11 -21 -21.5 -41.5t-27.5 -39.5q-21 -24 -45 -38t-51 -21.5t-56 -10t-58 -3.5q-3 0 -12.5 -0.5t-20 -1.5t-20 -1.5t-12.5 -0.5q-39 0 -82 7t-84 21.5t-78 36.5t-64 52q-21 24 -28.5 52t-7.5 58zM226 -13 q0 -4 1.5 -16.5t2.5 -16.5q1 -2 6 -10t6 -10q12 -21 30.5 -33t40.5 -18t45.5 -8t44.5 -2q31 0 62.5 4.5t58.5 17t46.5 34t26.5 54.5q2 7 2 20v21v4q-8 22 -27 35.5t-42 20.5q-2 0 -8.5 1.5t-7.5 2.5q-14 5 -25.5 8.5t-25.5 3.5q-20 0 -40.5 -2t-40.5 -2q-40 0 -79 -17.5 t-65 -47.5q-1 -1 -2 -3.5t-2 -4.5q-1 -3 -2 -8.5t-2.5 -11.5t-2.5 -10.5t-1 -5.5zM291 517q0 -2 1.5 -9.5t2.5 -10.5l5 -15t7 -14q21 -26 54 -41.5t65 -15.5t60 9t41 39q0 2 3.5 12.5t4.5 12.5q4 10 5.5 18.5t1.5 20.5q0 11 -4 26.5t-12 24.5q-1 1 -5.5 4l-9 6l-9 6t-5.5 4 q-11 8 -22.5 17t-25.5 11q-25 5 -46 5q-14 0 -28 -6t-27.5 -15.5t-25 -20t-19.5 -19.5q-1 -1 -2.5 -4t-1.5 -4q-1 -3 -2 -9.5t-2.5 -13t-2.5 -12t-1 -6.5z" />
<glyph unicode="h" horiz-adv-x="919" d="M515 43q-4 8 -6.5 17.5t-2.5 19.5v7q1 1 4 5.5t5 6.5q5 5 14 14.5t10 10.5l5 0.5t11.5 1t13 1.5t10.5 1q2 0 9 0.5t14.5 1.5t14.5 1.5t9 0.5q5 1 7.5 10.5t3 21t0.5 21.5t1 13q4 25 5 43t1 45v24q0 3 -1.5 15.5t-3 26.5t-2.5 27t-1 16v65q-3 33 -13.5 58.5t-18.5 46.5 q-1 1 -4 7.5t-7 14.5t-8 15.5t-6 11.5q-20 36 -55 48.5t-73 12.5q-20 0 -37 -4.5t-33 -16.5q-1 -1 -6 -4t-6 -4l-6.5 -6.5l-10 -10l-10 -10t-6.5 -5.5q-9 -10 -15.5 -26.5t-12 -35.5t-8.5 -37t-4 -31q0 -5 -1 -14t-1.5 -19t-1 -18t-0.5 -10v-9t-0.5 -18.5t-0.5 -21v-16.5 q0 -53 6 -104.5t3 -105.5q0 -4 4 -4q2 -1 12 -0.5t12 0.5q33 -3 47 -28t14 -55v-18q-10 -13 -22.5 -20t-26 -11t-27.5 -6t-29 -4q-26 -2 -56.5 -2.5t-56.5 -0.5q-41 0 -69.5 17t-28.5 61q0 22 5.5 32t14.5 13.5t21.5 4.5t27.5 5q4 0 4 4q1 8 3 29.5t4 45.5t3.5 45t1.5 30 v17.5v31v30.5v18q0 2 0.5 10t1.5 18t1.5 18t0.5 10v23q0 48 -5.5 94t-10.5 94q-2 18 -2 36.5t-2 36.5q0 2 -2 10t-2 10q-1 4 -2.5 16t-1.5 16q-1 7 -1 17.5t-0.5 21.5t-2 21.5t-4.5 16.5q-1 1 -1 1.5t-1 1.5t-2 1t-4 -2t-4 -2h-6q-24 0 -43 13q-12 8 -12 24.5v30.5 q0 20 8 36t25 27q5 3 16 9t13 7q3 1 10 3t15.5 4t16 3.5t10.5 1.5h9h15.5h15.5h9q7 1 13.5 -0.5t13.5 -1.5q12 0 18.5 -8.5t10 -20.5t5 -25t3.5 -22q6 -45 6 -91t2 -91h4q22 26 43.5 35.5t53.5 17.5q15 4 33 6t34 2q33 0 67 -2.5t66 -9.5q21 -5 41.5 -18t37.5 -27q1 -1 6 -5 t11 -9t11.5 -10t8.5 -8q22 -20 39 -47.5t28.5 -58.5t18 -63t7.5 -62v-81q0 -4 1 -20.5t2.5 -36t3 -36t1.5 -20.5v-2v-2q0 -3 -2 -16t-4 -27t-4 -26.5t-2 -15.5q0 -2 -1 -10t-1.5 -17t-1 -17.5t-0.5 -9.5t-2 -6t-2 -6v-2q0 -3 11.5 -4t27 -2.5t31 -5.5t23.5 -13 q7 -5 7.5 -18.5t0.5 -21.5q0 -20 -11 -38.5t-29 -27.5q-2 -1 -8 -2t-9 -2q-2 0 -9.5 -0.5t-16.5 -1.5t-16.5 -1.5t-9.5 -0.5q-5 -1 -18 -2t-15 -2q-1 0 -4 -1.5t-4 -2.5q-32 2 -59 0.5t-59 -1.5h-3h-6h-11h-11.5t-8.5 1q-5 2 -14.5 5.5t-13.5 6.5q-2 2 -7.5 7t-11.5 11 t-11 11.5t-6 7.5z" />
<glyph unicode="i" horiz-adv-x="473" d="M50 79q-1 19 5 28.5t21 20.5q4 2 11.5 7.5t8.5 5.5h7.5h14t14 0.5t8.5 0.5q5 1 13 4.5t10 8.5q0 2 0.5 8t0.5 8q-2 4 -4 21.5t4 31.5l4 126q0 3 0.5 18.5t1.5 35.5l2 40t2 32v4v15v18t0.5 16t0.5 8q0 2 1 10.5t1.5 18t1.5 18t1 10.5q0 5 -2 20.5t-3 20.5q-3 5 -13.5 7 t-23 5t-24.5 8.5t-18 16.5q-1 1 -1 8v8t-1 5t-2 8.5t-1.5 9t-0.5 5.5q-2 32 19 51.5t51 20.5q10 1 20 1t20 -4q5 0 16 1t22.5 1.5t22 1t15.5 0.5q31 0 43.5 -22t16.5 -50q1 -2 1 -10.5v-10.5v-6v-10.5v-10.5v-6t1 -5t1 -6q0 -11 2.5 -25t2.5 -27q1 -9 0.5 -15t-1.5 -10.5 t-1.5 -9.5t-0.5 -14v-2q-3 -29 -0.5 -56t0.5 -56q-1 -19 -3.5 -37.5t-0.5 -37.5l-3 -42q0 -3 -0.5 -9.5t-0.5 -13.5t-0.5 -13.5t-0.5 -9.5q1 -1 1 -6v-6q-1 -2 -2 -8t-1 -8l4 -85v-2q0 -1 3 -2.5t5 -1.5q3 -1 10 -2.5t15.5 -3t16 -3t10.5 -1.5q20 -15 26 -34.5t7 -43.5v-2 q-2 -11 -5.5 -26.5t-17.5 -19.5q-2 0 -7.5 -1.5t-12.5 -3t-13.5 -3t-9.5 -1.5q-1 0 -4 -0.5t-4 -0.5q-3 0 -16 -2t-27 -4t-26.5 -3.5t-15.5 -1.5q-2 0 -17.5 0.5t-26.5 0.5q-2 0 -7 0.5t-11 1t-11.5 1t-6.5 0.5h-37.5t-35 4t-31 13t-25.5 27q-2 3 -5.5 10.5t-3.5 9.5v13z M234 1023q29 1 46 -12t33 -34q0 -4 4 -4q5 -8 5 -11.5t1 -14.5q2 -51 -19 -79.5t-75 -30.5q-8 -1 -18.5 0.5t-17.5 5.5q-1 0 -5.5 3t-10 7t-9.5 7t-5 3q-14 21 -16.5 45.5t6 48t28.5 41.5t53 25z" />
<glyph unicode="j" horiz-adv-x="325" d="M-78 -213q-16 9 -31.5 18t-27.5 20t-20 25t-9 34q-1 17 4.5 34t16.5 30.5t26.5 22.5t33.5 9q25 2 45.5 -12.5t25.5 -43.5q-1 -11 -1 -16t-1 -8.5t-3.5 -8t-8.5 -14.5q1 -6 4.5 -6.5t10.5 -2.5q5 -2 17 -4.5t17 -4.5h6h10h9.5h5.5h4q20 0 30.5 6.5t21.5 20.5q1 0 3.5 4 t5.5 9t5.5 9t2.5 5q8 11 13.5 31t7.5 34q0 1 -0.5 5.5t-0.5 10t-0.5 10t-0.5 5.5v6.5t0.5 12t1 11.5t0.5 7v2q-1 1 -1 2v10.5t0.5 18.5t1 18.5t0.5 10.5q0 1 0.5 8t0.5 14.5v14v8.5q0 1 -0.5 12.5t-1.5 17.5q-1 23 -2 50t-3 50q-2 26 0.5 46.5t3.5 45.5q0 25 -2 50.5t0 50.5 v29q5 32 2 55t-5 56q0 10 -6.5 14.5t-15.5 5.5t-18.5 0.5t-15.5 0.5q-2 1 -4.5 2.5t-4.5 2.5q-5 4 -14 6t-10 4q-1 1 -3 8.5t-2 10.5l0.5 6.5t0.5 14.5t0.5 15t0.5 10q1 5 2 12.5t1 8.5q1 2 11.5 12.5l15.5 15.5q14 13 35.5 13.5t38.5 0.5q24 1 43.5 0.5t43.5 -3.5 q11 -7 18 -18.5t11 -24.5t6 -26t3 -24q1 -8 2 -27.5t2.5 -41.5t2.5 -41.5t2 -27.5q1 -14 2 -36t2.5 -44t2.5 -38.5t1 -18.5v-14.5v-24.5t0.5 -24t0.5 -14q0 -2 0.5 -9t1 -15.5t1 -15.5t0.5 -9v-42t-3 -43q-1 -1 -2.5 -6t-1.5 -6q-1 -2 0 -10t2 -10q0 -2 -0.5 -9t-0.5 -15.5 v-15.5v-9q-1 -3 -1 -9v-13.5t-0.5 -13.5t-0.5 -9q1 -2 1 -8.5v-8.5q-2 -17 -4 -38t-4.5 -42t-6.5 -40.5t-11 -35.5q-12 -48 -42 -74.5t-76 -46.5q-4 -2 -12 -4t-16 -3.5t-14.5 -3t-7.5 -1.5t-13 -0.5t-19 -0.5h-37q-3 0 -13 1t-21 2t-20.5 2t-13.5 2zM81 903q-1 10 2.5 20 t8.5 18q15 26 30.5 39t46.5 14q11 0 18.5 -3t14.5 -8q2 -1 9 -3.5t8 -4.5q17 -11 22 -26t7 -34q1 -16 -4 -32t-14 -29t-22.5 -21.5t-30.5 -8.5q-13 0 -24.5 2t-22.5 10q-19 15 -33 28t-16 39z" />
<glyph unicode="k" horiz-adv-x="870" d="M107 -4q-10 1 -18.5 6.5t-14.5 14t-9.5 18.5t-3.5 19q-1 15 4.5 28.5t22.5 18.5q2 0 8.5 1t14 2t14 2t8.5 1t6.5 2t5.5 3q3 2 5 8t4 13.5t3.5 14t1.5 9.5q0 2 0.5 9t1 15.5t0.5 15.5v9q-3 64 1 134t9 142t7 142.5t-4 135.5q0 1 -0.5 5.5t-1.5 10t-1.5 10t-0.5 5.5t-0.5 6 t-0.5 6l-2 71v18q-16 4 -33 4t-32 -2q-3 2 -7.5 2t-8.5 2.5t-7 8.5t-3 19v2q0 6 1.5 18.5t2.5 13.5q-2 6 3.5 13.5t14 14t18 10t15.5 2.5q2 0 7.5 2t7.5 3q4 1 13 2t18 1.5t16 0.5h7q20 3 36 1t37 -1q4 -3 7 -8t5 -7v-10t1 -11q1 -29 3 -49.5t0 -49.5q-2 -23 -1 -45t-1 -44 q0 -3 0.5 -17t0.5 -30t0.5 -30t0.5 -17v-17q1 -31 -2 -67.5t0 -67.5v-30v-12t-0.5 -17.5t-0.5 -17.5v-12q2 2 6 7t5 7q17 21 38 40.5t41 39.5q2 2 10.5 10t18.5 17.5t18.5 17.5t11.5 10q2 2 9.5 10.5t9.5 10.5q0 1 1.5 4.5t2.5 3.5q1 2 4 3.5t4 2.5q2 1 6 6t5 7 q-6 4 -15 6.5t-17.5 6.5t-14.5 12.5t-6 25.5q1 23 14.5 37.5t34.5 16.5q3 0 9.5 0.5t7.5 0.5q3 0 14 -1.5t23.5 -2.5t23 -2.5t13.5 -1.5h8.5t14 0.5t14 1.5t8.5 1q3 0 17 -0.5t30 -0.5t30.5 0.5t17.5 0.5q17 -5 26 -11t13 -14.5t5 -19t1 -23.5v-11q2 -22 -8.5 -33t-43.5 -13 q-3 0 -9 -0.5t-13.5 -1t-13.5 -1t-9 -0.5q-2 -1 -5.5 -6t-5.5 -7q-28 -36 -56.5 -72.5t-52.5 -75.5v-2q0 -4 4 -10t9 -12.5t9.5 -12.5t6.5 -10q20 -34 37 -69.5t40 -67.5l13.5 -18t23 -31.5t25 -34t19.5 -25.5q2 -2 7 -11t7 -11q8 -9 16 -10t16 -1t17 -3t20 -15q1 -1 2 -6.5 t1.5 -11.5t1 -10.5l0.5 -4.5v-6q1 -21 -6.5 -32t-19.5 -16t-26.5 -5.5t-27.5 -1.5q-38 -2 -75.5 -0.5t-75.5 -0.5q-1 0 -6.5 -1t-11.5 -2.5t-11 -2.5t-6 -1t-6.5 2t-6.5 2q-12 2 -21 3t-15.5 4.5t-10 10.5t-3.5 22v17.5t2 20.5t7.5 17.5t16.5 7.5l73 5q0 2 -1.5 4.5 t-2.5 3.5l-4 4t-6 7t-6 7.5t-4 4.5l-48 71v4q-3 6 -14.5 23.5t-25 35.5t-25.5 31.5t-15 13.5h-4q-18 -6 -34 -15t-31 -19.5t-30.5 -21.5t-31.5 -21q-1 -1 -2.5 -5.5t-0.5 -6.5q0 -2 -0.5 -11t-1 -19.5t-1 -19.5t-0.5 -11q-1 -2 -2 -10.5t-1 -10.5q0 -1 -0.5 -10t0.5 -14 q0 -3 0.5 -12.5t0.5 -12.5q1 0 4 -1t4 -2q12 -2 26.5 -3t27 -5t21 -13t8.5 -26v-4q-1 -3 -3.5 -14.5t-3.5 -15.5q-4 -12 -17 -18t-29 -9t-31.5 -3.5t-24.5 -1.5q-19 -1 -42 0t-43 1q-4 0 -15 -0.5t-23 -1t-23 -1t-15 -1.5z" />
<glyph unicode="l" horiz-adv-x="445" d="M202 8q-33 -4 -65.5 -8.5t-64.5 0.5q-7 1 -11.5 2.5t-8.5 7.5q-1 3 -1 14v15v25t3.5 24t11.5 19.5t23 11.5q3 1 10 1.5t15 1.5t14.5 1.5t9.5 0.5l3 8v25t0.5 38t1 37.5t0.5 24.5q0 2 1 11t3 14q6 39 2.5 75t-1.5 74q1 19 2.5 43t2 49t0.5 49t-1 43q3 22 2 54.5t-2.5 67 t-3 66.5t0.5 53q-5 6 -16 3.5t-16 -2.5q-12 0 -19.5 6.5t-12 15.5t-6 20t-1.5 21q-1 32 18.5 53.5t48.5 32.5q5 0 19.5 2t19.5 2q8 1 22.5 2t15.5 1h7.5h15.5h17.5t14.5 -1q25 -4 28.5 -29.5t-1.5 -75.5t-14 -126t-9 -180q-3 -30 -2 -62t1.5 -62t0 -56t-5.5 -45v-59 q0 -6 0.5 -15.5t1 -18.5t0.5 -16.5v-8.5q0 -7 1 -22.5t1.5 -32.5t1.5 -32.5t2 -22.5q4 -20 18 -23t31.5 -1.5t36 2t32.5 -12.5q3 -5 4 -6t2 -6q0 -5 3.5 -12.5t-0.5 -12.5q-4 -19 -5 -33t-7 -23.5t-22 -14.5t-49 -5l-3 -1q-32 -3 -62.5 0.5t-59.5 8.5z" />
<glyph unicode="m" horiz-adv-x="1360" d="M1009 60v6t-1 6q3 6 3 11.5t3 10.5t10 9t24 6q4 0 12.5 0.5t17.5 0.5t17.5 0.5t12.5 0.5q5 0 7 4q5 9 5.5 21t1.5 20q2 22 4.5 46t-2.5 50q-3 59 -10 116.5t-18 115.5q0 3 -3.5 18t-14.5 52q-1 18 -12 37.5t-27 36.5t-35.5 28t-37.5 11q-38 0 -66.5 -16.5t-48.5 -43 t-32.5 -59.5t-17.5 -65q-1 -3 -1.5 -15.5t-1 -28t-1.5 -29.5t-3 -20q0 -5 -0.5 -21.5t-1 -35.5t-0.5 -36v-21q0 -3 -1 -13.5t-2 -22.5t-1 -23v-14v-20q0 -2 1 -10t1 -10q2 -5 7 -5.5t9 -2.5l8 -4t12.5 -6.5t12.5 -6.5l8 -4q11 -6 18.5 -13t8.5 -19q0 -3 0.5 -7.5t0.5 -5.5 q-1 -1 -4.5 -6t-4.5 -6q-4 -12 -6 -22.5t-5.5 -18.5t-11 -13t-22.5 -6q-2 0 -8.5 0.5t-7.5 -0.5l-4 -2q-2 -1 -3 -2q-3 0 -11 -1.5t-16 -2.5t-15.5 -2.5t-10.5 -1.5h-11q-27 3 -58 3t-56.5 5t-41 18.5t-13.5 44.5q-1 1 -1 2q0 2 1 8t1.5 13t1.5 13t1 8l4.5 9t6.5 7l61 4 q2 0 4 3.5t3.5 8t2.5 8t1 4.5q2 5 3.5 20.5t2.5 19.5q0 2 0.5 10.5t1.5 18t2 18t1 10.5t1.5 11t3 19.5t3 19.5t1.5 11q2 26 1.5 57t-2.5 58q0 3 -0.5 9t-1 12.5t-1 12.5t-0.5 9q-1 2 -2.5 8t-2.5 8q0 1 -4 6t-5 6v8.5t-1 7.5q-4 14 -11 26t-15 23q-23 34 -53 58t-71 24 h-13.5t-14 -2.5t-22 -7t-36.5 -13.5q-16 -15 -28 -33t-16 -40q-2 -9 -4.5 -23.5t-5 -28.5t-4.5 -25t-2 -12q-5 -48 -2 -95.5t-1 -95.5v-9t-0.5 -12.5t-1 -12t-0.5 -6.5q0 -2 1 -8.5t0 -7.5q0 -2 -1.5 -7.5t-3 -12.5t-3.5 -13t-2 -7q-1 -2 -1.5 -8t-1.5 -8v-2v-2q1 -1 4 -2.5 t4 -1.5q10 -2 25.5 -2t29.5 -3t24.5 -10.5t11.5 -23.5v-3v-10.5v-16t-0.5 -15.5t-0.5 -10q-12 -34 -44 -47.5t-65 -12.5h-25q-9 0 -30 0.5t-45 1.5t-45.5 2t-29.5 1q-25 5 -48 25.5t-25 46.5v2q4 15 7.5 25t10.5 24q3 5 12 8.5t20.5 6t22 4.5t16.5 4q-3 57 1.5 104.5 t8.5 101.5q0 3 1.5 15t3 25.5t3 25.5t1.5 15q0 1 -0.5 7t-0.5 9l6 110q2 19 6.5 36.5t2.5 37.5q0 3 -0.5 8.5t-0.5 6.5l-5 4q-3 0 -10.5 1t-16 2.5t-16 2.5t-10.5 2q-20 4 -25.5 21t-6.5 34q-1 20 11 39t35 19l126 -1q1 0 3 -1q4 -2 5 -3q8 -5 16 -10.5t14 -13.5 q1 -1 2.5 -6.5t1.5 -6.5q1 -1 2 -1h2q3 0 9.5 4.5t14 10l15 11t13.5 7.5q5 2 14.5 5t20 6.5t18.5 6t10 2.5q18 5 40 4.5t39 -0.5h10t15 -0.5t15 -0.5h10q3 -1 11 -2.5t10 -1.5q19 -5 38 -7.5t36 -13.5q5 -3 11.5 -8.5t13.5 -11.5t13.5 -10t11.5 -4q8 0 10.5 8.5t8.5 12.5 q30 19 67.5 29t72.5 19h47q27 0 50 -3t45 -9t44 -16t47 -23q12 -6 17.5 -12.5t16.5 -16.5q2 -2 10 -8.5t10 -7.5q27 -29 40.5 -56t20.5 -52.5t9.5 -50t5.5 -48.5q0 -2 1 -9t2 -15.5t2.5 -15.5t1.5 -8v-14q1 -3 1 -8.5v-6.5v-73q0 -2 0.5 -10t1 -18t1 -18t0.5 -10t-1 -12.5 t-2 -12.5q-2 -32 -0.5 -71t-0.5 -71q0 -5 8.5 -6.5t20.5 -2t23.5 -1t16.5 -3.5q20 -14 24 -28.5t5 -37.5q1 -8 0.5 -11t-8.5 -8q-3 -2 -8.5 -5.5t-12 -7.5t-11.5 -7t-6 -4q-2 0 -9.5 -1t-11.5 -2h-8q-1 0 -6.5 -1.5t-11.5 -2.5t-11.5 -2t-6.5 -1q-26 -4 -54.5 -3.5 t-55.5 0.5q-2 0 -8.5 1t-14.5 2.5t-15 3t-9 1.5q-66 -12 -69 57z" />
<glyph unicode="n" horiz-adv-x="907" d="M127 148q4 32 4.5 65.5t2.5 66.5q1 27 3.5 49.5t4.5 44.5t4.5 44.5t4.5 49.5q0 1 0.5 6.5t1 12t1 11.5t0.5 7v7t0.5 14.5t0.5 17v13.5v10.5t-0.5 16t-0.5 16v10.5q-2 5 -10.5 7t-18 4.5t-17 7.5t-7.5 17v6q0 2 1 4q4 32 11.5 51.5t31.5 39.5h24q17 -1 31.5 -3.5 t29.5 -11.5q17 -10 27 -17.5t30 -8.5h4q23 24 49.5 44t59.5 28q2 1 10.5 3t18 4.5t18 4.5t10.5 2h5.5t12 -1t12 -1.5l5.5 -0.5h26q26 -1 46 -5t38.5 -11t36.5 -17t41 -24q1 -1 3.5 -2.5t4.5 -2.5q22 -9 33 -24t23 -34q34 -54 48 -114.5t15 -121.5v-2q0 -48 -1.5 -79.5 t-3 -59.5t-3.5 -56.5t-4 -70.5q-1 -2 -1 -5v-8q1 -8 3.5 -13.5t11.5 -6.5q7 1 6.5 1t8.5 -1q26 -1 35 -13.5t9 -39.5q0 -17 -6.5 -29t-17.5 -20.5t-25 -14.5t-28 -10q-32 -9 -68.5 -15t-71.5 -4q-32 1 -50.5 9.5t-40.5 34.5q-3 4 -5.5 13.5t-2.5 11.5q0 7 2 17t6 20t9 18.5 t11 12.5q3 2 9 4.5t8 2.5l60 -2q1 0 2 12.5t1 19.5v7t0.5 14.5t0.5 17v13.5v13.5t-0.5 17t-0.5 15.5v8q0 2 -0.5 10t-1 18t-1.5 18t-1 10q-4 25 -4 46t1 39.5t0.5 37.5t-5.5 41q-5 82 -46.5 128t-124.5 49q-36 1 -73 -6q-1 -1 -3.5 -1.5t-4.5 -2.5q-23 -14 -41 -32.5 t-35 -40.5q-22 -30 -29.5 -65.5t-13.5 -71.5q-5 -23 -8.5 -43.5t-3.5 -43.5v-17q0 -8 -1 -17.5t0 -17.5q5 -5 4 -14t0 -15q0 -3 0.5 -11.5t1 -18t1.5 -18.5t1 -12q0 -5 1.5 -18.5t2.5 -18.5q3 -16 7 -24.5t11 -13t16.5 -6.5t22.5 -6q17 -5 31 -16.5t14 -30.5q0 -5 -3 -16 t-8 -22.5t-10.5 -20t-10.5 -9.5q-5 0 -18 -2t-27 -4t-27 -3.5t-18 -2.5q-2 0 -12 -3t-12 -4h-12t-12 1q-2 0 -11.5 -2t-11.5 -2q-7 0 -19.5 -1t-13.5 -1q-5 0 -20 2t-20 3q-9 2 -20 9t-20 17t-15.5 20.5t-6.5 20.5v61q0 3 5 8.5t7 7.5q19 8 35 5t30 5z" />
<glyph unicode="o" horiz-adv-x="801" d="M199 67q-2 1 -8.5 8t-7.5 9q-2 1 -10 8t-17 15.5t-16.5 15t-9.5 8.5q-5 4 -7 8.5t-5 9.5q-18 30 -30.5 68t-20 78.5t-11 81t-3.5 75.5q0 49 17.5 93t46.5 81q4 5 10.5 13.5t13 16.5t11.5 14l5 6q2 2 11.5 9t21 15l23 16t17.5 13q16 9 39 20.5t53 21t66.5 14.5t79.5 2 q2 0 8.5 -2.5t7.5 -2.5q3 0 15.5 -2.5l17.5 -3.5q10 -2 18 -5.5t19 -8.5q2 -1 9.5 -4.5t16.5 -7t17 -7t10 -4.5q44 -22 72.5 -58.5t48.5 -78.5q1 -2 3.5 -8t5.5 -13t5.5 -13t2.5 -7q1 -2 4.5 -7t3.5 -7q1 -1 0.5 -6t-0.5 -6q2 -17 3 -41t1 -49v-48.5v-41.5v-31 q-6 -14 -9 -28t-5 -29q0 -2 -3 -15t-4 -15q-2 -14 -8 -27t-11 -25q-20 -48 -60.5 -90.5t-89.5 -61.5q-1 -1 -7.5 -2t-8.5 -2q-2 0 -11.5 -3t-11.5 -4q-6 -1 -15.5 -3t-19.5 -4l-17.5 -3.5t-8.5 -1.5t-12 -1t-26 -2t-30.5 -2t-24.5 -1h-2q-12 1 -29 3t-38 8.5t-47.5 18.5 t-58.5 33zM222 329q0 -2 3 -16t5 -22q10 -38 30.5 -68t47.5 -58q11 -10 26.5 -24.5t30.5 -19.5t31 -8t32 -4q11 -1 13.5 -1t12.5 4q23 8 40.5 14.5t36.5 21.5q3 3 8.5 7.5t11.5 9.5t10.5 8.5t5.5 4.5q6 6 11.5 15t11 19t10 19.5t7.5 16.5v2q8 12 11.5 23t4.5 21t0.5 18 t-0.5 16v12l2 2l2 2v4q0 7 0.5 20t0.5 26.5v25.5v18v6.5v11.5v11.5v6.5q-2 14 -13 36t-19 35q-1 2 -4.5 6.5t-7.5 10t-7.5 10.5t-5.5 7q-3 4 -15 16t-38 35q-16 14 -32 22t-33 19q-3 0 -13 0.5t-14 1.5q-17 1 -36.5 -2.5t-38.5 -11t-34.5 -18.5t-25.5 -25q-1 -1 -2.5 -4 t-1.5 -4q-15 -23 -27.5 -45.5t-20.5 -48.5q-1 -2 -2 -14.5t-2 -14.5q0 -2 -1.5 -8t-2.5 -7z" />
<glyph unicode="p" horiz-adv-x="820" d="M163 -203q-37 -2 -55 2.5t-24.5 14t-6 24.5t0.5 35q0 1 1.5 7t2.5 9q2 10 8.5 14.5t15 6.5t17.5 4t15 6q1 3 1.5 10t1 15t1 14.5t0.5 9.5q0 1 -0.5 7t-1.5 12.5t-1.5 12.5t-0.5 8v11v19v19v11q0 5 -1 17.5t-2.5 26t-2.5 25.5t-2 17v239l4 7v9.5t0.5 19t0.5 21.5v17 q0 19 -0.5 43t-1 49.5t-2 50.5t-3.5 45h-9.5t-13 1t-12.5 1.5t-9 1.5q-1 0 -6 0.5t-12 1t-13.5 1.5t-9.5 3q-4 2 -8 5t-4 8l-2 35q0 6 -1.5 12t0.5 10q1 2 4 9.5t4 9.5q6 12 14.5 18t19 8.5t22 2t24.5 -1.5h6q8 0 13 1q8 0 18 1q11 2 24 0t25 -6.5t20 -10.5t9 -12 q2 -2 3 -10t1 -11q2 0 3 -1h2q1 1 3.5 2.5t4.5 1.5q18 12 40.5 29t44.5 25q1 1 7.5 2t8.5 1q2 1 14 5t14 5q12 4 27 5.5t26 2.5q1 0 6 -0.5t6 -0.5q2 1 6 2t6 1q4 -1 17 -1.5t18 -0.5q50 -4 102.5 -27.5t93.5 -56.5q1 -1 4 -6.5t4 -6.5q2 -3 8 -9t12 -13t12 -13t8 -9v-4 q1 -2 3 -7t5 -10t5.5 -10t3.5 -6q18 -34 22.5 -73t9.5 -76v-7.5t-0.5 -14t-0.5 -14v-7.5v-39q0 -26 -1 -50t-5 -50q-5 -34 -15.5 -65.5l-21.5 -64.5q-1 -2 -8.5 -16.5t-12.5 -22.5q-28 -50 -70.5 -76t-95.5 -45l-40 -9q-18 2 -35.5 0.5t-35.5 0.5q-23 2 -46.5 4t-44.5 12 q-2 0 -7 3t-11.5 6t-12 6t-6.5 4h-2q-6 0 -7.5 -8.5t-2.5 -10.5q-3 -15 -3.5 -30.5t-0.5 -31.5q0 -14 3.5 -28.5t4.5 -18.5q0 -2 14 -2.5t29.5 -4t28.5 -12t12 -25.5l-3 -48q0 -1 -4.5 -5t-7.5 -6q-2 0 -5 -1q-6 -2 -7 -2q-37 -8 -74.5 -7.5t-75.5 -0.5q-2 0 -12 -1.5 t-12 -1.5q-1 0 -10 1t-14 1zM263 373q0 -23 1.5 -47t6.5 -47t14.5 -44.5t26.5 -40.5q3 -3 9 -10t13.5 -15t13.5 -14.5t9 -9.5q20 -20 47 -24.5t52 -6.5q4 -1 17 -2t18 -1q46 23 78 62.5t55 85.5q8 17 10.5 33.5t9.5 33.5v9.5t0.5 14.5t0.5 14.5v9.5q0 23 -0.5 53t-4.5 53 q-9 57 -46.5 102t-82.5 78q-1 0 -4 2t-4 3q-3 0 -11.5 0.5t-11.5 1.5q-14 1 -31 1.5t-31 -4.5q-40 -14 -70 -46t-49.5 -73t-28.5 -86.5t-7 -85.5z" />
<glyph unicode="q" horiz-adv-x="796" d="M462 -150q0 10 3.5 22t8.5 21q4 6 13 10t16 6q3 1 15.5 2t16.5 2q2 0 10 -0.5t10 0.5q5 1 5 5v6t-0.5 5t-0.5 4q0 4 -1 14.5t-2.5 22t-2.5 22t-2 14.5q0 2 -1.5 10t-2.5 10q-2 5 -2.5 7t-5.5 2q-1 0 -1 -0.5t-1 -0.5h-2q-30 -15 -58.5 -26t-62.5 -11q-3 0 -9.5 0.5 t-7.5 0.5q-2 0 -14 0.5t-27 1.5t-28.5 2t-18.5 2q-2 1 -14.5 4t-14.5 4q-2 0 -12 1.5t-12 2.5q-1 1 -6 4t-6 4q-12 8 -24.5 13.5t-24.5 15.5q-42 31 -71 75t-47.5 94.5t-27 105t-8.5 105.5q0 55 17 99t43 92q0 1 3.5 6.5t8 12t8 12l3.5 5.5q27 29 50.5 53t49 41.5t56 27.5 t71.5 10q26 0 44.5 -5t42.5 -12q1 0 6 -1.5t10 -2.5t10 -2.5t6 -1.5q9 -3 19 -8t20.5 -10.5t20.5 -9.5t19 -4q3 0 10 9t15.5 19.5t16.5 19.5t12 9l17 3q1 0 6 -0.5t10.5 -1t10.5 -1t6 -1.5q9 -4 16.5 -16t13.5 -27t10.5 -32t7.5 -30q1 -4 2 -12.5t2.5 -17.5t2.5 -17t1 -10 v-44q0 -3 0.5 -17t1.5 -29.5t1.5 -29.5t0.5 -17v-7q0 -8 -0.5 -11.5t-3.5 -14.5q0 -9 0.5 -27.5t0.5 -42.5v-49.5v-49.5t-0.5 -42.5t-0.5 -27.5q0 -5 -1.5 -26t-4 -44.5t-4.5 -44.5t-2 -26v-7v-11.5v-12v-6.5q-3 -6 -3 -22t1 -35.5t3 -38t3 -29.5q16 0 32 -3.5t29 -12 t20.5 -21.5t7.5 -32q-1 -23 -8.5 -35t-18.5 -18t-23.5 -9t-22.5 -7q-34 -8 -60.5 -8.5t-58.5 -0.5h-49q-21 2 -33 5t-19 7.5t-11.5 10.5t-11.5 15q-1 0 -2 3t-2 5q0 1 -1.5 5.5t-2.5 9.5t-2.5 10t-1.5 7v2zM178 385v-15.5t0.5 -19t0.5 -16.5v-8q0 -3 0.5 -9t1 -12.5t1 -12 t1.5 -7.5q10 -46 39 -80t71 -58q3 -1 7.5 -3.5t10 -5t9.5 -5t5 -2.5q12 -4 29.5 -4h28.5q48 0 80.5 17.5t53.5 46t32 66t14 77.5q0 5 1 17t1.5 25t1 24t0.5 15q0 1 -0.5 6.5t-1 11.5t-1.5 11.5t-1 6.5q-2 32 -4.5 64t-15.5 62q-11 23 -29.5 39.5t-41.5 26.5t-48.5 14.5 t-48.5 4.5h-26q-6 -6 -16.5 -4.5t-16.5 0.5q-23 -4 -42 -16.5t-33.5 -30t-25 -38t-16.5 -41.5q-1 -1 -2.5 -7.5t-1.5 -8.5q-6 -17 -11 -35.5t-5 -37.5v-8t-0.5 -16t-0.5 -18.5v-15.5z" />
<glyph unicode="r" horiz-adv-x="749" d="M46 77q3 10 10.5 20.5t17.5 15.5q2 1 8.5 2.5t13.5 3.5t13 3.5t6 3.5q7 118 8.5 238t16.5 237q0 3 -0.5 13t-0.5 14q-4 6 -12 8h-7.5h-12.5h-13h-8q-4 0 -8 4l-16 16q-2 3 -7 9t-5 7t1.5 8.5t2.5 11.5q1 2 2 6.5t2 5.5q3 7 9 19l7 14q4 6 12 9.5t17 6t17.5 3.5t14.5 1h69 q2 0 8 2t8 2h4q24 0 32 -18t9 -39h4q5 0 14 7t18.5 16t19.5 17.5t16 12.5q51 29 109 29q34 0 68 -5t66 -16q6 -2 18.5 -8t14.5 -8l52 -53q6 -14 16 -24.5t17 -23.5q9 -18 10.5 -36.5t1.5 -38.5v-30q0 -2 -0.5 -6.5t-1.5 -10t-1.5 -10.5t-0.5 -6v-8q0 -1 -3.5 -4t-4.5 -4 q-1 -2 -6 -10t-6 -10q-9 -13 -24.5 -22t-28.5 -15q-6 -2 -12 -5q-4 -2 -8 -3q-1 0 -9.5 -0.5t-13.5 -0.5q-38 0 -66.5 19.5t-28.5 60.5q0 32 14 53.5t47 29.5v2q0 1 0.5 1t0.5 1q0 10 -6 19t-15 16t-19 12l-18 9q-14 7 -33 8t-33 1q-3 0 -9.5 -0.5t-7.5 -0.5 q-50 -8 -78.5 -31.5t-43 -57t-18.5 -73.5t-4 -80q0 -66 5.5 -131.5t3.5 -131.5l8 -12q5 0 20 -1.5t20 -2.5q8 -2 21 -7t20 -10q5 -2 12.5 -8.5t7.5 -7.5q1 0 1 -5v-8q0 -10 -5.5 -23t-13.5 -25.5t-18.5 -22.5t-20.5 -13q-5 0 -18 0.5t-28 0.5t-28 -0.5t-19 -0.5 q-29 -1 -56.5 -4.5t-56.5 -3.5q-17 0 -32 4.5t-29 15.5q-14 12 -17 22.5t-3 27.5v7z" />
<glyph unicode="s" horiz-adv-x="663" d="M24 226l4 12q2 5 3 10t2 9q8 26 26.5 42.5t48.5 12.5q16 -2 23.5 -6.5t20.5 -15.5q1 -1 6 -4.5t6 -4.5q1 -2 3.5 -8.5t3.5 -9.5q0 -1 2 -6.5t4 -12t4 -12.5t2 -7q1 -5 5 -14.5t6 -10.5q27 -38 61 -60.5t79 -28.5q19 -2 40 -0.5t40.5 8t35 18.5t23.5 31q6 11 6 21.5v24.5 v26q0 1 -2 6t-4.5 10.5t-5.5 10.5t-4 7q-4 7 -13.5 14.5t-21 14.5t-23 12.5t-18.5 8.5q-3 2 -10.5 5.5l-15 7t-14 6.5t-8.5 4q-3 1 -13.5 5.5t-22.5 9.5t-22.5 9.5t-13.5 5.5q-45 15 -80.5 44t-71.5 61l-4 4q-18 27 -35 56.5t-16 62.5v17l3 18t2 14q1 3 4.5 9t7.5 12.5t8 12 t6 7.5q3 4 11.5 13.5t18.5 20t19 19.5l12 12q8 4 21.5 9.5t28.5 10.5t29.5 8.5t23.5 3.5q20 1 39.5 -1t39.5 -5q5 -1 13 -2l16 -2t14 -1.5t7 -0.5q20 -4 38.5 -10.5t37.5 -8.5h9q1 0 4 3l4 4q20 9 43 6q10 -2 21 -5t17 -12q3 -4 7 -11t8.5 -14t8 -12.5t4.5 -6.5 q7 -13 7.5 -28t-0.5 -28q-1 -35 -7.5 -66.5t-35.5 -51.5q-1 -1 -4 -1.5t-4 -1.5q-3 0 -13 1.5t-13 1.5q-11 2 -24.5 4t-22.5 10q-2 3 -10 11.5t-10 12.5q-23 29 -42 48t-57 29q-1 0 -7 1t-9 2q-11 1 -23.5 2t-25 -0.5t-23.5 -6t-18 -13.5q-8 -8 -13 -23.5t-5 -28.5 t3.5 -19.5t9.5 -11t14 -8t17 -9.5q33 -10 67.5 -21.5t68.5 -27t64.5 -35.5t56.5 -47q4 -4 10.5 -11.5t13.5 -15.5t12.5 -14.5t7.5 -8.5q0 -1 2.5 -6.5t5.5 -12t6 -13.5t5 -11q9 -24 17 -56.5t10 -66t-4 -65.5t-24 -54q-23 -27 -44 -43t-44.5 -24t-51.5 -10.5t-65 -3.5h-32 h-4q-28 4 -52 9t-48 21q-1 1 -5.5 4l-9 6l-9 6t-5.5 4q-1 0 -5.5 2t-6.5 4h-2q-2 0 -8.5 -10t-17 -21.5t-24 -20.5t-29.5 -7q-23 3 -37 14.5t-22.5 27t-13.5 34t-11 36.5q-4 14 -9 27.5t-6 27.5q-1 5 -1.5 16l-1 22t-0.5 20.5v11.5z" />
<glyph unicode="t" horiz-adv-x="587" d="M144 637q-2 0 -8 1.5t-8 2.5q-21 3 -40.5 5t-34.5 8t-23 19t-6 39q1 3 1.5 12t0.5 11q0 1 2 3.5t3 3.5q19 21 39.5 34.5t48.5 14.5h2q1 0 4 -2.5t4 -2.5q2 0 8 1t8 1q1 6 1.5 13t-0.5 13q-1 10 -1.5 25t-1.5 18q0 2 1 12.5t1 15.5q1 5 3 19.5t5 31t6 30.5t6 19 q6 11 14.5 15.5t19.5 5t22.5 0t23.5 -0.5q15 2 32.5 -2t20.5 -20t5 -36.5t3.5 -42t2 -43.5t0.5 -42q0 -2 -1 -9.5t-1 -9.5q1 -5 13.5 -7t15.5 -2q12 0 25 -1t25 -1q6 0 12 -2.5t11 -6.5q5 -3 14.5 -7.5t10.5 -6.5q9 -8 9.5 -20.5t-0.5 -23.5q-1 -5 -1.5 -12.5t-0.5 -8.5 q-1 -6 -6.5 -11.5t-13 -9.5t-15 -7t-13.5 -4q-2 0 -8.5 -1.5t-14 -3.5t-14.5 -3.5t-8 -1.5q-2 -1 -8.5 -4.5t-7.5 -3.5q-2 -1 -8.5 0t-8.5 -4q0 -7 -1.5 -24t-3.5 -36.5t-3.5 -36.5t-1.5 -24q-5 -54 -7.5 -104t-1.5 -103q0 -22 0.5 -41t4.5 -36t13 -31.5t27 -26.5 q26 -14 52.5 -19t64.5 6q1 0 4 1t4 1q9 0 14 -9.5t7 -23t2.5 -27.5t-0.5 -21q0 -27 -7.5 -44.5t-24 -28t-44.5 -14t-69 -2.5q-17 1 -30.5 3.5t-25 5.5t-22.5 6.5t-23 6.5q-20 5 -35.5 22.5t-23.5 34.5q-1 3 -5 11.5t-8.5 18.5t-8.5 19t-5 14q-15 37 -17.5 78t-1.5 83v16.5 v29v29.5v17v6.5t1 11.5t1.5 11.5t0.5 6.5q0 4 -1 18t-1.5 30.5t-1 30.5t-0.5 18q0 5 1 20t2 32.5t2 33t2 20.5z" />
<glyph unicode="u" horiz-adv-x="922" d="M136 204q-11 48 -14.5 93.5t-5.5 93.5q-1 8 0 25t6 43q2 11 2 18.5t-2 18.5l13 123q-1 1 -1 3t-0.5 2.5t-0.5 2.5q-1 2 -2 4.5t-2 4.5q-2 3 -3 6l-60 7q-8 8 -15 14t-11.5 12.5t-6.5 15.5t0 22q4 30 20.5 44.5t38.5 20.5t47.5 7t47.5 5q7 0 20 -2t26 -8t24.5 -17 t15.5 -27q0 -1 0.5 -6t1 -12t1 -13.5t0.5 -9.5v-15.5t-0.5 -22.5t-1 -22t-1.5 -13q0 -2 -0.5 -11.5t-1.5 -20t-1.5 -20t-0.5 -11.5q0 -6 -2 -29.5t-4.5 -51t-4.5 -51.5t-2 -30q-3 -38 1.5 -82t25.5 -76q2 -2 8.5 -10t9.5 -12q17 -18 31.5 -30t34.5 -26q9 -5 10.5 -8t11.5 -5 q3 -2 14.5 -3t14.5 -1q70 -8 115.5 16.5t76.5 87.5q5 11 9 26t6 26q1 4 3 22.5t5 39.5t5.5 39t3.5 23q0 2 1.5 8.5t3 14t3 14t1.5 8.5q1 1 2 11t2 15l14 73q0 1 1.5 12.5t2.5 17.5t1 18v14q1 8 -1.5 18t-13.5 11q-1 0 -1 0.5t-1 0.5h-1q-2 0 -10 -1.5t-10 -1.5 q-35 4 -50.5 19t-10.5 51v2q3 6 8 18t6 13q7 11 22 16t33 6.5t35 1t27 -1.5q5 -1 15.5 -2.5t11.5 -1.5q3 0 9 -1.5t13 -3.5t13 -4l9 -3q21 -8 26.5 -21t7.5 -30q2 -30 0.5 -70t-4.5 -70q0 -3 -1.5 -16.5t-4 -28.5t-4.5 -28t-2 -16q-2 -32 -2 -57v-57q0 -3 -0.5 -16t-1 -27 t-0.5 -26.5v-15.5t1 -16t2.5 -27.5t3 -27t1.5 -15.5q1 -7 1 -19t1.5 -25t5.5 -23t13 -13q10 -3 20 -4t19.5 -2.5t18 -5t16.5 -12.5q0 -2 -0.5 -9.5t-0.5 -9.5q-2 -15 -5 -27.5t-9 -23t-15.5 -18t-24.5 -10.5q-7 -2 -19 -3t-23.5 -1.5t-20.5 -1l-9 -0.5q-1 0 -6 0.5t-12 1 l-14 1t-11 1.5q-5 -1 -21 1.5t-21 3.5q-11 1 -22 4t-17 11q-4 4 -5.5 11.5t-2 15.5t-0.5 16v13l-2 1h-2q-2 -1 -8 -3t-8 -3q-48 -38 -102 -53t-106 -15q-31 5 -58.5 11t-53 15t-49.5 23t-48 34q-5 4 -10 11.5t-9 16.5t-7.5 18t-6.5 15q-5 3 -9 11t-7 16.5t-4.5 15.5t-1.5 9 q-1 2 -3 5t-4 3z" />
<glyph unicode="v" horiz-adv-x="955" d="M339 121q-3 6 -9.5 22t-13.5 34t-13 34t-8 23q-14 35 -24 72t-24 72q-2 4 -8 21t-13 36.5t-13.5 36.5t-8.5 21q-1 3 -5.5 17t-10 32t-10.5 36t-8 28q-1 2 -2 10.5t-1 10.5q-2 5 -4.5 14t-1.5 11q-2 2 -4.5 5.5t-3.5 3.5l-81 4q-2 0 -8 2l-9 3q-2 1 -10 4.5t-9 4.5 q-2 2 -6.5 7t-4.5 6l3 41q1 1 3 4q2 2 3 4l2 4q-5 4 3 17.5t24 16.5q46 9 95.5 7t92.5 -1q1 0 9 -1t16.5 -1.5t16 -1.5t9.5 -1h4q4 0 15 -2.5t22.5 -6t21 -7.5t10.5 -7q5 -14 9 -33t2 -35v-2q0 -1 -2 -3.5t-3 -3.5q-4 -5 -13.5 -13.5t-11.5 -9.5q-1 -1 -6.5 -2.5t-12 -3 t-12 -3t-6.5 -1.5q-2 -1 -8 2t-7 3q18 -53 37.5 -105t39.5 -107q1 -2 3.5 -10t5 -17t5 -16.5t2.5 -9.5q1 -2 5.5 -13t5.5 -13q3 -9 9.5 -30.5t14.5 -44.5t16 -41t15 -18l2 1q1 2 4.5 10t4.5 10q1 4 7 18t12.5 30t12 30t7.5 17q1 1 4 7t7 13t7.5 12.5t4.5 7.5 q28 50 51.5 98.5t43.5 102.5q8 20 14 37t8 37q0 5 0.5 9t-3.5 5h-5q-2 0 -8.5 -0.5t-14 -0.5h-14.5h-8q-2 0 -6.5 1t-9.5 1.5t-9.5 1.5t-5.5 2q-2 2 -9.5 8t-12.5 12q-4 4 -6 12.5t-2 18.5t0.5 19.5t0.5 16.5q0 2 1 4q0 1 1 3q2 3 10 10t11 9q2 2 12.5 2.5t12.5 1.5 q46 2 89.5 -1t77.5 -2q23 -2 43.5 0t42.5 -3q1 0 6 -0.5t6 -0.5h6.5h12.5t13.5 -0.5t9.5 -2.5q11 -8 12.5 -22t2.5 -33v-2v-2q0 -25 -9.5 -41.5t-32.5 -15.5q-2 0 -10.5 -0.5t-18 -0.5h-18h-10.5q-3 0 -8.5 -1.5t-7.5 -5.5q-12 -17 -19 -34.5t-14 -36.5q-2 -3 -6 -13.5 t-9 -22.5t-9 -22.5t-5 -13.5q-2 -3 -5 -11.5t-6.5 -18t-6.5 -18t-4 -11.5q0 -2 -2 -14.5t-3 -14.5q-1 -1 -4.5 -5.5t-4.5 -5.5q-2 -2 -5.5 -14t-4.5 -14q-2 -6 -8 -19.5t-7 -16.5t-4.5 -9.5t-7 -14t-7 -14t-4.5 -9.5q0 -4 -2 -6l-29 -78q0 -1 -2.5 -5.5t-2.5 -5.5v-8.5 t-1 -8.5q0 -1 -2 -5.5t-3 -6.5q-12 -20 -25.5 -54t-30.5 -66t-36.5 -54t-43.5 -18q-17 1 -30 6.5t-25.5 16.5t-27 29t-35.5 45q-4 8 -5 18t-9 15z" />
<glyph unicode="w" horiz-adv-x="1188" d="M143 644q-12 4 -30 3t-34 2.5t-27 16.5t-9 46q0 6 -0.5 10.5t4.5 9.5q3 4 14.5 14t14.5 13q1 0 3.5 1.5t4.5 2.5q17 5 27.5 7t29.5 1q3 0 14.5 -0.5t25 -1t25 -1t14.5 -0.5q1 0 5.5 -0.5t10 -0.5t9.5 0.5t5 0.5l118 -7q11 1 20 -6t15.5 -17.5t9 -23t-0.5 -23.5 q0 -2 -2 -10.5t-2 -10.5q-4 -13 -18 -17t-29.5 -4.5t-27 -1t-10.5 -6.5q4 -49 13 -93.5t23 -94.5q0 -2 2 -11.5t3.5 -21t3.5 -21t2 -11.5q0 -3 1 -12t2.5 -19t2.5 -19t1 -11q2 -18 9 -35t10 -35l4 -1q4 31 12 60.5t15 59.5q2 14 3.5 27.5t9.5 24.5q3 34 8.5 61t13.5 60 q2 8 5 15.5t3 17.5l9 55q7 21 14 42.5t17 39.5t25 31t40 18q4 1 12 2t15.5 1.5t13 0.5h6.5h10q16 -1 27 -10t21 -21q2 -2 6.5 -8.5t5.5 -8.5q14 -27 22.5 -51t14.5 -48t11 -50t12 -56q0 -1 2.5 -8.5t4.5 -16t4.5 -16t2.5 -8.5q14 -52 25 -98.5t29 -99.5h4q5 33 16 75 t22 86.5t20.5 88.5t12.5 81q4 11 5.5 23.5t1.5 22.5q-8 8 -24.5 5.5t-32.5 -1.5t-26.5 13t-6.5 51q0 2 0.5 6.5t0.5 6.5q4 13 14 23.5t39 13.5q52 8 104 11.5t104 0.5q15 -1 29.5 -4t26 -10t18 -19t6.5 -31q0 -24 -10.5 -37.5t-26.5 -20t-36 -8.5t-39 -2q-5 -4 -9.5 -17.5 t-8 -29t-6.5 -30t-5 -20.5q-1 -2 -2.5 -8t-3.5 -13.5t-4 -14t-2 -8.5q-12 -42 -20 -88.5t-17 -87.5q0 -2 -2 -9t-4 -14.5t-4 -14.5t-2 -9t-2.5 -14.5t-2.5 -14.5q-8 -41 -21 -83.5t-23 -80.5q-5 -11 -10.5 -24t-12.5 -25.5t-15.5 -22.5t-20.5 -14q-5 0 -18.5 1t-18.5 1 q-7 1 -21 1.5t-15 0.5t-5.5 2t-10.5 4.5l-12 5t-9 4.5q-1 0 -2 1q-2 2 -2 3q-7 10 -12 26.5t-8.5 34.5t-7 34.5t-7.5 28.5q-11 27 -18 50.5t-12 52.5q-1 3 -2 11t-2 9q0 1 -2 9.5t-4 18t-4.5 17.5t-2.5 10q0 3 -3 16t-6.5 28t-6.5 28.5t-4 16.5q-4 15 -7.5 30t-11.5 30 l-2.5 -2.5t-1.5 -2.5t-1 -5t-1.5 -8.5l-1 -9t-0.5 -5.5q-1 -1 -3 -5.5t-2 -5.5q-4 -19 -12 -48t-16.5 -59.5t-16 -58t-10.5 -42.5q0 -1 -1.5 -6.5t-2.5 -8.5q-9 -37 -18.5 -73.5t-20 -66t-23.5 -48t-31 -18.5q-1 -1 -4 -2t-4 -1l-48 1q-1 1 -11 0.5t-11 -0.5t-5 1t-8.5 2 t-8.5 2t-5 1q-10 7 -18 28.5t-15.5 48.5t-14.5 55t-14 49q-9 24 -17.5 47.5t-17.5 47.5q0 1 -2 5.5t-4 9.5t-4 9.5t-2 5.5t-1.5 8.5t-3.5 15.5t-3.5 15.5t-2.5 9.5q-4 14 -10.5 37t-13 45.5t-11.5 39.5t-6 19l-4 8z" />
<glyph unicode="x" horiz-adv-x="886" d="M45 54q0 13 7 22t17.5 14.5t22 8t20.5 3.5q2 1 11.5 0.5t11.5 -0.5q3 1 9 8.5t12.5 17t11.5 18.5t7 13l148 208v8q-7 9 -12 17l-10 14t-8 12q-20 26 -41.5 55t-39.5 56q-7 10 -14.5 22t-12.5 23q-1 2 -8 11t-14.5 19t-14 19t-7.5 11q-8 13 -14 20.5t-17 10.5 q-19 3 -41.5 3t-38.5 13q-1 1 -1.5 8.5t-1.5 8.5v17v8.5t5 7.5q3 4 7.5 14.5t6.5 12.5q20 17 48.5 21t53.5 3q14 0 27 -2t27 -3h2q2 0 6.5 2t5.5 2h45q4 0 11 -0.5t14 -0.5t12.5 -0.5l5.5 -0.5q14 0 26.5 -6.5t22.5 -13.5t13 -15t2 -19q0 -24 -14 -36t-37 -19q1 -2 6 -12.5 t11 -23t11 -23.5t6 -12l4 -4t4 -5q17 -18 34 -37t36 -36l2 -1l2 1q2 1 7.5 7t7.5 8q6 6 15.5 18t18.5 24t16.5 22.5t9.5 13.5q1 1 4 5.5t6 10t5.5 10t2.5 6.5q0 1 1 2q0 1 -1 2q-6 8 -14 14t-15 13t-12 15t-5 20q0 17 6.5 30t17.5 22t25 14t29 7q25 4 44.5 2t45.5 -3 q15 2 36.5 -0.5t41 -6t33.5 -6t16 -0.5q17 -12 32 -25.5t15 -36.5q0 -14 -12 -26t-23 -20q-5 -2 -12 -6.5t-8 -3.5l-63 -7q-2 0 -7.5 -5.5l-7.5 -7.5q-1 -1 -5 -8t-9.5 -16t-10.5 -18.5t-8 -13.5q-15 -22 -30 -42t-29 -44l-28 -42q-8 -12 -15.5 -25.5t-12.5 -26.5 q0 -1 1.5 -4t2.5 -4t4 -5t6.5 -8.5t7 -8l4.5 -4.5q0 -1 1.5 -4t2.5 -4q2 -5 9.5 -13t8.5 -9l23 -30q1 -2 7 -8l8 -8q1 -2 6 -9t6 -8q3 -4 11 -13.5t17.5 -20.5t18 -21t12.5 -13l38 -56q0 -3 3 -8t6.5 -9.5t7.5 -8.5t6 -4q10 0 25.5 1.5t26.5 -0.5q47 3 46 -46v-5 q1 -27 -15 -39.5t-43 -18.5t-61.5 -8t-70.5 -6h-15h-20h-17.5h-8.5t-5.5 0.5t-10 1.5l-11 2t-8.5 2q-11 2 -21 4t-17 7t-11 13t-4 22q1 27 15.5 45.5t40.5 21.5q-2 2 -7.5 10.5t-7.5 10.5q-26 32 -56.5 71.5t-59.5 66.5q-2 -1 -3 -2.5t-2 -1.5q-23 -29 -45.5 -58.5 t-45.5 -59.5l-4 -4t-3 -4q-2 -3 -9 -10.5t-8 -11.5q1 0 4 -2.5t4 -2.5q13 -5 23.5 -7.5t18 -6t12.5 -11.5t9 -24q-13 -34 -31 -55t-56 -21h-21q-5 0 -24 -0.5t-41.5 -2t-42 -2t-23.5 -0.5h-23q-3 0 -9.5 0.5t-12.5 1.5t-11 1.5t-6 0.5q-20 4 -33.5 26t-14.5 43z" />
<glyph unicode="y" horiz-adv-x="871" d="M22 -211q-8 9 -15.5 14l-16.5 11q-22 13 -32 31t-17 41q-1 4 -2.5 11.5t-1.5 9.5q1 16 7 32t17 29t27.5 21t39.5 9q41 3 63 -14.5t33 -55.5q0 -1 -0.5 -1t-0.5 -1v-2q2 -8 0 -17t-7 -14q-1 -5 -5.5 -8.5t-4.5 -2.5q23 -8 49 -8q37 0 62.5 7t45 21t36.5 36.5t37 54.5 q7 11 11.5 23t4.5 25q0 16 -5 34.5t-12 36.5t-14.5 35.5t-13.5 32.5q-21 58 -42.5 108.5t-40.5 109.5q0 1 -1.5 6.5t-3 12t-3.5 12t-2 6.5q-1 3 -3 12.5t-4.5 19.5t-5 19.5t-3.5 12.5q-1 4 -4 13.5t-4 11.5l-2 2l-2 2q-1 1 -2.5 4t-1.5 4v16q-1 4 -4 16.5t-4 15.5 q-1 2 -4.5 8.5t-3.5 8.5q-1 2 -2 10t-2 10q-2 3 -11.5 12.5t-13.5 11.5q-24 7 -39 7.5t-26 1.5t-19 4.5t-18 15.5q-2 2 -3 9t-2 8v6v16t1 23t3.5 22t6.5 13q10 10 18 12.5t17.5 2.5t23 -1t34.5 2q15 0 29.5 -2.5t28.5 -2.5q5 0 9.5 0.5t8.5 4.5h35h23.5h30t29.5 -0.5 t22 -2.5q11 -3 18.5 -12.5t11.5 -22.5t5.5 -27.5t1.5 -27.5q1 -18 -11.5 -24t-28.5 -7t-30 0t-15 -3q5 -14 10 -26.5t10 -26.5t11.5 -30t14.5 -37q13 -30 21 -56t18 -58q1 -2 2 -7t2.5 -10t2.5 -9.5t1 -5.5q0 -2 2.5 -9.5l5.5 -16.5t6 -17t4 -10q0 -1 1.5 -4.5t4 -7.5 t4.5 -7.5t2 -4.5q1 -2 4 -10t4 -10q2 -3 6 -12.5t6 -11.5l2 -1q5 0 7 5t3 8q4 9 11 26t14.5 33.5t13 30t6.5 15.5q15 37 27.5 75t28.5 75q1 3 6 13t10.5 21.5t10.5 21.5t6 13q1 2 3 11t4 14l2 14q1 5 1.5 9.5t0.5 5.5q-7 1 -21 1t-28 4.5t-24.5 15.5t-10.5 34q0 6 0.5 12.5 t3.5 11.5q4 8 3 14.5t5 11.5q2 1 8.5 6t7.5 6q2 1 8 1.5t13 1t13 0.5h7h190h8.5t17 -0.5t18.5 -1t12 -1.5q13 -5 14.5 -14.5t6.5 -23.5q0 -3 -0.5 -9t-1 -13t-1.5 -13.5t-1 -8.5q0 -1 -0.5 -5.5t-1.5 -6.5t-4 -6.5t-4 -6.5q-3 -1 -9.5 -3t-14 -4t-13.5 -4l-9 -3h-12 q-4 0 -16 -1.5t-16 -2.5q-10 -25 -21 -47.5t-22 -47.5q-14 -35 -26.5 -71t-27.5 -71q0 -1 -3.5 -7.5t-4.5 -8.5l-24 -56q-2 -5 -7.5 -19t-12 -30t-12.5 -31t-8 -22q-11 -29 -24 -56q0 -1 -2 -8t-4.5 -16t-5 -16t-2.5 -8q-2 -3 -6.5 -12.5t-5.5 -11.5q-2 -5 -9.5 -22.5 t-16.5 -37.5t-16.5 -37.5t-9.5 -23.5q-5 -12 -13.5 -25.5t-18 -27t-19 -26.5t-16.5 -24q-45 -69 -105 -96.5t-138 -27.5h-12t-14.5 0.5t-13 0.5h-6.5q-6 1 -20 3.5t-30.5 5.5t-30.5 6t-20 5z" />
<glyph unicode="z" horiz-adv-x="777" d="M29 94q0 34 10.5 59t29.5 51q8 10 14.5 20t14.5 20q14 16 25 24.5t27 24.5q1 1 5.5 5t9 9t9 9t5.5 5q4 3 20.5 16t36 28t36 28.5t20.5 16.5q1 1 5.5 5t9 9t8.5 9l5 5t4.5 2.5t4.5 1.5q16 10 30 22.5t26 26.5q2 2 8 9.5t8 10.5q7 9 26 28t39.5 41t36.5 41t16 28q0 7 -8 8 q-28 4 -52 4h-53h-61q-8 0 -25 -0.5t-35.5 -1t-35 -1.5t-22.5 -1q-2 0 -11.5 -1.5t-12.5 -2.5q-4 0 -4 -4q-3 -9 -1.5 -22t1 -26t-5.5 -22t-21 -9q-22 0 -45.5 -1t-36.5 1q-17 6 -23 23t-6 32v19v21q0 1 1.5 7.5l3 13t2.5 12.5t1 8q1 6 3.5 16.5t5.5 22t7.5 21.5t10.5 14 q6 0 20 1.5t30.5 2.5t30.5 2.5t20 1.5h2q14 0 28 -2t28 -2h27q9 0 31.5 1t47.5 1.5t47.5 1t31.5 0.5q1 -1 10 -0.5t11 0.5h23q25 3 49.5 4t49.5 1q8 0 24.5 -1.5t34 -5t32 -9t17.5 -13.5q2 -5 2 -14t-1 -18.5t-2 -18.5t-1 -13q0 -21 -4.5 -37t-12.5 -30.5t-19.5 -28 t-24.5 -28.5q-15 -18 -29.5 -37t-31.5 -36q-13 -14 -25.5 -23t-18.5 -25q-3 -8 -3.5 -12t-8.5 -9q-1 -1 -6.5 -2t-5.5 -2q-2 -1 -6 -5t-9 -8.5t-9 -9t-5 -5.5t-6 -5.5l-10 -9t-10 -8.5t-6 -5q-4 -4 -13 -13.5t-11 -11.5q-5 -5 -23.5 -26.5t-39.5 -46t-39.5 -46t-23.5 -26.5 l-8.5 -8.5l-14 -14t-14 -14.5t-7.5 -8q-2 -1 -4.5 -5.5t-4.5 -6.5v-2v-2q10 -3 15.5 -3.5t13.5 -0.5h8q2 0 11.5 0.5t21 1t21 1t12.5 0.5h1h3q12 0 29.5 -1t34 -1.5t29 -1l12.5 -0.5q3 0 13.5 -1.5t22.5 -2.5t22.5 -2t13.5 -1q1 0 12 -0.5t16 -0.5q4 0 15 0.5t14 0.5 q4 2 8 12q-1 7 0 24t2 24q-6 26 9 43t62 17q25 5 39 -1.5t21 -19.5t7.5 -29t-1.5 -29q0 -3 0.5 -8t0.5 -10.5t0.5 -10l0.5 -4.5q0 -2 -0.5 -10t-1 -17t-1.5 -16.5t-1 -9.5t0.5 -10t-0.5 -10q-3 -15 -13.5 -24t-24 -14t-28.5 -8.5t-27 -6.5l-50 -8h-2q-2 0 -6.5 -0.5 t-10 -1.5t-10.5 -1.5t-6 -0.5h-13h-21.5h-21.5h-13q-35 -2 -65 -3t-67 -1q-11 0 -25 1t-25 3q-27 5 -60.5 6t-60.5 6q-3 1 -13 2t-22 1.5t-22 1.5t-13 1q-2 1 -11.5 3.5t-11.5 2.5q-21 5 -35 25.5t-14 43.5z" />
<glyph unicode="{" horiz-adv-x="437" d="M127 209q3 35 10 74.5t7 76.5q0 3 -0.5 8.5t-0.5 6.5t0.5 5.5t1 10.5t0.5 11v6q-2 6 -4 7.5t-8 6.5q-10 9 -22 14l-24 10t-23.5 11.5t-19.5 17.5l-7 10.5t-5 9.5t-1 8.5t-1.5 14l-1 15t-0.5 11.5q1 1 2 4q1 2 1 4t1 4q2 4 4.5 11.5t3.5 8.5t2 2.5t2 1.5q3 1 8.5 4.5 t11.5 6.5t10.5 6t6.5 3q1 1 6 2.5t10 3.5l10 4t6 2q9 4 15.5 14.5t11 23t7 25.5t2.5 21q9 47 10.5 75.5t1 50.5t-2.5 43.5t0 54.5q1 25 9 52t23.5 52t39 45.5t56.5 31.5q20 3 38 4t32 -5t22.5 -22t10.5 -47v-19.5t-5 -18.5q-1 -3 -5.5 -5t-6.5 -3q-1 0 -6 -1.5t-10 -2.5 t-10 -2.5t-6 -1.5q-15 -5 -27 -17.5t-19.5 -27.5t-11.5 -31.5t-4 -30.5q-1 -17 0.5 -39.5t4 -48t5 -53t2.5 -53.5v-5.5v-12.5t-0.5 -13.5t-0.5 -8.5q-3 -15 -4.5 -26.5t-4 -22t-6.5 -20.5t-11 -23q-1 -2 -8 -10.5t-8 -10.5q-2 -1 -4.5 -5.5t-3.5 -6.5q-1 -1 -3 -5 q-1 -2 -2 -3q1 -2 4.5 -6.5t4.5 -5.5q11 -20 17.5 -40t6.5 -43q0 -22 -3.5 -41.5t-4.5 -41.5v-7t-0.5 -14t-0.5 -16.5v-13.5v-10t0.5 -15t0.5 -15v-10q2 -6 3 -9.5t1 -9.5q0 -4 -0.5 -7t-3.5 -7q0 -3 -0.5 -14t-0.5 -14q0 -22 3.5 -40.5t17.5 -36.5q2 -2 4.5 -5t3.5 -3 q1 -1 6 -2t6 -2l12 -12q12 -9 19.5 -16.5t12.5 -15.5t7 -18.5t2 -26.5q0 -14 -6.5 -26.5t-17.5 -22t-24.5 -15t-26.5 -5.5h-6q-1 0 -6 1t-11.5 2.5t-12.5 2.5t-8 2q-5 2 -15.5 7t-11.5 5q-2 2 -10 9.5t-10 10.5q-5 7 -14.5 21.5t-11.5 19.5q-2 2 -6 16t-6 20 q-10 35 -15.5 71t-5.5 73v32z" />
<glyph unicode="|" horiz-adv-x="681" d="M85 541q0 6 1 16t1.5 19.5t1 17l0.5 7.5q1 14 11 26t24 21t29.5 14t27.5 5q20 0 36.5 -5.5t33.5 -15.5q1 -1 5 -3.5t9 -5t9 -5t5 -2.5q6 -4 9 -5t8 -7q3 -4 9 -14t13 -21t13.5 -20.5t8.5 -13.5q2 -3 6.5 -12.5t5.5 -11.5h4q1 0 5.5 10.5t6.5 17.5q1 2 2.5 6t1.5 6 q3 3 9 12t13.5 18.5t13.5 18.5t9 12q13 16 25.5 30.5t26 24.5t30 16t37.5 6q20 0 34.5 -3t32.5 -13q11 -6 17 -17t8.5 -23.5t3 -25.5t0.5 -24q0 -12 -1.5 -28.5t-4 -34t-6.5 -34t-9 -28.5q-17 -39 -39.5 -75t-45.5 -71q-16 -24 -29.5 -48t-30.5 -49q-2 -2 -7 -9t-11.5 -15.5 t-12 -15.5t-6.5 -9q-3 -3 -5.5 -9t-6.5 -12t-8 -10.5t-10 -4.5t-14 2.5t-13 5.5q-1 1 -3.5 4t-4.5 4q-1 2 -5 8.5t-8.5 14t-9 14t-5.5 8.5q-23 32 -52.5 60t-56.5 57q-14 15 -27 31.5t-26 33.5q-9 11 -20.5 24t-19.5 24q-2 3 -6 9.5t-8.5 14.5t-8.5 15t-6 10q-1 2 -5.5 13 t-6.5 15q-1 3 -4 12.5t-4 12.5v1v3z" />
<glyph unicode="}" horiz-adv-x="423" d="M292 820q-3 -35 -10 -74.5t-7 -76.5q0 -3 0.5 -8.5t0.5 -6.5t-0.5 -5.5t-1 -10.5t-0.5 -11v-6q2 -6 4 -7.5t8 -6.5q10 -9 22 -14l24 -10t23.5 -11.5t19.5 -17.5l7 -10.5t5 -9.5t1 -8.5t1.5 -14l1 -15t0.5 -11.5q-1 -3 -2 -5q-2 -6 -2 -7q-2 -4 -4.5 -11.5t-3.5 -8.5 t-2 -2.5t-2 -1.5q-3 -2 -8.5 -5t-11.5 -6t-11 -6t-6 -3q-1 -1 -6 -2.5t-10 -3.5l-10 -4t-6 -2q-9 -4 -16 -14.5t-11.5 -23t-6.5 -25.5t-2 -21q-9 -47 -10.5 -75.5t-1 -50.5t2 -43.5t0.5 -54.5q-1 -25 -9 -52t-23.5 -52t-39 -45.5t-56.5 -31.5q-20 -3 -38 -4t-32 5t-22.5 22 t-10.5 47v19.5t5 18.5q1 3 5.5 5t6.5 3q1 0 6 1.5t10 2.5t10 2.5t6 1.5q15 5 27 17.5t19.5 27.5t11.5 31.5t4 30.5q1 16 -0.5 39t-4 48.5t-5 53t-2.5 53.5v5.5v12.5t0.5 13.5t0.5 8.5q3 15 4.5 26.5t4 22t6 20.5t11.5 23q1 2 8 10.5t8 10.5q2 1 4.5 5.5t3.5 6.5q1 1 3 5 q1 2 2 3q-1 2 -4.5 6.5t-4.5 5.5q-11 20 -17.5 40t-6.5 43q0 22 3.5 41.5t4.5 41.5v7t0.5 14t0.5 16.5v13.5v10t-0.5 15t-0.5 15v10q-2 6 -0.5 9.5t1.5 9.5q0 4 -2 7t1 7q0 3 0.5 14t0.5 14q0 22 -3.5 40.5t-17.5 36.5q-2 2 -4.5 5t-3.5 3q-1 1 -6 2t-6 2l-12 12 q-12 9 -19.5 16.5t-12.5 15.5t-7 18.5t-2 26.5q0 14 6.5 26.5t17.5 22t24 15t27 5.5h6q1 0 6 -1t11.5 -2.5t12.5 -2.5t8 -2q5 -2 15.5 -7t11.5 -5q2 -2 10 -9.5t10 -10.5q5 -7 14.5 -21.5t11.5 -19.5q2 -2 6 -16t6 -20q10 -35 15.5 -71t5.5 -73v-32z" />
<glyph unicode="~" horiz-adv-x="701" d="M240 497q-23 -5 -39 -14t-41 -30q-3 -2 -8.5 -4t-12 -3.5t-12.5 -3t-9 -1.5h-2q-3 2 -9 5t-7 3q-2 1 -6.5 5.5t-9.5 10t-10 10t-7 7.5l-4 8q-2 5 -5 14t-3 10q-6 11 -3.5 24.5t19.5 32.5q16 16 29.5 27.5t27 20t29 15t36.5 12.5q11 3 23 3.5t24 0.5q34 -1 62 -16 t55 -32.5t55.5 -33t63.5 -18.5q16 0 24 13q2 2 6 8t8.5 12t8.5 12t6 8q4 4 7 4.5t8 0.5q6 3 21.5 -0.5t32.5 -11t30 -17.5t14 -20q0 -14 -8.5 -23.5t-8.5 -22.5q-10 -24 -27 -42.5t-36.5 -31.5t-40 -18.5t-37.5 -3.5q-37 0 -68 12t-60 26.5t-57 27t-59 14.5z" />
<glyph unicode="&#xa1;" horiz-adv-x="311" d="M135.01 912q16.999 2 36.498 -4q19.498 -5.99902 34.998 -18.999q15.499 -12.999 25.498 -32.9971q9.99902 -19.999 8.99902 -44.998q6 -78.9951 -92.9941 -92.9941q-1 0 -4.5 -0.5q-3.49902 -0.5 -5.49902 -0.5q-13.999 0 -27.998 2q-14 2 -26.999 7 q-2 1 -8.49902 3.99902q-6.5 3 -7.5 4q-14.999 8 -22.498 20.999q-7.5 12.999 -11 26.498q-3.49902 13.499 -3.99902 24.999q-0.5 11.499 0.5 16.499q0 15.999 5.99902 25.498q6 9.49902 14.999 23.498q12.999 20.999 36.498 30.499q23.499 9.49902 47.4971 9.49902z M229.004 160.046q0 -4 -1 -15.999t-1.5 -25.998q-0.5 -14 -1 -27.499t-0.5 -19.498q-2 -18.999 -3.49902 -42.998q-1.5 -23.998 -8.5 -41.9971q-1 -2 -0.5 -13.999t-0.5 -13.999q-4.99902 -12 -9.49902 -22.499t-11.5 -18.499q-6.99902 -7.99902 -17.498 -12.499 q-10.5 -4.5 -27.499 -4.5q-28.998 0 -52.9961 16.999q-23.999 16.999 -33.998 43.9971q-1 1 -0.5 4.5t0.5 4.5q-7 32.998 -10 67.4961q-2.99902 34.4971 -2.99902 69.4951q0 28.998 2.49902 49.9971q2.5 20.999 2.5 49.9971v40.998q0 8.99902 -1 29.998 q-1 20.998 -1.5 44.9971q-0.5 23.998 -1 45.4971q-0.499023 21.499 -0.499023 29.498q4.99902 11.999 3.49902 22.999q-1.5 10.999 0.5 24.998q0 2 0.5 7q0.5 4.99902 1 11.499t1.5 11.999q1 5.5 1 6.5v6.99902q1 5 0.5 21.499t0.5 37.998q1 21.498 4 44.4971 q2.99902 22.998 11.499 42.4971q8.49902 19.499 22.999 31.498q14.499 11.999 38.4971 10q15.999 0 29.998 -3.5t24.999 -17.499q7.99902 -9.99902 10.999 -21.999q3 -11.999 3.5 -24.998t0.5 -25.499q0 -12.499 1 -24.498q0 -2 1.5 -10.999q1.5 -9 2.99902 -19.499 q1.5 -10.499 3 -19.499q1.5 -8.99902 1.5 -10.999q0 -3 0.5 -9.5q0.5 -6.49902 1 -13.499q0.5 -6.99902 1.5 -12.999t1 -7.99902q0 -4 0.5 -17.999t1 -30.498t1.5 -30.998q1 -14.5 1 -18.499q1.99902 -37.998 4.99902 -76.4961q3 -38.4971 3 -78.4951v-41.9971z" />
<glyph unicode="&#xa3;" horiz-adv-x="988" d="M39 135q-5 26 -2 52.5t14 60.5q12 46 40 69t64 30.5t75 2.5t74 -16t62 -25t37 -25h2q5 0 5.5 6t0.5 10q0 20 -5.5 47t-15 53.5t-21.5 49t-25 33.5q-2 1 -4 3q-4 2 -6 4q-8 6 -15.5 10.5t-15.5 8.5q-2 0 -12 0.5t-12 -0.5q-26 -1 -50.5 -8t-49.5 -8q-26 -1 -43 8t-34 26 q-4 5 -3.5 6.5t1.5 9.5q0 1 0.5 4.5t0.5 5.5q1 2 5.5 7t9.5 11t9 11.5t6 7.5q5 5 17 11.5t19 7.5l111 3l1 6q-1 3 -2.5 9.5t-4 13.5t-4 13.5t-2.5 8.5q-2 4 -4 11.5t-2 8.5q0 3 0.5 12.5t1.5 20t1.5 20t1.5 13.5q0 1 1 5.5t2 10.5t2 11.5t2 8.5q3 10 8.5 26t12.5 32.5t15 31 t16 22.5q55 70 122.5 94.5t150.5 17.5h23q38 -5 72.5 -24t60 -47.5t38.5 -62.5t9 -68q-1 -5 -3 -12l-4 -14t-4 -12.5t-2 -6.5q-1 -2 -5.5 -9t-10 -15t-11.5 -15.5t-9 -11.5q-14 -17 -32 -27.5t-37 -10.5q-17 -1 -28 7t-17.5 20.5t-8.5 28.5t0 31q1 13 3.5 22.5t7 17t12 14 t18.5 14.5v2q0 1 0.5 1t0.5 1q1 17 -19.5 31t-48.5 21.5t-55 7.5t-38 -10q-26 -13 -47 -34.5t-29 -53.5q-2 -5 -4 -14.5t-4.5 -19.5t-4.5 -18.5t-2 -11.5q-1 -2 -2.5 -12t-2.5 -15q-2 -16 -1 -34.5t13 -27.5q2 0 7.5 1t11.5 2t11.5 1.5t8.5 0.5q6 0 21.5 0.5t33.5 1t34 1 t22 0.5q8 5 18.5 5h19.5q5 1 12.5 1h8.5q3 -1 12.5 -3t12.5 -4q9 -5 8.5 -18t-2.5 -22q-2 -11 -5.5 -20t-9.5 -18q-11 -18 -25.5 -26.5t-30 -13t-32 -7t-32.5 -7.5q-16 -8 -27.5 -8.5t-27.5 -4.5q20 -30 32.5 -66t18 -75t5 -78.5t-4.5 -77.5q28 -15 52 -24.5t42 -14.5 t29.5 -8t16.5 -6q2 0 9 -1.5t15.5 -2t18 -0.5t16.5 3q16 0 31.5 3t29.5 14q13 11 19.5 27t12 33.5t13 34.5t21.5 29q8 7 13 7.5t14 0.5q17 0 29 -10.5t19.5 -26t10.5 -33.5t3 -34q0 -57 -27 -99t-72 -68q-4 -1 -8 -3l-10 -5q-17 -8 -34 -10.5t-37 -6.5q-4 -1 -14 -2.5 t-11 -1.5h-38q-40 0 -78 9.5t-70 22.5t-56 27t-34 23q-1 1 -3.5 2.5t-4.5 1.5h-1h-2q-43 -37 -86 -58.5t-83.5 -30t-76 -5.5t-63.5 16q-24 7 -40.5 18t-33.5 32q-14 16 -16.5 36t-2.5 40zM158 184q0 -10 5.5 -18t14 -14.5t18.5 -10t18 -4.5q1 -1 9 -0.5t10 0.5q1 0 5 -2 t6 -2q2 -1 6 -1h10q28 0 47 13.5t40 31.5l4 4v2v2q-12 17 -29 29.5t-34 20.5q-2 1 -9 2.5t-10 1.5h-33h-33q-2 0 -6 -1.5t-5 -2.5q-16 -10 -25 -20.5t-9 -30.5z" />
<glyph unicode="&#xa8;" horiz-adv-x="573" d="M151 977q24 0 38 -10.5t27 -27.5q0 -4 3 -4q5 -6 4.5 -9.5t0.5 -11.5q2 -42 -15.5 -65.5t-62.5 -25.5q-6 -1 -15 0.5t-14 4.5q-1 0 -5 2.5t-8 5.5t-7.5 5.5t-4.5 2.5q-11 17 -13.5 38t4.5 40t24 34t44 21zM411 977q24 0 38 -10.5t27 -27.5q0 -4 4 -4q4 -6 4 -9.5t1 -11.5 q2 -42 -15.5 -65.5t-62.5 -25.5q-6 -1 -15 0.5t-15 4.5q-2 1 -12.5 8t-12.5 8q-11 17 -13 38t5 40t23.5 34t43.5 21z" />
<glyph unicode="&#xa9;" horiz-adv-x="977" d="M280 544q0 16 0.5 35t8.5 34q8 17 18 36.5t22 33.5q24 23 46 37t43.5 21t43.5 9t46 2q5 0 16 -0.5t12 -0.5q2 0 7 -1t7 -2q25 -6 53 -17.5t43 -33.5q14 -19 25.5 -40t13.5 -47q1 -21 -12 -39q-1 -1 -6 -2t-11 -2t-11 -1.5l-5 -0.5q-12 -2 -18.5 10.5t-16 29t-27.5 33.5 t-53 25q-3 0 -8.5 -0.5t-11.5 -0.5t-11 -0.5t-6 -0.5t-5.5 -1t-6.5 -2q-17 -7 -31 -17.5t-23 -27.5q-10 -23 -15 -44t-5 -45q0 -19 3 -40t10 -40.5t17.5 -36t25.5 -25.5q14 -10 34 -11t37 -1h25q2 1 11.5 5.5t12.5 6.5l2 2l3 3q2 3 6.5 8.5t5.5 7.5q7 9 17.5 14.5t21 7 t19 -1.5t11.5 -11q14 -14 18 -36t-4 -36q-9 -17 -29.5 -28t-45.5 -18.5t-50 -11.5t-43 -6q-35 1 -70.5 12t-66 33.5t-53 56.5t-32.5 81q-1 2 -1.5 6.5t-1.5 6.5l-2 8q0 1 3.5 5.5t-3.5 6.5q-3 15 -3 26v26zM51 539q0 2 1.5 13.5t2.5 15.5q5 29 10 57.5t19 54.5q2 2 6.5 11.5 t6.5 11.5q0 2 3.5 9.5t5.5 9.5q1 1 4.5 6.5t7.5 11.5t7.5 11.5t4.5 7.5t2.5 6t1.5 6q4 4 13 16t18.5 25t18.5 24.5t13 16.5q1 2 7.5 9t8.5 10q1 1 4.5 3.5t4.5 3.5t7 4.5t13 8.5t14.5 9.5t11.5 7.5q19 12 40 19t42 15q35 6 58.5 10t40 6.5t28.5 3t24 -0.5q5 0 14 -0.5 t11 -0.5q1 0 8 -0.5t14.5 -1t14 -1t8.5 -0.5h17q2 0 10.5 -3.5t10.5 -4.5q1 0 6 -1t10.5 -2.5t10.5 -2.5t6 -1l8 -4q7 -3 18.5 -9t22 -11t18.5 -9.5l8 -4.5q1 -1 8 -6t15.5 -11.5l17 -13t13.5 -10.5q26 -20 45 -43t33.5 -47.5t25.5 -52t21 -56.5q11 -33 19 -58t8 -60 q2 -17 2.5 -39t-1 -47.5t-6 -51.5t-12.5 -50q-8 -37 -16.5 -64t-18.5 -48.5t-20.5 -39.5t-22.5 -37q-29 -47 -68 -74t-93 -45q-33 -11 -75.5 -16t-77.5 -5q-52 0 -95 8t-90 28q-2 1 -8.5 4t-14.5 6t-15 5.5t-8 3.5q-27 13 -51.5 33.5t-46.5 44t-40 49.5t-31 50 q-1 1 -3.5 6.5t-5.5 12t-5.5 11.5t-2.5 7q-11 22 -13 41t-12 41q-2 2 -3 4l-2 4q0 1 1 5.5t-1 5.5q0 1 -1 5.5t-2.5 9.5t-3 9.5t-1.5 5.5v11q0 1 -0.5 6.5t-1.5 12t-1.5 12t-0.5 7.5q0 5 -1 14.5t-1.5 19t-1 17t-0.5 9.5zM218 459q0 -25 7.5 -52.5t18.5 -50.5q1 -1 4.5 -7 t3.5 -8q1 -1 2 -5.5t2.5 -9.5t3 -9.5t1.5 -5.5q0 -2 1.5 -5.5t2.5 -5.5q19 -45 55 -74t81 -55q18 -10 37.5 -16.5t41.5 -6.5q23 0 48.5 6t50 15t47.5 20.5t41 22.5q11 7 24 20t25 27t22 28t15 25q1 1 2.5 7t1.5 8q1 1 4.5 7t3.5 8q11 30 11 62q0 5 1.5 16t-0.5 17 q-1 3 -0.5 8t1 11t1 11.5t0.5 8.5q-4 43 -17 82.5t-26 81.5q-1 2 -2.5 6t-1.5 6q-1 0 -4.5 6t-3.5 8q-2 9 -8.5 21.5t-16 27.5t-21.5 31t-25 31q-2 2 -8.5 6t-14.5 7.5t-15.5 7.5t-10.5 6q-7 5 -16 7.5t-17 7.5q-2 2 -6.5 4.5t-5.5 2.5q-22 8 -47 14t-48 6h-1 q-14 -7 -25 -11t-25 -9q-1 0 -8.5 -1t-8.5 -2q-26 -12 -46.5 -30.5t-38 -40t-31.5 -45t-26 -45.5l-1.5 -4t-4 -8t-4.5 -7.5l-2 -3.5q0 -2 -2.5 -11t-5.5 -19.5t-5.5 -19.5t-2.5 -10q0 -2 -2 -15.5t-3 -15.5q0 -2 -0.5 -12.5t-1 -22.5t-1 -22t-0.5 -12v-20z" />
<glyph unicode="&#xab;" horiz-adv-x="839" d="M319 50q-21 12 -52 24t-61.5 22.5t-55.5 19.5t-33 15q-23 8 -45.5 31t-33.5 44q-1 1 -1 2q-1 1 -1 4q-1 7 6.5 16t18 18t21 16.5t15.5 11.5q4 3 11.5 7t15.5 8.5t14 8t8 4.5q9 3 24.5 11.5t34 19t38.5 21.5t37 20q14 9 26 16t29 9q14 1 28.5 -5.5t26 -17t20 -24.5 t10.5 -28q0 -3 0.5 -7.5t0.5 -5.5t-1 -3t-1 -3q-15 -21 -38.5 -37t-49 -28t-49 -20.5t-37.5 -14.5q4 -2 16 -5t14 -5q2 0 10 -2.5t9 -1.5q2 0 7.5 -3t6.5 -2l28 -9q29 -11 47 -17t27.5 -13t12.5 -18t3 -30q4 -26 -11 -44t-41 -20q-17 -2 -28.5 2.5t-26.5 12.5zM682 58 q-21 12 -52 24t-61.5 22.5t-55.5 19.5t-33 15q-23 8 -45.5 31t-33.5 44q-1 1 -1 2q-1 1 -1 4q-1 7 6.5 16t18 18t21 16.5t15.5 11.5q4 3 11.5 7t15.5 8.5t14 8t8 4.5q9 3 24.5 11.5t34 19t38.5 21.5t37 20q14 9 26 16t29 9q14 1 28.5 -5.5t26 -17t20 -24.5t10.5 -28 q0 -3 0.5 -7.5t0.5 -5.5t-1 -3t-1 -3q-15 -21 -38.5 -37t-49 -28t-49 -20.5t-37.5 -14.5q4 -2 16 -5t14 -5q2 0 10 -2.5t9 -1.5q2 0 7.5 -3t6.5 -2l28 -9q29 -11 47 -17t27.5 -13t12.5 -18t3 -30q4 -26 -11 -44t-41 -20q-17 -2 -28.5 2.5t-26.5 12.5z" />
<glyph unicode="&#xaf;" horiz-adv-x="529" d="M228 807q-8 0 -21 -1.5t-21 -1.5q-5 0 -12.5 -3t-12.5 2q-29 2 -51.5 1.5t-38 4.5t-23.5 20t-7 49q-6 33 5.5 48.5t32 20t44 3.5t40.5 -1q8 1 23.5 0.5t16.5 -0.5h12.5t16.5 -1h12t13 -1h2l54 2h20t30.5 -0.5t30.5 -1t20 -0.5q20 -5 36 -5t30 -17q1 -2 3.5 -17t4.5 -20 v-1v-3q-1 -4 -2 -18t-2 -18q-2 -16 -8 -22.5t-14 -8t-17.5 -0.5t-18.5 0q-5 -1 -18 -2t-28 -1.5t-28 -1.5t-18 -1z" />
<glyph unicode="&#xb4;" horiz-adv-x="320" d="M244 904q-11 -11 -27 -21.5t-30 -19.5q-2 -1 -6.5 -5t-10 -8t-10.5 -7.5t-6 -4.5q-2 -1 -9 -5.5t-9 -5.5q0 -1 -4.5 -3t-5.5 -2q-10 -5 -23 -5q-12 -1 -24.5 3.5t-23.5 13.5t-19 21.5t-11 29.5q0 9 8 17.5t21 16.5q19 13 36.5 27.5t36 27t38.5 23t43 15.5q14 2 24.5 0 t22.5 -11l13 -13t8 -9q7 -11 8 -19t-3.5 -16t-14 -17.5z" />
<glyph unicode="&#xb8;" horiz-adv-x="324" d="M73 -168q0 1 1 2q2 2 2 3q7 20 15.5 26.5t29.5 6.5q14 0 27.5 -4t27.5 -4q6 0 10.5 0.5t10.5 5.5q1 2 2 9t0 10q0 1 -3 7.5t-5 8.5q0 1 -2 3t-3 2q-2 0 -8.5 0.5t-8.5 0.5q-3 0 -9 -0.5t-8 -0.5t-10.5 -2t-10.5 -3h-2q-12 0 -17 4t-7.5 10.5t-4 13.5t-5.5 13l3 65 q0 2 4.5 3.5t6.5 1.5h56q0 1 3.5 3t7.5 3.5t8 0t5 -7.5q3 -5 5 -15.5t5 -11.5q2 -1 10 -3.5t10 -2.5q32 -11 49 -36t17 -59q0 -8 -0.5 -16t-2.5 -16q-4 -15 -13 -27t-21 -20.5t-24 -14t-22 -6.5q-8 -4 -18.5 -3.5t-18.5 0.5h-20.5t-21.5 3q-6 2 -14.5 6.5t-16.5 10.5 t-13.5 13t-5.5 13v4z" />
<glyph unicode="&#xbb;" horiz-adv-x="831" d="M159 386q21 -12 52 -24t61.5 -22.5t55.5 -19.5t33 -15q23 -8 45.5 -31t33.5 -44q0 -1 1 -2q0 -1 0.5 -2t0.5 -2q1 -7 -6.5 -16t-18 -18t-21 -16.5t-15.5 -11.5q-4 -3 -11.5 -7t-15.5 -8.5t-14.5 -8t-7.5 -4.5q-9 -3 -24.5 -11.5t-34 -19t-38.5 -21.5t-37 -20 q-14 -9 -26 -16t-29 -9q-14 -1 -28.5 5.5t-26 17t-20 24.5t-10.5 28q0 3 -0.5 7.5t-0.5 5.5t1 3t1 3q15 21 38.5 37t49 28t49 20.5t37.5 14.5q-4 2 -16 5t-14 5q-2 0 -10 2.5t-9 1.5q-2 0 -7.5 3t-6.5 2l-28 9q-29 11 -47 17t-27.5 13t-12.5 17.5t-3 30.5q-4 26 11 44t41 20 q17 2 28.5 -2.5t26.5 -12.5zM514 395q21 -12 52 -24t61.5 -22.5t55.5 -19.5t33 -15q23 -8 45.5 -31t33.5 -44q0 -1 1 -2q0 -1 0.5 -2t0.5 -2q1 -7 -6.5 -16t-18 -18t-21 -16.5t-15.5 -11.5q-4 -3 -11.5 -7t-15.5 -8.5t-14.5 -8t-7.5 -4.5q-9 -3 -24.5 -11.5t-34 -19 t-38.5 -21.5t-37 -20q-14 -9 -26 -16t-29 -9q-14 -1 -28.5 5.5t-26 17t-20 24.5t-10.5 28q0 3 -0.5 7.5t-0.5 5.5t1 3t1 3q15 21 38.5 37t49 28t49 20.5t37.5 14.5q-4 2 -16 5t-14 5q-2 0 -10 2.5t-9 1.5q-2 0 -7.5 3t-6.5 2l-28 9q-29 11 -47 17t-27.5 13t-12.5 17.5 t-3 30.5q-4 26 11 44t41 20q17 2 28.5 -2.5t26.5 -12.5z" />
<glyph unicode="&#xbf;" horiz-adv-x="788" d="M339.026 627.018q2 30.998 10.5 49.9971q8.49902 18.999 29.498 18.999q0 2 9.99902 3q10 0.999023 22.499 1.99902t22.498 1.5q10 0.5 9 0.5q9.99902 2 15.999 -2.5q5.99902 -4.49902 9.49902 -12.999q3.5 -8.49902 5 -18.999q1.5 -10.499 2.5 -21.498q0 -2 1.5 -8.5 q1.5 -6.49902 1.5 -7.49902q0.999023 -19.999 0.999023 -26.499q0 -6.49902 -0.499023 -10.499q-0.5 -4 -1.5 -10.499q-1 -6.5 -2 -26.499q-26.999 -51.9961 -49.4971 -80.4951q-22.499 -28.498 -46.4971 -48.9971q-23.999 -20.498 -51.4971 -39.4971t-62.4961 -51.9971 q-20.999 -12.999 -35.998 -39.9971q-14.999 -26.999 -23.998 -55.4971q-9 -28.498 -13.5 -52.4971q-4.49902 -23.998 -4.49902 -32.9971q0 -16.999 3 -33.998q2.99902 -16.999 13.999 -29.998q8.99902 -12 26.998 -23.499t37.998 -20.499q19.998 -8.99902 40.4971 -14.499 q20.499 -5.49902 34.498 -5.49902q16.999 0 29.498 0.999023q12.499 1 32.498 3t35.498 3.5t28.998 6q13.499 4.49902 26.498 13.499q13 8.99902 25.999 24.998q3 4 9.99902 12q7 7.99902 14.499 16.998q7.5 9 13.499 16.499q6 7.5 7 9.5t3.5 9.49902q2.5 7.5 4.49902 11.5 v1.99902q0 5 -12.999 8.5t-18.999 8.49902q-10.999 8 -19.498 14.999q-8.5 7 -13.999 14.499q-5.5 7.5 -8.5 16.999q-3 9.5 -3 23.499q0 18.999 6.5 38.498q6.49902 19.498 18.999 34.9971q12.499 15.499 29.998 25.499q17.499 9.99902 39.4971 9.99902 q19.999 2 34.998 -0.5t28.498 -9.49902q13.499 -7 25.999 -19.499q12.499 -12.499 26.498 -30.498q13.999 -21.999 18.999 -51.9971t5 -54.9961q0 -63.9961 -34.498 -115.493t-91.4951 -91.4951q-50.9961 -34.9971 -110.993 -53.4961q-59.9961 -18.499 -121.992 -18.499 q-47.9971 -1 -98.4941 13.999t-95.9941 40.998q-45.4971 25.998 -80.9951 61.9961q-35.498 35.9971 -52.4961 77.9951q-8 11.999 -11 40.4971t-1.5 62.4961t7.5 67.9961q5.99902 33.998 15.999 57.9961q17.999 44.998 43.9971 75.4961t53.4971 50.9971 q27.498 20.498 55.4961 34.4971q27.999 14 51.4971 27.499q23.499 13.499 40.498 28.498q16.998 14.999 21.998 36.998zM408.022 729.012q-28.998 -1 -45.9971 11.999t-32.998 33.998q0 3.99902 -4 3.99902q-5 8 -5 11.5t-0.999023 14.499q-2 50.9971 18.998 79.4951 q20.999 28.498 74.9961 30.498q7.99902 1 18.499 -0.5q10.499 -1.5 17.498 -5.5q1 0 5.5 -2.99902q4.5 -3 9.99902 -7q5.5 -4 9.5 -7q4 -2.99902 5 -2.99902q13.999 -20.999 16.499 -45.498q2.49902 -24.498 -6 -47.9971q-8.5 -23.498 -28.498 -41.4971 q-19.999 -17.999 -52.9971 -24.998z" />
<glyph unicode="&#xc0;" horiz-adv-x="1117" d="M65 53q0 36 18 53.5t49 24.5q1 0 7.5 2t8.5 2t11.5 -2t10.5 -2h2h2q4 0 4 4q7 12 9.5 18t4 11.5t3 12l4.5 19.5q8 32 17.5 63t18.5 63q1 0 2.5 3.5t1.5 4.5q13 32 19 63.5t15 65.5q0 3 2.5 13.5t5 23.5t5 23.5t3.5 13.5q7 26 11.5 48t9.5 48q1 5 3.5 13t4.5 17t3.5 17 t0.5 14q1 5 4 16t6.5 23t6 23t4.5 16q0 1 2 6.5t4 11.5t4 11.5t2 6.5q1 3 4 15t7 26t7 25.5t4 14.5q9 25 19.5 49t23.5 41.5t28.5 26.5t35.5 5q6 3 15.5 3.5t19.5 0t20 -1.5t16 -1h4q10 -8 16 -14.5t11 -13t10.5 -14t13.5 -17.5q1 -1 2.5 -4t1.5 -4v-8q2 -6 7.5 -16.5 l11 -21t8.5 -20.5t1 -15q3 -8 9.5 -27.5t14.5 -41.5t15 -41.5t10 -27.5q1 -1 4.5 -7.5t3.5 -8.5q1 -2 2.5 -10t1.5 -10q1 -3 2.5 -9t1.5 -7q14 -35 26.5 -71t26.5 -71q1 -2 5.5 -13t6.5 -15l4 -8q7 -11 14.5 -32.5t16 -45t16 -44.5t14.5 -32l4 -8l4 -8t4 -6.5t4 -6.5 q3 -6 9 -23t12.5 -35.5t12 -35.5t8.5 -23q8 -15 14 -28q5 -11 10.5 -21.5t7.5 -12.5q1 -1 3 -2q2 -2 4 -2q5 -2 14 -5t10 -3h7.5h13t12.5 -0.5t8 -0.5q5 -1 17 -4t14 -5q4 -2 12.5 -11.5t10.5 -12.5v-8q-1 -8 -2.5 -17.5t-5.5 -15.5q5 -20 -27.5 -33.5t-87.5 -9.5 q-6 0 -24.5 -1t-39 -1.5t-39 -1t-24.5 -0.5h-75q-4 0 -15 0.5t-23 1t-22.5 1t-14.5 0.5q-11 3 -15 8t-12 16q0 1 -1 6t-2 6q0 1 -1 4t-2 4l3 45q0 2 5.5 8t8.5 8t9 5t12.5 6t12.5 5.5t8 2.5q3 1 11 1.5t17 1t17.5 0.5h11.5v6q2 14 -2 23q-1 1 -4 4.5t-3 4.5q-5 10 -7 21.5 t-7 22.5q-1 2 -2 11t-1 11q-1 2 -3.5 11t-6.5 20.5t-7.5 22.5t-5.5 17q-1 2 -4 12.5t-4 12.5q-1 0 -2 1.5t-2 2.5q-2 1 -3.5 7.5t-2.5 7.5h-7.5t-7.5 1q0 4 -4 4h-201q-11 -5 -22 -4.5t-23 -3.5q-13 -5 -22 -18t-15 -29.5t-8.5 -33t-2.5 -28.5l-15 -84q2 0 6 -1t6 -1 q20 -2 46.5 -2.5t47.5 -3.5q1 0 8.5 -8.5t11.5 -13.5q9 -12 8 -19t-1 -21v-18q0 -1 -2 -6.5t-4 -12t-5 -12.5l-4 -8q-3 -9 -12.5 -12.5t-23.5 -4t-30 -0.5t-32 -2q-11 -2 -30 -2h-38.5h-35t-18.5 -1h-4q-11 1 -31 0.5t-39.5 -1t-33 -0.5t-12.5 1q-29 -1 -41.5 13t-12.5 40z M418 466l44 -1q1 0 6 0.5t11 0.5t10.5 0.5t5.5 0.5h13h15q3 0 13.5 1t23 1.5t23 1t13.5 0.5h8q4 2 11.5 5t8.5 4v2q0 1 0.5 2t0.5 2q0 37 -14.5 75t-26.5 72q-11 29 -20.5 56.5t-24.5 53.5q-2 4 -4 4h-5q-13 0 -17.5 -4.5t-9.5 -16.5q-2 -5 -5.5 -12.5t-6.5 -15t-5.5 -13.5 t-2.5 -7t-1 -5.5t-1.5 -9t-1 -8.5t-0.5 -5q-1 -2 -4.5 -8.5t-4.5 -8.5q-9 -22 -17 -46t-15 -47v-4zM432 1118q-14 13 -23 22.5t-13.5 17.5t-3.5 16t8 19q0 1 8 9l13 13q12 9 22.5 11t24.5 0q23 -5 43 -15.5t38.5 -23t36 -27t36.5 -27.5q13 -8 21 -16.5t8 -17.5 q-3 -17 -11 -29.5t-19 -21.5t-23.5 -13.5t-24.5 -3.5q-13 0 -23 5q-1 0 -5.5 2t-4.5 3q-2 1 -9 5.5t-9 5.5t-6.5 4.5t-10 7.5t-10.5 8t-6 5q-14 9 -30 19.5t-27 21.5z" />
<glyph unicode="&#xc1;" horiz-adv-x="1117" d="M65 53q0 36 18 53.5t49 24.5q1 0 7.5 2t8.5 2t11.5 -2t10.5 -2h2h2q4 0 4 4q7 12 9.5 18t4 11.5t3 12l4.5 19.5q8 32 17.5 63t18.5 63q1 0 2.5 3.5t1.5 4.5q13 32 19 63.5t15 65.5q0 3 2.5 13.5t5 23.5t5 23.5t3.5 13.5q7 26 11.5 48t9.5 48q1 5 3.5 13t4.5 17t3.5 17 t0.5 14q1 5 4 16t6.5 23t6 23t4.5 16q0 1 2 6.5t4 11.5t4 11.5t2 6.5q1 3 4 15t7 26t7 25.5t4 14.5q9 25 19.5 49t23.5 41.5t28.5 26.5t35.5 5q6 3 15.5 3.5t19.5 0t20 -1.5t16 -1h4q10 -8 16 -14.5t11 -13t10.5 -14t13.5 -17.5q1 -1 2.5 -4t1.5 -4v-8q2 -6 7.5 -16.5 l11 -21t8.5 -20.5t1 -15q3 -8 9.5 -27.5t14.5 -41.5t15 -41.5t10 -27.5q1 -1 4.5 -7.5t3.5 -8.5q1 -2 2.5 -10t1.5 -10q1 -3 2.5 -9t1.5 -7q14 -35 26.5 -71t26.5 -71q1 -2 5.5 -13t6.5 -15l4 -8q7 -11 14.5 -32.5t16 -45t16 -44.5t14.5 -32l4 -8l4 -8t4 -6.5t4 -6.5 q3 -6 9 -23t12.5 -35.5t12 -35.5t8.5 -23q8 -15 14 -28q5 -11 10.5 -21.5t7.5 -12.5q1 -1 3 -2q2 -2 4 -2q5 -2 14 -5t10 -3h7.5h13t12.5 -0.5t8 -0.5q5 -1 17 -4t14 -5q4 -2 12.5 -11.5t10.5 -12.5v-8q-1 -8 -2.5 -17.5t-5.5 -15.5q5 -20 -27.5 -33.5t-87.5 -9.5 q-6 0 -24.5 -1t-39 -1.5t-39 -1t-24.5 -0.5h-75q-4 0 -15 0.5t-23 1t-22.5 1t-14.5 0.5q-11 3 -15 8t-12 16q0 1 -1 6t-2 6q0 1 -1 4t-2 4l3 45q0 2 5.5 8t8.5 8t9 5t12.5 6t12.5 5.5t8 2.5q3 1 11 1.5t17 1t17.5 0.5h11.5v6q2 14 -2 23q-1 1 -4 4.5t-3 4.5q-5 10 -7 21.5 t-7 22.5q-1 2 -2 11t-1 11q-1 2 -3.5 11t-6.5 20.5t-7.5 22.5t-5.5 17q-1 2 -4 12.5t-4 12.5q-1 0 -2 1.5t-2 2.5q-2 1 -3.5 7.5t-2.5 7.5h-7.5t-7.5 1q0 4 -4 4h-201q-11 -5 -22 -4.5t-23 -3.5q-13 -5 -22 -18t-15 -29.5t-8.5 -33t-2.5 -28.5l-15 -84q2 0 6 -1t6 -1 q20 -2 46.5 -2.5t47.5 -3.5q1 0 8.5 -8.5t11.5 -13.5q9 -12 8 -19t-1 -21v-18q0 -1 -2 -6.5t-4 -12t-5 -12.5l-4 -8q-3 -9 -12.5 -12.5t-23.5 -4t-30 -0.5t-32 -2q-11 -2 -30 -2h-38.5h-35t-18.5 -1h-4q-11 1 -31 0.5t-39.5 -1t-33 -0.5t-12.5 1q-29 -1 -41.5 13t-12.5 40z M418 466l44 -1q1 0 6 0.5t11 0.5t10.5 0.5t5.5 0.5h13h15q3 0 13.5 1t23 1.5t23 1t13.5 0.5h8q4 2 11.5 5t8.5 4v2q0 1 0.5 2t0.5 2q0 37 -14.5 75t-26.5 72q-11 29 -20.5 56.5t-24.5 53.5q-2 4 -4 4h-5q-13 0 -17.5 -4.5t-9.5 -16.5q-2 -5 -5.5 -12.5t-6.5 -15t-5.5 -13.5 t-2.5 -7t-1 -5.5t-1.5 -9t-1 -8.5t-0.5 -5q-1 -2 -4.5 -8.5t-4.5 -8.5q-9 -22 -17 -46t-15 -47v-4zM642 1118q-11 -11 -27 -21.5t-30 -19.5q-2 -1 -6.5 -5t-10 -8t-10.5 -7.5t-6 -4.5q-2 -1 -9 -5.5t-9 -5.5q0 -1 -4.5 -3t-5.5 -2q-10 -5 -23 -5q-12 -1 -24.5 3.5 t-23.5 13.5t-19 21.5t-11 29.5q0 9 8 17.5t21 16.5q19 13 36.5 27.5t36 27t38.5 23t43 15.5q14 2 24.5 0t22.5 -11l13 -13t8 -9q7 -11 8 -19t-3.5 -16t-14 -17.5z" />
<glyph unicode="&#xc2;" horiz-adv-x="1117" d="M65 53q0 36 18 53.5t49 24.5q1 0 7.5 2t8.5 2t11.5 -2t10.5 -2h2h2q4 0 4 4q7 12 9.5 18t4 11.5t3 12l4.5 19.5q8 32 17.5 63t18.5 63q1 0 2.5 3.5t1.5 4.5q13 32 19 63.5t15 65.5q0 3 2.5 13.5t5 23.5t5 23.5t3.5 13.5q7 26 11.5 48t9.5 48q1 5 3.5 13t4.5 17t3.5 17 t0.5 14q1 5 4 16t6.5 23t6 23t4.5 16q0 1 2 6.5t4 11.5t4 11.5t2 6.5q1 3 4 15t7 26t7 25.5t4 14.5q9 25 19.5 49t23.5 41.5t28.5 26.5t35.5 5q6 3 15.5 3.5t19.5 0t20 -1.5t16 -1h4q10 -8 16 -14.5t11 -13t10.5 -14t13.5 -17.5q1 -1 2.5 -4t1.5 -4v-8q2 -6 7.5 -16.5 l11 -21t8.5 -20.5t1 -15q3 -8 9.5 -27.5t14.5 -41.5t15 -41.5t10 -27.5q1 -1 4.5 -7.5t3.5 -8.5q1 -2 2.5 -10t1.5 -10q1 -3 2.5 -9t1.5 -7q14 -35 26.5 -71t26.5 -71q1 -2 5.5 -13t6.5 -15l4 -8q7 -11 14.5 -32.5t16 -45t16 -44.5t14.5 -32l4 -8l4 -8t4 -6.5t4 -6.5 q3 -6 9 -23t12.5 -35.5t12 -35.5t8.5 -23q8 -15 14 -28q5 -11 10.5 -21.5t7.5 -12.5q1 -1 3 -2q2 -2 4 -2q5 -2 14 -5t10 -3h7.5h13t12.5 -0.5t8 -0.5q5 -1 17 -4t14 -5q4 -2 12.5 -11.5t10.5 -12.5v-8q-1 -8 -2.5 -17.5t-5.5 -15.5q5 -20 -27.5 -33.5t-87.5 -9.5 q-6 0 -24.5 -1t-39 -1.5t-39 -1t-24.5 -0.5h-75q-4 0 -15 0.5t-23 1t-22.5 1t-14.5 0.5q-11 3 -15 8t-12 16q0 1 -1 6t-2 6q0 1 -1 4t-2 4l3 45q0 2 5.5 8t8.5 8t9 5t12.5 6t12.5 5.5t8 2.5q3 1 11 1.5t17 1t17.5 0.5h11.5v6q2 14 -2 23q-1 1 -4 4.5t-3 4.5q-5 10 -7 21.5 t-7 22.5q-1 2 -2 11t-1 11q-1 2 -3.5 11t-6.5 20.5t-7.5 22.5t-5.5 17q-1 2 -4 12.5t-4 12.5q-1 0 -2 1.5t-2 2.5q-2 1 -3.5 7.5t-2.5 7.5h-7.5t-7.5 1q0 4 -4 4h-201q-11 -5 -22 -4.5t-23 -3.5q-13 -5 -22 -18t-15 -29.5t-8.5 -33t-2.5 -28.5l-15 -84q2 0 6 -1t6 -1 q20 -2 46.5 -2.5t47.5 -3.5q1 0 8.5 -8.5t11.5 -13.5q9 -12 8 -19t-1 -21v-18q0 -1 -2 -6.5t-4 -12t-5 -12.5l-4 -8q-3 -9 -12.5 -12.5t-23.5 -4t-30 -0.5t-32 -2q-11 -2 -30 -2h-38.5h-35t-18.5 -1h-4q-11 1 -31 0.5t-39.5 -1t-33 -0.5t-12.5 1q-29 -1 -41.5 13t-12.5 40z M418 466l44 -1q1 0 6 0.5t11 0.5t10.5 0.5t5.5 0.5h13h15q3 0 13.5 1t23 1.5t23 1t13.5 0.5h8q4 2 11.5 5t8.5 4v2q0 1 0.5 2t0.5 2q0 37 -14.5 75t-26.5 72q-11 29 -20.5 56.5t-24.5 53.5q-2 4 -4 4h-5q-13 0 -17.5 -4.5t-9.5 -16.5q-2 -5 -5.5 -12.5t-6.5 -15t-5.5 -13.5 t-2.5 -7t-1 -5.5t-1.5 -9t-1 -8.5t-0.5 -5q-1 -2 -4.5 -8.5t-4.5 -8.5q-9 -22 -17 -46t-15 -47v-4zM406 1094q8 11 16 28t15.5 34t13.5 30.5t10 18.5q4 14 18 25t32 3h1q1 0 1.5 0.5t1.5 0.5q8 1 19 -6.5t16 -13.5q3 -5 9 -15.5t8 -12.5q4 -11 16.5 -36l22.5 -45 q5 -8 9.5 -14.5t5.5 -16.5q1 -16 -14.5 -28t-32.5 -14h-8h-2q-1 0 -2 1q-13 9 -22 22.5t-16 28t-11.5 27.5t-8.5 21q-1 -2 -3.5 -8.5t-3.5 -8.5q0 -1 -1.5 -5t-0.5 -5q0 -1 -2.5 -4t-1.5 -4l-6 -15q-8 -16 -12 -26t-8.5 -15t-11.5 -6.5t-19 -1.5q-16 -2 -27 7t-11 23 q-1 10 2 16.5t8 14.5z" />
<glyph unicode="&#xc3;" horiz-adv-x="1117" d="M65 53q0 36 18 53.5t49 24.5q1 0 7.5 2t8.5 2t11.5 -2t10.5 -2h2h2q4 0 4 4q7 12 9.5 18t4 11.5t3 12l4.5 19.5q8 32 17.5 63t18.5 63q1 0 2.5 3.5t1.5 4.5q13 32 19 63.5t15 65.5q0 3 2.5 13.5t5 23.5t5 23.5t3.5 13.5q7 26 11.5 48t9.5 48q1 5 3.5 13t4.5 17t3.5 17 t0.5 14q1 5 4 16t6.5 23t6 23t4.5 16q0 1 2 6.5t4 11.5t4 11.5t2 6.5q1 3 4 15t7 26t7 25.5t4 14.5q9 25 19.5 49t23.5 41.5t28.5 26.5t35.5 5q6 3 15.5 3.5t19.5 0t20 -1.5t16 -1h4q10 -8 16 -14.5t11 -13t10.5 -14t13.5 -17.5q1 -1 2.5 -4t1.5 -4v-8q2 -6 7.5 -16.5 l11 -21t8.5 -20.5t1 -15q3 -8 9.5 -27.5t14.5 -41.5t15 -41.5t10 -27.5q1 -1 4.5 -7.5t3.5 -8.5q1 -2 2.5 -10t1.5 -10q1 -3 2.5 -9t1.5 -7q14 -35 26.5 -71t26.5 -71q1 -2 5.5 -13t6.5 -15l4 -8q7 -11 14.5 -32.5t16 -45t16 -44.5t14.5 -32l4 -8l4 -8t4 -6.5t4 -6.5 q3 -6 9 -23t12.5 -35.5t12 -35.5t8.5 -23q8 -15 14 -28q5 -11 10.5 -21.5t7.5 -12.5q1 -1 3 -2q2 -2 4 -2q5 -2 14 -5t10 -3h7.5h13t12.5 -0.5t8 -0.5q5 -1 17 -4t14 -5q4 -2 12.5 -11.5t10.5 -12.5v-8q-1 -8 -2.5 -17.5t-5.5 -15.5q5 -20 -27.5 -33.5t-87.5 -9.5 q-6 0 -24.5 -1t-39 -1.5t-39 -1t-24.5 -0.5h-75q-4 0 -15 0.5t-23 1t-22.5 1t-14.5 0.5q-11 3 -15 8t-12 16q0 1 -1 6t-2 6q0 1 -1 4t-2 4l3 45q0 2 5.5 8t8.5 8t9 5t12.5 6t12.5 5.5t8 2.5q3 1 11 1.5t17 1t17.5 0.5h11.5v6q2 14 -2 23q-1 1 -4 4.5t-3 4.5q-5 10 -7 21.5 t-7 22.5q-1 2 -2 11t-1 11q-1 2 -3.5 11t-6.5 20.5t-7.5 22.5t-5.5 17q-1 2 -4 12.5t-4 12.5q-1 0 -2 1.5t-2 2.5q-2 1 -3.5 7.5t-2.5 7.5h-7.5t-7.5 1q0 4 -4 4h-201q-11 -5 -22 -4.5t-23 -3.5q-13 -5 -22 -18t-15 -29.5t-8.5 -33t-2.5 -28.5l-15 -84q2 0 6 -1t6 -1 q20 -2 46.5 -2.5t47.5 -3.5q1 0 8.5 -8.5t11.5 -13.5q9 -12 8 -19t-1 -21v-18q0 -1 -2 -6.5t-4 -12t-5 -12.5l-4 -8q-3 -9 -12.5 -12.5t-23.5 -4t-30 -0.5t-32 -2q-11 -2 -30 -2h-38.5h-35t-18.5 -1h-4q-11 1 -31 0.5t-39.5 -1t-33 -0.5t-12.5 1q-29 -1 -41.5 13t-12.5 40z M418 466l44 -1q1 0 6 0.5t11 0.5t10.5 0.5t5.5 0.5h13h15q3 0 13.5 1t23 1.5t23 1t13.5 0.5h8q4 2 11.5 5t8.5 4v2q0 1 0.5 2t0.5 2q0 37 -14.5 75t-26.5 72q-11 29 -20.5 56.5t-24.5 53.5q-2 4 -4 4h-5q-13 0 -17.5 -4.5t-9.5 -16.5q-2 -5 -5.5 -12.5t-6.5 -15t-5.5 -13.5 t-2.5 -7t-1 -5.5t-1.5 -9t-1 -8.5t-0.5 -5q-1 -2 -4.5 -8.5t-4.5 -8.5q-9 -22 -17 -46t-15 -47v-4zM463 1094q-22 -5 -36.5 -13t-37.5 -28q-2 -1 -7.5 -3t-11.5 -3.5t-11 -3t-8 -1.5h-2q-2 1 -8 5q-3 2 -6 3q-2 1 -6 5l-9 9l-9.5 9.5l-6.5 6.5q0 1 -1 3q-2 2 -2 4 q-2 5 -5 13t-3 9q-5 10 -2.5 22.5t17.5 29.5q15 15 27 25.5t24.5 18t27 13.5t33.5 12q10 2 21 2.5t22 0.5q31 -1 56.5 -14.5t50 -29.5t50.5 -30.5t58 -16.5q6 0 12.5 3.5t9.5 8.5q4 4 14 18t13 19q3 3 6 3.5t7 0.5q5 2 19.5 -1t30 -10t27.5 -16t13 -18q0 -12 -8 -21t-8 -21 q-9 -21 -24.5 -38.5t-33.5 -29t-36.5 -17t-33.5 -3.5q-34 0 -62.5 11t-55 24.5t-52 25t-53.5 13.5z" />
<glyph unicode="&#xc4;" horiz-adv-x="1117" d="M65 53q0 36 18 53.5t49 24.5q1 0 7.5 2t8.5 2t11.5 -2t10.5 -2h2h2q4 0 4 4q7 12 9.5 18t4 11.5t3 12l4.5 19.5q8 32 17.5 63t18.5 63q1 0 2.5 3.5t1.5 4.5q13 32 19 63.5t15 65.5q0 3 2.5 13.5t5 23.5t5 23.5t3.5 13.5q7 26 11.5 48t9.5 48q1 5 3.5 13t4.5 17t3.5 17 t0.5 14q1 5 4 16t6.5 23t6 23t4.5 16q0 1 2 6.5t4 11.5t4 11.5t2 6.5q1 3 4 15t7 26t7 25.5t4 14.5q9 25 19.5 49t23.5 41.5t28.5 26.5t35.5 5q6 3 15.5 3.5t19.5 0t20 -1.5t16 -1h4q10 -8 16 -14.5t11 -13t10.5 -14t13.5 -17.5q1 -1 2.5 -4t1.5 -4v-8q2 -6 7.5 -16.5 l11 -21t8.5 -20.5t1 -15q3 -8 9.5 -27.5t14.5 -41.5t15 -41.5t10 -27.5q1 -1 4.5 -7.5t3.5 -8.5q1 -2 2.5 -10t1.5 -10q1 -3 2.5 -9t1.5 -7q14 -35 26.5 -71t26.5 -71q1 -2 5.5 -13t6.5 -15l4 -8q7 -11 14.5 -32.5t16 -45t16 -44.5t14.5 -32l4 -8l4 -8t4 -6.5t4 -6.5 q3 -6 9 -23t12.5 -35.5t12 -35.5t8.5 -23q8 -15 14 -28q5 -11 10.5 -21.5t7.5 -12.5q1 -1 3 -2q2 -2 4 -2q5 -2 14 -5t10 -3h7.5h13t12.5 -0.5t8 -0.5q5 -1 17 -4t14 -5q4 -2 12.5 -11.5t10.5 -12.5v-8q-1 -8 -2.5 -17.5t-5.5 -15.5q5 -20 -27.5 -33.5t-87.5 -9.5 q-6 0 -24.5 -1t-39 -1.5t-39 -1t-24.5 -0.5h-75q-4 0 -15 0.5t-23 1t-22.5 1t-14.5 0.5q-11 3 -15 8t-12 16q0 1 -1 6t-2 6q0 1 -1 4t-2 4l3 45q0 2 5.5 8t8.5 8t9 5t12.5 6t12.5 5.5t8 2.5q3 1 11 1.5t17 1t17.5 0.5h11.5v6q2 14 -2 23q-1 1 -4 4.5t-3 4.5q-5 10 -7 21.5 t-7 22.5q-1 2 -2 11t-1 11q-1 2 -3.5 11t-6.5 20.5t-7.5 22.5t-5.5 17q-1 2 -4 12.5t-4 12.5q-1 0 -2 1.5t-2 2.5q-2 1 -3.5 7.5t-2.5 7.5h-7.5t-7.5 1q0 4 -4 4h-201q-11 -5 -22 -4.5t-23 -3.5q-13 -5 -22 -18t-15 -29.5t-8.5 -33t-2.5 -28.5l-15 -84q2 0 6 -1t6 -1 q20 -2 46.5 -2.5t47.5 -3.5q1 0 8.5 -8.5t11.5 -13.5q9 -12 8 -19t-1 -21v-18q0 -1 -2 -6.5t-4 -12t-5 -12.5l-4 -8q-3 -9 -12.5 -12.5t-23.5 -4t-30 -0.5t-32 -2q-11 -2 -30 -2h-38.5h-35t-18.5 -1h-4q-11 1 -31 0.5t-39.5 -1t-33 -0.5t-12.5 1q-29 -1 -41.5 13t-12.5 40z M418 466l44 -1q1 0 6 0.5t11 0.5t10.5 0.5t5.5 0.5h13h15q3 0 13.5 1t23 1.5t23 1t13.5 0.5h8q4 2 11.5 5t8.5 4v2q0 1 0.5 2t0.5 2q0 37 -14.5 75t-26.5 72q-11 29 -20.5 56.5t-24.5 53.5q-2 4 -4 4h-5q-13 0 -17.5 -4.5t-9.5 -16.5q-2 -5 -5.5 -12.5t-6.5 -15t-5.5 -13.5 t-2.5 -7t-1 -5.5t-1.5 -9t-1 -8.5t-0.5 -5q-1 -2 -4.5 -8.5t-4.5 -8.5q-9 -22 -17 -46t-15 -47v-4zM361 1184q24 0 38 -10.5t27 -27.5q0 -4 3 -4q5 -6 4.5 -9.5t0.5 -11.5q2 -42 -15.5 -65.5t-62.5 -25.5q-6 -1 -15 0.5t-14 4.5q-1 0 -5 2.5t-8 5.5t-7.5 5.5t-4.5 2.5 q-11 17 -13.5 38t4.5 40t24 34t44 21zM621 1184q24 0 38 -10.5t27 -27.5q0 -4 4 -4q4 -6 4 -9.5t1 -11.5q2 -42 -15.5 -65.5t-62.5 -25.5q-6 -1 -15 0.5t-15 4.5q-2 1 -12.5 8t-12.5 8q-11 17 -13 38t5 40t23.5 34t43.5 21z" />
<glyph unicode="&#xc5;" horiz-adv-x="1117" d="M65 53q0 36 18 53.5t49 24.5q1 0 7.5 2t8.5 2t11.5 -2t10.5 -2h2h2q4 0 4 4q7 12 9.5 18t4 11.5t3 12l4.5 19.5q8 32 17.5 63t18.5 63q1 0 2.5 3.5t1.5 4.5q13 32 19 63.5t15 65.5q0 3 2.5 13.5t5 23.5t5 23.5t3.5 13.5q7 26 11.5 48t9.5 48q1 5 3.5 13t4.5 17t3.5 17 t0.5 14q1 5 4 16t6.5 23t6 23t4.5 16q0 1 2 6.5t4 11.5t4 11.5t2 6.5q1 3 4 15t7 26t7 25.5t4 14.5q9 25 19.5 49t23.5 41.5t28.5 26.5t35.5 5q6 3 15.5 3.5t19.5 0t20 -1.5t16 -1h4q10 -8 16 -14.5t11 -13t10.5 -14t13.5 -17.5q1 -1 2.5 -4t1.5 -4v-8q2 -6 7.5 -16.5 l11 -21t8.5 -20.5t1 -15q3 -8 9.5 -27.5t14.5 -41.5t15 -41.5t10 -27.5q1 -1 4.5 -7.5t3.5 -8.5q1 -2 2.5 -10t1.5 -10q1 -3 2.5 -9t1.5 -7q14 -35 26.5 -71t26.5 -71q1 -2 5.5 -13t6.5 -15l4 -8q7 -11 14.5 -32.5t16 -45t16 -44.5t14.5 -32l4 -8l4 -8t4 -6.5t4 -6.5 q3 -6 9 -23t12.5 -35.5t12 -35.5t8.5 -23q8 -15 14 -28q5 -11 10.5 -21.5t7.5 -12.5q1 -1 3 -2q2 -2 4 -2q5 -2 14 -5t10 -3h7.5h13t12.5 -0.5t8 -0.5q5 -1 17 -4t14 -5q4 -2 12.5 -11.5t10.5 -12.5v-8q-1 -8 -2.5 -17.5t-5.5 -15.5q5 -20 -27.5 -33.5t-87.5 -9.5 q-6 0 -24.5 -1t-39 -1.5t-39 -1t-24.5 -0.5h-75q-4 0 -15 0.5t-23 1t-22.5 1t-14.5 0.5q-11 3 -15 8t-12 16q0 1 -1 6t-2 6q0 1 -1 4t-2 4l3 45q0 2 5.5 8t8.5 8t9 5t12.5 6t12.5 5.5t8 2.5q3 1 11 1.5t17 1t17.5 0.5h11.5v6q2 14 -2 23q-1 1 -4 4.5t-3 4.5q-5 10 -7 21.5 t-7 22.5q-1 2 -2 11t-1 11q-1 2 -3.5 11t-6.5 20.5t-7.5 22.5t-5.5 17q-1 2 -4 12.5t-4 12.5q-1 0 -2 1.5t-2 2.5q-2 1 -3.5 7.5t-2.5 7.5h-7.5t-7.5 1q0 4 -4 4h-201q-11 -5 -22 -4.5t-23 -3.5q-13 -5 -22 -18t-15 -29.5t-8.5 -33t-2.5 -28.5l-15 -84q2 0 6 -1t6 -1 q20 -2 46.5 -2.5t47.5 -3.5q1 0 8.5 -8.5t11.5 -13.5q9 -12 8 -19t-1 -21v-18q0 -1 -2 -6.5t-4 -12t-5 -12.5l-4 -8q-3 -9 -12.5 -12.5t-23.5 -4t-30 -0.5t-32 -2q-11 -2 -30 -2h-38.5h-35t-18.5 -1h-4q-11 1 -31 0.5t-39.5 -1t-33 -0.5t-12.5 1q-29 -1 -41.5 13t-12.5 40z M418 466l44 -1q1 0 6 0.5t11 0.5t10.5 0.5t5.5 0.5h13h15q3 0 13.5 1t23 1.5t23 1t13.5 0.5h8q4 2 11.5 5t8.5 4v2q0 1 0.5 2t0.5 2q0 37 -14.5 75t-26.5 72q-11 29 -20.5 56.5t-24.5 53.5q-2 4 -4 4h-5q-13 0 -17.5 -4.5t-9.5 -16.5q-2 -5 -5.5 -12.5t-6.5 -15t-5.5 -13.5 t-2.5 -7t-1 -5.5t-1.5 -9t-1 -8.5t-0.5 -5q-1 -2 -4.5 -8.5t-4.5 -8.5q-9 -22 -17 -46t-15 -47v-4zM496 1240q1 -1 5 -1h4q2 0 11 -1t10 -2h6q34 -8 54.5 -33t25.5 -63v-1l-1 -3v-8q-5 -20 -14.5 -39t-24.5 -31q-2 -3 -8.5 -7.5t-6.5 -5.5q-5 -3 -13 -3.5t-15 -1.5 q-3 -1 -5 -2q-1 -1 -3 -1q-1 0 -2 -1q-23 -1 -37 2t-18 3h-3q-38 11 -56.5 36.5t-16.5 71.5q0 9 2 17t6 17q4 8 10.5 17t12.5 15q17 14 37 20t40 5zM503 1169q-14 2 -29.5 -3t-21.5 -22q-1 -2 -1 -4q-1 -2 -1 -6l2 -5q2 -2 4 -6h1l9 -6l1 -1q10 -6 26 -8q0 -1 4 -1h3 q1 0 7 1t8 1q6 1 15 7.5t10 15.5q1 5 1 9t-3 9q-7 11 -15.5 14t-19.5 5z" />
<glyph unicode="&#xc6;" horiz-adv-x="1407" d="M604 4q-14 5 -23.5 10t-16 12t-9 17t-2.5 26q1 19 13 39.5t34 25.5h24q4 0 13.5 1.5t11.5 2.5q4 1 4 5v7v8q0 1 -2 4t-2 4q0 2 0.5 10t0.5 10q-1 2 -2 12.5t-2 12.5q-2 24 -2 48t-4 49q0 5 0.5 16.5t0.5 25.5l-172 6q-12 -4 -23 -3.5t-24 -2.5q-14 -4 -25.5 -17 t-20 -29.5t-14.5 -33t-8 -28.5l-31 -83q2 0 6 -1t6 -1q20 -2 46.5 -4t46.5 -6q1 0 7 -8.5t9 -13.5q7 -13 4.5 -20t-5.5 -21q0 -4 -1.5 -10.5t-1.5 -7.5t-2.5 -6t-6.5 -11.5t-7.5 -12.5t-5.5 -8q-5 -9 -15 -12t-24 -3t-30.5 0.5t-32.5 -0.5q-11 -2 -30.5 -1.5l-39 1 t-34.5 1.5t-18 0h-2q-1 0 -2 1q-11 1 -31 1t-39 0.5t-33 0.5t-12 1q-55 0 -44 54q7 36 28 53.5t53 22.5q1 0 8 2t9 2q2 -1 10.5 -3t9.5 -2h4q1 0 3 1.5t2 2.5q9 11 13 17t6.5 11.5t4.5 12t8 19.5q14 31 29.5 62t30.5 63q1 0 3 3t2 4q19 32 31 63.5t27 64.5q1 3 5.5 13.5 t9.5 23.5t9.5 23.5t5.5 13.5q11 25 20 47t19 48q2 5 5.5 13t7.5 17t7 17t3 14q3 4 8 15t10 23t10 23t8 16q1 1 3.5 6.5t5.5 11.5t6 11t3 6q1 3 7 15t12 26t11.5 25.5t7.5 14.5q13 25 28 48.5t31 40.5t33.5 25.5t36.5 3.5q8 3 18.5 3t21.5 -1v-6l14 3q6 0 10.5 0.5t8.5 -1.5 h190l118 4h36q54 0 106.5 1.5t106.5 1.5q5 0 21 -0.5t21 -0.5q10 -1 17 -4t15 -8q11 -8 17 -24.5t8.5 -36.5t3 -39.5t1.5 -32.5q1 -2 1.5 -6.5t1.5 -6.5q6 -26 4.5 -43t-6.5 -27t-11 -15t-9 -8q-14 -16 -22 -18.5t-28 -2.5q-5 0 -11 0.5t-7 0.5q-16 1 -24 11.5t-11 24t-3 28 v25.5q0 9 -0.5 15t-2.5 10.5t-5.5 9t-10.5 10.5q-1 -1 -4 -1t-4 1q-1 0 -7 1.5t-12.5 4t-12 4.5t-6.5 2t-7.5 0.5t-14.5 1t-17 1.5t-14 1h-8q-5 0 -21.5 1.5t-35.5 3t-36 3.5t-21 2h-8q-2 -1 -10 -2.5t-10 -1.5h-14.5h-24h-24h-14.5q-1 0 -7.5 -2t-8.5 -2q-16 -4 -25 -7 t-13.5 -8.5t-6 -15t-1.5 -26.5q0 -5 -0.5 -17t-0.5 -13l-1 -53v-7.5t-0.5 -14.5t-1 -17t-0.5 -14v-10.5t-0.5 -15.5t-0.5 -15.5v-10.5q1 -7 3 -14t9 -10q32 -2 63.5 -7.5t63.5 -5.5h22q2 13 9.5 27t18 25t24 18t27.5 7q8 0 18 -4t15 -8q28 -23 33 -52t4 -66q-2 -35 -4 -73.5 t-16 -70.5q-3 -6 -10 -11t-16.5 -8.5t-19 -5t-16.5 -1.5q-20 0 -29.5 5.5t-14 14.5t-7 22t-7.5 28q-2 4 -4.5 11.5t-3.5 8.5l-6 2q-2 1 -5 1t-5 1q-5 1 -19 2.5t-17 1.5h-69q-2 0 -9.5 -1.5t-10.5 -2.5q-20 1 -25 -16t-10 -41q-4 -8 -4.5 -21t-0.5 -21v-15t-1 -12 q0 -5 0.5 -18t1 -28t0.5 -28v-19q0 -3 0.5 -9.5t1 -14.5t1 -14.5t0.5 -9.5q1 -5 2 -14t1 -11q1 -2 1.5 -12t1.5 -12q0 -1 3.5 -6t4.5 -7q4 -9 20.5 -14t36.5 -8t39.5 -4.5t28.5 -4.5h13.5t20.5 -0.5t21 -0.5h14h18t22 0.5t19.5 0.5h9.5t7.5 0.5l13 1t12.5 1.5t8 1 q14 1 30.5 2.5t33 6t31.5 12t24 19.5q5 8 3.5 16t0.5 16q1 2 2 8t2.5 12.5t2.5 12t2 8.5q1 2 2.5 4.5t2.5 3.5q12 14 24 23.5t31 9.5q20 0 38 -13q4 -3 11.5 -10.5t8.5 -9.5q1 -1 1.5 -12t1.5 -16q2 -20 2.5 -41t-0.5 -41q-1 -28 -13 -55t-26 -50q-8 -13 -19.5 -17t-25.5 -7 q-5 0 -17.5 0.5t-26.5 0.5t-27 -0.5t-18 -0.5q-3 0 -13 -1t-22 -2.5t-22 -3t-13 -1.5h-36q-2 0 -7.5 -0.5t-12.5 -1.5t-13 -1.5t-7 -0.5h-17q-23 0 -44.5 1t-44.5 2h-7t-14.5 0.5t-16.5 0.5h-13q-56 0 -110 -2t-110 -2h-8q-4 0 -14.5 0.5t-22 1t-22 1.5t-14.5 1zM460 473 l43 -2h6t11 0.5t11 0.5h6q2 -1 5 -1h8h15h13.5t23 0.5t23 0.5h13.5h6v2q1 51 2 101t3 101q-3 18 -6.5 35.5t-10.5 34.5q-2 4 -3.5 4h-4.5q-13 1 -18 -3.5t-13 -16.5q-3 -4 -7.5 -11.5t-9.5 -15t-8.5 -13.5t-3.5 -7q-1 -1 -2.5 -5.5l-3 -9t-2.5 -8.5t-1 -5q-2 -2 -6.5 -8.5 t-5.5 -8.5q-14 -21 -26.5 -44.5t-23.5 -46.5v-4z" />
<glyph unicode="&#xc7;" horiz-adv-x="923" d="M56 479q2 24 3 48t3 48q0 2 0.5 8t1.5 13t1.5 13t0.5 8q0 3 2 12.5t3.5 20.5t3.5 21t2 13q2 15 5.5 25.5t7 20t8 19.5t8.5 22q2 5 7.5 15t11 21t10 20.5t6.5 12.5q1 2 5.5 7.5t6.5 7.5q26 26 55 52.5t64 43.5q1 1 6 3t11 4.5t11.5 5t6.5 2.5q13 5 26.5 8t25.5 11l91 20 q11 -1 24 0.5t24 2.5l63 -3q13 -2 26 -5.5t25 -6.5q1 -1 3 -1t4 -1q3 -1 5 -1l60 -51h4q2 19 5 32.5t18 25.5q3 2 10.5 6.5t9.5 4.5h18q5 0 16.5 0.5t17.5 -3.5q19 -14 26 -40.5t10 -47.5q2 -23 3 -44t1 -43v-21q0 -4 -1 -14t-1.5 -21t-1 -20.5t-0.5 -13.5 q-2 -16 -3.5 -29.5t-6.5 -23.5t-16 -15.5t-31 -5.5h-17q-5 -2 -13.5 -1.5t-17 3t-13.5 6t-3 8.5q-1 1 -1.5 6.5t-0.5 12t-1 13t-3 10.5q-1 2 -4 11.5t-4 11.5t-2 4.5t-2 4.5q-1 1 -5.5 6.5t-9 12t-8.5 12t-5 7.5q-2 2 -8 15t-8 15t-8 5.5t-13.5 6.5t-14.5 6t-10 5 q-5 5 -16.5 9.5t-19.5 6.5q-7 2 -19 4.5t-13 2.5h-95q-6 0 -17 -2.5t-22.5 -6.5t-22 -8t-14.5 -8q-43 -39 -72 -71t-47 -67t-25.5 -76.5t-7.5 -98.5q0 -18 1.5 -31t4 -25t6 -24.5t8.5 -30.5v-7q3 -20 11.5 -38.5t15.5 -38.5q11 -32 30.5 -60.5t42.5 -53.5q1 -1 7.5 -5.5 t9.5 -6.5q11 -8 21 -16t22 -15q11 -7 16.5 -8t19.5 -3q5 -1 15 -2t20 -2.5t17.5 -2.5t9.5 -1h38q48 0 85 12.5t76 41.5q5 4 14.5 14t12.5 16q7 13 13 27t12 25.5t13 19.5t18 9q5 2 17.5 1t13.5 -1t7.5 -0.5t15 -1.5t16.5 -2t12 -2q9 -2 13 -8.5t5 -15t0 -17.5t-1 -16 q0 -32 -19 -59.5t-41 -50.5q-3 -3 -8.5 -9t-12 -12t-12 -11t-6.5 -6q-27 -21 -58 -36t-57 -36q-5 -2 -16.5 -6.5t-25 -9.5t-25.5 -9.5t-16 -6.5q-2 -1 -8 -1.5t-8 -1.5q-2 0 -14.5 -1t-28.5 -2.5t-31.5 -2.5t-24.5 -2h-4h-4l-52 13t-55 16t-52 21.5t-44 29.5q-2 2 -10 10.5 t-12 12.5q-1 1 -4.5 5.5t-7 10t-7 10t-4.5 5.5q-2 1 -8.5 7.5t-7.5 8.5q-1 1 -4 6t-6.5 11t-6 11t-3.5 6l-4 4t-4 3q-32 39 -49 83t-25 94q-1 6 -3.5 21.5t-5 33.5t-4.5 34t-3 22zM390 -168q0 1 1 2q2 2 2 3q7 20 15.5 26.5t29.5 6.5q14 0 27.5 -4t27.5 -4q6 0 10.5 0.5 t10.5 5.5q1 2 2 9t0 10q0 1 -3 7.5t-5 8.5q0 1 -2 3t-3 2q-2 0 -8.5 0.5t-8.5 0.5q-3 0 -9 -0.5t-8 -0.5t-10.5 -2t-10.5 -3h-2q-12 0 -17 4t-7.5 10.5t-4 13.5t-5.5 13l3 65q0 2 4.5 3.5t6.5 1.5h56q0 1 3.5 3t7.5 3.5t8 0t5 -7.5q3 -5 5 -15.5t5 -11.5q2 -1 10 -3.5 t10 -2.5q32 -11 49 -36t17 -59q0 -8 -0.5 -16t-2.5 -16q-4 -15 -13 -27t-21 -20.5t-24 -14t-22 -6.5q-8 -4 -18.5 -3.5t-18.5 0.5h-20.5t-21.5 3q-6 2 -14.5 6.5t-16.5 10.5t-13.5 13t-5.5 13v4z" />
<glyph unicode="&#xc8;" horiz-adv-x="899" d="M96 4q-14 5 -23.5 10t-16 12t-9 17t-2.5 26q1 19 13 39.5t34 25.5h24q4 0 13.5 1.5t11.5 2.5q4 1 4 5v7v8q0 1 -2 4t-2 4q0 2 0.5 10t0.5 10q-1 2 -2 12.5t-2 12.5q-2 24 -2 48t-4 49q0 9 1 32.5t1.5 50t1 50.5t0.5 33q2 73 4 143.5t8 143.5q5 13 5.5 27.5t0.5 27.5v40 q-2 12 -10 17.5t-17.5 8.5t-20.5 4t-19 3q-24 2 -39 18t-13 41q0 13 6 21.5t14.5 14.5t19 10t20.5 8q5 2 14 5t10 3t5 0.5t9 0.5h10h8q12 -2 23 0t17 -1h190l367 7q5 0 21 -0.5t21 -0.5q10 -1 17 -4t15 -8q11 -8 17 -24.5t8.5 -36.5t3 -39.5t1.5 -32.5q1 -2 1.5 -6.5 t1.5 -6.5q6 -26 4.5 -43t-6.5 -27t-11 -15t-9 -8q-14 -16 -22 -18.5t-28 -2.5q-5 0 -11 0.5t-7 0.5q-16 1 -24 11.5t-11 24t-3 28v25.5q0 9 -0.5 15t-2.5 10.5t-5.5 9t-10.5 10.5q-1 -1 -4 -1t-4 1q-1 0 -7 1.5t-12.5 4t-12 4.5t-6.5 2t-7.5 0.5t-14.5 1t-17 1.5t-14 1h-8 q-5 0 -19 1t-30.5 2.5t-31 3t-18.5 1.5h-4h-4q-1 0 -6 -0.5t-11.5 -1t-11.5 -0.5h-6h-14.5h-24h-24h-14.5q-1 0 -7.5 -2t-8.5 -2q-16 -4 -25 -7t-13.5 -8.5t-6 -15t-1.5 -26.5q0 -5 -0.5 -17t-0.5 -13l-1 -53v-7.5t-0.5 -14.5t-1 -17t-0.5 -14v-10.5t-0.5 -15.5t-0.5 -15.5 v-10.5q1 -7 3 -14t9 -10q32 -2 63.5 -7.5t63.5 -5.5h22q2 13 9.5 27t18 25t24 18t27.5 7q8 0 18 -4t15 -8q28 -23 33 -52t4 -66q-2 -35 -4 -73.5t-16 -70.5q-3 -6 -10 -11t-16.5 -8.5t-19 -5t-16.5 -1.5q-20 0 -29.5 5.5t-14 14.5t-7 22t-7.5 28q-2 4 -4.5 11.5t-3.5 8.5 l-6 2q-2 1 -5 1t-5 1q-5 1 -19 2.5t-17 1.5h-35h-34q-2 0 -9.5 -1.5t-10.5 -2.5q-20 1 -25 -16t-10 -41q-4 -8 -4.5 -21t-0.5 -21v-15t-1 -12q0 -5 0.5 -18t1 -28t0.5 -28v-19q0 -3 0.5 -9.5t1 -14.5t1 -14.5t0.5 -9.5q1 -5 2 -14t1 -11q1 -2 1.5 -12t1.5 -12q0 -1 3.5 -6 t4.5 -7q4 -9 20.5 -14t36.5 -8t39.5 -4.5t28.5 -4.5h13.5t20.5 -0.5t21 -0.5h14h18t22 0.5t19.5 0.5h9.5t7.5 0.5l13 1t12.5 1.5t8 1q14 1 30.5 2.5t33 6t31.5 12t24 19.5q5 8 3.5 16t0.5 16q1 2 2 8t2.5 12.5t2.5 12t2 8.5q1 2 2.5 4.5t2.5 3.5q12 14 24 23.5t31 9.5 q20 0 38 -13q4 -3 11.5 -10.5t8.5 -9.5q1 -1 1.5 -12t1.5 -16q2 -20 2.5 -41t-0.5 -41q-1 -28 -13 -55t-26 -50q-8 -13 -19.5 -17t-25.5 -7q-5 0 -17.5 0.5t-26.5 0.5t-27 -0.5t-18 -0.5q-3 0 -13 -1t-22 -2.5t-22 -3t-13 -1.5h-36q-2 0 -7.5 -0.5t-12.5 -1.5t-13 -1.5 t-7 -0.5h-17q-23 0 -44.5 1t-44.5 2h-7t-14.5 0.5t-16.5 0.5h-13q-56 0 -110 -2t-110 -2h-8q-4 0 -14.5 0.5t-22 1t-22 1.5t-14.5 1zM365 1126q-14 13 -23 22.5t-13.5 17.5t-3.5 16t8 19q0 1 8 9l13 13q12 9 22.5 11t24.5 0q23 -5 43 -15.5t38.5 -23t36 -27t36.5 -27.5 q13 -8 21 -16.5t8 -17.5q-3 -17 -11 -29.5t-19 -21.5t-23.5 -13.5t-24.5 -3.5q-13 0 -23 5q-1 0 -5.5 2t-4.5 3q-2 1 -9 5.5t-9 5.5t-6.5 4.5t-10 7.5t-10.5 8t-6 5q-14 9 -30 19.5t-27 21.5z" />
<glyph unicode="&#xc9;" horiz-adv-x="899" d="M96 4q-14 5 -23.5 10t-16 12t-9 17t-2.5 26q1 19 13 39.5t34 25.5h24q4 0 13.5 1.5t11.5 2.5q4 1 4 5v7v8q0 1 -2 4t-2 4q0 2 0.5 10t0.5 10q-1 2 -2 12.5t-2 12.5q-2 24 -2 48t-4 49q0 9 1 32.5t1.5 50t1 50.5t0.5 33q2 73 4 143.5t8 143.5q5 13 5.5 27.5t0.5 27.5v40 q-2 12 -10 17.5t-17.5 8.5t-20.5 4t-19 3q-24 2 -39 18t-13 41q0 13 6 21.5t14.5 14.5t19 10t20.5 8q5 2 14 5t10 3t5 0.5t9 0.5h10h8q12 -2 23 0t17 -1h190l367 7q5 0 21 -0.5t21 -0.5q10 -1 17 -4t15 -8q11 -8 17 -24.5t8.5 -36.5t3 -39.5t1.5 -32.5q1 -2 1.5 -6.5 t1.5 -6.5q6 -26 4.5 -43t-6.5 -27t-11 -15t-9 -8q-14 -16 -22 -18.5t-28 -2.5q-5 0 -11 0.5t-7 0.5q-16 1 -24 11.5t-11 24t-3 28v25.5q0 9 -0.5 15t-2.5 10.5t-5.5 9t-10.5 10.5q-1 -1 -4 -1t-4 1q-1 0 -7 1.5t-12.5 4t-12 4.5t-6.5 2t-7.5 0.5t-14.5 1t-17 1.5t-14 1h-8 q-5 0 -19 1t-30.5 2.5t-31 3t-18.5 1.5h-4h-4q-1 0 -6 -0.5t-11.5 -1t-11.5 -0.5h-6h-14.5h-24h-24h-14.5q-1 0 -7.5 -2t-8.5 -2q-16 -4 -25 -7t-13.5 -8.5t-6 -15t-1.5 -26.5q0 -5 -0.5 -17t-0.5 -13l-1 -53v-7.5t-0.5 -14.5t-1 -17t-0.5 -14v-10.5t-0.5 -15.5t-0.5 -15.5 v-10.5q1 -7 3 -14t9 -10q32 -2 63.5 -7.5t63.5 -5.5h22q2 13 9.5 27t18 25t24 18t27.5 7q8 0 18 -4t15 -8q28 -23 33 -52t4 -66q-2 -35 -4 -73.5t-16 -70.5q-3 -6 -10 -11t-16.5 -8.5t-19 -5t-16.5 -1.5q-20 0 -29.5 5.5t-14 14.5t-7 22t-7.5 28q-2 4 -4.5 11.5t-3.5 8.5 l-6 2q-2 1 -5 1t-5 1q-5 1 -19 2.5t-17 1.5h-35h-34q-2 0 -9.5 -1.5t-10.5 -2.5q-20 1 -25 -16t-10 -41q-4 -8 -4.5 -21t-0.5 -21v-15t-1 -12q0 -5 0.5 -18t1 -28t0.5 -28v-19q0 -3 0.5 -9.5t1 -14.5t1 -14.5t0.5 -9.5q1 -5 2 -14t1 -11q1 -2 1.5 -12t1.5 -12q0 -1 3.5 -6 t4.5 -7q4 -9 20.5 -14t36.5 -8t39.5 -4.5t28.5 -4.5h13.5t20.5 -0.5t21 -0.5h14h18t22 0.5t19.5 0.5h9.5t7.5 0.5l13 1t12.5 1.5t8 1q14 1 30.5 2.5t33 6t31.5 12t24 19.5q5 8 3.5 16t0.5 16q1 2 2 8t2.5 12.5t2.5 12t2 8.5q1 2 2.5 4.5t2.5 3.5q12 14 24 23.5t31 9.5 q20 0 38 -13q4 -3 11.5 -10.5t8.5 -9.5q1 -1 1.5 -12t1.5 -16q2 -20 2.5 -41t-0.5 -41q-1 -28 -13 -55t-26 -50q-8 -13 -19.5 -17t-25.5 -7q-5 0 -17.5 0.5t-26.5 0.5t-27 -0.5t-18 -0.5q-3 0 -13 -1t-22 -2.5t-22 -3t-13 -1.5h-36q-2 0 -7.5 -0.5t-12.5 -1.5t-13 -1.5 t-7 -0.5h-17q-23 0 -44.5 1t-44.5 2h-7t-14.5 0.5t-16.5 0.5h-13q-56 0 -110 -2t-110 -2h-8q-4 0 -14.5 0.5t-22 1t-22 1.5t-14.5 1zM533 1126q-11 -11 -27 -21.5t-30 -19.5q-2 -1 -6.5 -5t-10 -8t-10.5 -7.5t-6 -4.5q-2 -1 -9 -5.5t-9 -5.5q0 -1 -4.5 -3t-5.5 -2 q-10 -5 -23 -5q-12 -1 -24.5 3.5t-23.5 13.5t-19 21.5t-11 29.5q0 9 8 17.5t21 16.5q19 13 36.5 27.5t36 27t38.5 23t43 15.5q14 2 24.5 0t22.5 -11l13 -13t8 -9q7 -11 8 -19t-3.5 -16t-14 -17.5z" />
<glyph unicode="&#xca;" horiz-adv-x="899" d="M96 4q-14 5 -23.5 10t-16 12t-9 17t-2.5 26q1 19 13 39.5t34 25.5h24q4 0 13.5 1.5t11.5 2.5q4 1 4 5v7v8q0 1 -2 4t-2 4q0 2 0.5 10t0.5 10q-1 2 -2 12.5t-2 12.5q-2 24 -2 48t-4 49q0 9 1 32.5t1.5 50t1 50.5t0.5 33q2 73 4 143.5t8 143.5q5 13 5.5 27.5t0.5 27.5v40 q-2 12 -10 17.5t-17.5 8.5t-20.5 4t-19 3q-24 2 -39 18t-13 41q0 13 6 21.5t14.5 14.5t19 10t20.5 8q5 2 14 5t10 3t5 0.5t9 0.5h10h8q12 -2 23 0t17 -1h190l367 7q5 0 21 -0.5t21 -0.5q10 -1 17 -4t15 -8q11 -8 17 -24.5t8.5 -36.5t3 -39.5t1.5 -32.5q1 -2 1.5 -6.5 t1.5 -6.5q6 -26 4.5 -43t-6.5 -27t-11 -15t-9 -8q-14 -16 -22 -18.5t-28 -2.5q-5 0 -11 0.5t-7 0.5q-16 1 -24 11.5t-11 24t-3 28v25.5q0 9 -0.5 15t-2.5 10.5t-5.5 9t-10.5 10.5q-1 -1 -4 -1t-4 1q-1 0 -7 1.5t-12.5 4t-12 4.5t-6.5 2t-7.5 0.5t-14.5 1t-17 1.5t-14 1h-8 q-5 0 -19 1t-30.5 2.5t-31 3t-18.5 1.5h-4h-4q-1 0 -6 -0.5t-11.5 -1t-11.5 -0.5h-6h-14.5h-24h-24h-14.5q-1 0 -7.5 -2t-8.5 -2q-16 -4 -25 -7t-13.5 -8.5t-6 -15t-1.5 -26.5q0 -5 -0.5 -17t-0.5 -13l-1 -53v-7.5t-0.5 -14.5t-1 -17t-0.5 -14v-10.5t-0.5 -15.5t-0.5 -15.5 v-10.5q1 -7 3 -14t9 -10q32 -2 63.5 -7.5t63.5 -5.5h22q2 13 9.5 27t18 25t24 18t27.5 7q8 0 18 -4t15 -8q28 -23 33 -52t4 -66q-2 -35 -4 -73.5t-16 -70.5q-3 -6 -10 -11t-16.5 -8.5t-19 -5t-16.5 -1.5q-20 0 -29.5 5.5t-14 14.5t-7 22t-7.5 28q-2 4 -4.5 11.5t-3.5 8.5 l-6 2q-2 1 -5 1t-5 1q-5 1 -19 2.5t-17 1.5h-35h-34q-2 0 -9.5 -1.5t-10.5 -2.5q-20 1 -25 -16t-10 -41q-4 -8 -4.5 -21t-0.5 -21v-15t-1 -12q0 -5 0.5 -18t1 -28t0.5 -28v-19q0 -3 0.5 -9.5t1 -14.5t1 -14.5t0.5 -9.5q1 -5 2 -14t1 -11q1 -2 1.5 -12t1.5 -12q0 -1 3.5 -6 t4.5 -7q4 -9 20.5 -14t36.5 -8t39.5 -4.5t28.5 -4.5h13.5t20.5 -0.5t21 -0.5h14h18t22 0.5t19.5 0.5h9.5t7.5 0.5l13 1t12.5 1.5t8 1q14 1 30.5 2.5t33 6t31.5 12t24 19.5q5 8 3.5 16t0.5 16q1 2 2 8t2.5 12.5t2.5 12t2 8.5q1 2 2.5 4.5t2.5 3.5q12 14 24 23.5t31 9.5 q20 0 38 -13q4 -3 11.5 -10.5t8.5 -9.5q1 -1 1.5 -12t1.5 -16q2 -20 2.5 -41t-0.5 -41q-1 -28 -13 -55t-26 -50q-8 -13 -19.5 -17t-25.5 -7q-5 0 -17.5 0.5t-26.5 0.5t-27 -0.5t-18 -0.5q-3 0 -13 -1t-22 -2.5t-22 -3t-13 -1.5h-36q-2 0 -7.5 -0.5t-12.5 -1.5t-13 -1.5 t-7 -0.5h-17q-23 0 -44.5 1t-44.5 2h-7t-14.5 0.5t-16.5 0.5h-13q-56 0 -110 -2t-110 -2h-8q-4 0 -14.5 0.5t-22 1t-22 1.5t-14.5 1zM365 1105q8 11 16 28t15.5 34t13.5 30.5t10 18.5q4 14 18 25t32 3h1q1 0 1.5 0.5t1.5 0.5q8 1 19 -6.5t16 -13.5q3 -5 9 -15.5t8 -12.5 q4 -11 16.5 -36l22.5 -45q5 -8 9.5 -14.5t5.5 -16.5q1 -16 -14.5 -28t-32.5 -14h-8h-2q-1 0 -2 1q-13 9 -22 22.5t-16 28t-11.5 27.5t-8.5 21q-1 -2 -3.5 -8.5t-3.5 -8.5q0 -1 -1.5 -5t-0.5 -5q0 -1 -2.5 -4t-1.5 -4l-6 -15q-8 -16 -12 -26t-8.5 -15t-11.5 -6.5t-19 -1.5 q-16 -2 -27 7t-11 23q-1 10 2 16.5t8 14.5z" />
<glyph unicode="&#xcb;" horiz-adv-x="899" d="M96 4q-14 5 -23.5 10t-16 12t-9 17t-2.5 26q1 19 13 39.5t34 25.5h24q4 0 13.5 1.5t11.5 2.5q4 1 4 5v7v8q0 1 -2 4t-2 4q0 2 0.5 10t0.5 10q-1 2 -2 12.5t-2 12.5q-2 24 -2 48t-4 49q0 9 1 32.5t1.5 50t1 50.5t0.5 33q2 73 4 143.5t8 143.5q5 13 5.5 27.5t0.5 27.5v40 q-2 12 -10 17.5t-17.5 8.5t-20.5 4t-19 3q-24 2 -39 18t-13 41q0 13 6 21.5t14.5 14.5t19 10t20.5 8q5 2 14 5t10 3t5 0.5t9 0.5h10h8q12 -2 23 0t17 -1h190l367 7q5 0 21 -0.5t21 -0.5q10 -1 17 -4t15 -8q11 -8 17 -24.5t8.5 -36.5t3 -39.5t1.5 -32.5q1 -2 1.5 -6.5 t1.5 -6.5q6 -26 4.5 -43t-6.5 -27t-11 -15t-9 -8q-14 -16 -22 -18.5t-28 -2.5q-5 0 -11 0.5t-7 0.5q-16 1 -24 11.5t-11 24t-3 28v25.5q0 9 -0.5 15t-2.5 10.5t-5.5 9t-10.5 10.5q-1 -1 -4 -1t-4 1q-1 0 -7 1.5t-12.5 4t-12 4.5t-6.5 2t-7.5 0.5t-14.5 1t-17 1.5t-14 1h-8 q-5 0 -19 1t-30.5 2.5t-31 3t-18.5 1.5h-4h-4q-1 0 -6 -0.5t-11.5 -1t-11.5 -0.5h-6h-14.5h-24h-24h-14.5q-1 0 -7.5 -2t-8.5 -2q-16 -4 -25 -7t-13.5 -8.5t-6 -15t-1.5 -26.5q0 -5 -0.5 -17t-0.5 -13l-1 -53v-7.5t-0.5 -14.5t-1 -17t-0.5 -14v-10.5t-0.5 -15.5t-0.5 -15.5 v-10.5q1 -7 3 -14t9 -10q32 -2 63.5 -7.5t63.5 -5.5h22q2 13 9.5 27t18 25t24 18t27.5 7q8 0 18 -4t15 -8q28 -23 33 -52t4 -66q-2 -35 -4 -73.5t-16 -70.5q-3 -6 -10 -11t-16.5 -8.5t-19 -5t-16.5 -1.5q-20 0 -29.5 5.5t-14 14.5t-7 22t-7.5 28q-2 4 -4.5 11.5t-3.5 8.5 l-6 2q-2 1 -5 1t-5 1q-5 1 -19 2.5t-17 1.5h-35h-34q-2 0 -9.5 -1.5t-10.5 -2.5q-20 1 -25 -16t-10 -41q-4 -8 -4.5 -21t-0.5 -21v-15t-1 -12q0 -5 0.5 -18t1 -28t0.5 -28v-19q0 -3 0.5 -9.5t1 -14.5t1 -14.5t0.5 -9.5q1 -5 2 -14t1 -11q1 -2 1.5 -12t1.5 -12q0 -1 3.5 -6 t4.5 -7q4 -9 20.5 -14t36.5 -8t39.5 -4.5t28.5 -4.5h13.5t20.5 -0.5t21 -0.5h14h18t22 0.5t19.5 0.5h9.5t7.5 0.5l13 1t12.5 1.5t8 1q14 1 30.5 2.5t33 6t31.5 12t24 19.5q5 8 3.5 16t0.5 16q1 2 2 8t2.5 12.5t2.5 12t2 8.5q1 2 2.5 4.5t2.5 3.5q12 14 24 23.5t31 9.5 q20 0 38 -13q4 -3 11.5 -10.5t8.5 -9.5q1 -1 1.5 -12t1.5 -16q2 -20 2.5 -41t-0.5 -41q-1 -28 -13 -55t-26 -50q-8 -13 -19.5 -17t-25.5 -7q-5 0 -17.5 0.5t-26.5 0.5t-27 -0.5t-18 -0.5q-3 0 -13 -1t-22 -2.5t-22 -3t-13 -1.5h-36q-2 0 -7.5 -0.5t-12.5 -1.5t-13 -1.5 t-7 -0.5h-17q-23 0 -44.5 1t-44.5 2h-7t-14.5 0.5t-16.5 0.5h-13q-56 0 -110 -2t-110 -2h-8q-4 0 -14.5 0.5t-22 1t-22 1.5t-14.5 1zM326 1199q24 0 38 -10.5t27 -27.5q0 -4 3 -4q5 -6 4.5 -9.5t0.5 -11.5q2 -42 -15.5 -65.5t-62.5 -25.5q-6 -1 -15 0.5t-14 4.5q-1 0 -5 2.5 t-8 5.5t-7.5 5.5t-4.5 2.5q-11 17 -13.5 38t4.5 40t24 34t44 21zM586 1199q24 0 38 -10.5t27 -27.5q0 -4 4 -4q4 -6 4 -9.5t1 -11.5q2 -42 -15.5 -65.5t-62.5 -25.5q-6 -1 -15 0.5t-15 4.5q-2 1 -12.5 8t-12.5 8q-11 17 -13 38t5 40t23.5 34t43.5 21z" />
<glyph unicode="&#xcc;" horiz-adv-x="640" d="M25 56q0 19 2 30.5t8 17.5t16 9t25 7h11h22t22 0.5l10 0.5h4q19 0 32.5 -1.5t32.5 -1.5l2 1q1 0 2 1l9 24q0 6 0.5 20t1 30.5t1 30.5t0.5 20q0 1 0.5 5.5t1.5 9t1.5 8.5t0.5 5q2 44 3 87.5t3 86.5q0 5 1 23.5t2.5 39.5t2.5 39.5t1 23.5v71v19t-0.5 24t-0.5 21.5v10.5 q0 3 -1.5 15.5t-2.5 16.5q0 1 -1 8t-1.5 16t-1.5 17t-2 12q-2 7 -2.5 17.5t-2 19.5t-6 15t-14.5 6q-8 0 -21 -1.5t-21 -1.5q-5 0 -12.5 -3t-12.5 2q-21 -2 -44.5 -0.5t-43.5 9.5t-33.5 24t-13.5 42q0 24 17.5 38.5t42.5 22.5t51 11.5t43 3.5q8 1 23.5 0.5t16.5 -0.5t8.5 -1 t12.5 -2q1 0 8.5 0.5t9.5 -0.5h2l121 -5q1 0 7.5 0.5t13 0.5t12.5 0.5t8 0.5h20t30.5 -0.5t30.5 -1t20 -0.5q20 -5 35.5 -7t29.5 -19l5.5 -11t6.5 -14v-1v-3q-1 -4 -2 -18t-2 -18q-11 -14 -28.5 -23t-35.5 -11q-5 -1 -17.5 -2.5t-27 -3.5t-27 -3.5t-17.5 -1.5 q-4 -2 -5.5 -7.5t-2.5 -8.5q0 -3 -0.5 -10t-0.5 -15.5t-0.5 -16t-0.5 -10.5v-6l-2 -79q1 -39 1.5 -77.5t0.5 -76.5q1 -47 -3 -93t-1 -91.5t3 -91.5q0 -3 -0.5 -15.5t-1 -26.5t-1 -27t-0.5 -16v-26v-26q3 -7 11 -11t14 -4h11h8.5h14t14 0.5t8.5 0.5h2q16 0 36.5 -3t38 -11.5 t30 -22.5t12.5 -35q0 -9 -4 -20t-13 -16q-25 -11 -52 -12t-53 -6q-3 -1 -16.5 -2t-28.5 -2t-28 -2t-16 -1h-10q-24 -1 -51 1.5t-52 1.5q-41 -1 -77.5 -3t-77.5 -4h-38.5t-38.5 7q-17 7 -22.5 22.5t-5.5 32.5zM236 1126q-14 13 -23 22.5t-13.5 17.5t-3.5 16t8 19q0 1 8 9 l13 13q12 9 22.5 11t24.5 0q23 -5 43 -15.5t38.5 -23t36 -27t36.5 -27.5q13 -8 21 -16.5t8 -17.5q-3 -17 -11 -29.5t-19 -21.5t-23.5 -13.5t-24.5 -3.5q-13 0 -23 5q-1 0 -5.5 2t-4.5 3q-2 1 -9 5.5t-9 5.5t-6.5 4.5t-10 7.5t-10.5 8t-6 5q-14 9 -30 19.5t-27 21.5z" />
<glyph unicode="&#xcd;" horiz-adv-x="640" d="M25 56q0 19 2 30.5t8 17.5t16 9t25 7h11h22t22 0.5l10 0.5h4q19 0 32.5 -1.5t32.5 -1.5l2 1q1 0 2 1l9 24q0 6 0.5 20t1 30.5t1 30.5t0.5 20q0 1 0.5 5.5t1.5 9t1.5 8.5t0.5 5q2 44 3 87.5t3 86.5q0 5 1 23.5t2.5 39.5t2.5 39.5t1 23.5v71v19t-0.5 24t-0.5 21.5v10.5 q0 3 -1.5 15.5t-2.5 16.5q0 1 -1 8t-1.5 16t-1.5 17t-2 12q-2 7 -2.5 17.5t-2 19.5t-6 15t-14.5 6q-8 0 -21 -1.5t-21 -1.5q-5 0 -12.5 -3t-12.5 2q-21 -2 -44.5 -0.5t-43.5 9.5t-33.5 24t-13.5 42q0 24 17.5 38.5t42.5 22.5t51 11.5t43 3.5q8 1 23.5 0.5t16.5 -0.5t8.5 -1 t12.5 -2q1 0 8.5 0.5t9.5 -0.5h2l121 -5q1 0 7.5 0.5t13 0.5t12.5 0.5t8 0.5h20t30.5 -0.5t30.5 -1t20 -0.5q20 -5 35.5 -7t29.5 -19l5.5 -11t6.5 -14v-1v-3q-1 -4 -2 -18t-2 -18q-11 -14 -28.5 -23t-35.5 -11q-5 -1 -17.5 -2.5t-27 -3.5t-27 -3.5t-17.5 -1.5 q-4 -2 -5.5 -7.5t-2.5 -8.5q0 -3 -0.5 -10t-0.5 -15.5t-0.5 -16t-0.5 -10.5v-6l-2 -79q1 -39 1.5 -77.5t0.5 -76.5q1 -47 -3 -93t-1 -91.5t3 -91.5q0 -3 -0.5 -15.5t-1 -26.5t-1 -27t-0.5 -16v-26v-26q3 -7 11 -11t14 -4h11h8.5h14t14 0.5t8.5 0.5h2q16 0 36.5 -3t38 -11.5 t30 -22.5t12.5 -35q0 -9 -4 -20t-13 -16q-25 -11 -52 -12t-53 -6q-3 -1 -16.5 -2t-28.5 -2t-28 -2t-16 -1h-10q-24 -1 -51 1.5t-52 1.5q-41 -1 -77.5 -3t-77.5 -4h-38.5t-38.5 7q-17 7 -22.5 22.5t-5.5 32.5zM404 1126q-11 -11 -27 -21.5t-30 -19.5q-2 -1 -6.5 -5t-10 -8 t-10.5 -7.5t-6 -4.5q-2 -1 -9 -5.5t-9 -5.5q0 -1 -4.5 -3t-5.5 -2q-10 -5 -23 -5q-12 -1 -24.5 3.5t-23.5 13.5t-19 21.5t-11 29.5q0 9 8 17.5t21 16.5q19 13 36.5 27.5t36 27t38.5 23t43 15.5q14 2 24.5 0t22.5 -11l13 -13t8 -9q7 -11 8 -19t-3.5 -16t-14 -17.5z" />
<glyph unicode="&#xce;" horiz-adv-x="640" d="M25 56q0 19 2 30.5t8 17.5t16 9t25 7h11h22t22 0.5l10 0.5h4q19 0 32.5 -1.5t32.5 -1.5l2 1q1 0 2 1l9 24q0 6 0.5 20t1 30.5t1 30.5t0.5 20q0 1 0.5 5.5t1.5 9t1.5 8.5t0.5 5q2 44 3 87.5t3 86.5q0 5 1 23.5t2.5 39.5t2.5 39.5t1 23.5v71v19t-0.5 24t-0.5 21.5v10.5 q0 3 -1.5 15.5t-2.5 16.5q0 1 -1 8t-1.5 16t-1.5 17t-2 12q-2 7 -2.5 17.5t-2 19.5t-6 15t-14.5 6q-8 0 -21 -1.5t-21 -1.5q-5 0 -12.5 -3t-12.5 2q-21 -2 -44.5 -0.5t-43.5 9.5t-33.5 24t-13.5 42q0 24 17.5 38.5t42.5 22.5t51 11.5t43 3.5q8 1 23.5 0.5t16.5 -0.5t8.5 -1 t12.5 -2q1 0 8.5 0.5t9.5 -0.5h2l121 -5q1 0 7.5 0.5t13 0.5t12.5 0.5t8 0.5h20t30.5 -0.5t30.5 -1t20 -0.5q20 -5 35.5 -7t29.5 -19l5.5 -11t6.5 -14v-1v-3q-1 -4 -2 -18t-2 -18q-11 -14 -28.5 -23t-35.5 -11q-5 -1 -17.5 -2.5t-27 -3.5t-27 -3.5t-17.5 -1.5 q-4 -2 -5.5 -7.5t-2.5 -8.5q0 -3 -0.5 -10t-0.5 -15.5t-0.5 -16t-0.5 -10.5v-6l-2 -79q1 -39 1.5 -77.5t0.5 -76.5q1 -47 -3 -93t-1 -91.5t3 -91.5q0 -3 -0.5 -15.5t-1 -26.5t-1 -27t-0.5 -16v-26v-26q3 -7 11 -11t14 -4h11h8.5h14t14 0.5t8.5 0.5h2q16 0 36.5 -3t38 -11.5 t30 -22.5t12.5 -35q0 -9 -4 -20t-13 -16q-25 -11 -52 -12t-53 -6q-3 -1 -16.5 -2t-28.5 -2t-28 -2t-16 -1h-10q-24 -1 -51 1.5t-52 1.5q-41 -1 -77.5 -3t-77.5 -4h-38.5t-38.5 7q-17 7 -22.5 22.5t-5.5 32.5zM217 1081q8 11 16 28t15.5 34t13.5 30.5t10 18.5q4 14 18 25 t32 3h1q1 0 1.5 0.5t1.5 0.5q8 1 19 -6.5t16 -13.5q3 -5 9 -15.5t8 -12.5q4 -11 16.5 -36l22.5 -45q5 -8 9.5 -14.5t5.5 -16.5q1 -16 -14.5 -28t-32.5 -14h-8h-2q-1 0 -2 1q-13 9 -22 22.5t-16 28t-11.5 27.5t-8.5 21q-1 -2 -3.5 -8.5t-3.5 -8.5q0 -1 -1.5 -5t-0.5 -5 q0 -1 -2.5 -4t-1.5 -4l-6 -15q-8 -16 -12 -26t-8.5 -15t-11.5 -6.5t-19 -1.5q-16 -2 -27 7t-11 23q-1 10 2 16.5t8 14.5z" />
<glyph unicode="&#xcf;" horiz-adv-x="640" d="M25 56q0 19 2 30.5t8 17.5t16 9t25 7h11h22t22 0.5l10 0.5h4q19 0 32.5 -1.5t32.5 -1.5l2 1q1 0 2 1l9 24q0 6 0.5 20t1 30.5t1 30.5t0.5 20q0 1 0.5 5.5t1.5 9t1.5 8.5t0.5 5q2 44 3 87.5t3 86.5q0 5 1 23.5t2.5 39.5t2.5 39.5t1 23.5v71v19t-0.5 24t-0.5 21.5v10.5 q0 3 -1.5 15.5t-2.5 16.5q0 1 -1 8t-1.5 16t-1.5 17t-2 12q-2 7 -2.5 17.5t-2 19.5t-6 15t-14.5 6q-8 0 -21 -1.5t-21 -1.5q-5 0 -12.5 -3t-12.5 2q-21 -2 -44.5 -0.5t-43.5 9.5t-33.5 24t-13.5 42q0 24 17.5 38.5t42.5 22.5t51 11.5t43 3.5q8 1 23.5 0.5t16.5 -0.5t8.5 -1 t12.5 -2q1 0 8.5 0.5t9.5 -0.5h2l121 -5q1 0 7.5 0.5t13 0.5t12.5 0.5t8 0.5h20t30.5 -0.5t30.5 -1t20 -0.5q20 -5 35.5 -7t29.5 -19l5.5 -11t6.5 -14v-1v-3q-1 -4 -2 -18t-2 -18q-11 -14 -28.5 -23t-35.5 -11q-5 -1 -17.5 -2.5t-27 -3.5t-27 -3.5t-17.5 -1.5 q-4 -2 -5.5 -7.5t-2.5 -8.5q0 -3 -0.5 -10t-0.5 -15.5t-0.5 -16t-0.5 -10.5v-6l-2 -79q1 -39 1.5 -77.5t0.5 -76.5q1 -47 -3 -93t-1 -91.5t3 -91.5q0 -3 -0.5 -15.5t-1 -26.5t-1 -27t-0.5 -16v-26v-26q3 -7 11 -11t14 -4h11h8.5h14t14 0.5t8.5 0.5h2q16 0 36.5 -3t38 -11.5 t30 -22.5t12.5 -35q0 -9 -4 -20t-13 -16q-25 -11 -52 -12t-53 -6q-3 -1 -16.5 -2t-28.5 -2t-28 -2t-16 -1h-10q-24 -1 -51 1.5t-52 1.5q-41 -1 -77.5 -3t-77.5 -4h-38.5t-38.5 7q-17 7 -22.5 22.5t-5.5 32.5zM196 1199q24 0 38 -10.5t27 -27.5q0 -4 3 -4q5 -6 4.5 -9.5 t0.5 -11.5q2 -42 -15.5 -65.5t-62.5 -25.5q-6 -1 -15 0.5t-14 4.5q-1 0 -5 2.5t-8 5.5t-7.5 5.5t-4.5 2.5q-11 17 -13.5 38t4.5 40t24 34t44 21zM456 1199q24 0 38 -10.5t27 -27.5q0 -4 4 -4q4 -6 4 -9.5t1 -11.5q2 -42 -15.5 -65.5t-62.5 -25.5q-6 -1 -15 0.5t-15 4.5 q-2 1 -12.5 8t-12.5 8q-11 17 -13 38t5 40t23.5 34t43.5 21z" />
<glyph unicode="&#xd0;" horiz-adv-x="965" d="M183 17q-2 0 -8.5 -0.5t-14 -1t-14 -1t-7.5 -0.5q-15 0 -33 3t-32 10q-17 10 -22.5 24t-5.5 34q1 23 17.5 36t35.5 20q2 -1 12 0.5t12 2.5q2 0 6.5 1.5t6.5 2.5v10t0.5 15t0.5 15v10q0 39 -2.5 70t-2.5 70q0 6 0.5 16.5t0.5 20.5t0.5 17.5t0.5 8.5q0 2 0.5 9t1.5 15t2 15 t1 9q-1 1 -1 2v2q0 4 -1.5 7t-2.5 8h-5q-5 0 -12.5 -3t-12.5 2q-29 2 -51.5 1.5t-38 4.5t-23.5 20t-7 49q-6 33 5.5 48.5t32 20t44 3.5t40.5 -1h29v23v4q1 25 2.5 48.5t2.5 47.5q0 24 -1 49t-8 49q-8 27 -17.5 38.5t-20.5 16t-25 7.5t-30 14q-8 4 -12.5 14t-5 21.5t2.5 23 t11 18.5q11 11 27.5 14t30.5 4q1 1 13.5 0t23.5 0h1h1q3 0 10 -0.5t9 -1.5h10t15 -0.5t15 -0.5h10q67 -2 133 3t132 3h11.5h14.5t12.5 -0.5t6.5 -0.5q3 0 15.5 -1.5t26.5 -3t27 -3.5t16 -2h8q29 -9 53 -20t45.5 -24.5t42 -29.5t44.5 -36q4 0 4 -4q2 -2 6.5 -8.5t6.5 -8.5 q1 -2 6 -8.5t11 -14t11.5 -14t6.5 -8.5q3 -4 8 -13.5t10 -20t9 -20t5 -12.5q1 -2 5 -11t9 -21t9 -25t6 -22q0 -3 4 -15l5 -15q0 -2 0.5 -8.5t1.5 -14.5t2 -15t1 -8t0.5 -7t1.5 -13t1.5 -13t0.5 -7q1 -21 1 -39.5t-1 -40.5v-2q0 -26 -2.5 -57t-6 -58t-7 -46t-4.5 -20 q-4 -21 -9 -35t-13 -33q-3 -10 -6.5 -20.5t-9.5 -18.5q-6 -9 -14 -19t-15.5 -19t-13.5 -15.5t-8 -7.5q-6 -9 -16.5 -19t-22 -19t-23.5 -17t-21 -12q-36 -18 -70 -31.5t-73 -19.5q-2 0 -9 -0.5t-15.5 -0.5t-15.5 -0.5t-9 -0.5q-33 -4 -65 -8t-66 -3q-5 0 -14.5 0.5t-11.5 0.5 q-7 0 -35 2.5t-60.5 5.5t-60.5 6t-35 4h-4zM309 152q2 -2 1.5 -5t1.5 -5q3 -4 13 -7t22 -5t24 -3.5t20 -1.5q16 0 32 1.5t32 5.5q9 3 27.5 7t38 8.5t35.5 8.5t21 5q2 0 10 3.5t11 5.5q6 2 17.5 7.5t23.5 11t22.5 10t13.5 5.5q9 5 17.5 13t15.5 15q13 16 23.5 26.5t19.5 29.5 q1 1 3 7.5l4 13t4 12.5t3 8q20 45 29 93t9 97v15q0 3 -2 14t-4 24.5t-4 25t-3 14.5q-3 26 -6.5 50.5t-20.5 47.5q-11 18 -23 34t-27 31t-33.5 30t-43.5 30q-3 2 -12 6.5t-19.5 10t-19 10t-11.5 6.5q-1 0 -8.5 3t-11.5 5q-2 1 -7 3t-6 2h-12q-19 4 -37 7t-38 3 q-31 1 -60 -2.5t-59 -11.5q-2 -1 -3.5 -1t-3.5 -1q-3 -1 -5 -1q-4 -3 -12.5 -10t-11.5 -10v-24q1 -23 -0.5 -47t3.5 -47q1 -1 1 -9.5v-9.5q0 -2 1 -12.5t1 -12.5q0 -3 0.5 -13t1.5 -22.5t1.5 -26t0.5 -22.5l12 1h20t30.5 -0.5t30.5 -1t20 -0.5q20 -5 36 -5t30 -17 q1 -2 3.5 -17t4.5 -20v-4q-1 -4 -2 -18t-2 -18q-2 -16 -8 -22.5t-14 -8t-17.5 -0.5t-18.5 0q-5 -1 -18 -2t-28 -1.5t-28 -1.5t-18 -1l-31 -2q-1 -54 -1 -109t2 -113q1 -5 0 -18.5t-1.5 -28.5t-1.5 -28.5t0 -19.5z" />
<glyph unicode="&#xd1;" horiz-adv-x="1051" d="M78 69q2 3 8 15.5t9 16.5q12 19 34.5 23.5t42.5 9.5l3 178q-1 2 0 11.5t1 12.5q-3 33 -2.5 66.5t-1.5 67.5q0 1 -1 7.5t-1.5 14t-1.5 14t-1 8.5v35q0 48 2.5 95.5t2.5 95.5q1 8 1 17t-0.5 22t-0.5 31v44l-5 8q0 1 -15.5 3.5t-24.5 4.5q-26 5 -41.5 19t-31.5 34 q-2 2 -4.5 6.5t-3.5 5.5v2q0 11 6.5 17.5l13.5 13.5q20 17 46 24.5t52 7.5q20 0 43 -1t41 -3q2 0 10.5 -2t10.5 -2h4h4q1 0 4 2t4 2t6 -2t6 -2q17 -5 31 -8t30 -12q11 -7 18.5 -18.5t13.5 -22.5q3 -4 7 -11t7.5 -14t6.5 -12.5t3 -6.5q1 -2 2 -6.5t2.5 -10t2.5 -10.5t2 -6 q0 -2 5 -12t7 -12q6 -13 10.5 -26t9.5 -27q1 -2 5.5 -11.5t6.5 -12.5q1 -1 4 -6t4 -6q3 -6 10 -19.5t15 -29t14.5 -29.5t9.5 -19l20 -49q1 -1 4 -6t4 -6q1 -3 6.5 -13t12 -21.5t11.5 -21.5t7 -13q0 -1 2.5 -9.5t4.5 -10.5q1 -2 5.5 -9.5t9.5 -16t9.5 -16t5.5 -9.5t4 -6.5 t6.5 -10t6.5 -9.5t4 -5q1 -2 5 -7.5t8 -12.5t8 -12.5t5 -6.5q6 -9 14.5 -23t17.5 -29t17.5 -29t14.5 -23l4 -4l2 -1q1 -3 1.5 8.5t0 30.5t-1.5 44t-2 49t-1.5 45.5t-0.5 33.5v22.5t-0.5 27t-0.5 23.5v11q0 3 -0.5 9t-1 13t-1.5 13.5t-1 8.5v219q0 1 -0.5 5.5t-1 9.5t-1.5 10 t-1 7t-1.5 6.5t-2.5 5.5q-1 0 -4.5 0.5t-5.5 0.5q-13 0 -25 -2.5t-26 -2.5q-34 0 -55.5 18.5t-21.5 53.5q0 20 12 36.5t29 25.5q26 14 57 15.5t60 4.5q2 1 13.5 1h13.5h4q37 2 72.5 1t83.5 -7q27 1 41.5 -5t22 -17t8.5 -25.5t1 -29.5q0 -8 -4 -14.5t-9 -13.5t-14 -11.5 t-18 -4.5h-12.5h-20.5h-20.5h-12.5q-11 0 -14 -2.5t-3 -6.5t1 -11t0 -16v-9.5t-0.5 -14.5t-0.5 -14.5v-9.5v-12.5t0.5 -15.5t0.5 -14v-7v-17v-29.5t0.5 -29.5t0.5 -17v-13.5v-23v-23v-13.5q0 -11 -0.5 -36t-1 -52t-0.5 -51t1 -33q1 -6 1 -25t0.5 -41t1 -42t1.5 -29l5 -59v-8 q0 -2 0.5 -10t1.5 -17t1 -17v-10q-2 -27 -1 -53t-8 -52q2 -14 -18 -25t-49 -13h-37.5t-35.5 7q-26 11 -42 32.5t-36 43.5q-2 2 -7 10.5t-12 18.5t-13.5 19.5t-9.5 14.5l-16 24q-14 24 -27 44t-24 45q-8 19 -19.5 41.5t-20.5 41.5q-2 3 -6 12t-8.5 19t-9 18.5t-5.5 11.5 q-1 2 -4 10t-4 10q-2 3 -9.5 15t-8.5 15q-1 1 -5 9.5t-4 9.5q-6 26 -19.5 54.5t-23.5 52.5q0 1 -1.5 4.5t-4 7.5t-4.5 7.5t-2 4.5q-1 2 -7.5 14.5t-7.5 14.5q2 3 -6.5 20.5t-24.5 43.5q-5 7 -10 16t-13 15q-5 -1 -4.5 -6.5t0.5 -7.5q0 -11 -1 -18.5t1 -20.5l4 -117l2 -211 l-1 -149q0 -8 0.5 -19t2 -22.5t5 -21.5t10.5 -14q1 -1 4 -0.5t4 0.5q14 -1 33.5 -6.5t37 -14.5t29 -19.5t10.5 -20.5q0 -1 -0.5 -1t-0.5 -1v-2q-1 -2 -5.5 -11.5t-6.5 -12.5q-7 -14 -21 -21t-30 -11t-32.5 -5.5t-29.5 -3.5q-33 -5 -63.5 -6.5t-64.5 -1.5h-67q-25 4 -45 17 t-20 41v11zM389 1099q-22 -5 -36.5 -13t-37.5 -28q-2 -1 -7.5 -3t-11.5 -3.5t-11 -3t-8 -1.5h-2q-2 1 -8 5q-3 2 -6 3q-2 1 -6 5l-9 9l-9.5 9.5l-6.5 6.5q0 1 -1 3q-2 2 -2 4q-2 5 -5 13t-3 9q-5 10 -2.5 22.5t17.5 29.5q15 15 27 25.5t24.5 18t27 13.5t33.5 12q10 2 21 2.5 t22 0.5q31 -1 56.5 -14.5t50 -29.5t50.5 -30.5t58 -16.5q6 0 12.5 3.5t9.5 8.5q4 4 14 18t13 19q3 3 6 3.5t7 0.5q5 2 19.5 -1t30 -10t27.5 -16t13 -18q0 -12 -8 -21t-8 -21q-9 -21 -24.5 -38.5t-33.5 -29t-36.5 -17t-33.5 -3.5q-34 0 -62.5 11t-55 24.5t-52 25t-53.5 13.5z " />
<glyph unicode="&#xd2;" d="M42 551q0 1 0.5 5.5t1 9.5t1.5 10t1 7q5 31 10 61.5t18 59.5q2 2 6.5 12.5t6.5 12.5q0 2 3 10t5 10q1 1 4.5 7t7.5 13t7.5 12.5t4.5 7.5t2.5 6.5t1.5 6.5q3 5 11.5 17.5t18.5 26.5t18.5 27t12.5 18q1 2 7.5 9.5t8.5 10.5q1 2 4 4.5t4 3.5t6.5 5t13 9t14.5 10t11 8 q18 14 39 21t41 16q34 7 57 11.5t39 7t27.5 3t23.5 -0.5q5 0 13.5 -0.5t10.5 -0.5q1 0 7.5 -0.5t14 -1.5t14 -1.5t8.5 -0.5h16q2 0 10.5 -3.5t10.5 -4.5q1 0 6 -1.5t10 -2.5t10 -2.5t6 -1.5l8 -4q7 -4 18 -10t21.5 -12t18 -10.5l7.5 -4.5q1 -1 7.5 -6.5t15 -12.5t16.5 -14 t13 -11q50 -44 76.5 -98t45.5 -117q11 -36 14.5 -64.5t3.5 -66.5v-99.5t-16 -100.5q-8 -40 -15 -69t-15 -52.5t-17.5 -42.5t-20.5 -40q-61 -80 -141 -115t-165 -37q-51 0 -92 9t-88 30q-2 1 -8.5 4t-14 6.5t-14 6.5t-7.5 4q-26 14 -50.5 36t-45.5 47.5t-38.5 53.5t-30.5 54 q-1 1 -3.5 7t-5 13t-5 12.5t-2.5 7.5q-11 24 -13 44.5t-12 44.5l-2 4l-2 4q0 1 0.5 6t-0.5 6q0 1 -1 6t-2.5 10l-3 10t-1.5 6v12q0 1 -0.5 7.5t-1.5 13t-1.5 12.5t-0.5 8q0 6 -1 16.5t-1.5 20.5t-1 18t-0.5 10zM217 477q0 -27 6 -57t17 -56q1 -1 4.5 -7.5t3.5 -8.5 q1 -1 2 -6t2.5 -10l3 -10t1.5 -6q0 -2 1.5 -6t2.5 -6q36 -96 121 -150q18 -11 37 -18t40 -7q22 0 47 6t49 16t46 22.5t40 24.5q22 16 37 41t25 48q1 2 2.5 8.5t1.5 8.5q1 1 4.5 7.5t3.5 8.5q5 16 7 33t2 34q0 5 1.5 17t-0.5 19q-1 3 -0.5 8.5t1 12t1 12.5t0.5 9 q-4 47 -12.5 91.5t-20.5 90.5q-1 2 -2.5 6t-1.5 6q-1 1 -4.5 7.5t-3.5 8.5q-3 18 -17.5 44.5t-39.5 74.5q-2 2 -8 8.5t-13 13.5t-14 13t-10 9q-7 6 -15.5 8.5t-16.5 7.5q-2 2 -6.5 5t-5.5 3q-21 8 -45 14.5t-47 6.5h-1q-14 -7 -24.5 -11.5t-24.5 -9.5q-1 0 -8 -1.5t-8 -2.5 q-30 -18 -56.5 -43.5t-41.5 -57.5q-13 -27 -28 -55.5t-20 -57.5q0 -1 0.5 -6t-0.5 -6q0 -2 -1.5 -10t-4 -17t-4.5 -16.5t-2 -9.5t0.5 -12t-0.5 -12q0 -2 -0.5 -10.5t-1 -18t-1 -18t-0.5 -10.5v-21zM374 1126q-14 13 -23 22.5t-13.5 17.5t-3.5 16t8 19q0 1 8 9l13 13 q12 9 22.5 11t24.5 0q23 -5 43 -15.5t38.5 -23t36 -27t36.5 -27.5q13 -8 21 -16.5t8 -17.5q-3 -17 -11 -29.5t-19 -21.5t-23.5 -13.5t-24.5 -3.5q-13 0 -23 5q-1 0 -5.5 2t-4.5 3q-2 1 -9 5.5t-9 5.5t-6.5 4.5t-10 7.5t-10.5 8t-6 5q-14 9 -30 19.5t-27 21.5z" />
<glyph unicode="&#xd3;" d="M42 551q0 1 0.5 5.5t1 9.5t1.5 10t1 7q5 31 10 61.5t18 59.5q2 2 6.5 12.5t6.5 12.5q0 2 3 10t5 10q1 1 4.5 7t7.5 13t7.5 12.5t4.5 7.5t2.5 6.5t1.5 6.5q3 5 11.5 17.5t18.5 26.5t18.5 27t12.5 18q1 2 7.5 9.5t8.5 10.5q1 2 4 4.5t4 3.5t6.5 5t13 9t14.5 10t11 8 q18 14 39 21t41 16q34 7 57 11.5t39 7t27.5 3t23.5 -0.5q5 0 13.5 -0.5t10.5 -0.5q1 0 7.5 -0.5t14 -1.5t14 -1.5t8.5 -0.5h16q2 0 10.5 -3.5t10.5 -4.5q1 0 6 -1.5t10 -2.5t10 -2.5t6 -1.5l8 -4q7 -4 18 -10t21.5 -12t18 -10.5l7.5 -4.5q1 -1 7.5 -6.5t15 -12.5t16.5 -14 t13 -11q50 -44 76.5 -98t45.5 -117q11 -36 14.5 -64.5t3.5 -66.5v-99.5t-16 -100.5q-8 -40 -15 -69t-15 -52.5t-17.5 -42.5t-20.5 -40q-61 -80 -141 -115t-165 -37q-51 0 -92 9t-88 30q-2 1 -8.5 4t-14 6.5t-14 6.5t-7.5 4q-26 14 -50.5 36t-45.5 47.5t-38.5 53.5t-30.5 54 q-1 1 -3.5 7t-5 13t-5 12.5t-2.5 7.5q-11 24 -13 44.5t-12 44.5l-2 4l-2 4q0 1 0.5 6t-0.5 6q0 1 -1 6t-2.5 10l-3 10t-1.5 6v12q0 1 -0.5 7.5t-1.5 13t-1.5 12.5t-0.5 8q0 6 -1 16.5t-1.5 20.5t-1 18t-0.5 10zM217 477q0 -27 6 -57t17 -56q1 -1 4.5 -7.5t3.5 -8.5 q1 -1 2 -6t2.5 -10l3 -10t1.5 -6q0 -2 1.5 -6t2.5 -6q36 -96 121 -150q18 -11 37 -18t40 -7q22 0 47 6t49 16t46 22.5t40 24.5q22 16 37 41t25 48q1 2 2.5 8.5t1.5 8.5q1 1 4.5 7.5t3.5 8.5q5 16 7 33t2 34q0 5 1.5 17t-0.5 19q-1 3 -0.5 8.5t1 12t1 12.5t0.5 9 q-4 47 -12.5 91.5t-20.5 90.5q-1 2 -2.5 6t-1.5 6q-1 1 -4.5 7.5t-3.5 8.5q-3 18 -17.5 44.5t-39.5 74.5q-2 2 -8 8.5t-13 13.5t-14 13t-10 9q-7 6 -15.5 8.5t-16.5 7.5q-2 2 -6.5 5t-5.5 3q-21 8 -45 14.5t-47 6.5h-1q-14 -7 -24.5 -11.5t-24.5 -9.5q-1 0 -8 -1.5t-8 -2.5 q-30 -18 -56.5 -43.5t-41.5 -57.5q-13 -27 -28 -55.5t-20 -57.5q0 -1 0.5 -6t-0.5 -6q0 -2 -1.5 -10t-4 -17t-4.5 -16.5t-2 -9.5t0.5 -12t-0.5 -12q0 -2 -0.5 -10.5t-1 -18t-1 -18t-0.5 -10.5v-21zM542 1126q-11 -11 -27 -21.5t-30 -19.5q-2 -1 -6.5 -5t-10 -8t-10.5 -7.5 t-6 -4.5q-2 -1 -9 -5.5t-9 -5.5q0 -1 -4.5 -3t-5.5 -2q-10 -5 -23 -5q-12 -1 -24.5 3.5t-23.5 13.5t-19 21.5t-11 29.5q0 9 8 17.5t21 16.5q19 13 36.5 27.5t36 27t38.5 23t43 15.5q14 2 24.5 0t22.5 -11l13 -13t8 -9q7 -11 8 -19t-3.5 -16t-14 -17.5z" />
<glyph unicode="&#xd4;" d="M42 551q0 1 0.5 5.5t1 9.5t1.5 10t1 7q5 31 10 61.5t18 59.5q2 2 6.5 12.5t6.5 12.5q0 2 3 10t5 10q1 1 4.5 7t7.5 13t7.5 12.5t4.5 7.5t2.5 6.5t1.5 6.5q3 5 11.5 17.5t18.5 26.5t18.5 27t12.5 18q1 2 7.5 9.5t8.5 10.5q1 2 4 4.5t4 3.5t6.5 5t13 9t14.5 10t11 8 q18 14 39 21t41 16q34 7 57 11.5t39 7t27.5 3t23.5 -0.5q5 0 13.5 -0.5t10.5 -0.5q1 0 7.5 -0.5t14 -1.5t14 -1.5t8.5 -0.5h16q2 0 10.5 -3.5t10.5 -4.5q1 0 6 -1.5t10 -2.5t10 -2.5t6 -1.5l8 -4q7 -4 18 -10t21.5 -12t18 -10.5l7.5 -4.5q1 -1 7.5 -6.5t15 -12.5t16.5 -14 t13 -11q50 -44 76.5 -98t45.5 -117q11 -36 14.5 -64.5t3.5 -66.5v-99.5t-16 -100.5q-8 -40 -15 -69t-15 -52.5t-17.5 -42.5t-20.5 -40q-61 -80 -141 -115t-165 -37q-51 0 -92 9t-88 30q-2 1 -8.5 4t-14 6.5t-14 6.5t-7.5 4q-26 14 -50.5 36t-45.5 47.5t-38.5 53.5t-30.5 54 q-1 1 -3.5 7t-5 13t-5 12.5t-2.5 7.5q-11 24 -13 44.5t-12 44.5l-2 4l-2 4q0 1 0.5 6t-0.5 6q0 1 -1 6t-2.5 10l-3 10t-1.5 6v12q0 1 -0.5 7.5t-1.5 13t-1.5 12.5t-0.5 8q0 6 -1 16.5t-1.5 20.5t-1 18t-0.5 10zM217 477q0 -27 6 -57t17 -56q1 -1 4.5 -7.5t3.5 -8.5 q1 -1 2 -6t2.5 -10l3 -10t1.5 -6q0 -2 1.5 -6t2.5 -6q36 -96 121 -150q18 -11 37 -18t40 -7q22 0 47 6t49 16t46 22.5t40 24.5q22 16 37 41t25 48q1 2 2.5 8.5t1.5 8.5q1 1 4.5 7.5t3.5 8.5q5 16 7 33t2 34q0 5 1.5 17t-0.5 19q-1 3 -0.5 8.5t1 12t1 12.5t0.5 9 q-4 47 -12.5 91.5t-20.5 90.5q-1 2 -2.5 6t-1.5 6q-1 1 -4.5 7.5t-3.5 8.5q-3 18 -17.5 44.5t-39.5 74.5q-2 2 -8 8.5t-13 13.5t-14 13t-10 9q-7 6 -15.5 8.5t-16.5 7.5q-2 2 -6.5 5t-5.5 3q-21 8 -45 14.5t-47 6.5h-1q-14 -7 -24.5 -11.5t-24.5 -9.5q-1 0 -8 -1.5t-8 -2.5 q-30 -18 -56.5 -43.5t-41.5 -57.5q-13 -27 -28 -55.5t-20 -57.5q0 -1 0.5 -6t-0.5 -6q0 -2 -1.5 -10t-4 -17t-4.5 -16.5t-2 -9.5t0.5 -12t-0.5 -12q0 -2 -0.5 -10.5t-1 -18t-1 -18t-0.5 -10.5v-21zM355 1081q8 11 16 28t15.5 34t13.5 30.5t10 18.5q4 14 18 25t32 3h1 q1 0 1.5 0.5t1.5 0.5q8 1 19 -6.5t16 -13.5q3 -5 9 -15.5t8 -12.5q4 -11 16.5 -36l22.5 -45q5 -8 9.5 -14.5t5.5 -16.5q1 -16 -14.5 -28t-32.5 -14h-8h-2q-1 0 -2 1q-13 9 -22 22.5t-16 28t-11.5 27.5t-8.5 21q-1 -2 -3.5 -8.5t-3.5 -8.5q0 -1 -1.5 -5t-0.5 -5q0 -1 -2.5 -4 t-1.5 -4l-6 -15q-8 -16 -12 -26t-8.5 -15t-11.5 -6.5t-19 -1.5q-16 -2 -27 7t-11 23q-1 10 2 16.5t8 14.5z" />
</font>
</defs>
</svg>
